%TF.GenerationSoftware,KiCad,Pcbnew,(6.0.4-0)*%
%TF.CreationDate,2022-08-06T12:57:23-04:00*%
%TF.ProjectId,QuarkCncStepperDrivers,51756172-6b43-46e6-9353-746570706572,rev?*%
%TF.SameCoordinates,Original*%
%TF.FileFunction,Copper,L3,Inr*%
%TF.FilePolarity,Positive*%
%FSLAX46Y46*%
G04 Gerber Fmt 4.6, Leading zero omitted, Abs format (unit mm)*
G04 Created by KiCad (PCBNEW (6.0.4-0)) date 2022-08-06 12:57:23*
%MOMM*%
%LPD*%
G01*
G04 APERTURE LIST*
%TA.AperFunction,ComponentPad*%
%ADD10R,1.524000X1.524000*%
%TD*%
%TA.AperFunction,ComponentPad*%
%ADD11C,1.524000*%
%TD*%
%TA.AperFunction,ComponentPad*%
%ADD12C,1.498600*%
%TD*%
%TA.AperFunction,ComponentPad*%
%ADD13C,0.500000*%
%TD*%
%TA.AperFunction,ViaPad*%
%ADD14C,0.800000*%
%TD*%
%TA.AperFunction,Conductor*%
%ADD15C,0.512000*%
%TD*%
%TA.AperFunction,Conductor*%
%ADD16C,1.000000*%
%TD*%
G04 APERTURE END LIST*
D10*
%TO.N,/STEPPER_SCK*%
%TO.C,J1*%
X134620000Y-104775000D03*
D11*
%TO.N,/STEPPER_MOSI*%
X132080000Y-104775000D03*
%TO.N,/STEPPER_MISO*%
X129540000Y-104775000D03*
%TO.N,/STEPPER_X_CSn*%
X127000000Y-104775000D03*
%TO.N,/STEPPER_X_STEP*%
X124460000Y-104775000D03*
%TO.N,/STEPPER_X_DIR*%
X121920000Y-104775000D03*
%TO.N,/STEPPER_X_ENn*%
X119380000Y-104775000D03*
%TO.N,+3V3*%
X116840000Y-104775000D03*
%TO.N,+12V*%
X114300000Y-104775000D03*
%TO.N,GND*%
X111760000Y-104775000D03*
%TO.N,VCC*%
X109220000Y-104775000D03*
%TO.N,GND*%
X106680000Y-104775000D03*
%TO.N,VCC*%
X104140000Y-104775000D03*
%TO.N,GND*%
X101600000Y-104775000D03*
%TD*%
%TO.N,/STEPPER_COIL_A2*%
%TO.C,J2*%
X101610000Y-144145000D03*
X104150000Y-144145000D03*
X106690000Y-144145000D03*
%TO.N,/STEPPER_COIL_A1*%
X109230000Y-144145000D03*
X111770000Y-144145000D03*
X114310000Y-144145000D03*
%TO.N,/STEPPER_COIL_B2*%
X116850000Y-144145000D03*
X119390000Y-144145000D03*
X121930000Y-144145000D03*
%TO.N,/STEPPER_COIL_B1*%
X124470000Y-144145000D03*
X127010000Y-144145000D03*
X129550000Y-144145000D03*
%TO.N,/STEPPER_DIAG1*%
X132090000Y-144145000D03*
D12*
%TO.N,/STEPPER_DIAG2*%
X134630000Y-144145000D03*
%TD*%
D13*
%TO.N,GND*%
%TO.C,U1*%
X117597246Y-112125000D03*
X116472246Y-115500000D03*
X118722246Y-114375000D03*
X116472246Y-112125000D03*
X116472246Y-116625000D03*
X119847246Y-112125000D03*
X115347246Y-115500000D03*
X115347246Y-113250000D03*
X115347246Y-116625000D03*
X115347246Y-112125000D03*
X118722246Y-115500000D03*
X115347246Y-114375000D03*
X116472246Y-113250000D03*
X117597246Y-113250000D03*
X118722246Y-112125000D03*
X117597246Y-114375000D03*
X119847246Y-115500000D03*
X119847246Y-113250000D03*
X117597246Y-115500000D03*
X118722246Y-116625000D03*
X119847246Y-116625000D03*
X116472246Y-114375000D03*
X118722246Y-113250000D03*
X117597246Y-116625000D03*
X119847246Y-114375000D03*
%TD*%
D14*
%TO.N,+3V3*%
X124104400Y-106095800D03*
%TO.N,GND*%
X107950000Y-119761000D03*
X127464500Y-117932200D03*
X121666000Y-121576500D03*
X117652800Y-107749400D03*
X129463800Y-114604800D03*
X121756070Y-111617226D03*
X134011489Y-132460000D03*
X118745000Y-139065000D03*
X109905800Y-115911958D03*
X125730000Y-123571000D03*
X110490000Y-119507000D03*
X105156000Y-119761000D03*
X120020000Y-137360000D03*
X129286000Y-121539000D03*
X126746000Y-121539000D03*
X103886000Y-121793000D03*
X124206000Y-121539000D03*
X122377200Y-123723400D03*
X132649500Y-126381426D03*
X108712000Y-121793000D03*
X108204000Y-112471200D03*
X106172000Y-121793000D03*
X101473000Y-140843000D03*
X122428000Y-125603000D03*
X115951000Y-140081000D03*
X113284000Y-119253000D03*
X124739400Y-115973500D03*
X102870000Y-135890000D03*
X108915200Y-108635800D03*
X102870000Y-119761000D03*
X104430000Y-124405000D03*
X102144500Y-131047701D03*
%TO.N,VCC*%
X133604000Y-141351000D03*
X106183593Y-113789951D03*
X107315000Y-141605000D03*
X124206000Y-142240000D03*
X109601000Y-141478000D03*
X108077000Y-139954000D03*
X103505000Y-141732000D03*
X113792000Y-140716000D03*
X131800600Y-117271800D03*
X132461000Y-142240000D03*
X110247144Y-114972549D03*
X119126000Y-141859000D03*
X117094000Y-141732000D03*
X127127000Y-142240000D03*
%TO.N,/STEPPER_COIL_B2*%
X126620000Y-138660000D03*
X126520000Y-131660000D03*
X125620000Y-131660000D03*
X123520000Y-138660000D03*
X122320000Y-137760000D03*
X124620000Y-138660000D03*
X125620000Y-138660000D03*
X126620000Y-137760000D03*
X122720000Y-130760000D03*
X125620000Y-137760000D03*
X123520000Y-137760000D03*
X124620000Y-137760000D03*
X124020000Y-130760000D03*
X122320000Y-138660000D03*
X121220000Y-137760000D03*
X124620000Y-131660000D03*
X126120000Y-130760000D03*
X125120000Y-130760000D03*
X123320000Y-131560000D03*
%TO.N,/STEPPER_COIL_B1*%
X129597246Y-130700000D03*
X130597246Y-130800000D03*
X133697246Y-130600000D03*
X132497246Y-131700000D03*
X129597246Y-131700000D03*
X131597246Y-138000000D03*
X131697246Y-130800000D03*
X129397246Y-137200000D03*
X130397246Y-138000000D03*
X131597246Y-131700000D03*
X132297246Y-137200000D03*
X132697246Y-130800000D03*
X130597246Y-131700000D03*
X130997246Y-137200000D03*
%TO.N,/STEPPER_COIL_A2*%
X108520000Y-134760000D03*
X105320000Y-127860000D03*
X107620000Y-128760000D03*
X106020000Y-135660000D03*
X108520000Y-128760000D03*
X107020000Y-135660000D03*
X106220000Y-127860000D03*
X106520000Y-134760000D03*
X109520000Y-134660000D03*
X108020000Y-135660000D03*
X106720000Y-128760000D03*
X109120000Y-127860000D03*
X109020000Y-135660000D03*
X108020000Y-127860000D03*
X107520000Y-134760000D03*
X105820000Y-128760000D03*
X107120000Y-127860000D03*
%TO.N,/STEPPER_COIL_A1*%
X116020000Y-131860000D03*
X112620000Y-134360000D03*
X111920000Y-127860000D03*
X112320000Y-128760000D03*
X116220000Y-133460000D03*
X114320000Y-128760000D03*
X113120000Y-135160000D03*
X114620000Y-134360000D03*
X113820000Y-127960000D03*
X114720000Y-127860000D03*
X115220000Y-128760000D03*
X115620000Y-134360000D03*
X114120000Y-135160000D03*
X113620000Y-134360000D03*
X112920000Y-127960000D03*
X113320000Y-128760000D03*
X115120000Y-135260000D03*
%TO.N,/STEPPER DRIVER X/hbridge_A2/hbridge_low_side*%
X134289800Y-114122200D03*
X131089400Y-124206000D03*
%TO.N,/STEPPER DRIVER X/hbridge_A3/hbridge_low_side*%
X134289800Y-113080800D03*
X113930000Y-121505000D03*
%TO.N,/STEPPER_X_CSn*%
X124067757Y-109294023D03*
X127254000Y-106959400D03*
%TO.N,/STEPPER_DIAG2*%
X110744000Y-107264200D03*
X120167400Y-106375200D03*
%TO.N,/STEPPER_DIAG1*%
X112801400Y-109169200D03*
%TO.N,/STEPPER_X_ENn*%
X117952348Y-105941980D03*
X115697000Y-105918000D03*
%TO.N,/STEPPER DRIVER X/5VOUT*%
X124029288Y-113543848D03*
X107924600Y-110998000D03*
X113919000Y-109220000D03*
%TO.N,+12V*%
X128473200Y-116255800D03*
X131165600Y-114554000D03*
%TD*%
D15*
%TO.N,/STEPPER DRIVER X/5VOUT*%
X115255510Y-110556510D02*
X121905214Y-110556510D01*
X124029288Y-112680584D02*
X124029288Y-113543848D01*
X113919000Y-109220000D02*
X115255510Y-110556510D01*
X121905214Y-110556510D02*
X124029288Y-112680584D01*
D16*
%TO.N,+12V*%
X128066800Y-115366800D02*
X128066800Y-116255800D01*
X128066800Y-116255800D02*
X129463800Y-116255800D01*
X122250200Y-109550200D02*
X128066800Y-115366800D01*
X114300000Y-104775000D02*
X114300000Y-106075930D01*
X114300000Y-106075930D02*
X117774270Y-109550200D01*
X117774270Y-109550200D02*
X122250200Y-109550200D01*
X128066800Y-116255800D02*
X128473200Y-116255800D01*
X129463800Y-116255800D02*
X131165600Y-114554000D01*
%TD*%
%TA.AperFunction,Conductor*%
%TO.N,VCC*%
G36*
X105503592Y-104033502D02*
G01*
X105550085Y-104087158D01*
X105560189Y-104157432D01*
X105549666Y-104192750D01*
X105481560Y-104338804D01*
X105424022Y-104553537D01*
X105404647Y-104775000D01*
X105424022Y-104996463D01*
X105481560Y-105211196D01*
X105483882Y-105216177D01*
X105483883Y-105216178D01*
X105573186Y-105407689D01*
X105573189Y-105407694D01*
X105575512Y-105412676D01*
X105578667Y-105417182D01*
X105578669Y-105417185D01*
X105699318Y-105589489D01*
X105703023Y-105594781D01*
X105860219Y-105751977D01*
X105864727Y-105755134D01*
X105864730Y-105755136D01*
X105918500Y-105792786D01*
X106042323Y-105879488D01*
X106047305Y-105881811D01*
X106047310Y-105881814D01*
X106181954Y-105944599D01*
X106243804Y-105973440D01*
X106249112Y-105974862D01*
X106249114Y-105974863D01*
X106296705Y-105987615D01*
X106458537Y-106030978D01*
X106680000Y-106050353D01*
X106901463Y-106030978D01*
X107063295Y-105987615D01*
X107110886Y-105974863D01*
X107110888Y-105974862D01*
X107116196Y-105973440D01*
X107178046Y-105944599D01*
X107312690Y-105881814D01*
X107312695Y-105881811D01*
X107317677Y-105879488D01*
X107441500Y-105792786D01*
X107495270Y-105755136D01*
X107495273Y-105755134D01*
X107499781Y-105751977D01*
X107656977Y-105594781D01*
X107660683Y-105589489D01*
X107781331Y-105417185D01*
X107781333Y-105417182D01*
X107784488Y-105412676D01*
X107786811Y-105407694D01*
X107786814Y-105407689D01*
X107876117Y-105216178D01*
X107876118Y-105216177D01*
X107878440Y-105211196D01*
X107935978Y-104996463D01*
X107955353Y-104775000D01*
X107935978Y-104553537D01*
X107878440Y-104338804D01*
X107810334Y-104192750D01*
X107799673Y-104122558D01*
X107828653Y-104057746D01*
X107888073Y-104018889D01*
X107924529Y-104013500D01*
X110515471Y-104013500D01*
X110583592Y-104033502D01*
X110630085Y-104087158D01*
X110640189Y-104157432D01*
X110629666Y-104192750D01*
X110561560Y-104338804D01*
X110504022Y-104553537D01*
X110484647Y-104775000D01*
X110504022Y-104996463D01*
X110561560Y-105211196D01*
X110563882Y-105216177D01*
X110563883Y-105216178D01*
X110653186Y-105407689D01*
X110653189Y-105407694D01*
X110655512Y-105412676D01*
X110658667Y-105417182D01*
X110658669Y-105417185D01*
X110779318Y-105589489D01*
X110783023Y-105594781D01*
X110940219Y-105751977D01*
X110944727Y-105755134D01*
X110944730Y-105755136D01*
X110998500Y-105792786D01*
X111122323Y-105879488D01*
X111127305Y-105881811D01*
X111127310Y-105881814D01*
X111261954Y-105944599D01*
X111323804Y-105973440D01*
X111329112Y-105974862D01*
X111329114Y-105974863D01*
X111376705Y-105987615D01*
X111538537Y-106030978D01*
X111760000Y-106050353D01*
X111981463Y-106030978D01*
X112143295Y-105987615D01*
X112190886Y-105974863D01*
X112190888Y-105974862D01*
X112196196Y-105973440D01*
X112258046Y-105944599D01*
X112392690Y-105881814D01*
X112392695Y-105881811D01*
X112397677Y-105879488D01*
X112521500Y-105792786D01*
X112575270Y-105755136D01*
X112575273Y-105755134D01*
X112579781Y-105751977D01*
X112736977Y-105594781D01*
X112740683Y-105589489D01*
X112861331Y-105417185D01*
X112861333Y-105417182D01*
X112864488Y-105412676D01*
X112866811Y-105407694D01*
X112866814Y-105407689D01*
X112915805Y-105302627D01*
X112962723Y-105249342D01*
X113031000Y-105229881D01*
X113098960Y-105250423D01*
X113144195Y-105302627D01*
X113193186Y-105407689D01*
X113193189Y-105407694D01*
X113195512Y-105412676D01*
X113198667Y-105417182D01*
X113198669Y-105417185D01*
X113268713Y-105517218D01*
X113291500Y-105589489D01*
X113291500Y-106014087D01*
X113290763Y-106027694D01*
X113287557Y-106057210D01*
X113286676Y-106065318D01*
X113287213Y-106071453D01*
X113291050Y-106115318D01*
X113291379Y-106120144D01*
X113291500Y-106122616D01*
X113291500Y-106125699D01*
X113291801Y-106128767D01*
X113295690Y-106168436D01*
X113295812Y-106169749D01*
X113299685Y-106214014D01*
X113303913Y-106262343D01*
X113305400Y-106267462D01*
X113305920Y-106272763D01*
X113332791Y-106361764D01*
X113333126Y-106362897D01*
X113342173Y-106394034D01*
X113359091Y-106452266D01*
X113361544Y-106456998D01*
X113363084Y-106462099D01*
X113365978Y-106467542D01*
X113406731Y-106544190D01*
X113407343Y-106545356D01*
X113426401Y-106582121D01*
X113450108Y-106627856D01*
X113453431Y-106632019D01*
X113455934Y-106636726D01*
X113514755Y-106708848D01*
X113515446Y-106709704D01*
X113546738Y-106748903D01*
X113549242Y-106751407D01*
X113549884Y-106752125D01*
X113553585Y-106756458D01*
X113580935Y-106789992D01*
X113585682Y-106793919D01*
X113585684Y-106793921D01*
X113616262Y-106819217D01*
X113625042Y-106827207D01*
X115101549Y-108303713D01*
X116374751Y-109576915D01*
X116408777Y-109639227D01*
X116403712Y-109710042D01*
X116361165Y-109766878D01*
X116294645Y-109791689D01*
X116285656Y-109792010D01*
X115624367Y-109792010D01*
X115556246Y-109772008D01*
X115535271Y-109755105D01*
X115190183Y-109410016D01*
X114835039Y-109054872D01*
X114804302Y-109004713D01*
X114781096Y-108933291D01*
X114753527Y-108848444D01*
X114744037Y-108832006D01*
X114676582Y-108715172D01*
X114658040Y-108683056D01*
X114640517Y-108663594D01*
X114534675Y-108546045D01*
X114534674Y-108546044D01*
X114530253Y-108541134D01*
X114408170Y-108452435D01*
X114381094Y-108432763D01*
X114381093Y-108432762D01*
X114375752Y-108428882D01*
X114369724Y-108426198D01*
X114369722Y-108426197D01*
X114207319Y-108353891D01*
X114207318Y-108353891D01*
X114201288Y-108351206D01*
X114107888Y-108331353D01*
X114020944Y-108312872D01*
X114020939Y-108312872D01*
X114014487Y-108311500D01*
X113823513Y-108311500D01*
X113817061Y-108312872D01*
X113817056Y-108312872D01*
X113730112Y-108331353D01*
X113636712Y-108351206D01*
X113462248Y-108428882D01*
X113458324Y-108431733D01*
X113389959Y-108448316D01*
X113321896Y-108424395D01*
X113263494Y-108381963D01*
X113263492Y-108381962D01*
X113258152Y-108378082D01*
X113252124Y-108375398D01*
X113252122Y-108375397D01*
X113089719Y-108303091D01*
X113089718Y-108303091D01*
X113083688Y-108300406D01*
X112990287Y-108280553D01*
X112903344Y-108262072D01*
X112903339Y-108262072D01*
X112896887Y-108260700D01*
X112705913Y-108260700D01*
X112699461Y-108262072D01*
X112699456Y-108262072D01*
X112612513Y-108280553D01*
X112519112Y-108300406D01*
X112513082Y-108303091D01*
X112513081Y-108303091D01*
X112350678Y-108375397D01*
X112350676Y-108375398D01*
X112344648Y-108378082D01*
X112339307Y-108381962D01*
X112339306Y-108381963D01*
X112289243Y-108418336D01*
X112190147Y-108490334D01*
X112185726Y-108495244D01*
X112185725Y-108495245D01*
X112074090Y-108619229D01*
X112062360Y-108632256D01*
X111966873Y-108797644D01*
X111907858Y-108979272D01*
X111907168Y-108985833D01*
X111907168Y-108985835D01*
X111894739Y-109104095D01*
X111887896Y-109169200D01*
X111907858Y-109359128D01*
X111966873Y-109540756D01*
X112062360Y-109706144D01*
X112066778Y-109711051D01*
X112066779Y-109711052D01*
X112174751Y-109830967D01*
X112190147Y-109848066D01*
X112277559Y-109911575D01*
X112317900Y-109940884D01*
X112344648Y-109960318D01*
X112350676Y-109963002D01*
X112350678Y-109963003D01*
X112513081Y-110035309D01*
X112519112Y-110037994D01*
X112612512Y-110057847D01*
X112699456Y-110076328D01*
X112699461Y-110076328D01*
X112705913Y-110077700D01*
X112896887Y-110077700D01*
X112903339Y-110076328D01*
X112903344Y-110076328D01*
X112990287Y-110057847D01*
X113083688Y-110037994D01*
X113258152Y-109960318D01*
X113262076Y-109957467D01*
X113330441Y-109940884D01*
X113398504Y-109964805D01*
X113420221Y-109980583D01*
X113462248Y-110011118D01*
X113468276Y-110013802D01*
X113468278Y-110013803D01*
X113611794Y-110077700D01*
X113636712Y-110088794D01*
X113688996Y-110099907D01*
X113751893Y-110134059D01*
X114667181Y-111049347D01*
X114679567Y-111063759D01*
X114692584Y-111081447D01*
X114698167Y-111086190D01*
X114733205Y-111115957D01*
X114740721Y-111122887D01*
X114746490Y-111128656D01*
X114768986Y-111146455D01*
X114772367Y-111149227D01*
X114810196Y-111181365D01*
X114828444Y-111196868D01*
X114834966Y-111200198D01*
X114840082Y-111203610D01*
X114845304Y-111206836D01*
X114851052Y-111211383D01*
X114895919Y-111232353D01*
X114917724Y-111242544D01*
X114921673Y-111244474D01*
X114945517Y-111256649D01*
X114997091Y-111305442D01*
X115014098Y-111374372D01*
X114991139Y-111441553D01*
X114954241Y-111476184D01*
X114883314Y-111519819D01*
X114883311Y-111519822D01*
X114877312Y-111523512D01*
X114755732Y-111642573D01*
X114751921Y-111648487D01*
X114751919Y-111648489D01*
X114683983Y-111753904D01*
X114663550Y-111785610D01*
X114605349Y-111945516D01*
X114584021Y-112114343D01*
X114600627Y-112283699D01*
X114602851Y-112290384D01*
X114602851Y-112290385D01*
X114606041Y-112299975D01*
X114654340Y-112445167D01*
X114657987Y-112451189D01*
X114657988Y-112451191D01*
X114671743Y-112473902D01*
X114742492Y-112590723D01*
X114747382Y-112595787D01*
X114747383Y-112595788D01*
X114750705Y-112599228D01*
X114783637Y-112662125D01*
X114777336Y-112732842D01*
X114758744Y-112764624D01*
X114755732Y-112767573D01*
X114751917Y-112773492D01*
X114751915Y-112773495D01*
X114707279Y-112842756D01*
X114663550Y-112910610D01*
X114661140Y-112917232D01*
X114612452Y-113051002D01*
X114605349Y-113070516D01*
X114584021Y-113239343D01*
X114600627Y-113408699D01*
X114654340Y-113570167D01*
X114657987Y-113576189D01*
X114657988Y-113576191D01*
X114737788Y-113707955D01*
X114742492Y-113715723D01*
X114747382Y-113720787D01*
X114747383Y-113720788D01*
X114750705Y-113724228D01*
X114783637Y-113787125D01*
X114777336Y-113857842D01*
X114758744Y-113889624D01*
X114755732Y-113892573D01*
X114751917Y-113898492D01*
X114751915Y-113898495D01*
X114685466Y-114001603D01*
X114663550Y-114035610D01*
X114645319Y-114085700D01*
X114616218Y-114165655D01*
X114605349Y-114195516D01*
X114584021Y-114364343D01*
X114600627Y-114533699D01*
X114654340Y-114695167D01*
X114657987Y-114701189D01*
X114657988Y-114701191D01*
X114715501Y-114796155D01*
X114742492Y-114840723D01*
X114747382Y-114845787D01*
X114747383Y-114845788D01*
X114750705Y-114849228D01*
X114783637Y-114912125D01*
X114777336Y-114982842D01*
X114758744Y-115014624D01*
X114755732Y-115017573D01*
X114751917Y-115023492D01*
X114751915Y-115023495D01*
X114689180Y-115120840D01*
X114663550Y-115160610D01*
X114605349Y-115320516D01*
X114584021Y-115489343D01*
X114600627Y-115658699D01*
X114654340Y-115820167D01*
X114657987Y-115826189D01*
X114657988Y-115826191D01*
X114713907Y-115918523D01*
X114742492Y-115965723D01*
X114747382Y-115970787D01*
X114747383Y-115970788D01*
X114750705Y-115974228D01*
X114783637Y-116037125D01*
X114777336Y-116107842D01*
X114758744Y-116139624D01*
X114755732Y-116142573D01*
X114751917Y-116148492D01*
X114751915Y-116148495D01*
X114668951Y-116277229D01*
X114663550Y-116285610D01*
X114605349Y-116445516D01*
X114584021Y-116614343D01*
X114600627Y-116783699D01*
X114654340Y-116945167D01*
X114657987Y-116951189D01*
X114657988Y-116951191D01*
X114723881Y-117059992D01*
X114742492Y-117090723D01*
X114860701Y-117213132D01*
X114883628Y-117228135D01*
X114945250Y-117268459D01*
X115003092Y-117306310D01*
X115009696Y-117308766D01*
X115009698Y-117308767D01*
X115046090Y-117322301D01*
X115162587Y-117365626D01*
X115331261Y-117388132D01*
X115338272Y-117387494D01*
X115338276Y-117387494D01*
X115493708Y-117373348D01*
X115500729Y-117372709D01*
X115507431Y-117370531D01*
X115507433Y-117370531D01*
X115655869Y-117322301D01*
X115655872Y-117322300D01*
X115662568Y-117320124D01*
X115808736Y-117232990D01*
X115821724Y-117220622D01*
X115884850Y-117188131D01*
X115955520Y-117194925D01*
X115985095Y-117212504D01*
X115985701Y-117213132D01*
X116008628Y-117228135D01*
X116070250Y-117268459D01*
X116128092Y-117306310D01*
X116134696Y-117308766D01*
X116134698Y-117308767D01*
X116171090Y-117322301D01*
X116287587Y-117365626D01*
X116456261Y-117388132D01*
X116463272Y-117387494D01*
X116463276Y-117387494D01*
X116618708Y-117373348D01*
X116625729Y-117372709D01*
X116632431Y-117370531D01*
X116632433Y-117370531D01*
X116780869Y-117322301D01*
X116780872Y-117322300D01*
X116787568Y-117320124D01*
X116933736Y-117232990D01*
X116946724Y-117220622D01*
X117009850Y-117188131D01*
X117080520Y-117194925D01*
X117110095Y-117212504D01*
X117110701Y-117213132D01*
X117133628Y-117228135D01*
X117195250Y-117268459D01*
X117253092Y-117306310D01*
X117259696Y-117308766D01*
X117259698Y-117308767D01*
X117296090Y-117322301D01*
X117412587Y-117365626D01*
X117581261Y-117388132D01*
X117588272Y-117387494D01*
X117588276Y-117387494D01*
X117743708Y-117373348D01*
X117750729Y-117372709D01*
X117757431Y-117370531D01*
X117757433Y-117370531D01*
X117905869Y-117322301D01*
X117905872Y-117322300D01*
X117912568Y-117320124D01*
X118058736Y-117232990D01*
X118071724Y-117220622D01*
X118134850Y-117188131D01*
X118205520Y-117194925D01*
X118235095Y-117212504D01*
X118235701Y-117213132D01*
X118258628Y-117228135D01*
X118320250Y-117268459D01*
X118378092Y-117306310D01*
X118384696Y-117308766D01*
X118384698Y-117308767D01*
X118421090Y-117322301D01*
X118537587Y-117365626D01*
X118706261Y-117388132D01*
X118713272Y-117387494D01*
X118713276Y-117387494D01*
X118868708Y-117373348D01*
X118875729Y-117372709D01*
X118882431Y-117370531D01*
X118882433Y-117370531D01*
X119030869Y-117322301D01*
X119030872Y-117322300D01*
X119037568Y-117320124D01*
X119183736Y-117232990D01*
X119196724Y-117220622D01*
X119259850Y-117188131D01*
X119330520Y-117194925D01*
X119360095Y-117212504D01*
X119360701Y-117213132D01*
X119383628Y-117228135D01*
X119445250Y-117268459D01*
X119503092Y-117306310D01*
X119509696Y-117308766D01*
X119509698Y-117308767D01*
X119546090Y-117322301D01*
X119662587Y-117365626D01*
X119831261Y-117388132D01*
X119838272Y-117387494D01*
X119838276Y-117387494D01*
X119993708Y-117373348D01*
X120000729Y-117372709D01*
X120007431Y-117370531D01*
X120007433Y-117370531D01*
X120155869Y-117322301D01*
X120155872Y-117322300D01*
X120162568Y-117320124D01*
X120308736Y-117232990D01*
X120313830Y-117228139D01*
X120313834Y-117228136D01*
X120397180Y-117148766D01*
X120431967Y-117115639D01*
X120438504Y-117105801D01*
X120522236Y-116979773D01*
X120526137Y-116973902D01*
X120586565Y-116814825D01*
X120610247Y-116646313D01*
X120610545Y-116625000D01*
X120591577Y-116455892D01*
X120535614Y-116295189D01*
X120529629Y-116285610D01*
X120453280Y-116163428D01*
X120445438Y-116150879D01*
X120440474Y-116145881D01*
X120436400Y-116140740D01*
X120409762Y-116074930D01*
X120422933Y-116005166D01*
X120432378Y-115990912D01*
X120431967Y-115990639D01*
X120443354Y-115973500D01*
X123825896Y-115973500D01*
X123826586Y-115980065D01*
X123843542Y-116141389D01*
X123845858Y-116163428D01*
X123904873Y-116345056D01*
X124000360Y-116510444D01*
X124004778Y-116515351D01*
X124004779Y-116515352D01*
X124119143Y-116642366D01*
X124128147Y-116652366D01*
X124282648Y-116764618D01*
X124288676Y-116767302D01*
X124288678Y-116767303D01*
X124451081Y-116839609D01*
X124457112Y-116842294D01*
X124538695Y-116859635D01*
X124637456Y-116880628D01*
X124637461Y-116880628D01*
X124643913Y-116882000D01*
X124834887Y-116882000D01*
X124841339Y-116880628D01*
X124841344Y-116880628D01*
X124940105Y-116859635D01*
X125021688Y-116842294D01*
X125027719Y-116839609D01*
X125190122Y-116767303D01*
X125190124Y-116767302D01*
X125196152Y-116764618D01*
X125350653Y-116652366D01*
X125359657Y-116642366D01*
X125474021Y-116515352D01*
X125474022Y-116515351D01*
X125478440Y-116510444D01*
X125573927Y-116345056D01*
X125632942Y-116163428D01*
X125635259Y-116141389D01*
X125652214Y-115980065D01*
X125652904Y-115973500D01*
X125645746Y-115905393D01*
X125633632Y-115790135D01*
X125633632Y-115790133D01*
X125632942Y-115783572D01*
X125573927Y-115601944D01*
X125478440Y-115436556D01*
X125423028Y-115375014D01*
X125355075Y-115299545D01*
X125355074Y-115299544D01*
X125350653Y-115294634D01*
X125196152Y-115182382D01*
X125190124Y-115179698D01*
X125190122Y-115179697D01*
X125027719Y-115107391D01*
X125027718Y-115107391D01*
X125021688Y-115104706D01*
X124928288Y-115084853D01*
X124841344Y-115066372D01*
X124841339Y-115066372D01*
X124834887Y-115065000D01*
X124643913Y-115065000D01*
X124637461Y-115066372D01*
X124637456Y-115066372D01*
X124550512Y-115084853D01*
X124457112Y-115104706D01*
X124451082Y-115107391D01*
X124451081Y-115107391D01*
X124288678Y-115179697D01*
X124288676Y-115179698D01*
X124282648Y-115182382D01*
X124128147Y-115294634D01*
X124123726Y-115299544D01*
X124123725Y-115299545D01*
X124055773Y-115375014D01*
X124000360Y-115436556D01*
X123904873Y-115601944D01*
X123845858Y-115783572D01*
X123845168Y-115790133D01*
X123845168Y-115790135D01*
X123833054Y-115905393D01*
X123825896Y-115973500D01*
X120443354Y-115973500D01*
X120479881Y-115918523D01*
X120526137Y-115848902D01*
X120586565Y-115689825D01*
X120610247Y-115521313D01*
X120610545Y-115500000D01*
X120591577Y-115330892D01*
X120535614Y-115170189D01*
X120529629Y-115160610D01*
X120449171Y-115031853D01*
X120445438Y-115025879D01*
X120440474Y-115020881D01*
X120436400Y-115015740D01*
X120409762Y-114949930D01*
X120422933Y-114880166D01*
X120432378Y-114865912D01*
X120431967Y-114865639D01*
X120478132Y-114796155D01*
X120526137Y-114723902D01*
X120586565Y-114564825D01*
X120610247Y-114396313D01*
X120610545Y-114375000D01*
X120591577Y-114205892D01*
X120579463Y-114171104D01*
X120545499Y-114073574D01*
X120535614Y-114045189D01*
X120529629Y-114035610D01*
X120449171Y-113906853D01*
X120445438Y-113900879D01*
X120440474Y-113895881D01*
X120436400Y-113890740D01*
X120409762Y-113824930D01*
X120422933Y-113755166D01*
X120432378Y-113740912D01*
X120431967Y-113740639D01*
X120511337Y-113621178D01*
X120526137Y-113598902D01*
X120586565Y-113439825D01*
X120610247Y-113271313D01*
X120610545Y-113250000D01*
X120591577Y-113080892D01*
X120567953Y-113013052D01*
X120562450Y-112997250D01*
X120535614Y-112920189D01*
X120529629Y-112910610D01*
X120449171Y-112781853D01*
X120445438Y-112775879D01*
X120440474Y-112770881D01*
X120436400Y-112765740D01*
X120409762Y-112699930D01*
X120422933Y-112630166D01*
X120432378Y-112615912D01*
X120431967Y-112615639D01*
X120452523Y-112584700D01*
X120526137Y-112473902D01*
X120586565Y-112314825D01*
X120610247Y-112146313D01*
X120610545Y-112125000D01*
X120591577Y-111955892D01*
X120535614Y-111795189D01*
X120531821Y-111789118D01*
X120497674Y-111734473D01*
X120445438Y-111650879D01*
X120440475Y-111645881D01*
X120440470Y-111645875D01*
X120331155Y-111535793D01*
X120297348Y-111473363D01*
X120302660Y-111402565D01*
X120345405Y-111345878D01*
X120412012Y-111321300D01*
X120420561Y-111321010D01*
X120733762Y-111321010D01*
X120801883Y-111341012D01*
X120848376Y-111394668D01*
X120859072Y-111460180D01*
X120842566Y-111617226D01*
X120843256Y-111623791D01*
X120861487Y-111797245D01*
X120862528Y-111807154D01*
X120921543Y-111988782D01*
X120924846Y-111994504D01*
X120924847Y-111994505D01*
X120951799Y-112041187D01*
X121017030Y-112154170D01*
X121021448Y-112159077D01*
X121021449Y-112159078D01*
X121107119Y-112254224D01*
X121144817Y-112296092D01*
X121299318Y-112408344D01*
X121305346Y-112411028D01*
X121305348Y-112411029D01*
X121459751Y-112479773D01*
X121473782Y-112486020D01*
X121567182Y-112505873D01*
X121654126Y-112524354D01*
X121654131Y-112524354D01*
X121660583Y-112525726D01*
X121851557Y-112525726D01*
X121858009Y-112524354D01*
X121858014Y-112524354D01*
X121944957Y-112505873D01*
X122038358Y-112486020D01*
X122052389Y-112479773D01*
X122206792Y-112411029D01*
X122206794Y-112411028D01*
X122212822Y-112408344D01*
X122226989Y-112398051D01*
X122361979Y-112299975D01*
X122361981Y-112299973D01*
X122367323Y-112296092D01*
X122371742Y-112291185D01*
X122376650Y-112286765D01*
X122377530Y-112287742D01*
X122431944Y-112254224D01*
X122502928Y-112255581D01*
X122554220Y-112286682D01*
X123216097Y-112948559D01*
X123250123Y-113010871D01*
X123245058Y-113081686D01*
X123236121Y-113100654D01*
X123207593Y-113150066D01*
X123194761Y-113172292D01*
X123135746Y-113353920D01*
X123135056Y-113360481D01*
X123135056Y-113360483D01*
X123125400Y-113452356D01*
X123115784Y-113543848D01*
X123116474Y-113550413D01*
X123133849Y-113715723D01*
X123135746Y-113733776D01*
X123194761Y-113915404D01*
X123198064Y-113921126D01*
X123198065Y-113921127D01*
X123203676Y-113930845D01*
X123290248Y-114080792D01*
X123418035Y-114222714D01*
X123572536Y-114334966D01*
X123578564Y-114337650D01*
X123578566Y-114337651D01*
X123740969Y-114409957D01*
X123747000Y-114412642D01*
X123840400Y-114432495D01*
X123927344Y-114450976D01*
X123927349Y-114450976D01*
X123933801Y-114452348D01*
X124124775Y-114452348D01*
X124131227Y-114450976D01*
X124131232Y-114450976D01*
X124218176Y-114432495D01*
X124311576Y-114412642D01*
X124317607Y-114409957D01*
X124480010Y-114337651D01*
X124480012Y-114337650D01*
X124486040Y-114334966D01*
X124640541Y-114222714D01*
X124768328Y-114080792D01*
X124854900Y-113930845D01*
X124860511Y-113921127D01*
X124860512Y-113921126D01*
X124863815Y-113915404D01*
X124866594Y-113906853D01*
X124871829Y-113890740D01*
X124880067Y-113865387D01*
X124920139Y-113806782D01*
X124985535Y-113779144D01*
X125055492Y-113791250D01*
X125088994Y-113815228D01*
X127021395Y-115747629D01*
X127055421Y-115809941D01*
X127058300Y-115836724D01*
X127058300Y-116195927D01*
X127057610Y-116209097D01*
X127053445Y-116248725D01*
X127058018Y-116298973D01*
X127058300Y-116303007D01*
X127058300Y-116305569D01*
X127058600Y-116308627D01*
X127058600Y-116308631D01*
X127062695Y-116350396D01*
X127062777Y-116351271D01*
X127071370Y-116445688D01*
X127072373Y-116449097D01*
X127072720Y-116452633D01*
X127100134Y-116543430D01*
X127100361Y-116544190D01*
X127127210Y-116635419D01*
X127128858Y-116638572D01*
X127129884Y-116641969D01*
X127132771Y-116647399D01*
X127132772Y-116647401D01*
X127174469Y-116725822D01*
X127174816Y-116726481D01*
X127218840Y-116810690D01*
X127221065Y-116813458D01*
X127222734Y-116816596D01*
X127226626Y-116821368D01*
X127226630Y-116821374D01*
X127257836Y-116859635D01*
X127285390Y-116925067D01*
X127273195Y-116995008D01*
X127225122Y-117047253D01*
X127194707Y-117059239D01*
X127194952Y-117059992D01*
X127188668Y-117062034D01*
X127182212Y-117063406D01*
X127176182Y-117066091D01*
X127176181Y-117066091D01*
X127013778Y-117138397D01*
X127013776Y-117138398D01*
X127007748Y-117141082D01*
X126853247Y-117253334D01*
X126848826Y-117258244D01*
X126848825Y-117258245D01*
X126732714Y-117387200D01*
X126725460Y-117395256D01*
X126629973Y-117560644D01*
X126570958Y-117742272D01*
X126550996Y-117932200D01*
X126570958Y-118122128D01*
X126629973Y-118303756D01*
X126725460Y-118469144D01*
X126729878Y-118474051D01*
X126729879Y-118474052D01*
X126843168Y-118599872D01*
X126853247Y-118611066D01*
X126952343Y-118683064D01*
X126997753Y-118716056D01*
X127007748Y-118723318D01*
X127013776Y-118726002D01*
X127013778Y-118726003D01*
X127176181Y-118798309D01*
X127182212Y-118800994D01*
X127275612Y-118820847D01*
X127362556Y-118839328D01*
X127362561Y-118839328D01*
X127369013Y-118840700D01*
X127559987Y-118840700D01*
X127566439Y-118839328D01*
X127566444Y-118839328D01*
X127653388Y-118820847D01*
X127746788Y-118800994D01*
X127752819Y-118798309D01*
X127915222Y-118726003D01*
X127915224Y-118726002D01*
X127921252Y-118723318D01*
X127931248Y-118716056D01*
X127976657Y-118683064D01*
X128075753Y-118611066D01*
X128085832Y-118599872D01*
X128199121Y-118474052D01*
X128199122Y-118474051D01*
X128203540Y-118469144D01*
X128299027Y-118303756D01*
X128358042Y-118122128D01*
X128378004Y-117932200D01*
X128358042Y-117742272D01*
X128299027Y-117560644D01*
X128237052Y-117453300D01*
X128220314Y-117384305D01*
X128243534Y-117317213D01*
X128299342Y-117273326D01*
X128346171Y-117264300D01*
X129401957Y-117264300D01*
X129415564Y-117265037D01*
X129447062Y-117268459D01*
X129447067Y-117268459D01*
X129453188Y-117269124D01*
X129479438Y-117266827D01*
X129503188Y-117264750D01*
X129508014Y-117264421D01*
X129510486Y-117264300D01*
X129513569Y-117264300D01*
X129525538Y-117263126D01*
X129556306Y-117260110D01*
X129557619Y-117259988D01*
X129601884Y-117256115D01*
X129650213Y-117251887D01*
X129655332Y-117250400D01*
X129660633Y-117249880D01*
X129749634Y-117223009D01*
X129750767Y-117222674D01*
X129834214Y-117198430D01*
X129834218Y-117198428D01*
X129840136Y-117196709D01*
X129844868Y-117194256D01*
X129849969Y-117192716D01*
X129858592Y-117188131D01*
X129932060Y-117149069D01*
X129933226Y-117148457D01*
X130010253Y-117108529D01*
X130015726Y-117105692D01*
X130019889Y-117102369D01*
X130024596Y-117099866D01*
X130096718Y-117041045D01*
X130097574Y-117040354D01*
X130136773Y-117009062D01*
X130139277Y-117006558D01*
X130139995Y-117005916D01*
X130144328Y-117002215D01*
X130177862Y-116974865D01*
X130207088Y-116939537D01*
X130215077Y-116930758D01*
X131911727Y-115234107D01*
X131913909Y-115231925D01*
X132007703Y-115117739D01*
X132068980Y-115003458D01*
X132098250Y-114948870D01*
X132098251Y-114948869D01*
X132101163Y-114943437D01*
X132134408Y-114834700D01*
X132157185Y-114760200D01*
X132157185Y-114760198D01*
X132158988Y-114754302D01*
X132168155Y-114664052D01*
X132178352Y-114563665D01*
X132178352Y-114563661D01*
X132178974Y-114557537D01*
X132165489Y-114414872D01*
X132160942Y-114366770D01*
X132160941Y-114366766D01*
X132160362Y-114360638D01*
X132153510Y-114337651D01*
X132105620Y-114177007D01*
X132105619Y-114177005D01*
X132103860Y-114171104D01*
X132011618Y-113996153D01*
X131958733Y-113930845D01*
X131891032Y-113847242D01*
X131891031Y-113847241D01*
X131887153Y-113842452D01*
X131850517Y-113811928D01*
X131739935Y-113719794D01*
X131739930Y-113719791D01*
X131735204Y-113715853D01*
X131713663Y-113704108D01*
X131566965Y-113624125D01*
X131566966Y-113624125D01*
X131561560Y-113621178D01*
X131372832Y-113562035D01*
X131366709Y-113561370D01*
X131366705Y-113561369D01*
X131182337Y-113541340D01*
X131182333Y-113541340D01*
X131176212Y-113540675D01*
X130979187Y-113557913D01*
X130789264Y-113613091D01*
X130613674Y-113704108D01*
X130608855Y-113707955D01*
X130509681Y-113787125D01*
X130492628Y-113800738D01*
X130307468Y-113985898D01*
X130245156Y-114019924D01*
X130174341Y-114014859D01*
X130124737Y-113981114D01*
X130075053Y-113925934D01*
X129954721Y-113838507D01*
X129925894Y-113817563D01*
X129925893Y-113817562D01*
X129920552Y-113813682D01*
X129914524Y-113810998D01*
X129914522Y-113810997D01*
X129752119Y-113738691D01*
X129752118Y-113738691D01*
X129746088Y-113736006D01*
X129622329Y-113709700D01*
X129565744Y-113697672D01*
X129565739Y-113697672D01*
X129559287Y-113696300D01*
X129368313Y-113696300D01*
X129361861Y-113697672D01*
X129361856Y-113697672D01*
X129305271Y-113709700D01*
X129181512Y-113736006D01*
X129175482Y-113738691D01*
X129175481Y-113738691D01*
X129013078Y-113810997D01*
X129013076Y-113810998D01*
X129007048Y-113813682D01*
X129001707Y-113817562D01*
X129001706Y-113817563D01*
X128972879Y-113838507D01*
X128852547Y-113925934D01*
X128848129Y-113930841D01*
X128848125Y-113930845D01*
X128789322Y-113996153D01*
X128724760Y-114067856D01*
X128689594Y-114128765D01*
X128633111Y-114226597D01*
X128629273Y-114233244D01*
X128627231Y-114239529D01*
X128626647Y-114241326D01*
X128626027Y-114242232D01*
X128624547Y-114245557D01*
X128623939Y-114245286D01*
X128586574Y-114299932D01*
X128521177Y-114327569D01*
X128451220Y-114315462D01*
X128417719Y-114291485D01*
X124437476Y-110311242D01*
X124403450Y-110248930D01*
X124403967Y-110241703D01*
X130224743Y-110241703D01*
X130225302Y-110245947D01*
X130225302Y-110245951D01*
X130241810Y-110371340D01*
X130262268Y-110526734D01*
X130338129Y-110804036D01*
X130339813Y-110807984D01*
X130442764Y-111049347D01*
X130450923Y-111068476D01*
X130485385Y-111126058D01*
X130590863Y-111302298D01*
X130598561Y-111315161D01*
X130778313Y-111539528D01*
X130986851Y-111737423D01*
X131220317Y-111905186D01*
X131224112Y-111907195D01*
X131224113Y-111907196D01*
X131245869Y-111918715D01*
X131474392Y-112039712D01*
X131744373Y-112138511D01*
X132025264Y-112199755D01*
X132053841Y-112202004D01*
X132248282Y-112217307D01*
X132248291Y-112217307D01*
X132250739Y-112217500D01*
X132406271Y-112217500D01*
X132408407Y-112217354D01*
X132408418Y-112217354D01*
X132616548Y-112203165D01*
X132616554Y-112203164D01*
X132620825Y-112202873D01*
X132625020Y-112202004D01*
X132625022Y-112202004D01*
X132856004Y-112154170D01*
X132902342Y-112144574D01*
X133173343Y-112048607D01*
X133359536Y-111952506D01*
X133425005Y-111918715D01*
X133425006Y-111918715D01*
X133428812Y-111916750D01*
X133432313Y-111914289D01*
X133432317Y-111914287D01*
X133592304Y-111801846D01*
X133664023Y-111751441D01*
X133765811Y-111656854D01*
X133871479Y-111558661D01*
X133871481Y-111558658D01*
X133874622Y-111555740D01*
X134056713Y-111333268D01*
X134206927Y-111088142D01*
X134322483Y-110824898D01*
X134325407Y-110814635D01*
X134400068Y-110552534D01*
X134401244Y-110548406D01*
X134441751Y-110263784D01*
X134441845Y-110245951D01*
X134443235Y-109980583D01*
X134443235Y-109980576D01*
X134443257Y-109976297D01*
X134441154Y-109960318D01*
X134415686Y-109766878D01*
X134405732Y-109691266D01*
X134400271Y-109671302D01*
X134353930Y-109501909D01*
X134329871Y-109413964D01*
X134281512Y-109300588D01*
X134218763Y-109153476D01*
X134218761Y-109153472D01*
X134217077Y-109149524D01*
X134111426Y-108972994D01*
X134071643Y-108906521D01*
X134071640Y-108906517D01*
X134069439Y-108902839D01*
X133889687Y-108678472D01*
X133708768Y-108506786D01*
X133684258Y-108483527D01*
X133684255Y-108483525D01*
X133681149Y-108480577D01*
X133447683Y-108312814D01*
X133429320Y-108303091D01*
X133397690Y-108286344D01*
X133193608Y-108178288D01*
X132923627Y-108079489D01*
X132642736Y-108018245D01*
X132611685Y-108015801D01*
X132419718Y-108000693D01*
X132419709Y-108000693D01*
X132417261Y-108000500D01*
X132261729Y-108000500D01*
X132259593Y-108000646D01*
X132259582Y-108000646D01*
X132051452Y-108014835D01*
X132051446Y-108014836D01*
X132047175Y-108015127D01*
X132042980Y-108015996D01*
X132042978Y-108015996D01*
X131906416Y-108044277D01*
X131765658Y-108073426D01*
X131494657Y-108169393D01*
X131239188Y-108301250D01*
X131235687Y-108303711D01*
X131235683Y-108303713D01*
X131170060Y-108349834D01*
X131003977Y-108466559D01*
X130928361Y-108536826D01*
X130814788Y-108642365D01*
X130793378Y-108662260D01*
X130611287Y-108884732D01*
X130461073Y-109129858D01*
X130345517Y-109393102D01*
X130266756Y-109669594D01*
X130226249Y-109954216D01*
X130226227Y-109958505D01*
X130226226Y-109958512D01*
X130225156Y-110162817D01*
X130224743Y-110241703D01*
X124403967Y-110241703D01*
X124408515Y-110178115D01*
X124451062Y-110121279D01*
X124475323Y-110107040D01*
X124518476Y-110087828D01*
X124518483Y-110087824D01*
X124524509Y-110085141D01*
X124679010Y-109972889D01*
X124686289Y-109964805D01*
X124802378Y-109835875D01*
X124802379Y-109835874D01*
X124806797Y-109830967D01*
X124902284Y-109665579D01*
X124961299Y-109483951D01*
X124973759Y-109365406D01*
X124980571Y-109300588D01*
X124981261Y-109294023D01*
X124964007Y-109129858D01*
X124961989Y-109110658D01*
X124961989Y-109110656D01*
X124961299Y-109104095D01*
X124902284Y-108922467D01*
X124806797Y-108757079D01*
X124762694Y-108708097D01*
X124683432Y-108620068D01*
X124683431Y-108620067D01*
X124679010Y-108615157D01*
X124577136Y-108541141D01*
X124529851Y-108506786D01*
X124529850Y-108506785D01*
X124524509Y-108502905D01*
X124518481Y-108500221D01*
X124518479Y-108500220D01*
X124356076Y-108427914D01*
X124356075Y-108427914D01*
X124350045Y-108425229D01*
X124256645Y-108405376D01*
X124169701Y-108386895D01*
X124169696Y-108386895D01*
X124163244Y-108385523D01*
X123972270Y-108385523D01*
X123965818Y-108386895D01*
X123965813Y-108386895D01*
X123878870Y-108405376D01*
X123785469Y-108425229D01*
X123779439Y-108427914D01*
X123779438Y-108427914D01*
X123617035Y-108500220D01*
X123617033Y-108500221D01*
X123611005Y-108502905D01*
X123605664Y-108506785D01*
X123605663Y-108506786D01*
X123558378Y-108541141D01*
X123456504Y-108615157D01*
X123452083Y-108620067D01*
X123452082Y-108620068D01*
X123372821Y-108708097D01*
X123328717Y-108757079D01*
X123247789Y-108897250D01*
X123196409Y-108946241D01*
X123126695Y-108959678D01*
X123060784Y-108933291D01*
X123049577Y-108923343D01*
X123007055Y-108880821D01*
X122997953Y-108870678D01*
X122978097Y-108845982D01*
X122974232Y-108841175D01*
X122935778Y-108808908D01*
X122932131Y-108805728D01*
X122930319Y-108804085D01*
X122928125Y-108801891D01*
X122894851Y-108774558D01*
X122894053Y-108773896D01*
X122822726Y-108714046D01*
X122818056Y-108711478D01*
X122813939Y-108708097D01*
X122732114Y-108664223D01*
X122730955Y-108663594D01*
X122654819Y-108621738D01*
X122654811Y-108621735D01*
X122649413Y-108618767D01*
X122644331Y-108617155D01*
X122639637Y-108614638D01*
X122550669Y-108587438D01*
X122549641Y-108587118D01*
X122460894Y-108558965D01*
X122455598Y-108558371D01*
X122450502Y-108556813D01*
X122357943Y-108547410D01*
X122356807Y-108547289D01*
X122323192Y-108543519D01*
X122310470Y-108542092D01*
X122310466Y-108542092D01*
X122306973Y-108541700D01*
X122303446Y-108541700D01*
X122302461Y-108541645D01*
X122296781Y-108541198D01*
X122267375Y-108538211D01*
X122259863Y-108537448D01*
X122259861Y-108537448D01*
X122253738Y-108536826D01*
X122211459Y-108540823D01*
X122208091Y-108541141D01*
X122196233Y-108541700D01*
X118444916Y-108541700D01*
X118376795Y-108521698D01*
X118330302Y-108468042D01*
X118320198Y-108397768D01*
X118351279Y-108331392D01*
X118391840Y-108286344D01*
X118487327Y-108120956D01*
X118546342Y-107939328D01*
X118553994Y-107866528D01*
X118565614Y-107755965D01*
X118566304Y-107749400D01*
X118554961Y-107641479D01*
X118547032Y-107566035D01*
X118547032Y-107566033D01*
X118546342Y-107559472D01*
X118487327Y-107377844D01*
X118456628Y-107324671D01*
X118417924Y-107257635D01*
X118391840Y-107212456D01*
X118335000Y-107149328D01*
X118268475Y-107075445D01*
X118268474Y-107075444D01*
X118264053Y-107070534D01*
X118246732Y-107057949D01*
X118207287Y-107029291D01*
X118163933Y-106973069D01*
X118157858Y-106902332D01*
X118190989Y-106839541D01*
X118235191Y-106812020D01*
X118234636Y-106810774D01*
X118403070Y-106735783D01*
X118403072Y-106735782D01*
X118409100Y-106733098D01*
X118429453Y-106718311D01*
X118535169Y-106641503D01*
X118563601Y-106620846D01*
X118598469Y-106582121D01*
X118686969Y-106483832D01*
X118686970Y-106483831D01*
X118691388Y-106478924D01*
X118786875Y-106313536D01*
X118845890Y-106131908D01*
X118846823Y-106123036D01*
X118849350Y-106098985D01*
X118876362Y-106033327D01*
X118934583Y-105992697D01*
X119007271Y-105990446D01*
X119158537Y-106030978D01*
X119164018Y-106031458D01*
X119169436Y-106032413D01*
X119169181Y-106033858D01*
X119228884Y-106057210D01*
X119270525Y-106114713D01*
X119274955Y-106181896D01*
X119273858Y-106185272D01*
X119273168Y-106191833D01*
X119273168Y-106191835D01*
X119255801Y-106357072D01*
X119253896Y-106375200D01*
X119254586Y-106381765D01*
X119265314Y-106483832D01*
X119273858Y-106565128D01*
X119332873Y-106746756D01*
X119336176Y-106752478D01*
X119336177Y-106752479D01*
X119348987Y-106774666D01*
X119428360Y-106912144D01*
X119432778Y-106917051D01*
X119432779Y-106917052D01*
X119551725Y-107049155D01*
X119556147Y-107054066D01*
X119710648Y-107166318D01*
X119716676Y-107169002D01*
X119716678Y-107169003D01*
X119814276Y-107212456D01*
X119885112Y-107243994D01*
X119949288Y-107257635D01*
X120065456Y-107282328D01*
X120065461Y-107282328D01*
X120071913Y-107283700D01*
X120262887Y-107283700D01*
X120269339Y-107282328D01*
X120269344Y-107282328D01*
X120385512Y-107257635D01*
X120449688Y-107243994D01*
X120520524Y-107212456D01*
X120618122Y-107169003D01*
X120618124Y-107169002D01*
X120624152Y-107166318D01*
X120778653Y-107054066D01*
X120783075Y-107049155D01*
X120902021Y-106917052D01*
X120902022Y-106917051D01*
X120906440Y-106912144D01*
X120985813Y-106774666D01*
X120998623Y-106752479D01*
X120998624Y-106752478D01*
X121001927Y-106746756D01*
X121060942Y-106565128D01*
X121069487Y-106483832D01*
X121080214Y-106381765D01*
X121080904Y-106375200D01*
X121078999Y-106357072D01*
X121061632Y-106191835D01*
X121061632Y-106191833D01*
X121060942Y-106185272D01*
X121001927Y-106003644D01*
X120975499Y-105957870D01*
X120958762Y-105888878D01*
X120981982Y-105821786D01*
X121037789Y-105777898D01*
X121108464Y-105771149D01*
X121156890Y-105791659D01*
X121277814Y-105876331D01*
X121282323Y-105879488D01*
X121287305Y-105881811D01*
X121287310Y-105881814D01*
X121421954Y-105944599D01*
X121483804Y-105973440D01*
X121489112Y-105974862D01*
X121489114Y-105974863D01*
X121536705Y-105987615D01*
X121698537Y-106030978D01*
X121920000Y-106050353D01*
X122141463Y-106030978D01*
X122303295Y-105987615D01*
X122350886Y-105974863D01*
X122350888Y-105974862D01*
X122356196Y-105973440D01*
X122418046Y-105944599D01*
X122552690Y-105881814D01*
X122552695Y-105881811D01*
X122557677Y-105879488D01*
X122681500Y-105792786D01*
X122735270Y-105755136D01*
X122735273Y-105755134D01*
X122739781Y-105751977D01*
X122896977Y-105594781D01*
X122900683Y-105589489D01*
X123021331Y-105417185D01*
X123021333Y-105417182D01*
X123024488Y-105412676D01*
X123026811Y-105407694D01*
X123026814Y-105407689D01*
X123075805Y-105302627D01*
X123122723Y-105249342D01*
X123191000Y-105229881D01*
X123258960Y-105250423D01*
X123304195Y-105302627D01*
X123353186Y-105407689D01*
X123353189Y-105407694D01*
X123355512Y-105412676D01*
X123358667Y-105417182D01*
X123358670Y-105417187D01*
X123361338Y-105420997D01*
X123384024Y-105488272D01*
X123366737Y-105557132D01*
X123366269Y-105557846D01*
X123365360Y-105558856D01*
X123269873Y-105724244D01*
X123210858Y-105905872D01*
X123210168Y-105912433D01*
X123210168Y-105912435D01*
X123196230Y-106045053D01*
X123190896Y-106095800D01*
X123191586Y-106102365D01*
X123208402Y-106262357D01*
X123210858Y-106285728D01*
X123269873Y-106467356D01*
X123273176Y-106473078D01*
X123273177Y-106473079D01*
X123276552Y-106478924D01*
X123365360Y-106632744D01*
X123369778Y-106637651D01*
X123369779Y-106637652D01*
X123488470Y-106769472D01*
X123493147Y-106774666D01*
X123647648Y-106886918D01*
X123653676Y-106889602D01*
X123653678Y-106889603D01*
X123801904Y-106955597D01*
X123822112Y-106964594D01*
X123915512Y-106984447D01*
X124002456Y-107002928D01*
X124002461Y-107002928D01*
X124008913Y-107004300D01*
X124199887Y-107004300D01*
X124206339Y-107002928D01*
X124206344Y-107002928D01*
X124293288Y-106984447D01*
X124386688Y-106964594D01*
X124406896Y-106955597D01*
X124555122Y-106889603D01*
X124555124Y-106889602D01*
X124561152Y-106886918D01*
X124715653Y-106774666D01*
X124720330Y-106769472D01*
X124839021Y-106637652D01*
X124839022Y-106637651D01*
X124843440Y-106632744D01*
X124932248Y-106478924D01*
X124935623Y-106473079D01*
X124935624Y-106473078D01*
X124938927Y-106467356D01*
X124997942Y-106285728D01*
X125000399Y-106262357D01*
X125017214Y-106102365D01*
X125017904Y-106095800D01*
X125014700Y-106065318D01*
X125009353Y-106014437D01*
X125022126Y-105944599D01*
X125070628Y-105892752D01*
X125081413Y-105887072D01*
X125092690Y-105881814D01*
X125092695Y-105881811D01*
X125097677Y-105879488D01*
X125221500Y-105792786D01*
X125275270Y-105755136D01*
X125275273Y-105755134D01*
X125279781Y-105751977D01*
X125436977Y-105594781D01*
X125440683Y-105589489D01*
X125561331Y-105417185D01*
X125561333Y-105417182D01*
X125564488Y-105412676D01*
X125566811Y-105407694D01*
X125566814Y-105407689D01*
X125615805Y-105302627D01*
X125662723Y-105249342D01*
X125731000Y-105229881D01*
X125798960Y-105250423D01*
X125844195Y-105302627D01*
X125893186Y-105407689D01*
X125893189Y-105407694D01*
X125895512Y-105412676D01*
X125898667Y-105417182D01*
X125898669Y-105417185D01*
X126019318Y-105589489D01*
X126023023Y-105594781D01*
X126180219Y-105751977D01*
X126184727Y-105755134D01*
X126184730Y-105755136D01*
X126238500Y-105792786D01*
X126362323Y-105879488D01*
X126367305Y-105881811D01*
X126367310Y-105881814D01*
X126501954Y-105944599D01*
X126563804Y-105973440D01*
X126569112Y-105974862D01*
X126569114Y-105974863D01*
X126675108Y-106003264D01*
X126735731Y-106040216D01*
X126766752Y-106104077D01*
X126758324Y-106174571D01*
X126716558Y-106226907D01*
X126653443Y-106272763D01*
X126642747Y-106280534D01*
X126638326Y-106285444D01*
X126638325Y-106285445D01*
X126563421Y-106368635D01*
X126514960Y-106422456D01*
X126456686Y-106523390D01*
X126428964Y-106571406D01*
X126419473Y-106587844D01*
X126360458Y-106769472D01*
X126359768Y-106776033D01*
X126359768Y-106776035D01*
X126352951Y-106840900D01*
X126340496Y-106959400D01*
X126341186Y-106965965D01*
X126352177Y-107070534D01*
X126360458Y-107149328D01*
X126419473Y-107330956D01*
X126422776Y-107336678D01*
X126422777Y-107336679D01*
X126456686Y-107395410D01*
X126514960Y-107496344D01*
X126519378Y-107501251D01*
X126519379Y-107501252D01*
X126577710Y-107566035D01*
X126642747Y-107638266D01*
X126797248Y-107750518D01*
X126803276Y-107753202D01*
X126803278Y-107753203D01*
X126910956Y-107801144D01*
X126971712Y-107828194D01*
X127036650Y-107841997D01*
X127152056Y-107866528D01*
X127152061Y-107866528D01*
X127158513Y-107867900D01*
X127349487Y-107867900D01*
X127355939Y-107866528D01*
X127355944Y-107866528D01*
X127471350Y-107841997D01*
X127536288Y-107828194D01*
X127597044Y-107801144D01*
X127704722Y-107753203D01*
X127704724Y-107753202D01*
X127710752Y-107750518D01*
X127865253Y-107638266D01*
X127930290Y-107566035D01*
X127988621Y-107501252D01*
X127988622Y-107501251D01*
X127993040Y-107496344D01*
X128051314Y-107395410D01*
X128085223Y-107336679D01*
X128085224Y-107336678D01*
X128088527Y-107330956D01*
X128147542Y-107149328D01*
X128155824Y-107070534D01*
X128166814Y-106965965D01*
X128167504Y-106959400D01*
X128155049Y-106840900D01*
X128148232Y-106776035D01*
X128148232Y-106776033D01*
X128147542Y-106769472D01*
X128088527Y-106587844D01*
X128079037Y-106571406D01*
X128051314Y-106523390D01*
X127993040Y-106422456D01*
X127944580Y-106368635D01*
X127869675Y-106285445D01*
X127869674Y-106285444D01*
X127865253Y-106280534D01*
X127710752Y-106168282D01*
X127704726Y-106165599D01*
X127704719Y-106165595D01*
X127609128Y-106123036D01*
X127555032Y-106077056D01*
X127534382Y-106009129D01*
X127553734Y-105940821D01*
X127607127Y-105893734D01*
X127632686Y-105881816D01*
X127632692Y-105881813D01*
X127637677Y-105879488D01*
X127761500Y-105792786D01*
X127815270Y-105755136D01*
X127815273Y-105755134D01*
X127819781Y-105751977D01*
X127976977Y-105594781D01*
X127980683Y-105589489D01*
X128101331Y-105417185D01*
X128101333Y-105417182D01*
X128104488Y-105412676D01*
X128106811Y-105407694D01*
X128106814Y-105407689D01*
X128155805Y-105302627D01*
X128202723Y-105249342D01*
X128271000Y-105229881D01*
X128338960Y-105250423D01*
X128384195Y-105302627D01*
X128433186Y-105407689D01*
X128433189Y-105407694D01*
X128435512Y-105412676D01*
X128438667Y-105417182D01*
X128438669Y-105417185D01*
X128559318Y-105589489D01*
X128563023Y-105594781D01*
X128720219Y-105751977D01*
X128724727Y-105755134D01*
X128724730Y-105755136D01*
X128778500Y-105792786D01*
X128902323Y-105879488D01*
X128907305Y-105881811D01*
X128907310Y-105881814D01*
X129041954Y-105944599D01*
X129103804Y-105973440D01*
X129109112Y-105974862D01*
X129109114Y-105974863D01*
X129156705Y-105987615D01*
X129318537Y-106030978D01*
X129540000Y-106050353D01*
X129761463Y-106030978D01*
X129923295Y-105987615D01*
X129970886Y-105974863D01*
X129970888Y-105974862D01*
X129976196Y-105973440D01*
X130038046Y-105944599D01*
X130172690Y-105881814D01*
X130172695Y-105881811D01*
X130177677Y-105879488D01*
X130301500Y-105792786D01*
X130355270Y-105755136D01*
X130355273Y-105755134D01*
X130359781Y-105751977D01*
X130516977Y-105594781D01*
X130520683Y-105589489D01*
X130641331Y-105417185D01*
X130641333Y-105417182D01*
X130644488Y-105412676D01*
X130646811Y-105407694D01*
X130646814Y-105407689D01*
X130695805Y-105302627D01*
X130742723Y-105249342D01*
X130811000Y-105229881D01*
X130878960Y-105250423D01*
X130924195Y-105302627D01*
X130973186Y-105407689D01*
X130973189Y-105407694D01*
X130975512Y-105412676D01*
X130978667Y-105417182D01*
X130978669Y-105417185D01*
X131099318Y-105589489D01*
X131103023Y-105594781D01*
X131260219Y-105751977D01*
X131264727Y-105755134D01*
X131264730Y-105755136D01*
X131318500Y-105792786D01*
X131442323Y-105879488D01*
X131447305Y-105881811D01*
X131447310Y-105881814D01*
X131581954Y-105944599D01*
X131643804Y-105973440D01*
X131649112Y-105974862D01*
X131649114Y-105974863D01*
X131696705Y-105987615D01*
X131858537Y-106030978D01*
X132080000Y-106050353D01*
X132301463Y-106030978D01*
X132463295Y-105987615D01*
X132510886Y-105974863D01*
X132510888Y-105974862D01*
X132516196Y-105973440D01*
X132578046Y-105944599D01*
X132712690Y-105881814D01*
X132712695Y-105881811D01*
X132717677Y-105879488D01*
X132841500Y-105792786D01*
X132895270Y-105755136D01*
X132895273Y-105755134D01*
X132899781Y-105751977D01*
X133056977Y-105594781D01*
X133060683Y-105589489D01*
X133120287Y-105504365D01*
X133175744Y-105460037D01*
X133246363Y-105452728D01*
X133309724Y-105484759D01*
X133345709Y-105545960D01*
X133349500Y-105576636D01*
X133349500Y-105585134D01*
X133356255Y-105647316D01*
X133407385Y-105783705D01*
X133494739Y-105900261D01*
X133611295Y-105987615D01*
X133747684Y-106038745D01*
X133809866Y-106045500D01*
X135255500Y-106045500D01*
X135323621Y-106065502D01*
X135370114Y-106119158D01*
X135381500Y-106171500D01*
X135381500Y-112705209D01*
X135361498Y-112773330D01*
X135307842Y-112819823D01*
X135237568Y-112829927D01*
X135172988Y-112800433D01*
X135135667Y-112744145D01*
X135134172Y-112739543D01*
X135124327Y-112709244D01*
X135112224Y-112688280D01*
X135032141Y-112549574D01*
X135028840Y-112543856D01*
X135011281Y-112524354D01*
X134905475Y-112406845D01*
X134905474Y-112406844D01*
X134901053Y-112401934D01*
X134746552Y-112289682D01*
X134740524Y-112286998D01*
X134740522Y-112286997D01*
X134578119Y-112214691D01*
X134578118Y-112214691D01*
X134572088Y-112212006D01*
X134478687Y-112192153D01*
X134391744Y-112173672D01*
X134391739Y-112173672D01*
X134385287Y-112172300D01*
X134194313Y-112172300D01*
X134187861Y-112173672D01*
X134187856Y-112173672D01*
X134100912Y-112192153D01*
X134007512Y-112212006D01*
X134001482Y-112214691D01*
X134001481Y-112214691D01*
X133839078Y-112286997D01*
X133839076Y-112286998D01*
X133833048Y-112289682D01*
X133678547Y-112401934D01*
X133674126Y-112406844D01*
X133674125Y-112406845D01*
X133568320Y-112524354D01*
X133550760Y-112543856D01*
X133547459Y-112549574D01*
X133467377Y-112688280D01*
X133455273Y-112709244D01*
X133396258Y-112890872D01*
X133395568Y-112897433D01*
X133395568Y-112897435D01*
X133379428Y-113051002D01*
X133376296Y-113080800D01*
X133376986Y-113087365D01*
X133393666Y-113246062D01*
X133396258Y-113270728D01*
X133455273Y-113452356D01*
X133505010Y-113538502D01*
X133521747Y-113607495D01*
X133505010Y-113664498D01*
X133455273Y-113750644D01*
X133396258Y-113932272D01*
X133395568Y-113938833D01*
X133395568Y-113938835D01*
X133382008Y-114067856D01*
X133376296Y-114122200D01*
X133376986Y-114128765D01*
X133388628Y-114239529D01*
X133396258Y-114312128D01*
X133455273Y-114493756D01*
X133550760Y-114659144D01*
X133555178Y-114664051D01*
X133555179Y-114664052D01*
X133641751Y-114760200D01*
X133678547Y-114801066D01*
X133833048Y-114913318D01*
X133839076Y-114916002D01*
X133839078Y-114916003D01*
X133912899Y-114948870D01*
X134007512Y-114990994D01*
X134100912Y-115010847D01*
X134187856Y-115029328D01*
X134187861Y-115029328D01*
X134194313Y-115030700D01*
X134385287Y-115030700D01*
X134391739Y-115029328D01*
X134391744Y-115029328D01*
X134478688Y-115010847D01*
X134572088Y-114990994D01*
X134666701Y-114948870D01*
X134740522Y-114916003D01*
X134740524Y-114916002D01*
X134746552Y-114913318D01*
X134901053Y-114801066D01*
X134937849Y-114760200D01*
X135024421Y-114664052D01*
X135024422Y-114664051D01*
X135028840Y-114659144D01*
X135124327Y-114493756D01*
X135135667Y-114458855D01*
X135175740Y-114400249D01*
X135241137Y-114372612D01*
X135311094Y-114384719D01*
X135363400Y-114432725D01*
X135381500Y-114497791D01*
X135381500Y-142909820D01*
X135361498Y-142977941D01*
X135307842Y-143024434D01*
X135237568Y-143034538D01*
X135202250Y-143024015D01*
X135066818Y-142960862D01*
X135066817Y-142960861D01*
X135061836Y-142958539D01*
X135056528Y-142957117D01*
X135056526Y-142957116D01*
X134854564Y-142903001D01*
X134854563Y-142903001D01*
X134849249Y-142901577D01*
X134630000Y-142882395D01*
X134410751Y-142901577D01*
X134405437Y-142903001D01*
X134405436Y-142903001D01*
X134203474Y-142957116D01*
X134203472Y-142957117D01*
X134198164Y-142958539D01*
X134193184Y-142960861D01*
X134193182Y-142960862D01*
X134003679Y-143049229D01*
X134003676Y-143049231D01*
X133998698Y-143051552D01*
X133818413Y-143177788D01*
X133662788Y-143333413D01*
X133536552Y-143513698D01*
X133534231Y-143518676D01*
X133534229Y-143518679D01*
X133481201Y-143632398D01*
X133434283Y-143685683D01*
X133366006Y-143705144D01*
X133298046Y-143684602D01*
X133252811Y-143632398D01*
X133196814Y-143512311D01*
X133196811Y-143512306D01*
X133194488Y-143507324D01*
X133075874Y-143337925D01*
X133070136Y-143329730D01*
X133070134Y-143329727D01*
X133066977Y-143325219D01*
X132909781Y-143168023D01*
X132905273Y-143164866D01*
X132905270Y-143164864D01*
X132747949Y-143054707D01*
X132727677Y-143040512D01*
X132722695Y-143038189D01*
X132722690Y-143038186D01*
X132531178Y-142948883D01*
X132531177Y-142948882D01*
X132526196Y-142946560D01*
X132520888Y-142945138D01*
X132520886Y-142945137D01*
X132455051Y-142927497D01*
X132311463Y-142889022D01*
X132090000Y-142869647D01*
X131868537Y-142889022D01*
X131724949Y-142927497D01*
X131659114Y-142945137D01*
X131659112Y-142945138D01*
X131653804Y-142946560D01*
X131648823Y-142948882D01*
X131648822Y-142948883D01*
X131457311Y-143038186D01*
X131457306Y-143038189D01*
X131452324Y-143040512D01*
X131447817Y-143043668D01*
X131447815Y-143043669D01*
X131274730Y-143164864D01*
X131274727Y-143164866D01*
X131270219Y-143168023D01*
X131113023Y-143325219D01*
X131109866Y-143329727D01*
X131109864Y-143329730D01*
X131104126Y-143337925D01*
X130985512Y-143507324D01*
X130983189Y-143512306D01*
X130983186Y-143512311D01*
X130934195Y-143617373D01*
X130887277Y-143670658D01*
X130819000Y-143690119D01*
X130751040Y-143669577D01*
X130705805Y-143617373D01*
X130656814Y-143512311D01*
X130656811Y-143512306D01*
X130654488Y-143507324D01*
X130535874Y-143337925D01*
X130530136Y-143329730D01*
X130530134Y-143329727D01*
X130526977Y-143325219D01*
X130369781Y-143168023D01*
X130365273Y-143164866D01*
X130365270Y-143164864D01*
X130207949Y-143054707D01*
X130187677Y-143040512D01*
X130182695Y-143038189D01*
X130182690Y-143038186D01*
X129991178Y-142948883D01*
X129991177Y-142948882D01*
X129986196Y-142946560D01*
X129980888Y-142945138D01*
X129980886Y-142945137D01*
X129915051Y-142927497D01*
X129771463Y-142889022D01*
X129550000Y-142869647D01*
X129328537Y-142889022D01*
X129184949Y-142927497D01*
X129119114Y-142945137D01*
X129119112Y-142945138D01*
X129113804Y-142946560D01*
X129108823Y-142948882D01*
X129108822Y-142948883D01*
X128917311Y-143038186D01*
X128917306Y-143038189D01*
X128912324Y-143040512D01*
X128907817Y-143043668D01*
X128907815Y-143043669D01*
X128734730Y-143164864D01*
X128734727Y-143164866D01*
X128730219Y-143168023D01*
X128573023Y-143325219D01*
X128569866Y-143329727D01*
X128569864Y-143329730D01*
X128564126Y-143337925D01*
X128445512Y-143507324D01*
X128443189Y-143512306D01*
X128443186Y-143512311D01*
X128394195Y-143617373D01*
X128347277Y-143670658D01*
X128279000Y-143690119D01*
X128211040Y-143669577D01*
X128165805Y-143617373D01*
X128116814Y-143512311D01*
X128116811Y-143512306D01*
X128114488Y-143507324D01*
X127995874Y-143337925D01*
X127990136Y-143329730D01*
X127990134Y-143329727D01*
X127986977Y-143325219D01*
X127829781Y-143168023D01*
X127825273Y-143164866D01*
X127825270Y-143164864D01*
X127667949Y-143054707D01*
X127647677Y-143040512D01*
X127642695Y-143038189D01*
X127642690Y-143038186D01*
X127451178Y-142948883D01*
X127451177Y-142948882D01*
X127446196Y-142946560D01*
X127440888Y-142945138D01*
X127440886Y-142945137D01*
X127375051Y-142927497D01*
X127231463Y-142889022D01*
X127010000Y-142869647D01*
X126788537Y-142889022D01*
X126644949Y-142927497D01*
X126579114Y-142945137D01*
X126579112Y-142945138D01*
X126573804Y-142946560D01*
X126568823Y-142948882D01*
X126568822Y-142948883D01*
X126377311Y-143038186D01*
X126377306Y-143038189D01*
X126372324Y-143040512D01*
X126367817Y-143043668D01*
X126367815Y-143043669D01*
X126194730Y-143164864D01*
X126194727Y-143164866D01*
X126190219Y-143168023D01*
X126033023Y-143325219D01*
X126029866Y-143329727D01*
X126029864Y-143329730D01*
X126024126Y-143337925D01*
X125905512Y-143507324D01*
X125903189Y-143512306D01*
X125903186Y-143512311D01*
X125854195Y-143617373D01*
X125807277Y-143670658D01*
X125739000Y-143690119D01*
X125671040Y-143669577D01*
X125625805Y-143617373D01*
X125576814Y-143512311D01*
X125576811Y-143512306D01*
X125574488Y-143507324D01*
X125455874Y-143337925D01*
X125450136Y-143329730D01*
X125450134Y-143329727D01*
X125446977Y-143325219D01*
X125289781Y-143168023D01*
X125285273Y-143164866D01*
X125285270Y-143164864D01*
X125127949Y-143054707D01*
X125107677Y-143040512D01*
X125102695Y-143038189D01*
X125102690Y-143038186D01*
X124911178Y-142948883D01*
X124911177Y-142948882D01*
X124906196Y-142946560D01*
X124900888Y-142945138D01*
X124900886Y-142945137D01*
X124835051Y-142927497D01*
X124691463Y-142889022D01*
X124470000Y-142869647D01*
X124248537Y-142889022D01*
X124104949Y-142927497D01*
X124039114Y-142945137D01*
X124039112Y-142945138D01*
X124033804Y-142946560D01*
X124028823Y-142948882D01*
X124028822Y-142948883D01*
X123837311Y-143038186D01*
X123837306Y-143038189D01*
X123832324Y-143040512D01*
X123827817Y-143043668D01*
X123827815Y-143043669D01*
X123654730Y-143164864D01*
X123654727Y-143164866D01*
X123650219Y-143168023D01*
X123493023Y-143325219D01*
X123489866Y-143329727D01*
X123489864Y-143329730D01*
X123484126Y-143337925D01*
X123365512Y-143507324D01*
X123363189Y-143512306D01*
X123363186Y-143512311D01*
X123314195Y-143617373D01*
X123267277Y-143670658D01*
X123199000Y-143690119D01*
X123131040Y-143669577D01*
X123085805Y-143617373D01*
X123036814Y-143512311D01*
X123036811Y-143512306D01*
X123034488Y-143507324D01*
X122915874Y-143337925D01*
X122910136Y-143329730D01*
X122910134Y-143329727D01*
X122906977Y-143325219D01*
X122749781Y-143168023D01*
X122745273Y-143164866D01*
X122745270Y-143164864D01*
X122587949Y-143054707D01*
X122567677Y-143040512D01*
X122562695Y-143038189D01*
X122562690Y-143038186D01*
X122371178Y-142948883D01*
X122371177Y-142948882D01*
X122366196Y-142946560D01*
X122360888Y-142945138D01*
X122360886Y-142945137D01*
X122295051Y-142927497D01*
X122151463Y-142889022D01*
X121930000Y-142869647D01*
X121708537Y-142889022D01*
X121564949Y-142927497D01*
X121499114Y-142945137D01*
X121499112Y-142945138D01*
X121493804Y-142946560D01*
X121488823Y-142948882D01*
X121488822Y-142948883D01*
X121297311Y-143038186D01*
X121297306Y-143038189D01*
X121292324Y-143040512D01*
X121287817Y-143043668D01*
X121287815Y-143043669D01*
X121114730Y-143164864D01*
X121114727Y-143164866D01*
X121110219Y-143168023D01*
X120953023Y-143325219D01*
X120949866Y-143329727D01*
X120949864Y-143329730D01*
X120944126Y-143337925D01*
X120825512Y-143507324D01*
X120823189Y-143512306D01*
X120823186Y-143512311D01*
X120774195Y-143617373D01*
X120727277Y-143670658D01*
X120659000Y-143690119D01*
X120591040Y-143669577D01*
X120545805Y-143617373D01*
X120496814Y-143512311D01*
X120496811Y-143512306D01*
X120494488Y-143507324D01*
X120375874Y-143337925D01*
X120370136Y-143329730D01*
X120370134Y-143329727D01*
X120366977Y-143325219D01*
X120209781Y-143168023D01*
X120205273Y-143164866D01*
X120205270Y-143164864D01*
X120047949Y-143054707D01*
X120027677Y-143040512D01*
X120022695Y-143038189D01*
X120022690Y-143038186D01*
X119831178Y-142948883D01*
X119831177Y-142948882D01*
X119826196Y-142946560D01*
X119820888Y-142945138D01*
X119820886Y-142945137D01*
X119755051Y-142927497D01*
X119611463Y-142889022D01*
X119390000Y-142869647D01*
X119168537Y-142889022D01*
X119024949Y-142927497D01*
X118959114Y-142945137D01*
X118959112Y-142945138D01*
X118953804Y-142946560D01*
X118948823Y-142948882D01*
X118948822Y-142948883D01*
X118757311Y-143038186D01*
X118757306Y-143038189D01*
X118752324Y-143040512D01*
X118747817Y-143043668D01*
X118747815Y-143043669D01*
X118574730Y-143164864D01*
X118574727Y-143164866D01*
X118570219Y-143168023D01*
X118413023Y-143325219D01*
X118409866Y-143329727D01*
X118409864Y-143329730D01*
X118404126Y-143337925D01*
X118285512Y-143507324D01*
X118283189Y-143512306D01*
X118283186Y-143512311D01*
X118234195Y-143617373D01*
X118187277Y-143670658D01*
X118119000Y-143690119D01*
X118051040Y-143669577D01*
X118005805Y-143617373D01*
X117956814Y-143512311D01*
X117956811Y-143512306D01*
X117954488Y-143507324D01*
X117835874Y-143337925D01*
X117830136Y-143329730D01*
X117830134Y-143329727D01*
X117826977Y-143325219D01*
X117669781Y-143168023D01*
X117665273Y-143164866D01*
X117665270Y-143164864D01*
X117507949Y-143054707D01*
X117487677Y-143040512D01*
X117482695Y-143038189D01*
X117482690Y-143038186D01*
X117291178Y-142948883D01*
X117291177Y-142948882D01*
X117286196Y-142946560D01*
X117280888Y-142945138D01*
X117280886Y-142945137D01*
X117215051Y-142927497D01*
X117071463Y-142889022D01*
X116850000Y-142869647D01*
X116628537Y-142889022D01*
X116484949Y-142927497D01*
X116419114Y-142945137D01*
X116419112Y-142945138D01*
X116413804Y-142946560D01*
X116408823Y-142948882D01*
X116408822Y-142948883D01*
X116217311Y-143038186D01*
X116217306Y-143038189D01*
X116212324Y-143040512D01*
X116207817Y-143043668D01*
X116207815Y-143043669D01*
X116034730Y-143164864D01*
X116034727Y-143164866D01*
X116030219Y-143168023D01*
X115873023Y-143325219D01*
X115869866Y-143329727D01*
X115869864Y-143329730D01*
X115864126Y-143337925D01*
X115745512Y-143507324D01*
X115743189Y-143512306D01*
X115743186Y-143512311D01*
X115694195Y-143617373D01*
X115647277Y-143670658D01*
X115579000Y-143690119D01*
X115511040Y-143669577D01*
X115465805Y-143617373D01*
X115416814Y-143512311D01*
X115416811Y-143512306D01*
X115414488Y-143507324D01*
X115295874Y-143337925D01*
X115290136Y-143329730D01*
X115290134Y-143329727D01*
X115286977Y-143325219D01*
X115129781Y-143168023D01*
X115125273Y-143164866D01*
X115125270Y-143164864D01*
X114967949Y-143054707D01*
X114947677Y-143040512D01*
X114942695Y-143038189D01*
X114942690Y-143038186D01*
X114751178Y-142948883D01*
X114751177Y-142948882D01*
X114746196Y-142946560D01*
X114740888Y-142945138D01*
X114740886Y-142945137D01*
X114675051Y-142927497D01*
X114531463Y-142889022D01*
X114310000Y-142869647D01*
X114088537Y-142889022D01*
X113944949Y-142927497D01*
X113879114Y-142945137D01*
X113879112Y-142945138D01*
X113873804Y-142946560D01*
X113868823Y-142948882D01*
X113868822Y-142948883D01*
X113677311Y-143038186D01*
X113677306Y-143038189D01*
X113672324Y-143040512D01*
X113667817Y-143043668D01*
X113667815Y-143043669D01*
X113494730Y-143164864D01*
X113494727Y-143164866D01*
X113490219Y-143168023D01*
X113333023Y-143325219D01*
X113329866Y-143329727D01*
X113329864Y-143329730D01*
X113324126Y-143337925D01*
X113205512Y-143507324D01*
X113203189Y-143512306D01*
X113203186Y-143512311D01*
X113154195Y-143617373D01*
X113107277Y-143670658D01*
X113039000Y-143690119D01*
X112971040Y-143669577D01*
X112925805Y-143617373D01*
X112876814Y-143512311D01*
X112876811Y-143512306D01*
X112874488Y-143507324D01*
X112755874Y-143337925D01*
X112750136Y-143329730D01*
X112750134Y-143329727D01*
X112746977Y-143325219D01*
X112589781Y-143168023D01*
X112585273Y-143164866D01*
X112585270Y-143164864D01*
X112427949Y-143054707D01*
X112407677Y-143040512D01*
X112402695Y-143038189D01*
X112402690Y-143038186D01*
X112211178Y-142948883D01*
X112211177Y-142948882D01*
X112206196Y-142946560D01*
X112200888Y-142945138D01*
X112200886Y-142945137D01*
X112135051Y-142927497D01*
X111991463Y-142889022D01*
X111770000Y-142869647D01*
X111548537Y-142889022D01*
X111404949Y-142927497D01*
X111339114Y-142945137D01*
X111339112Y-142945138D01*
X111333804Y-142946560D01*
X111328823Y-142948882D01*
X111328822Y-142948883D01*
X111137311Y-143038186D01*
X111137306Y-143038189D01*
X111132324Y-143040512D01*
X111127817Y-143043668D01*
X111127815Y-143043669D01*
X110954730Y-143164864D01*
X110954727Y-143164866D01*
X110950219Y-143168023D01*
X110793023Y-143325219D01*
X110789866Y-143329727D01*
X110789864Y-143329730D01*
X110784126Y-143337925D01*
X110665512Y-143507324D01*
X110663189Y-143512306D01*
X110663186Y-143512311D01*
X110614195Y-143617373D01*
X110567277Y-143670658D01*
X110499000Y-143690119D01*
X110431040Y-143669577D01*
X110385805Y-143617373D01*
X110336814Y-143512311D01*
X110336811Y-143512306D01*
X110334488Y-143507324D01*
X110215874Y-143337925D01*
X110210136Y-143329730D01*
X110210134Y-143329727D01*
X110206977Y-143325219D01*
X110049781Y-143168023D01*
X110045273Y-143164866D01*
X110045270Y-143164864D01*
X109887949Y-143054707D01*
X109867677Y-143040512D01*
X109862695Y-143038189D01*
X109862690Y-143038186D01*
X109671178Y-142948883D01*
X109671177Y-142948882D01*
X109666196Y-142946560D01*
X109660888Y-142945138D01*
X109660886Y-142945137D01*
X109595051Y-142927497D01*
X109451463Y-142889022D01*
X109230000Y-142869647D01*
X109008537Y-142889022D01*
X108864949Y-142927497D01*
X108799114Y-142945137D01*
X108799112Y-142945138D01*
X108793804Y-142946560D01*
X108788823Y-142948882D01*
X108788822Y-142948883D01*
X108597311Y-143038186D01*
X108597306Y-143038189D01*
X108592324Y-143040512D01*
X108587817Y-143043668D01*
X108587815Y-143043669D01*
X108414730Y-143164864D01*
X108414727Y-143164866D01*
X108410219Y-143168023D01*
X108253023Y-143325219D01*
X108249866Y-143329727D01*
X108249864Y-143329730D01*
X108244126Y-143337925D01*
X108125512Y-143507324D01*
X108123189Y-143512306D01*
X108123186Y-143512311D01*
X108074195Y-143617373D01*
X108027277Y-143670658D01*
X107959000Y-143690119D01*
X107891040Y-143669577D01*
X107845805Y-143617373D01*
X107796814Y-143512311D01*
X107796811Y-143512306D01*
X107794488Y-143507324D01*
X107675874Y-143337925D01*
X107670136Y-143329730D01*
X107670134Y-143329727D01*
X107666977Y-143325219D01*
X107509781Y-143168023D01*
X107505273Y-143164866D01*
X107505270Y-143164864D01*
X107347949Y-143054707D01*
X107327677Y-143040512D01*
X107322695Y-143038189D01*
X107322690Y-143038186D01*
X107131178Y-142948883D01*
X107131177Y-142948882D01*
X107126196Y-142946560D01*
X107120888Y-142945138D01*
X107120886Y-142945137D01*
X107055051Y-142927497D01*
X106911463Y-142889022D01*
X106690000Y-142869647D01*
X106468537Y-142889022D01*
X106324949Y-142927497D01*
X106259114Y-142945137D01*
X106259112Y-142945138D01*
X106253804Y-142946560D01*
X106248823Y-142948882D01*
X106248822Y-142948883D01*
X106057311Y-143038186D01*
X106057306Y-143038189D01*
X106052324Y-143040512D01*
X106047817Y-143043668D01*
X106047815Y-143043669D01*
X105874730Y-143164864D01*
X105874727Y-143164866D01*
X105870219Y-143168023D01*
X105713023Y-143325219D01*
X105709866Y-143329727D01*
X105709864Y-143329730D01*
X105704126Y-143337925D01*
X105585512Y-143507324D01*
X105583189Y-143512306D01*
X105583186Y-143512311D01*
X105534195Y-143617373D01*
X105487277Y-143670658D01*
X105419000Y-143690119D01*
X105351040Y-143669577D01*
X105305805Y-143617373D01*
X105256814Y-143512311D01*
X105256811Y-143512306D01*
X105254488Y-143507324D01*
X105135874Y-143337925D01*
X105130136Y-143329730D01*
X105130134Y-143329727D01*
X105126977Y-143325219D01*
X104969781Y-143168023D01*
X104965273Y-143164866D01*
X104965270Y-143164864D01*
X104807949Y-143054707D01*
X104787677Y-143040512D01*
X104782695Y-143038189D01*
X104782690Y-143038186D01*
X104591178Y-142948883D01*
X104591177Y-142948882D01*
X104586196Y-142946560D01*
X104580888Y-142945138D01*
X104580886Y-142945137D01*
X104515051Y-142927497D01*
X104371463Y-142889022D01*
X104150000Y-142869647D01*
X103928537Y-142889022D01*
X103784949Y-142927497D01*
X103719114Y-142945137D01*
X103719112Y-142945138D01*
X103713804Y-142946560D01*
X103708823Y-142948882D01*
X103708822Y-142948883D01*
X103517311Y-143038186D01*
X103517306Y-143038189D01*
X103512324Y-143040512D01*
X103507817Y-143043668D01*
X103507815Y-143043669D01*
X103334730Y-143164864D01*
X103334727Y-143164866D01*
X103330219Y-143168023D01*
X103173023Y-143325219D01*
X103169866Y-143329727D01*
X103169864Y-143329730D01*
X103164126Y-143337925D01*
X103045512Y-143507324D01*
X103043189Y-143512306D01*
X103043186Y-143512311D01*
X102994195Y-143617373D01*
X102947277Y-143670658D01*
X102879000Y-143690119D01*
X102811040Y-143669577D01*
X102765805Y-143617373D01*
X102716814Y-143512311D01*
X102716811Y-143512306D01*
X102714488Y-143507324D01*
X102595874Y-143337925D01*
X102590136Y-143329730D01*
X102590134Y-143329727D01*
X102586977Y-143325219D01*
X102429781Y-143168023D01*
X102425273Y-143164866D01*
X102425270Y-143164864D01*
X102267949Y-143054707D01*
X102247677Y-143040512D01*
X102242695Y-143038189D01*
X102242690Y-143038186D01*
X102051178Y-142948883D01*
X102051177Y-142948882D01*
X102046196Y-142946560D01*
X102040888Y-142945138D01*
X102040886Y-142945137D01*
X101975051Y-142927497D01*
X101831463Y-142889022D01*
X101610000Y-142869647D01*
X101388537Y-142889022D01*
X101244949Y-142927497D01*
X101179114Y-142945137D01*
X101179112Y-142945138D01*
X101173804Y-142946560D01*
X101168823Y-142948882D01*
X101168822Y-142948883D01*
X101017750Y-143019329D01*
X100947558Y-143029990D01*
X100882745Y-143001010D01*
X100843889Y-142941590D01*
X100838500Y-142905134D01*
X100838500Y-141748937D01*
X100858502Y-141680816D01*
X100912158Y-141634323D01*
X100982432Y-141624219D01*
X101015552Y-141635680D01*
X101016248Y-141634118D01*
X101190712Y-141711794D01*
X101284113Y-141731647D01*
X101371056Y-141750128D01*
X101371061Y-141750128D01*
X101377513Y-141751500D01*
X101568487Y-141751500D01*
X101574939Y-141750128D01*
X101574944Y-141750128D01*
X101661887Y-141731647D01*
X101755288Y-141711794D01*
X101761319Y-141709109D01*
X101923722Y-141636803D01*
X101923724Y-141636802D01*
X101929752Y-141634118D01*
X102084253Y-141521866D01*
X102212040Y-141379944D01*
X102307527Y-141214556D01*
X102366542Y-141032928D01*
X102371107Y-140989500D01*
X102385814Y-140849565D01*
X102386504Y-140843000D01*
X102385814Y-140836435D01*
X102367232Y-140659635D01*
X102367232Y-140659633D01*
X102366542Y-140653072D01*
X102307527Y-140471444D01*
X102212040Y-140306056D01*
X102186064Y-140277206D01*
X102088675Y-140169045D01*
X102088674Y-140169044D01*
X102084253Y-140164134D01*
X101969829Y-140081000D01*
X115037496Y-140081000D01*
X115038186Y-140087565D01*
X115045826Y-140160251D01*
X115057458Y-140270928D01*
X115116473Y-140452556D01*
X115211960Y-140617944D01*
X115216378Y-140622851D01*
X115216379Y-140622852D01*
X115243589Y-140653072D01*
X115339747Y-140759866D01*
X115438843Y-140831864D01*
X115463207Y-140849565D01*
X115494248Y-140872118D01*
X115500276Y-140874802D01*
X115500278Y-140874803D01*
X115662681Y-140947109D01*
X115668712Y-140949794D01*
X115762112Y-140969647D01*
X115849056Y-140988128D01*
X115849061Y-140988128D01*
X115855513Y-140989500D01*
X116046487Y-140989500D01*
X116052939Y-140988128D01*
X116052944Y-140988128D01*
X116139888Y-140969647D01*
X116233288Y-140949794D01*
X116239319Y-140947109D01*
X116401722Y-140874803D01*
X116401724Y-140874802D01*
X116407752Y-140872118D01*
X116438794Y-140849565D01*
X116463157Y-140831864D01*
X116562253Y-140759866D01*
X116658411Y-140653072D01*
X116685621Y-140622852D01*
X116685622Y-140622851D01*
X116690040Y-140617944D01*
X116785527Y-140452556D01*
X116844542Y-140270928D01*
X116856175Y-140160251D01*
X116863814Y-140087565D01*
X116864504Y-140081000D01*
X116853280Y-139974206D01*
X116845232Y-139897635D01*
X116845232Y-139897633D01*
X116844542Y-139891072D01*
X116785527Y-139709444D01*
X116690040Y-139544056D01*
X116677534Y-139530166D01*
X116566675Y-139407045D01*
X116566674Y-139407044D01*
X116562253Y-139402134D01*
X116407752Y-139289882D01*
X116401724Y-139287198D01*
X116401722Y-139287197D01*
X116239319Y-139214891D01*
X116239318Y-139214891D01*
X116233288Y-139212206D01*
X116139887Y-139192353D01*
X116052944Y-139173872D01*
X116052939Y-139173872D01*
X116046487Y-139172500D01*
X115855513Y-139172500D01*
X115849061Y-139173872D01*
X115849056Y-139173872D01*
X115762113Y-139192353D01*
X115668712Y-139212206D01*
X115662682Y-139214891D01*
X115662681Y-139214891D01*
X115500278Y-139287197D01*
X115500276Y-139287198D01*
X115494248Y-139289882D01*
X115339747Y-139402134D01*
X115335326Y-139407044D01*
X115335325Y-139407045D01*
X115224467Y-139530166D01*
X115211960Y-139544056D01*
X115116473Y-139709444D01*
X115057458Y-139891072D01*
X115056768Y-139897633D01*
X115056768Y-139897635D01*
X115048720Y-139974206D01*
X115037496Y-140081000D01*
X101969829Y-140081000D01*
X101935094Y-140055763D01*
X101935093Y-140055762D01*
X101929752Y-140051882D01*
X101923724Y-140049198D01*
X101923722Y-140049197D01*
X101761319Y-139976891D01*
X101761318Y-139976891D01*
X101755288Y-139974206D01*
X101661888Y-139954353D01*
X101574944Y-139935872D01*
X101574939Y-139935872D01*
X101568487Y-139934500D01*
X101377513Y-139934500D01*
X101371061Y-139935872D01*
X101371056Y-139935872D01*
X101284112Y-139954353D01*
X101190712Y-139974206D01*
X101016248Y-140051882D01*
X101015056Y-140049204D01*
X100958486Y-140062919D01*
X100891398Y-140039689D01*
X100847519Y-139983875D01*
X100838500Y-139937063D01*
X100838500Y-139065000D01*
X117831496Y-139065000D01*
X117832186Y-139071565D01*
X117846824Y-139210834D01*
X117851458Y-139254928D01*
X117910473Y-139436556D01*
X117913776Y-139442278D01*
X117913777Y-139442279D01*
X117920937Y-139454680D01*
X118005960Y-139601944D01*
X118133747Y-139743866D01*
X118288248Y-139856118D01*
X118294276Y-139858802D01*
X118294278Y-139858803D01*
X118366756Y-139891072D01*
X118462712Y-139933794D01*
X118556112Y-139953647D01*
X118643056Y-139972128D01*
X118643061Y-139972128D01*
X118649513Y-139973500D01*
X118840487Y-139973500D01*
X118846939Y-139972128D01*
X118846944Y-139972128D01*
X118933888Y-139953647D01*
X119027288Y-139933794D01*
X119123244Y-139891072D01*
X119195722Y-139858803D01*
X119195724Y-139858802D01*
X119201752Y-139856118D01*
X119356253Y-139743866D01*
X119484040Y-139601944D01*
X119569063Y-139454680D01*
X119576223Y-139442279D01*
X119576224Y-139442278D01*
X119579527Y-139436556D01*
X119638542Y-139254928D01*
X119643177Y-139210834D01*
X119657814Y-139071565D01*
X119658504Y-139065000D01*
X119654328Y-139025271D01*
X119639232Y-138881635D01*
X119639232Y-138881633D01*
X119638542Y-138875072D01*
X119579527Y-138693444D01*
X119571111Y-138678866D01*
X119487341Y-138533774D01*
X119484040Y-138528056D01*
X119437741Y-138476635D01*
X119360675Y-138391045D01*
X119360674Y-138391044D01*
X119356253Y-138386134D01*
X119201752Y-138273882D01*
X119195724Y-138271198D01*
X119195722Y-138271197D01*
X119033319Y-138198891D01*
X119033318Y-138198891D01*
X119027288Y-138196206D01*
X118927480Y-138174991D01*
X118846944Y-138157872D01*
X118846939Y-138157872D01*
X118840487Y-138156500D01*
X118649513Y-138156500D01*
X118643061Y-138157872D01*
X118643056Y-138157872D01*
X118562520Y-138174991D01*
X118462712Y-138196206D01*
X118456682Y-138198891D01*
X118456681Y-138198891D01*
X118294278Y-138271197D01*
X118294276Y-138271198D01*
X118288248Y-138273882D01*
X118133747Y-138386134D01*
X118129326Y-138391044D01*
X118129325Y-138391045D01*
X118052260Y-138476635D01*
X118005960Y-138528056D01*
X118002659Y-138533774D01*
X117918890Y-138678866D01*
X117910473Y-138693444D01*
X117851458Y-138875072D01*
X117850768Y-138881633D01*
X117850768Y-138881635D01*
X117835672Y-139025271D01*
X117831496Y-139065000D01*
X100838500Y-139065000D01*
X100838500Y-137360000D01*
X119106496Y-137360000D01*
X119107186Y-137366565D01*
X119109642Y-137389928D01*
X119126458Y-137549928D01*
X119185473Y-137731556D01*
X119280960Y-137896944D01*
X119285378Y-137901851D01*
X119285379Y-137901852D01*
X119368172Y-137993803D01*
X119408747Y-138038866D01*
X119507843Y-138110864D01*
X119544198Y-138137277D01*
X119563248Y-138151118D01*
X119569276Y-138153802D01*
X119569278Y-138153803D01*
X119709333Y-138216159D01*
X119737712Y-138228794D01*
X119819930Y-138246270D01*
X119918056Y-138267128D01*
X119918061Y-138267128D01*
X119924513Y-138268500D01*
X120115487Y-138268500D01*
X120121939Y-138267128D01*
X120121944Y-138267128D01*
X120220070Y-138246270D01*
X120302288Y-138228794D01*
X120308391Y-138226077D01*
X120309488Y-138225589D01*
X120310221Y-138225491D01*
X120314600Y-138224068D01*
X120314860Y-138224869D01*
X120379856Y-138216159D01*
X120444151Y-138246270D01*
X120469849Y-138277699D01*
X120480960Y-138296944D01*
X120485378Y-138301851D01*
X120485379Y-138301852D01*
X120548141Y-138371556D01*
X120608747Y-138438866D01*
X120763248Y-138551118D01*
X120769276Y-138553802D01*
X120769278Y-138553803D01*
X120931681Y-138626109D01*
X120937712Y-138628794D01*
X121031113Y-138648647D01*
X121118056Y-138667128D01*
X121118061Y-138667128D01*
X121124513Y-138668500D01*
X121293938Y-138668500D01*
X121362059Y-138688502D01*
X121408552Y-138742158D01*
X121419248Y-138781329D01*
X121426458Y-138849928D01*
X121485473Y-139031556D01*
X121580960Y-139196944D01*
X121585378Y-139201851D01*
X121585379Y-139201852D01*
X121633169Y-139254928D01*
X121708747Y-139338866D01*
X121761223Y-139376992D01*
X121820000Y-139419696D01*
X121863248Y-139451118D01*
X121869276Y-139453802D01*
X121869278Y-139453803D01*
X121871248Y-139454680D01*
X122037712Y-139528794D01*
X122109514Y-139544056D01*
X122218056Y-139567128D01*
X122218061Y-139567128D01*
X122224513Y-139568500D01*
X122415487Y-139568500D01*
X122421939Y-139567128D01*
X122421944Y-139567128D01*
X122530486Y-139544056D01*
X122602288Y-139528794D01*
X122768752Y-139454680D01*
X122770722Y-139453803D01*
X122770724Y-139453802D01*
X122776752Y-139451118D01*
X122796795Y-139436556D01*
X122845939Y-139400851D01*
X122912807Y-139376992D01*
X122981959Y-139393073D01*
X122994061Y-139400851D01*
X123043205Y-139436556D01*
X123063248Y-139451118D01*
X123069276Y-139453802D01*
X123069278Y-139453803D01*
X123071248Y-139454680D01*
X123237712Y-139528794D01*
X123309514Y-139544056D01*
X123418056Y-139567128D01*
X123418061Y-139567128D01*
X123424513Y-139568500D01*
X123615487Y-139568500D01*
X123621939Y-139567128D01*
X123621944Y-139567128D01*
X123730486Y-139544056D01*
X123802288Y-139528794D01*
X123968752Y-139454680D01*
X123970722Y-139453803D01*
X123970724Y-139453802D01*
X123976752Y-139451118D01*
X123995940Y-139437177D01*
X124062808Y-139413319D01*
X124131959Y-139429400D01*
X124144060Y-139437177D01*
X124163248Y-139451118D01*
X124169276Y-139453802D01*
X124169278Y-139453803D01*
X124171248Y-139454680D01*
X124337712Y-139528794D01*
X124409514Y-139544056D01*
X124518056Y-139567128D01*
X124518061Y-139567128D01*
X124524513Y-139568500D01*
X124715487Y-139568500D01*
X124721939Y-139567128D01*
X124721944Y-139567128D01*
X124830486Y-139544056D01*
X124902288Y-139528794D01*
X125068752Y-139454680D01*
X125139118Y-139445246D01*
X125171247Y-139454680D01*
X125337712Y-139528794D01*
X125409514Y-139544056D01*
X125518056Y-139567128D01*
X125518061Y-139567128D01*
X125524513Y-139568500D01*
X125715487Y-139568500D01*
X125721939Y-139567128D01*
X125721944Y-139567128D01*
X125830486Y-139544056D01*
X125902288Y-139528794D01*
X126068752Y-139454680D01*
X126139118Y-139445246D01*
X126171247Y-139454680D01*
X126337712Y-139528794D01*
X126409514Y-139544056D01*
X126518056Y-139567128D01*
X126518061Y-139567128D01*
X126524513Y-139568500D01*
X126715487Y-139568500D01*
X126721939Y-139567128D01*
X126721944Y-139567128D01*
X126830486Y-139544056D01*
X126902288Y-139528794D01*
X127068752Y-139454680D01*
X127070722Y-139453803D01*
X127070724Y-139453802D01*
X127076752Y-139451118D01*
X127120001Y-139419696D01*
X127178777Y-139376992D01*
X127231253Y-139338866D01*
X127306831Y-139254928D01*
X127354621Y-139201852D01*
X127354622Y-139201851D01*
X127359040Y-139196944D01*
X127454527Y-139031556D01*
X127513542Y-138849928D01*
X127533504Y-138660000D01*
X127521086Y-138541852D01*
X127514232Y-138476635D01*
X127514232Y-138476633D01*
X127513542Y-138470072D01*
X127454527Y-138288444D01*
X127445611Y-138273001D01*
X127428872Y-138204007D01*
X127445611Y-138146998D01*
X127451224Y-138137277D01*
X127454527Y-138131556D01*
X127513542Y-137949928D01*
X127533504Y-137760000D01*
X127529854Y-137725271D01*
X127514232Y-137576635D01*
X127514232Y-137576633D01*
X127513542Y-137570072D01*
X127454527Y-137388444D01*
X127359040Y-137223056D01*
X127344192Y-137206565D01*
X127338281Y-137200000D01*
X128483742Y-137200000D01*
X128484432Y-137206565D01*
X128502947Y-137382721D01*
X128503704Y-137389928D01*
X128562719Y-137571556D01*
X128658206Y-137736944D01*
X128662624Y-137741851D01*
X128662625Y-137741852D01*
X128678966Y-137760000D01*
X128785993Y-137878866D01*
X128940494Y-137991118D01*
X128946522Y-137993802D01*
X128946524Y-137993803D01*
X129108927Y-138066109D01*
X129114958Y-138068794D01*
X129192711Y-138085321D01*
X129295302Y-138107128D01*
X129295307Y-138107128D01*
X129301759Y-138108500D01*
X129385702Y-138108500D01*
X129453823Y-138128502D01*
X129500316Y-138182158D01*
X129505535Y-138195562D01*
X129562719Y-138371556D01*
X129566022Y-138377278D01*
X129566023Y-138377279D01*
X129573971Y-138391045D01*
X129658206Y-138536944D01*
X129785993Y-138678866D01*
X129838469Y-138716992D01*
X129927021Y-138781329D01*
X129940494Y-138791118D01*
X129946522Y-138793802D01*
X129946524Y-138793803D01*
X130108927Y-138866109D01*
X130114958Y-138868794D01*
X130208359Y-138888647D01*
X130295302Y-138907128D01*
X130295307Y-138907128D01*
X130301759Y-138908500D01*
X130492733Y-138908500D01*
X130499185Y-138907128D01*
X130499190Y-138907128D01*
X130586133Y-138888647D01*
X130679534Y-138868794D01*
X130685565Y-138866109D01*
X130847968Y-138793803D01*
X130847970Y-138793802D01*
X130853998Y-138791118D01*
X130859340Y-138787237D01*
X130923185Y-138740851D01*
X130990053Y-138716992D01*
X131059205Y-138733073D01*
X131071307Y-138740851D01*
X131135152Y-138787237D01*
X131140494Y-138791118D01*
X131146522Y-138793802D01*
X131146524Y-138793803D01*
X131308927Y-138866109D01*
X131314958Y-138868794D01*
X131408359Y-138888647D01*
X131495302Y-138907128D01*
X131495307Y-138907128D01*
X131501759Y-138908500D01*
X131692733Y-138908500D01*
X131699185Y-138907128D01*
X131699190Y-138907128D01*
X131786133Y-138888647D01*
X131879534Y-138868794D01*
X131885565Y-138866109D01*
X132047968Y-138793803D01*
X132047970Y-138793802D01*
X132053998Y-138791118D01*
X132067472Y-138781329D01*
X132156023Y-138716992D01*
X132208499Y-138678866D01*
X132336286Y-138536944D01*
X132420521Y-138391045D01*
X132428469Y-138377279D01*
X132428470Y-138377278D01*
X132431773Y-138371556D01*
X132490788Y-138189928D01*
X132492358Y-138174991D01*
X132519372Y-138109334D01*
X132577405Y-138069246D01*
X132579534Y-138068794D01*
X132666766Y-138029956D01*
X132747968Y-137993803D01*
X132747970Y-137993802D01*
X132753998Y-137991118D01*
X132908499Y-137878866D01*
X133015526Y-137760000D01*
X133031867Y-137741852D01*
X133031868Y-137741851D01*
X133036286Y-137736944D01*
X133131773Y-137571556D01*
X133190788Y-137389928D01*
X133191546Y-137382721D01*
X133210060Y-137206565D01*
X133210750Y-137200000D01*
X133208294Y-137176635D01*
X133191478Y-137016635D01*
X133191478Y-137016633D01*
X133190788Y-137010072D01*
X133131773Y-136828444D01*
X133036286Y-136663056D01*
X133003611Y-136626766D01*
X132912921Y-136526045D01*
X132912920Y-136526044D01*
X132908499Y-136521134D01*
X132753998Y-136408882D01*
X132747970Y-136406198D01*
X132747968Y-136406197D01*
X132585565Y-136333891D01*
X132585564Y-136333891D01*
X132579534Y-136331206D01*
X132486133Y-136311353D01*
X132399190Y-136292872D01*
X132399185Y-136292872D01*
X132392733Y-136291500D01*
X132201759Y-136291500D01*
X132195307Y-136292872D01*
X132195302Y-136292872D01*
X132108359Y-136311353D01*
X132014958Y-136331206D01*
X132008928Y-136333891D01*
X132008927Y-136333891D01*
X131846524Y-136406197D01*
X131846522Y-136406198D01*
X131840494Y-136408882D01*
X131835153Y-136412762D01*
X131835152Y-136412763D01*
X131721307Y-136495477D01*
X131654440Y-136519335D01*
X131585288Y-136503255D01*
X131573185Y-136495477D01*
X131459340Y-136412763D01*
X131459339Y-136412762D01*
X131453998Y-136408882D01*
X131447970Y-136406198D01*
X131447968Y-136406197D01*
X131285565Y-136333891D01*
X131285564Y-136333891D01*
X131279534Y-136331206D01*
X131186133Y-136311353D01*
X131099190Y-136292872D01*
X131099185Y-136292872D01*
X131092733Y-136291500D01*
X130901759Y-136291500D01*
X130895307Y-136292872D01*
X130895302Y-136292872D01*
X130808359Y-136311353D01*
X130714958Y-136331206D01*
X130708928Y-136333891D01*
X130708927Y-136333891D01*
X130546524Y-136406197D01*
X130546522Y-136406198D01*
X130540494Y-136408882D01*
X130385993Y-136521134D01*
X130381572Y-136526044D01*
X130381571Y-136526045D01*
X130290882Y-136626766D01*
X130230436Y-136664006D01*
X130159453Y-136662654D01*
X130103610Y-136626766D01*
X130012921Y-136526045D01*
X130012920Y-136526044D01*
X130008499Y-136521134D01*
X129853998Y-136408882D01*
X129847970Y-136406198D01*
X129847968Y-136406197D01*
X129685565Y-136333891D01*
X129685564Y-136333891D01*
X129679534Y-136331206D01*
X129586133Y-136311353D01*
X129499190Y-136292872D01*
X129499185Y-136292872D01*
X129492733Y-136291500D01*
X129301759Y-136291500D01*
X129295307Y-136292872D01*
X129295302Y-136292872D01*
X129208359Y-136311353D01*
X129114958Y-136331206D01*
X129108928Y-136333891D01*
X129108927Y-136333891D01*
X128946524Y-136406197D01*
X128946522Y-136406198D01*
X128940494Y-136408882D01*
X128785993Y-136521134D01*
X128781572Y-136526044D01*
X128781571Y-136526045D01*
X128690882Y-136626766D01*
X128658206Y-136663056D01*
X128562719Y-136828444D01*
X128503704Y-137010072D01*
X128503014Y-137016633D01*
X128503014Y-137016635D01*
X128486198Y-137176635D01*
X128483742Y-137200000D01*
X127338281Y-137200000D01*
X127235675Y-137086045D01*
X127235674Y-137086044D01*
X127231253Y-137081134D01*
X127124804Y-137003794D01*
X127082094Y-136972763D01*
X127082093Y-136972762D01*
X127076752Y-136968882D01*
X127070724Y-136966198D01*
X127070722Y-136966197D01*
X126908319Y-136893891D01*
X126908318Y-136893891D01*
X126902288Y-136891206D01*
X126808887Y-136871353D01*
X126721944Y-136852872D01*
X126721939Y-136852872D01*
X126715487Y-136851500D01*
X126524513Y-136851500D01*
X126518061Y-136852872D01*
X126518056Y-136852872D01*
X126431113Y-136871353D01*
X126337712Y-136891206D01*
X126171248Y-136965320D01*
X126100882Y-136974754D01*
X126068753Y-136965320D01*
X125902288Y-136891206D01*
X125808887Y-136871353D01*
X125721944Y-136852872D01*
X125721939Y-136852872D01*
X125715487Y-136851500D01*
X125524513Y-136851500D01*
X125518061Y-136852872D01*
X125518056Y-136852872D01*
X125431113Y-136871353D01*
X125337712Y-136891206D01*
X125171248Y-136965320D01*
X125100882Y-136974754D01*
X125068753Y-136965320D01*
X124902288Y-136891206D01*
X124808887Y-136871353D01*
X124721944Y-136852872D01*
X124721939Y-136852872D01*
X124715487Y-136851500D01*
X124524513Y-136851500D01*
X124518061Y-136852872D01*
X124518056Y-136852872D01*
X124431113Y-136871353D01*
X124337712Y-136891206D01*
X124331682Y-136893891D01*
X124331681Y-136893891D01*
X124169278Y-136966197D01*
X124169276Y-136966198D01*
X124163248Y-136968882D01*
X124155166Y-136974754D01*
X124144060Y-136982823D01*
X124077192Y-137006681D01*
X124008041Y-136990600D01*
X123995940Y-136982823D01*
X123984834Y-136974754D01*
X123976752Y-136968882D01*
X123970724Y-136966198D01*
X123970722Y-136966197D01*
X123808319Y-136893891D01*
X123808318Y-136893891D01*
X123802288Y-136891206D01*
X123708887Y-136871353D01*
X123621944Y-136852872D01*
X123621939Y-136852872D01*
X123615487Y-136851500D01*
X123424513Y-136851500D01*
X123418061Y-136852872D01*
X123418056Y-136852872D01*
X123331113Y-136871353D01*
X123237712Y-136891206D01*
X123231682Y-136893891D01*
X123231681Y-136893891D01*
X123069278Y-136966197D01*
X123069276Y-136966198D01*
X123063248Y-136968882D01*
X123057907Y-136972762D01*
X123057906Y-136972763D01*
X122994061Y-137019149D01*
X122927193Y-137043008D01*
X122858041Y-137026927D01*
X122845939Y-137019149D01*
X122782094Y-136972763D01*
X122782093Y-136972762D01*
X122776752Y-136968882D01*
X122770724Y-136966198D01*
X122770722Y-136966197D01*
X122608319Y-136893891D01*
X122608318Y-136893891D01*
X122602288Y-136891206D01*
X122508887Y-136871353D01*
X122421944Y-136852872D01*
X122421939Y-136852872D01*
X122415487Y-136851500D01*
X122224513Y-136851500D01*
X122218061Y-136852872D01*
X122218056Y-136852872D01*
X122131113Y-136871353D01*
X122037712Y-136891206D01*
X122031682Y-136893891D01*
X122031681Y-136893891D01*
X121869278Y-136966197D01*
X121869276Y-136966198D01*
X121863248Y-136968882D01*
X121855166Y-136974754D01*
X121844060Y-136982823D01*
X121777192Y-137006681D01*
X121708041Y-136990600D01*
X121695940Y-136982823D01*
X121684834Y-136974754D01*
X121676752Y-136968882D01*
X121670724Y-136966198D01*
X121670722Y-136966197D01*
X121508319Y-136893891D01*
X121508318Y-136893891D01*
X121502288Y-136891206D01*
X121408887Y-136871353D01*
X121321944Y-136852872D01*
X121321939Y-136852872D01*
X121315487Y-136851500D01*
X121124513Y-136851500D01*
X121118061Y-136852872D01*
X121118056Y-136852872D01*
X121031113Y-136871353D01*
X120937712Y-136891206D01*
X120931677Y-136893893D01*
X120930512Y-136894411D01*
X120929779Y-136894509D01*
X120925400Y-136895932D01*
X120925140Y-136895131D01*
X120860144Y-136903841D01*
X120795849Y-136873730D01*
X120770151Y-136842301D01*
X120762341Y-136828774D01*
X120759040Y-136823056D01*
X120735695Y-136797128D01*
X120635675Y-136686045D01*
X120635674Y-136686044D01*
X120631253Y-136681134D01*
X120476752Y-136568882D01*
X120470724Y-136566198D01*
X120470722Y-136566197D01*
X120308319Y-136493891D01*
X120308318Y-136493891D01*
X120302288Y-136491206D01*
X120208887Y-136471353D01*
X120121944Y-136452872D01*
X120121939Y-136452872D01*
X120115487Y-136451500D01*
X119924513Y-136451500D01*
X119918061Y-136452872D01*
X119918056Y-136452872D01*
X119831113Y-136471353D01*
X119737712Y-136491206D01*
X119731682Y-136493891D01*
X119731681Y-136493891D01*
X119569278Y-136566197D01*
X119569276Y-136566198D01*
X119563248Y-136568882D01*
X119408747Y-136681134D01*
X119404326Y-136686044D01*
X119404325Y-136686045D01*
X119304306Y-136797128D01*
X119280960Y-136823056D01*
X119185473Y-136988444D01*
X119126458Y-137170072D01*
X119106496Y-137360000D01*
X100838500Y-137360000D01*
X100838500Y-135890000D01*
X101956496Y-135890000D01*
X101957186Y-135896565D01*
X101975113Y-136067128D01*
X101976458Y-136079928D01*
X102035473Y-136261556D01*
X102130960Y-136426944D01*
X102135378Y-136431851D01*
X102135379Y-136431852D01*
X102187586Y-136489834D01*
X102258747Y-136568866D01*
X102264111Y-136572763D01*
X102387835Y-136662654D01*
X102413248Y-136681118D01*
X102419276Y-136683802D01*
X102419278Y-136683803D01*
X102424314Y-136686045D01*
X102587712Y-136758794D01*
X102681113Y-136778647D01*
X102768056Y-136797128D01*
X102768061Y-136797128D01*
X102774513Y-136798500D01*
X102965487Y-136798500D01*
X102971939Y-136797128D01*
X102971944Y-136797128D01*
X103058887Y-136778647D01*
X103152288Y-136758794D01*
X103315686Y-136686045D01*
X103320722Y-136683803D01*
X103320724Y-136683802D01*
X103326752Y-136681118D01*
X103352166Y-136662654D01*
X103475889Y-136572763D01*
X103481253Y-136568866D01*
X103552414Y-136489834D01*
X103604621Y-136431852D01*
X103604622Y-136431851D01*
X103609040Y-136426944D01*
X103704527Y-136261556D01*
X103763542Y-136079928D01*
X103764888Y-136067128D01*
X103782814Y-135896565D01*
X103783504Y-135890000D01*
X103763542Y-135700072D01*
X103750522Y-135660000D01*
X105106496Y-135660000D01*
X105126458Y-135849928D01*
X105185473Y-136031556D01*
X105188776Y-136037278D01*
X105188777Y-136037279D01*
X105206803Y-136068500D01*
X105280960Y-136196944D01*
X105285378Y-136201851D01*
X105285379Y-136201852D01*
X105401850Y-136331206D01*
X105408747Y-136338866D01*
X105501420Y-136406197D01*
X105520000Y-136419696D01*
X105563248Y-136451118D01*
X105569276Y-136453802D01*
X105569278Y-136453803D01*
X105731681Y-136526109D01*
X105737712Y-136528794D01*
X105831112Y-136548647D01*
X105918056Y-136567128D01*
X105918061Y-136567128D01*
X105924513Y-136568500D01*
X106115487Y-136568500D01*
X106121939Y-136567128D01*
X106121944Y-136567128D01*
X106208888Y-136548647D01*
X106302288Y-136528794D01*
X106308463Y-136526045D01*
X106389794Y-136489834D01*
X106468752Y-136454680D01*
X106539118Y-136445246D01*
X106571247Y-136454680D01*
X106650206Y-136489834D01*
X106731538Y-136526045D01*
X106737712Y-136528794D01*
X106831112Y-136548647D01*
X106918056Y-136567128D01*
X106918061Y-136567128D01*
X106924513Y-136568500D01*
X107115487Y-136568500D01*
X107121939Y-136567128D01*
X107121944Y-136567128D01*
X107208888Y-136548647D01*
X107302288Y-136528794D01*
X107308463Y-136526045D01*
X107389794Y-136489834D01*
X107468752Y-136454680D01*
X107539118Y-136445246D01*
X107571247Y-136454680D01*
X107650206Y-136489834D01*
X107731538Y-136526045D01*
X107737712Y-136528794D01*
X107831112Y-136548647D01*
X107918056Y-136567128D01*
X107918061Y-136567128D01*
X107924513Y-136568500D01*
X108115487Y-136568500D01*
X108121939Y-136567128D01*
X108121944Y-136567128D01*
X108208888Y-136548647D01*
X108302288Y-136528794D01*
X108308463Y-136526045D01*
X108389794Y-136489834D01*
X108468752Y-136454680D01*
X108539118Y-136445246D01*
X108571247Y-136454680D01*
X108650206Y-136489834D01*
X108731538Y-136526045D01*
X108737712Y-136528794D01*
X108831112Y-136548647D01*
X108918056Y-136567128D01*
X108918061Y-136567128D01*
X108924513Y-136568500D01*
X109115487Y-136568500D01*
X109121939Y-136567128D01*
X109121944Y-136567128D01*
X109208888Y-136548647D01*
X109302288Y-136528794D01*
X109308319Y-136526109D01*
X109470722Y-136453803D01*
X109470724Y-136453802D01*
X109476752Y-136451118D01*
X109520001Y-136419696D01*
X109538580Y-136406197D01*
X109631253Y-136338866D01*
X109638150Y-136331206D01*
X109754621Y-136201852D01*
X109754622Y-136201851D01*
X109759040Y-136196944D01*
X109833197Y-136068500D01*
X109851223Y-136037279D01*
X109851224Y-136037278D01*
X109854527Y-136031556D01*
X109913542Y-135849928D01*
X109933504Y-135660000D01*
X109923754Y-135567233D01*
X109936526Y-135497396D01*
X109978264Y-135453199D01*
X109976752Y-135451118D01*
X110103852Y-135358774D01*
X110131253Y-135338866D01*
X110202264Y-135260000D01*
X110254621Y-135201852D01*
X110254622Y-135201851D01*
X110259040Y-135196944D01*
X110354527Y-135031556D01*
X110413542Y-134849928D01*
X110433504Y-134660000D01*
X110424052Y-134570072D01*
X110414232Y-134476635D01*
X110414232Y-134476633D01*
X110413542Y-134470072D01*
X110377777Y-134360000D01*
X111706496Y-134360000D01*
X111726458Y-134549928D01*
X111785473Y-134731556D01*
X111880960Y-134896944D01*
X111885378Y-134901851D01*
X111885379Y-134901852D01*
X111992846Y-135021206D01*
X112008747Y-135038866D01*
X112117869Y-135118148D01*
X112163248Y-135151118D01*
X112161507Y-135153515D01*
X112201595Y-135195548D01*
X112214918Y-135240126D01*
X112226458Y-135349928D01*
X112285473Y-135531556D01*
X112380960Y-135696944D01*
X112508747Y-135838866D01*
X112570091Y-135883435D01*
X112646385Y-135938866D01*
X112663248Y-135951118D01*
X112669276Y-135953802D01*
X112669278Y-135953803D01*
X112790996Y-136007995D01*
X112837712Y-136028794D01*
X112924479Y-136047237D01*
X113018056Y-136067128D01*
X113018061Y-136067128D01*
X113024513Y-136068500D01*
X113215487Y-136068500D01*
X113221939Y-136067128D01*
X113221944Y-136067128D01*
X113315521Y-136047237D01*
X113402288Y-136028794D01*
X113568752Y-135954680D01*
X113639118Y-135945246D01*
X113671247Y-135954680D01*
X113837712Y-136028794D01*
X113924479Y-136047237D01*
X114018056Y-136067128D01*
X114018061Y-136067128D01*
X114024513Y-136068500D01*
X114215487Y-136068500D01*
X114221939Y-136067128D01*
X114221944Y-136067128D01*
X114315521Y-136047237D01*
X114402288Y-136028794D01*
X114478587Y-135994824D01*
X114548952Y-135985390D01*
X114603893Y-136007994D01*
X114663248Y-136051118D01*
X114669276Y-136053802D01*
X114669278Y-136053803D01*
X114742057Y-136086206D01*
X114837712Y-136128794D01*
X114931112Y-136148647D01*
X115018056Y-136167128D01*
X115018061Y-136167128D01*
X115024513Y-136168500D01*
X115215487Y-136168500D01*
X115221939Y-136167128D01*
X115221944Y-136167128D01*
X115308888Y-136148647D01*
X115402288Y-136128794D01*
X115497943Y-136086206D01*
X115570722Y-136053803D01*
X115570724Y-136053802D01*
X115576752Y-136051118D01*
X115731253Y-135938866D01*
X115811333Y-135849928D01*
X115854621Y-135801852D01*
X115854622Y-135801851D01*
X115859040Y-135796944D01*
X115954527Y-135631556D01*
X116013542Y-135449928D01*
X116023393Y-135356206D01*
X116032814Y-135266565D01*
X116033504Y-135260000D01*
X116032814Y-135253435D01*
X116032814Y-135247241D01*
X116052816Y-135179120D01*
X116084753Y-135145305D01*
X116152344Y-135096197D01*
X116231253Y-135038866D01*
X116247154Y-135021206D01*
X116354621Y-134901852D01*
X116354622Y-134901851D01*
X116359040Y-134896944D01*
X116454527Y-134731556D01*
X116513542Y-134549928D01*
X116530873Y-134385029D01*
X116557886Y-134319373D01*
X116604934Y-134283093D01*
X116605770Y-134282721D01*
X116676752Y-134251118D01*
X116831253Y-134138866D01*
X116959040Y-133996944D01*
X117054527Y-133831556D01*
X117113542Y-133649928D01*
X117133504Y-133460000D01*
X117113542Y-133270072D01*
X117054527Y-133088444D01*
X116959040Y-132923056D01*
X116831253Y-132781134D01*
X116691687Y-132679733D01*
X116648333Y-132623511D01*
X116642258Y-132552774D01*
X116672110Y-132493489D01*
X116759040Y-132396944D01*
X116854527Y-132231556D01*
X116913542Y-132049928D01*
X116914872Y-132037279D01*
X116932814Y-131866565D01*
X116933504Y-131860000D01*
X116913542Y-131670072D01*
X116854527Y-131488444D01*
X116759040Y-131323056D01*
X116722748Y-131282749D01*
X116635675Y-131186045D01*
X116635674Y-131186044D01*
X116631253Y-131181134D01*
X116532157Y-131109136D01*
X116482094Y-131072763D01*
X116482093Y-131072762D01*
X116476752Y-131068882D01*
X116470724Y-131066198D01*
X116470722Y-131066197D01*
X116308319Y-130993891D01*
X116308318Y-130993891D01*
X116302288Y-130991206D01*
X116208888Y-130971353D01*
X116121944Y-130952872D01*
X116121939Y-130952872D01*
X116115487Y-130951500D01*
X115924513Y-130951500D01*
X115918061Y-130952872D01*
X115918056Y-130952872D01*
X115831112Y-130971353D01*
X115737712Y-130991206D01*
X115731682Y-130993891D01*
X115731681Y-130993891D01*
X115569278Y-131066197D01*
X115569276Y-131066198D01*
X115563248Y-131068882D01*
X115557907Y-131072762D01*
X115557906Y-131072763D01*
X115507843Y-131109136D01*
X115408747Y-131181134D01*
X115404326Y-131186044D01*
X115404325Y-131186045D01*
X115317253Y-131282749D01*
X115280960Y-131323056D01*
X115185473Y-131488444D01*
X115126458Y-131670072D01*
X115106496Y-131860000D01*
X115107186Y-131866565D01*
X115125129Y-132037279D01*
X115126458Y-132049928D01*
X115185473Y-132231556D01*
X115280960Y-132396944D01*
X115285375Y-132401847D01*
X115285379Y-132401852D01*
X115399678Y-132528794D01*
X115408747Y-132538866D01*
X115548313Y-132640267D01*
X115591667Y-132696489D01*
X115597742Y-132767226D01*
X115567890Y-132826511D01*
X115480960Y-132923056D01*
X115385473Y-133088444D01*
X115326458Y-133270072D01*
X115325768Y-133276633D01*
X115325768Y-133276635D01*
X115309127Y-133434970D01*
X115282114Y-133500627D01*
X115235066Y-133536907D01*
X115171248Y-133565320D01*
X115100883Y-133574754D01*
X115068752Y-133565320D01*
X114908319Y-133493891D01*
X114908318Y-133493891D01*
X114902288Y-133491206D01*
X114786362Y-133466565D01*
X114721944Y-133452872D01*
X114721939Y-133452872D01*
X114715487Y-133451500D01*
X114524513Y-133451500D01*
X114518061Y-133452872D01*
X114518056Y-133452872D01*
X114453638Y-133466565D01*
X114337712Y-133491206D01*
X114171248Y-133565320D01*
X114100882Y-133574754D01*
X114068753Y-133565320D01*
X113902288Y-133491206D01*
X113786362Y-133466565D01*
X113721944Y-133452872D01*
X113721939Y-133452872D01*
X113715487Y-133451500D01*
X113524513Y-133451500D01*
X113518061Y-133452872D01*
X113518056Y-133452872D01*
X113453638Y-133466565D01*
X113337712Y-133491206D01*
X113171248Y-133565320D01*
X113100882Y-133574754D01*
X113068753Y-133565320D01*
X112902288Y-133491206D01*
X112786362Y-133466565D01*
X112721944Y-133452872D01*
X112721939Y-133452872D01*
X112715487Y-133451500D01*
X112524513Y-133451500D01*
X112518061Y-133452872D01*
X112518056Y-133452872D01*
X112453638Y-133466565D01*
X112337712Y-133491206D01*
X112331682Y-133493891D01*
X112331681Y-133493891D01*
X112169278Y-133566197D01*
X112169276Y-133566198D01*
X112163248Y-133568882D01*
X112157907Y-133572762D01*
X112157906Y-133572763D01*
X112107843Y-133609136D01*
X112008747Y-133681134D01*
X111880960Y-133823056D01*
X111785473Y-133988444D01*
X111726458Y-134170072D01*
X111706496Y-134360000D01*
X110377777Y-134360000D01*
X110354527Y-134288444D01*
X110259040Y-134123056D01*
X110131253Y-133981134D01*
X109976752Y-133868882D01*
X109970724Y-133866198D01*
X109970722Y-133866197D01*
X109808319Y-133793891D01*
X109808318Y-133793891D01*
X109802288Y-133791206D01*
X109708887Y-133771353D01*
X109621944Y-133752872D01*
X109621939Y-133752872D01*
X109615487Y-133751500D01*
X109424513Y-133751500D01*
X109418061Y-133752872D01*
X109418056Y-133752872D01*
X109331113Y-133771353D01*
X109237712Y-133791206D01*
X109231682Y-133793891D01*
X109231681Y-133793891D01*
X109069278Y-133866197D01*
X109069276Y-133866198D01*
X109063248Y-133868882D01*
X109003893Y-133912006D01*
X108937028Y-133935863D01*
X108878587Y-133925176D01*
X108802288Y-133891206D01*
X108708887Y-133871353D01*
X108621944Y-133852872D01*
X108621939Y-133852872D01*
X108615487Y-133851500D01*
X108424513Y-133851500D01*
X108418061Y-133852872D01*
X108418056Y-133852872D01*
X108331113Y-133871353D01*
X108237712Y-133891206D01*
X108071248Y-133965320D01*
X108000882Y-133974754D01*
X107968753Y-133965320D01*
X107802288Y-133891206D01*
X107708887Y-133871353D01*
X107621944Y-133852872D01*
X107621939Y-133852872D01*
X107615487Y-133851500D01*
X107424513Y-133851500D01*
X107418061Y-133852872D01*
X107418056Y-133852872D01*
X107331113Y-133871353D01*
X107237712Y-133891206D01*
X107071248Y-133965320D01*
X107000882Y-133974754D01*
X106968753Y-133965320D01*
X106802288Y-133891206D01*
X106708887Y-133871353D01*
X106621944Y-133852872D01*
X106621939Y-133852872D01*
X106615487Y-133851500D01*
X106424513Y-133851500D01*
X106418061Y-133852872D01*
X106418056Y-133852872D01*
X106331113Y-133871353D01*
X106237712Y-133891206D01*
X106231682Y-133893891D01*
X106231681Y-133893891D01*
X106069278Y-133966197D01*
X106069276Y-133966198D01*
X106063248Y-133968882D01*
X106057907Y-133972762D01*
X106057906Y-133972763D01*
X106017869Y-134001852D01*
X105908747Y-134081134D01*
X105904326Y-134086044D01*
X105904325Y-134086045D01*
X105822758Y-134176635D01*
X105780960Y-134223056D01*
X105685473Y-134388444D01*
X105626458Y-134570072D01*
X105606496Y-134760000D01*
X105607186Y-134766565D01*
X105607186Y-134772759D01*
X105587184Y-134840880D01*
X105555247Y-134874695D01*
X105408747Y-134981134D01*
X105280960Y-135123056D01*
X105185473Y-135288444D01*
X105126458Y-135470072D01*
X105106496Y-135660000D01*
X103750522Y-135660000D01*
X103704527Y-135518444D01*
X103609040Y-135353056D01*
X103591842Y-135333955D01*
X103485675Y-135216045D01*
X103485674Y-135216044D01*
X103481253Y-135211134D01*
X103326752Y-135098882D01*
X103320724Y-135096198D01*
X103320722Y-135096197D01*
X103158319Y-135023891D01*
X103158318Y-135023891D01*
X103152288Y-135021206D01*
X103058887Y-135001353D01*
X102971944Y-134982872D01*
X102971939Y-134982872D01*
X102965487Y-134981500D01*
X102774513Y-134981500D01*
X102768061Y-134982872D01*
X102768056Y-134982872D01*
X102681113Y-135001353D01*
X102587712Y-135021206D01*
X102581682Y-135023891D01*
X102581681Y-135023891D01*
X102419278Y-135096197D01*
X102419276Y-135096198D01*
X102413248Y-135098882D01*
X102258747Y-135211134D01*
X102254326Y-135216044D01*
X102254325Y-135216045D01*
X102148159Y-135333955D01*
X102130960Y-135353056D01*
X102035473Y-135518444D01*
X101976458Y-135700072D01*
X101956496Y-135890000D01*
X100838500Y-135890000D01*
X100838500Y-131047701D01*
X101230996Y-131047701D01*
X101231686Y-131054266D01*
X101240892Y-131141852D01*
X101250958Y-131237629D01*
X101309973Y-131419257D01*
X101313276Y-131424979D01*
X101313277Y-131424980D01*
X101338573Y-131468794D01*
X101405460Y-131584645D01*
X101409878Y-131589552D01*
X101409879Y-131589553D01*
X101413785Y-131593891D01*
X101533247Y-131726567D01*
X101687748Y-131838819D01*
X101693776Y-131841503D01*
X101693778Y-131841504D01*
X101787800Y-131883365D01*
X101862212Y-131916495D01*
X101955612Y-131936348D01*
X102042556Y-131954829D01*
X102042561Y-131954829D01*
X102049013Y-131956201D01*
X102239987Y-131956201D01*
X102246439Y-131954829D01*
X102246444Y-131954829D01*
X102333388Y-131936348D01*
X102426788Y-131916495D01*
X102501200Y-131883365D01*
X102595222Y-131841504D01*
X102595224Y-131841503D01*
X102601252Y-131838819D01*
X102755753Y-131726567D01*
X102875215Y-131593891D01*
X102879121Y-131589553D01*
X102879122Y-131589552D01*
X102883540Y-131584645D01*
X102950427Y-131468794D01*
X102975723Y-131424980D01*
X102975724Y-131424979D01*
X102979027Y-131419257D01*
X103038042Y-131237629D01*
X103048109Y-131141852D01*
X103057314Y-131054266D01*
X103058004Y-131047701D01*
X103051008Y-130981134D01*
X103038732Y-130864336D01*
X103038732Y-130864334D01*
X103038042Y-130857773D01*
X103006273Y-130760000D01*
X121806496Y-130760000D01*
X121807186Y-130766565D01*
X121809642Y-130789928D01*
X121826458Y-130949928D01*
X121885473Y-131131556D01*
X121980960Y-131296944D01*
X121985378Y-131301851D01*
X121985379Y-131301852D01*
X122091091Y-131419257D01*
X122108747Y-131438866D01*
X122263248Y-131551118D01*
X122269274Y-131553801D01*
X122269281Y-131553805D01*
X122346091Y-131588002D01*
X122400187Y-131633982D01*
X122420153Y-131689939D01*
X122423487Y-131721656D01*
X122426458Y-131749928D01*
X122485473Y-131931556D01*
X122580960Y-132096944D01*
X122708747Y-132238866D01*
X122775277Y-132287203D01*
X122851724Y-132342745D01*
X122863248Y-132351118D01*
X122869276Y-132353802D01*
X122869278Y-132353803D01*
X122977199Y-132401852D01*
X123037712Y-132428794D01*
X123124479Y-132447237D01*
X123218056Y-132467128D01*
X123218061Y-132467128D01*
X123224513Y-132468500D01*
X123415487Y-132468500D01*
X123421939Y-132467128D01*
X123421944Y-132467128D01*
X123515521Y-132447237D01*
X123602288Y-132428794D01*
X123662801Y-132401852D01*
X123770722Y-132353803D01*
X123770724Y-132353802D01*
X123776752Y-132351118D01*
X123831885Y-132311061D01*
X123898754Y-132287203D01*
X123967905Y-132303284D01*
X123999583Y-132328689D01*
X124004328Y-132333960D01*
X124004336Y-132333968D01*
X124008747Y-132338866D01*
X124020269Y-132347237D01*
X124120000Y-132419696D01*
X124163248Y-132451118D01*
X124169276Y-132453802D01*
X124169278Y-132453803D01*
X124331681Y-132526109D01*
X124337712Y-132528794D01*
X124403365Y-132542749D01*
X124518056Y-132567128D01*
X124518061Y-132567128D01*
X124524513Y-132568500D01*
X124715487Y-132568500D01*
X124721939Y-132567128D01*
X124721944Y-132567128D01*
X124836635Y-132542749D01*
X124902288Y-132528794D01*
X124922721Y-132519697D01*
X125037711Y-132468500D01*
X125068752Y-132454680D01*
X125139118Y-132445246D01*
X125171247Y-132454680D01*
X125202289Y-132468500D01*
X125317280Y-132519697D01*
X125337712Y-132528794D01*
X125403365Y-132542749D01*
X125518056Y-132567128D01*
X125518061Y-132567128D01*
X125524513Y-132568500D01*
X125715487Y-132568500D01*
X125721939Y-132567128D01*
X125721944Y-132567128D01*
X125836635Y-132542749D01*
X125902288Y-132528794D01*
X126018752Y-132476941D01*
X126089118Y-132467507D01*
X126121246Y-132476940D01*
X126237712Y-132528794D01*
X126303365Y-132542749D01*
X126418056Y-132567128D01*
X126418061Y-132567128D01*
X126424513Y-132568500D01*
X126615487Y-132568500D01*
X126621939Y-132567128D01*
X126621944Y-132567128D01*
X126736635Y-132542749D01*
X126802288Y-132528794D01*
X126808319Y-132526109D01*
X126970722Y-132453803D01*
X126970724Y-132453802D01*
X126976752Y-132451118D01*
X127020001Y-132419696D01*
X127032157Y-132410864D01*
X127131253Y-132338866D01*
X127135675Y-132333955D01*
X127254621Y-132201852D01*
X127254622Y-132201851D01*
X127259040Y-132196944D01*
X127354527Y-132031556D01*
X127413542Y-131849928D01*
X127414428Y-131841504D01*
X127429300Y-131700000D01*
X128683742Y-131700000D01*
X128684432Y-131706565D01*
X128692786Y-131786045D01*
X128703704Y-131889928D01*
X128762719Y-132071556D01*
X128766022Y-132077278D01*
X128766023Y-132077279D01*
X128776098Y-132094729D01*
X128858206Y-132236944D01*
X128862624Y-132241851D01*
X128862625Y-132241852D01*
X128963426Y-132353803D01*
X128985993Y-132378866D01*
X129051017Y-132426109D01*
X129097246Y-132459696D01*
X129140494Y-132491118D01*
X129146522Y-132493802D01*
X129146524Y-132493803D01*
X129278976Y-132552774D01*
X129314958Y-132568794D01*
X129408359Y-132588647D01*
X129495302Y-132607128D01*
X129495307Y-132607128D01*
X129501759Y-132608500D01*
X129692733Y-132608500D01*
X129699185Y-132607128D01*
X129699190Y-132607128D01*
X129786133Y-132588647D01*
X129879534Y-132568794D01*
X130045998Y-132494680D01*
X130116364Y-132485246D01*
X130148493Y-132494680D01*
X130314958Y-132568794D01*
X130408359Y-132588647D01*
X130495302Y-132607128D01*
X130495307Y-132607128D01*
X130501759Y-132608500D01*
X130692733Y-132608500D01*
X130699185Y-132607128D01*
X130699190Y-132607128D01*
X130786133Y-132588647D01*
X130879534Y-132568794D01*
X131045998Y-132494680D01*
X131116364Y-132485246D01*
X131148493Y-132494680D01*
X131314958Y-132568794D01*
X131408359Y-132588647D01*
X131495302Y-132607128D01*
X131495307Y-132607128D01*
X131501759Y-132608500D01*
X131692733Y-132608500D01*
X131699185Y-132607128D01*
X131699190Y-132607128D01*
X131786133Y-132588647D01*
X131879534Y-132568794D01*
X131995998Y-132516941D01*
X132066364Y-132507507D01*
X132098492Y-132516940D01*
X132214958Y-132568794D01*
X132308359Y-132588647D01*
X132395302Y-132607128D01*
X132395307Y-132607128D01*
X132401759Y-132608500D01*
X132592733Y-132608500D01*
X132599185Y-132607128D01*
X132599190Y-132607128D01*
X132686133Y-132588647D01*
X132779534Y-132568794D01*
X132838033Y-132542749D01*
X132936241Y-132499024D01*
X133006608Y-132489590D01*
X133070905Y-132519697D01*
X133108719Y-132579786D01*
X133112800Y-132600960D01*
X133117257Y-132643365D01*
X133117947Y-132649928D01*
X133176962Y-132831556D01*
X133272449Y-132996944D01*
X133400236Y-133138866D01*
X133554737Y-133251118D01*
X133560765Y-133253802D01*
X133560767Y-133253803D01*
X133612049Y-133276635D01*
X133729201Y-133328794D01*
X133822602Y-133348647D01*
X133909545Y-133367128D01*
X133909550Y-133367128D01*
X133916002Y-133368500D01*
X134106976Y-133368500D01*
X134113428Y-133367128D01*
X134113433Y-133367128D01*
X134200376Y-133348647D01*
X134293777Y-133328794D01*
X134410929Y-133276635D01*
X134462211Y-133253803D01*
X134462213Y-133253802D01*
X134468241Y-133251118D01*
X134622742Y-133138866D01*
X134750529Y-132996944D01*
X134846016Y-132831556D01*
X134905031Y-132649928D01*
X134906047Y-132640267D01*
X134924303Y-132466565D01*
X134924993Y-132460000D01*
X134920757Y-132419696D01*
X134905721Y-132276635D01*
X134905721Y-132276633D01*
X134905031Y-132270072D01*
X134846016Y-132088444D01*
X134750529Y-131923056D01*
X134744622Y-131916495D01*
X134627164Y-131786045D01*
X134627163Y-131786044D01*
X134622742Y-131781134D01*
X134502035Y-131693435D01*
X134473583Y-131672763D01*
X134473582Y-131672762D01*
X134468241Y-131668882D01*
X134462213Y-131666198D01*
X134462211Y-131666197D01*
X134299808Y-131593891D01*
X134299807Y-131593891D01*
X134293777Y-131591206D01*
X134287322Y-131589834D01*
X134287319Y-131589833D01*
X134249389Y-131581771D01*
X134186915Y-131548043D01*
X134152593Y-131485893D01*
X134157321Y-131415054D01*
X134201524Y-131356588D01*
X134303155Y-131282749D01*
X134303157Y-131282747D01*
X134308499Y-131278866D01*
X134396497Y-131181134D01*
X134431867Y-131141852D01*
X134431868Y-131141851D01*
X134436286Y-131136944D01*
X134531773Y-130971556D01*
X134590788Y-130789928D01*
X134603349Y-130670422D01*
X134610060Y-130606565D01*
X134610750Y-130600000D01*
X134608294Y-130576635D01*
X134591478Y-130416635D01*
X134591478Y-130416633D01*
X134590788Y-130410072D01*
X134531773Y-130228444D01*
X134436286Y-130063056D01*
X134371047Y-129990600D01*
X134312921Y-129926045D01*
X134312920Y-129926044D01*
X134308499Y-129921134D01*
X134153998Y-129808882D01*
X134147970Y-129806198D01*
X134147968Y-129806197D01*
X133985565Y-129733891D01*
X133985564Y-129733891D01*
X133979534Y-129731206D01*
X133886133Y-129711353D01*
X133799190Y-129692872D01*
X133799185Y-129692872D01*
X133792733Y-129691500D01*
X133601759Y-129691500D01*
X133595307Y-129692872D01*
X133595302Y-129692872D01*
X133508359Y-129711353D01*
X133414958Y-129731206D01*
X133408928Y-129733891D01*
X133408927Y-129733891D01*
X133246524Y-129806197D01*
X133246522Y-129806198D01*
X133240494Y-129808882D01*
X133235153Y-129812762D01*
X133235152Y-129812763D01*
X133094765Y-129914760D01*
X133027897Y-129938619D01*
X132983212Y-129932844D01*
X132979534Y-129931206D01*
X132973081Y-129929834D01*
X132973080Y-129929834D01*
X132799190Y-129892872D01*
X132799185Y-129892872D01*
X132792733Y-129891500D01*
X132601759Y-129891500D01*
X132595307Y-129892872D01*
X132595302Y-129892872D01*
X132508359Y-129911353D01*
X132414958Y-129931206D01*
X132248494Y-130005320D01*
X132178128Y-130014754D01*
X132145999Y-130005320D01*
X131979534Y-129931206D01*
X131886133Y-129911353D01*
X131799190Y-129892872D01*
X131799185Y-129892872D01*
X131792733Y-129891500D01*
X131601759Y-129891500D01*
X131595307Y-129892872D01*
X131595302Y-129892872D01*
X131508359Y-129911353D01*
X131414958Y-129931206D01*
X131408928Y-129933891D01*
X131408927Y-129933891D01*
X131246524Y-130006197D01*
X131246522Y-130006198D01*
X131240494Y-130008882D01*
X131235154Y-130012762D01*
X131221306Y-130022823D01*
X131154438Y-130046681D01*
X131085287Y-130030600D01*
X131073186Y-130022823D01*
X131059338Y-130012762D01*
X131053998Y-130008882D01*
X131047970Y-130006198D01*
X131047968Y-130006197D01*
X130885565Y-129933891D01*
X130885564Y-129933891D01*
X130879534Y-129931206D01*
X130786133Y-129911353D01*
X130699190Y-129892872D01*
X130699185Y-129892872D01*
X130692733Y-129891500D01*
X130501759Y-129891500D01*
X130495307Y-129892872D01*
X130495302Y-129892872D01*
X130408359Y-129911353D01*
X130314958Y-129931206D01*
X130238659Y-129965176D01*
X130168294Y-129974610D01*
X130113353Y-129952006D01*
X130053998Y-129908882D01*
X130047970Y-129906198D01*
X130047968Y-129906197D01*
X129885565Y-129833891D01*
X129885564Y-129833891D01*
X129879534Y-129831206D01*
X129786134Y-129811353D01*
X129699190Y-129792872D01*
X129699185Y-129792872D01*
X129692733Y-129791500D01*
X129501759Y-129791500D01*
X129495307Y-129792872D01*
X129495302Y-129792872D01*
X129408358Y-129811353D01*
X129314958Y-129831206D01*
X129308928Y-129833891D01*
X129308927Y-129833891D01*
X129146524Y-129906197D01*
X129146522Y-129906198D01*
X129140494Y-129908882D01*
X129135153Y-129912762D01*
X129135152Y-129912763D01*
X129116871Y-129926045D01*
X128985993Y-130021134D01*
X128981572Y-130026044D01*
X128981571Y-130026045D01*
X128933589Y-130079335D01*
X128858206Y-130163056D01*
X128762719Y-130328444D01*
X128703704Y-130510072D01*
X128683742Y-130700000D01*
X128684432Y-130706565D01*
X128699665Y-130851495D01*
X128703704Y-130889928D01*
X128762719Y-131071556D01*
X128766022Y-131077278D01*
X128766023Y-131077279D01*
X128800503Y-131137000D01*
X128817241Y-131205995D01*
X128800503Y-131263000D01*
X128762719Y-131328444D01*
X128703704Y-131510072D01*
X128703014Y-131516633D01*
X128703014Y-131516635D01*
X128686605Y-131672763D01*
X128683742Y-131700000D01*
X127429300Y-131700000D01*
X127432814Y-131666565D01*
X127433504Y-131660000D01*
X127415205Y-131485893D01*
X127414232Y-131476635D01*
X127414232Y-131476633D01*
X127413542Y-131470072D01*
X127354527Y-131288444D01*
X127328814Y-131243907D01*
X127292571Y-131181134D01*
X127259040Y-131123056D01*
X127142740Y-130993891D01*
X127135675Y-130986045D01*
X127135674Y-130986044D01*
X127131253Y-130981134D01*
X127125912Y-130977254D01*
X127125907Y-130977249D01*
X127077698Y-130942223D01*
X127034345Y-130886001D01*
X127026450Y-130827118D01*
X127032814Y-130766565D01*
X127033504Y-130760000D01*
X127013542Y-130570072D01*
X126954527Y-130388444D01*
X126859040Y-130223056D01*
X126731253Y-130081134D01*
X126628778Y-130006681D01*
X126582094Y-129972763D01*
X126582093Y-129972762D01*
X126576752Y-129968882D01*
X126570724Y-129966198D01*
X126570722Y-129966197D01*
X126408319Y-129893891D01*
X126408318Y-129893891D01*
X126402288Y-129891206D01*
X126308887Y-129871353D01*
X126221944Y-129852872D01*
X126221939Y-129852872D01*
X126215487Y-129851500D01*
X126024513Y-129851500D01*
X126018061Y-129852872D01*
X126018056Y-129852872D01*
X125931113Y-129871353D01*
X125837712Y-129891206D01*
X125671248Y-129965320D01*
X125600882Y-129974754D01*
X125568753Y-129965320D01*
X125402288Y-129891206D01*
X125308887Y-129871353D01*
X125221944Y-129852872D01*
X125221939Y-129852872D01*
X125215487Y-129851500D01*
X125024513Y-129851500D01*
X125018061Y-129852872D01*
X125018056Y-129852872D01*
X124931113Y-129871353D01*
X124837712Y-129891206D01*
X124831682Y-129893891D01*
X124831681Y-129893891D01*
X124669278Y-129966197D01*
X124669276Y-129966198D01*
X124663248Y-129968882D01*
X124655364Y-129974610D01*
X124644060Y-129982823D01*
X124577192Y-130006681D01*
X124508041Y-129990600D01*
X124495940Y-129982823D01*
X124484636Y-129974610D01*
X124476752Y-129968882D01*
X124470724Y-129966198D01*
X124470722Y-129966197D01*
X124308319Y-129893891D01*
X124308318Y-129893891D01*
X124302288Y-129891206D01*
X124208887Y-129871353D01*
X124121944Y-129852872D01*
X124121939Y-129852872D01*
X124115487Y-129851500D01*
X123924513Y-129851500D01*
X123918061Y-129852872D01*
X123918056Y-129852872D01*
X123831113Y-129871353D01*
X123737712Y-129891206D01*
X123731682Y-129893891D01*
X123731681Y-129893891D01*
X123569278Y-129966197D01*
X123569276Y-129966198D01*
X123563248Y-129968882D01*
X123557907Y-129972762D01*
X123557906Y-129972763D01*
X123511222Y-130006681D01*
X123456168Y-130046681D01*
X123444061Y-130055477D01*
X123377194Y-130079335D01*
X123308042Y-130063255D01*
X123295939Y-130055477D01*
X123283833Y-130046681D01*
X123228778Y-130006681D01*
X123182094Y-129972763D01*
X123182093Y-129972762D01*
X123176752Y-129968882D01*
X123170724Y-129966198D01*
X123170722Y-129966197D01*
X123008319Y-129893891D01*
X123008318Y-129893891D01*
X123002288Y-129891206D01*
X122908887Y-129871353D01*
X122821944Y-129852872D01*
X122821939Y-129852872D01*
X122815487Y-129851500D01*
X122624513Y-129851500D01*
X122618061Y-129852872D01*
X122618056Y-129852872D01*
X122531113Y-129871353D01*
X122437712Y-129891206D01*
X122431682Y-129893891D01*
X122431681Y-129893891D01*
X122269278Y-129966197D01*
X122269276Y-129966198D01*
X122263248Y-129968882D01*
X122257907Y-129972762D01*
X122257906Y-129972763D01*
X122211222Y-130006681D01*
X122108747Y-130081134D01*
X121980960Y-130223056D01*
X121885473Y-130388444D01*
X121826458Y-130570072D01*
X121806496Y-130760000D01*
X103006273Y-130760000D01*
X102979027Y-130676145D01*
X102883540Y-130510757D01*
X102877271Y-130503794D01*
X102760175Y-130373746D01*
X102760174Y-130373745D01*
X102755753Y-130368835D01*
X102601252Y-130256583D01*
X102595224Y-130253899D01*
X102595222Y-130253898D01*
X102432819Y-130181592D01*
X102432818Y-130181592D01*
X102426788Y-130178907D01*
X102329125Y-130158148D01*
X102246444Y-130140573D01*
X102246439Y-130140573D01*
X102239987Y-130139201D01*
X102049013Y-130139201D01*
X102042561Y-130140573D01*
X102042556Y-130140573D01*
X101959875Y-130158148D01*
X101862212Y-130178907D01*
X101856182Y-130181592D01*
X101856181Y-130181592D01*
X101693778Y-130253898D01*
X101693776Y-130253899D01*
X101687748Y-130256583D01*
X101533247Y-130368835D01*
X101528826Y-130373745D01*
X101528825Y-130373746D01*
X101411730Y-130503794D01*
X101405460Y-130510757D01*
X101309973Y-130676145D01*
X101250958Y-130857773D01*
X101250268Y-130864334D01*
X101250268Y-130864336D01*
X101237992Y-130981134D01*
X101230996Y-131047701D01*
X100838500Y-131047701D01*
X100838500Y-127860000D01*
X104406496Y-127860000D01*
X104426458Y-128049928D01*
X104485473Y-128231556D01*
X104580960Y-128396944D01*
X104708747Y-128538866D01*
X104762303Y-128577777D01*
X104855247Y-128645305D01*
X104898601Y-128701528D01*
X104907186Y-128747241D01*
X104907186Y-128753435D01*
X104906496Y-128760000D01*
X104926458Y-128949928D01*
X104985473Y-129131556D01*
X105080960Y-129296944D01*
X105208747Y-129438866D01*
X105307843Y-129510864D01*
X105320000Y-129519696D01*
X105363248Y-129551118D01*
X105369276Y-129553802D01*
X105369278Y-129553803D01*
X105531681Y-129626109D01*
X105537712Y-129628794D01*
X105631113Y-129648647D01*
X105718056Y-129667128D01*
X105718061Y-129667128D01*
X105724513Y-129668500D01*
X105915487Y-129668500D01*
X105921939Y-129667128D01*
X105921944Y-129667128D01*
X106008887Y-129648647D01*
X106102288Y-129628794D01*
X106218752Y-129576941D01*
X106289118Y-129567507D01*
X106321246Y-129576940D01*
X106437712Y-129628794D01*
X106531113Y-129648647D01*
X106618056Y-129667128D01*
X106618061Y-129667128D01*
X106624513Y-129668500D01*
X106815487Y-129668500D01*
X106821939Y-129667128D01*
X106821944Y-129667128D01*
X106908887Y-129648647D01*
X107002288Y-129628794D01*
X107118752Y-129576941D01*
X107189118Y-129567507D01*
X107221246Y-129576940D01*
X107337712Y-129628794D01*
X107431113Y-129648647D01*
X107518056Y-129667128D01*
X107518061Y-129667128D01*
X107524513Y-129668500D01*
X107715487Y-129668500D01*
X107721939Y-129667128D01*
X107721944Y-129667128D01*
X107808887Y-129648647D01*
X107902288Y-129628794D01*
X108018752Y-129576941D01*
X108089118Y-129567507D01*
X108121246Y-129576940D01*
X108237712Y-129628794D01*
X108331113Y-129648647D01*
X108418056Y-129667128D01*
X108418061Y-129667128D01*
X108424513Y-129668500D01*
X108615487Y-129668500D01*
X108621939Y-129667128D01*
X108621944Y-129667128D01*
X108708887Y-129648647D01*
X108802288Y-129628794D01*
X108808319Y-129626109D01*
X108970722Y-129553803D01*
X108970724Y-129553802D01*
X108976752Y-129551118D01*
X109020001Y-129519696D01*
X109032157Y-129510864D01*
X109131253Y-129438866D01*
X109259040Y-129296944D01*
X109354527Y-129131556D01*
X109413542Y-128949928D01*
X109430873Y-128785029D01*
X109457886Y-128719373D01*
X109504934Y-128683093D01*
X109524504Y-128674380D01*
X109576752Y-128651118D01*
X109731253Y-128538866D01*
X109859040Y-128396944D01*
X109954527Y-128231556D01*
X110013542Y-128049928D01*
X110033504Y-127860000D01*
X111006496Y-127860000D01*
X111026458Y-128049928D01*
X111085473Y-128231556D01*
X111180960Y-128396944D01*
X111308747Y-128538866D01*
X111314088Y-128542746D01*
X111314093Y-128542751D01*
X111362302Y-128577777D01*
X111405655Y-128633999D01*
X111413550Y-128692882D01*
X111410766Y-128719373D01*
X111406496Y-128760000D01*
X111426458Y-128949928D01*
X111485473Y-129131556D01*
X111580960Y-129296944D01*
X111708747Y-129438866D01*
X111807843Y-129510864D01*
X111820000Y-129519696D01*
X111863248Y-129551118D01*
X111869276Y-129553802D01*
X111869278Y-129553803D01*
X112031681Y-129626109D01*
X112037712Y-129628794D01*
X112131113Y-129648647D01*
X112218056Y-129667128D01*
X112218061Y-129667128D01*
X112224513Y-129668500D01*
X112415487Y-129668500D01*
X112421939Y-129667128D01*
X112421944Y-129667128D01*
X112508887Y-129648647D01*
X112602288Y-129628794D01*
X112768752Y-129554680D01*
X112839118Y-129545246D01*
X112871247Y-129554680D01*
X113037712Y-129628794D01*
X113131113Y-129648647D01*
X113218056Y-129667128D01*
X113218061Y-129667128D01*
X113224513Y-129668500D01*
X113415487Y-129668500D01*
X113421939Y-129667128D01*
X113421944Y-129667128D01*
X113508887Y-129648647D01*
X113602288Y-129628794D01*
X113768752Y-129554680D01*
X113839118Y-129545246D01*
X113871247Y-129554680D01*
X114037712Y-129628794D01*
X114131113Y-129648647D01*
X114218056Y-129667128D01*
X114218061Y-129667128D01*
X114224513Y-129668500D01*
X114415487Y-129668500D01*
X114421939Y-129667128D01*
X114421944Y-129667128D01*
X114508887Y-129648647D01*
X114602288Y-129628794D01*
X114718752Y-129576941D01*
X114789118Y-129567507D01*
X114821246Y-129576940D01*
X114937712Y-129628794D01*
X115031113Y-129648647D01*
X115118056Y-129667128D01*
X115118061Y-129667128D01*
X115124513Y-129668500D01*
X115315487Y-129668500D01*
X115321939Y-129667128D01*
X115321944Y-129667128D01*
X115408887Y-129648647D01*
X115502288Y-129628794D01*
X115508319Y-129626109D01*
X115670722Y-129553803D01*
X115670724Y-129553802D01*
X115676752Y-129551118D01*
X115720001Y-129519696D01*
X115732157Y-129510864D01*
X115831253Y-129438866D01*
X115959040Y-129296944D01*
X116054527Y-129131556D01*
X116113542Y-128949928D01*
X116133504Y-128760000D01*
X116113542Y-128570072D01*
X116054527Y-128388444D01*
X115959040Y-128223056D01*
X115831253Y-128081134D01*
X115684753Y-127974695D01*
X115641399Y-127918472D01*
X115632814Y-127872759D01*
X115632814Y-127866565D01*
X115633504Y-127860000D01*
X115613542Y-127670072D01*
X115554527Y-127488444D01*
X115459040Y-127323056D01*
X115331253Y-127181134D01*
X115176752Y-127068882D01*
X115170724Y-127066198D01*
X115170722Y-127066197D01*
X115008319Y-126993891D01*
X115008318Y-126993891D01*
X115002288Y-126991206D01*
X114908887Y-126971353D01*
X114821944Y-126952872D01*
X114821939Y-126952872D01*
X114815487Y-126951500D01*
X114624513Y-126951500D01*
X114618061Y-126952872D01*
X114618056Y-126952872D01*
X114531113Y-126971353D01*
X114437712Y-126991206D01*
X114431682Y-126993891D01*
X114431681Y-126993891D01*
X114269278Y-127066197D01*
X114269276Y-127066198D01*
X114263248Y-127068882D01*
X114241889Y-127084400D01*
X114175024Y-127108257D01*
X114116580Y-127097569D01*
X114102288Y-127091206D01*
X114008887Y-127071353D01*
X113921944Y-127052872D01*
X113921939Y-127052872D01*
X113915487Y-127051500D01*
X113724513Y-127051500D01*
X113718061Y-127052872D01*
X113718056Y-127052872D01*
X113631113Y-127071353D01*
X113537712Y-127091206D01*
X113421248Y-127143059D01*
X113350882Y-127152493D01*
X113318754Y-127143060D01*
X113202288Y-127091206D01*
X113108887Y-127071353D01*
X113021944Y-127052872D01*
X113021939Y-127052872D01*
X113015487Y-127051500D01*
X112824513Y-127051500D01*
X112818061Y-127052872D01*
X112818056Y-127052872D01*
X112731113Y-127071353D01*
X112637712Y-127091206D01*
X112561413Y-127125176D01*
X112491048Y-127134610D01*
X112436107Y-127112006D01*
X112376752Y-127068882D01*
X112370724Y-127066198D01*
X112370722Y-127066197D01*
X112208319Y-126993891D01*
X112208318Y-126993891D01*
X112202288Y-126991206D01*
X112108887Y-126971353D01*
X112021944Y-126952872D01*
X112021939Y-126952872D01*
X112015487Y-126951500D01*
X111824513Y-126951500D01*
X111818061Y-126952872D01*
X111818056Y-126952872D01*
X111731113Y-126971353D01*
X111637712Y-126991206D01*
X111631682Y-126993891D01*
X111631681Y-126993891D01*
X111469278Y-127066197D01*
X111469276Y-127066198D01*
X111463248Y-127068882D01*
X111308747Y-127181134D01*
X111180960Y-127323056D01*
X111085473Y-127488444D01*
X111026458Y-127670072D01*
X111006496Y-127860000D01*
X110033504Y-127860000D01*
X110013542Y-127670072D01*
X109954527Y-127488444D01*
X109859040Y-127323056D01*
X109731253Y-127181134D01*
X109576752Y-127068882D01*
X109570724Y-127066198D01*
X109570722Y-127066197D01*
X109408319Y-126993891D01*
X109408318Y-126993891D01*
X109402288Y-126991206D01*
X109308887Y-126971353D01*
X109221944Y-126952872D01*
X109221939Y-126952872D01*
X109215487Y-126951500D01*
X109024513Y-126951500D01*
X109018061Y-126952872D01*
X109018056Y-126952872D01*
X108931113Y-126971353D01*
X108837712Y-126991206D01*
X108831682Y-126993891D01*
X108831681Y-126993891D01*
X108669278Y-127066197D01*
X108669276Y-127066198D01*
X108663248Y-127068882D01*
X108644060Y-127082823D01*
X108577192Y-127106681D01*
X108508041Y-127090600D01*
X108495940Y-127082823D01*
X108476752Y-127068882D01*
X108470724Y-127066198D01*
X108470722Y-127066197D01*
X108308319Y-126993891D01*
X108308318Y-126993891D01*
X108302288Y-126991206D01*
X108208887Y-126971353D01*
X108121944Y-126952872D01*
X108121939Y-126952872D01*
X108115487Y-126951500D01*
X107924513Y-126951500D01*
X107918061Y-126952872D01*
X107918056Y-126952872D01*
X107831113Y-126971353D01*
X107737712Y-126991206D01*
X107621248Y-127043059D01*
X107550882Y-127052493D01*
X107518754Y-127043060D01*
X107402288Y-126991206D01*
X107308887Y-126971353D01*
X107221944Y-126952872D01*
X107221939Y-126952872D01*
X107215487Y-126951500D01*
X107024513Y-126951500D01*
X107018061Y-126952872D01*
X107018056Y-126952872D01*
X106931113Y-126971353D01*
X106837712Y-126991206D01*
X106721248Y-127043059D01*
X106650882Y-127052493D01*
X106618754Y-127043060D01*
X106502288Y-126991206D01*
X106408887Y-126971353D01*
X106321944Y-126952872D01*
X106321939Y-126952872D01*
X106315487Y-126951500D01*
X106124513Y-126951500D01*
X106118061Y-126952872D01*
X106118056Y-126952872D01*
X106031113Y-126971353D01*
X105937712Y-126991206D01*
X105821248Y-127043059D01*
X105750882Y-127052493D01*
X105718754Y-127043060D01*
X105602288Y-126991206D01*
X105508887Y-126971353D01*
X105421944Y-126952872D01*
X105421939Y-126952872D01*
X105415487Y-126951500D01*
X105224513Y-126951500D01*
X105218061Y-126952872D01*
X105218056Y-126952872D01*
X105131113Y-126971353D01*
X105037712Y-126991206D01*
X105031682Y-126993891D01*
X105031681Y-126993891D01*
X104869278Y-127066197D01*
X104869276Y-127066198D01*
X104863248Y-127068882D01*
X104708747Y-127181134D01*
X104580960Y-127323056D01*
X104485473Y-127488444D01*
X104426458Y-127670072D01*
X104406496Y-127860000D01*
X100838500Y-127860000D01*
X100838500Y-124405000D01*
X103516496Y-124405000D01*
X103517186Y-124411565D01*
X103535392Y-124584782D01*
X103536458Y-124594928D01*
X103595473Y-124776556D01*
X103598776Y-124782278D01*
X103598777Y-124782279D01*
X103618109Y-124815763D01*
X103690960Y-124941944D01*
X103695378Y-124946851D01*
X103695379Y-124946852D01*
X103811814Y-125076166D01*
X103818747Y-125083866D01*
X103973248Y-125196118D01*
X103979276Y-125198802D01*
X103979278Y-125198803D01*
X104066708Y-125237729D01*
X104147712Y-125273794D01*
X104241112Y-125293647D01*
X104328056Y-125312128D01*
X104328061Y-125312128D01*
X104334513Y-125313500D01*
X104525487Y-125313500D01*
X104531939Y-125312128D01*
X104531944Y-125312128D01*
X104618888Y-125293647D01*
X104712288Y-125273794D01*
X104793292Y-125237729D01*
X104880722Y-125198803D01*
X104880724Y-125198802D01*
X104886752Y-125196118D01*
X105041253Y-125083866D01*
X105048186Y-125076166D01*
X105164621Y-124946852D01*
X105164622Y-124946851D01*
X105169040Y-124941944D01*
X105241891Y-124815763D01*
X105261223Y-124782279D01*
X105261224Y-124782278D01*
X105264527Y-124776556D01*
X105323542Y-124594928D01*
X105324609Y-124584782D01*
X105342814Y-124411565D01*
X105343504Y-124405000D01*
X105323542Y-124215072D01*
X105264527Y-124033444D01*
X105258287Y-124022635D01*
X105172341Y-123873774D01*
X105169040Y-123868056D01*
X105041253Y-123726134D01*
X105037490Y-123723400D01*
X121463696Y-123723400D01*
X121464386Y-123729965D01*
X121476028Y-123840729D01*
X121483658Y-123913328D01*
X121542673Y-124094956D01*
X121545976Y-124100678D01*
X121545977Y-124100679D01*
X121553005Y-124112852D01*
X121638160Y-124260344D01*
X121642578Y-124265251D01*
X121642579Y-124265252D01*
X121732215Y-124364803D01*
X121765947Y-124402266D01*
X121920448Y-124514518D01*
X121926476Y-124517202D01*
X121926478Y-124517203D01*
X122021259Y-124559402D01*
X122075355Y-124605382D01*
X122096004Y-124673310D01*
X122076652Y-124741618D01*
X122021258Y-124789616D01*
X121977281Y-124809195D01*
X121977274Y-124809199D01*
X121971248Y-124811882D01*
X121816747Y-124924134D01*
X121688960Y-125066056D01*
X121676436Y-125087749D01*
X121613869Y-125196118D01*
X121593473Y-125231444D01*
X121534458Y-125413072D01*
X121514496Y-125603000D01*
X121534458Y-125792928D01*
X121593473Y-125974556D01*
X121596776Y-125980278D01*
X121596777Y-125980279D01*
X121617490Y-126016155D01*
X121688960Y-126139944D01*
X121693378Y-126144851D01*
X121693379Y-126144852D01*
X121735379Y-126191498D01*
X121816747Y-126281866D01*
X121971248Y-126394118D01*
X121977276Y-126396802D01*
X121977278Y-126396803D01*
X122139681Y-126469109D01*
X122145712Y-126471794D01*
X122239112Y-126491647D01*
X122326056Y-126510128D01*
X122326061Y-126510128D01*
X122332513Y-126511500D01*
X122523487Y-126511500D01*
X122529939Y-126510128D01*
X122529944Y-126510128D01*
X122616888Y-126491647D01*
X122710288Y-126471794D01*
X122716319Y-126469109D01*
X122878722Y-126396803D01*
X122878724Y-126396802D01*
X122884752Y-126394118D01*
X122902221Y-126381426D01*
X131735996Y-126381426D01*
X131755958Y-126571354D01*
X131814973Y-126752982D01*
X131910460Y-126918370D01*
X132038247Y-127060292D01*
X132084492Y-127093891D01*
X132152166Y-127143059D01*
X132192748Y-127172544D01*
X132198776Y-127175228D01*
X132198778Y-127175229D01*
X132361181Y-127247535D01*
X132367212Y-127250220D01*
X132460613Y-127270073D01*
X132547556Y-127288554D01*
X132547561Y-127288554D01*
X132554013Y-127289926D01*
X132744987Y-127289926D01*
X132751439Y-127288554D01*
X132751444Y-127288554D01*
X132838387Y-127270073D01*
X132931788Y-127250220D01*
X132937819Y-127247535D01*
X133100222Y-127175229D01*
X133100224Y-127175228D01*
X133106252Y-127172544D01*
X133146835Y-127143059D01*
X133214508Y-127093891D01*
X133260753Y-127060292D01*
X133388540Y-126918370D01*
X133484027Y-126752982D01*
X133543042Y-126571354D01*
X133563004Y-126381426D01*
X133543042Y-126191498D01*
X133484027Y-126009870D01*
X133463639Y-125974556D01*
X133391841Y-125850200D01*
X133388540Y-125844482D01*
X133347774Y-125799206D01*
X133265175Y-125707471D01*
X133265174Y-125707470D01*
X133260753Y-125702560D01*
X133106252Y-125590308D01*
X133100224Y-125587624D01*
X133100222Y-125587623D01*
X132937819Y-125515317D01*
X132937818Y-125515317D01*
X132931788Y-125512632D01*
X132838388Y-125492779D01*
X132751444Y-125474298D01*
X132751439Y-125474298D01*
X132744987Y-125472926D01*
X132554013Y-125472926D01*
X132547561Y-125474298D01*
X132547556Y-125474298D01*
X132460612Y-125492779D01*
X132367212Y-125512632D01*
X132361182Y-125515317D01*
X132361181Y-125515317D01*
X132198778Y-125587623D01*
X132198776Y-125587624D01*
X132192748Y-125590308D01*
X132038247Y-125702560D01*
X132033826Y-125707470D01*
X132033825Y-125707471D01*
X131951227Y-125799206D01*
X131910460Y-125844482D01*
X131907159Y-125850200D01*
X131835362Y-125974556D01*
X131814973Y-126009870D01*
X131755958Y-126191498D01*
X131735996Y-126381426D01*
X122902221Y-126381426D01*
X123039253Y-126281866D01*
X123120621Y-126191498D01*
X123162621Y-126144852D01*
X123162622Y-126144851D01*
X123167040Y-126139944D01*
X123238510Y-126016155D01*
X123259223Y-125980279D01*
X123259224Y-125980278D01*
X123262527Y-125974556D01*
X123321542Y-125792928D01*
X123341504Y-125603000D01*
X123321542Y-125413072D01*
X123262527Y-125231444D01*
X123242132Y-125196118D01*
X123179564Y-125087749D01*
X123167040Y-125066056D01*
X123039253Y-124924134D01*
X122884752Y-124811882D01*
X122878724Y-124809198D01*
X122878722Y-124809197D01*
X122783941Y-124766998D01*
X122729845Y-124721018D01*
X122709196Y-124653090D01*
X122728548Y-124584782D01*
X122783942Y-124536784D01*
X122827919Y-124517205D01*
X122827926Y-124517201D01*
X122833952Y-124514518D01*
X122988453Y-124402266D01*
X123022185Y-124364803D01*
X123111821Y-124265252D01*
X123111822Y-124265251D01*
X123116240Y-124260344D01*
X123201395Y-124112852D01*
X123208423Y-124100679D01*
X123208424Y-124100678D01*
X123211727Y-124094956D01*
X123270742Y-123913328D01*
X123278373Y-123840729D01*
X123290014Y-123729965D01*
X123290704Y-123723400D01*
X123284992Y-123669056D01*
X123274686Y-123571000D01*
X124816496Y-123571000D01*
X124836458Y-123760928D01*
X124895473Y-123942556D01*
X124990960Y-124107944D01*
X125118747Y-124249866D01*
X125273248Y-124362118D01*
X125279276Y-124364802D01*
X125279278Y-124364803D01*
X125384308Y-124411565D01*
X125447712Y-124439794D01*
X125541112Y-124459647D01*
X125628056Y-124478128D01*
X125628061Y-124478128D01*
X125634513Y-124479500D01*
X125825487Y-124479500D01*
X125831939Y-124478128D01*
X125831944Y-124478128D01*
X125918888Y-124459647D01*
X126012288Y-124439794D01*
X126075692Y-124411565D01*
X126180722Y-124364803D01*
X126180724Y-124364802D01*
X126186752Y-124362118D01*
X126341253Y-124249866D01*
X126380750Y-124206000D01*
X130175896Y-124206000D01*
X130176586Y-124212565D01*
X130192587Y-124364803D01*
X130195858Y-124395928D01*
X130254873Y-124577556D01*
X130258176Y-124583278D01*
X130258177Y-124583279D01*
X130263324Y-124592194D01*
X130350360Y-124742944D01*
X130354778Y-124747851D01*
X130354779Y-124747852D01*
X130410014Y-124809197D01*
X130478147Y-124884866D01*
X130632648Y-124997118D01*
X130638676Y-124999802D01*
X130638678Y-124999803D01*
X130776462Y-125061148D01*
X130807112Y-125074794D01*
X130900512Y-125094647D01*
X130987456Y-125113128D01*
X130987461Y-125113128D01*
X130993913Y-125114500D01*
X131184887Y-125114500D01*
X131191339Y-125113128D01*
X131191344Y-125113128D01*
X131278288Y-125094647D01*
X131371688Y-125074794D01*
X131402338Y-125061148D01*
X131540122Y-124999803D01*
X131540124Y-124999802D01*
X131546152Y-124997118D01*
X131700653Y-124884866D01*
X131768786Y-124809197D01*
X131824021Y-124747852D01*
X131824022Y-124747851D01*
X131828440Y-124742944D01*
X131915476Y-124592194D01*
X131920623Y-124583279D01*
X131920624Y-124583278D01*
X131923927Y-124577556D01*
X131982942Y-124395928D01*
X131986214Y-124364803D01*
X132002214Y-124212565D01*
X132002904Y-124206000D01*
X131991997Y-124102226D01*
X131983632Y-124022635D01*
X131983632Y-124022633D01*
X131982942Y-124016072D01*
X131923927Y-123834444D01*
X131828440Y-123669056D01*
X131708822Y-123536206D01*
X131705075Y-123532045D01*
X131705074Y-123532044D01*
X131700653Y-123527134D01*
X131546152Y-123414882D01*
X131540124Y-123412198D01*
X131540122Y-123412197D01*
X131377719Y-123339891D01*
X131377718Y-123339891D01*
X131371688Y-123337206D01*
X131278287Y-123317353D01*
X131191344Y-123298872D01*
X131191339Y-123298872D01*
X131184887Y-123297500D01*
X130993913Y-123297500D01*
X130987461Y-123298872D01*
X130987456Y-123298872D01*
X130900513Y-123317353D01*
X130807112Y-123337206D01*
X130801082Y-123339891D01*
X130801081Y-123339891D01*
X130638678Y-123412197D01*
X130638676Y-123412198D01*
X130632648Y-123414882D01*
X130478147Y-123527134D01*
X130473726Y-123532044D01*
X130473725Y-123532045D01*
X130469979Y-123536206D01*
X130350360Y-123669056D01*
X130254873Y-123834444D01*
X130195858Y-124016072D01*
X130195168Y-124022633D01*
X130195168Y-124022635D01*
X130186803Y-124102226D01*
X130175896Y-124206000D01*
X126380750Y-124206000D01*
X126469040Y-124107944D01*
X126564527Y-123942556D01*
X126623542Y-123760928D01*
X126643504Y-123571000D01*
X126642814Y-123564435D01*
X126624232Y-123387635D01*
X126624232Y-123387633D01*
X126623542Y-123381072D01*
X126564527Y-123199444D01*
X126557029Y-123186456D01*
X126475089Y-123044534D01*
X126469040Y-123034056D01*
X126377403Y-122932282D01*
X126345675Y-122897045D01*
X126345674Y-122897044D01*
X126341253Y-122892134D01*
X126186752Y-122779882D01*
X126180724Y-122777198D01*
X126180722Y-122777197D01*
X126018319Y-122704891D01*
X126018318Y-122704891D01*
X126012288Y-122702206D01*
X125918888Y-122682353D01*
X125831944Y-122663872D01*
X125831939Y-122663872D01*
X125825487Y-122662500D01*
X125634513Y-122662500D01*
X125628061Y-122663872D01*
X125628056Y-122663872D01*
X125541112Y-122682353D01*
X125447712Y-122702206D01*
X125441682Y-122704891D01*
X125441681Y-122704891D01*
X125279278Y-122777197D01*
X125279276Y-122777198D01*
X125273248Y-122779882D01*
X125118747Y-122892134D01*
X125114326Y-122897044D01*
X125114325Y-122897045D01*
X125082598Y-122932282D01*
X124990960Y-123034056D01*
X124984911Y-123044534D01*
X124902972Y-123186456D01*
X124895473Y-123199444D01*
X124836458Y-123381072D01*
X124835768Y-123387633D01*
X124835768Y-123387635D01*
X124817186Y-123564435D01*
X124816496Y-123571000D01*
X123274686Y-123571000D01*
X123271432Y-123540035D01*
X123271432Y-123540033D01*
X123270742Y-123533472D01*
X123211727Y-123351844D01*
X123116240Y-123186456D01*
X122988453Y-123044534D01*
X122833952Y-122932282D01*
X122827924Y-122929598D01*
X122827922Y-122929597D01*
X122665519Y-122857291D01*
X122665518Y-122857291D01*
X122659488Y-122854606D01*
X122566088Y-122834753D01*
X122479144Y-122816272D01*
X122479139Y-122816272D01*
X122472687Y-122814900D01*
X122281713Y-122814900D01*
X122275261Y-122816272D01*
X122275256Y-122816272D01*
X122188312Y-122834753D01*
X122094912Y-122854606D01*
X122088882Y-122857291D01*
X122088881Y-122857291D01*
X121926478Y-122929597D01*
X121926476Y-122929598D01*
X121920448Y-122932282D01*
X121765947Y-123044534D01*
X121638160Y-123186456D01*
X121542673Y-123351844D01*
X121483658Y-123533472D01*
X121482968Y-123540033D01*
X121482968Y-123540035D01*
X121469408Y-123669056D01*
X121463696Y-123723400D01*
X105037490Y-123723400D01*
X104886752Y-123613882D01*
X104880724Y-123611198D01*
X104880722Y-123611197D01*
X104718319Y-123538891D01*
X104718318Y-123538891D01*
X104712288Y-123536206D01*
X104618887Y-123516353D01*
X104531944Y-123497872D01*
X104531939Y-123497872D01*
X104525487Y-123496500D01*
X104334513Y-123496500D01*
X104328061Y-123497872D01*
X104328056Y-123497872D01*
X104241113Y-123516353D01*
X104147712Y-123536206D01*
X104141682Y-123538891D01*
X104141681Y-123538891D01*
X103979278Y-123611197D01*
X103979276Y-123611198D01*
X103973248Y-123613882D01*
X103818747Y-123726134D01*
X103690960Y-123868056D01*
X103687659Y-123873774D01*
X103601714Y-124022635D01*
X103595473Y-124033444D01*
X103536458Y-124215072D01*
X103516496Y-124405000D01*
X100838500Y-124405000D01*
X100838500Y-121793000D01*
X102972496Y-121793000D01*
X102992458Y-121982928D01*
X103051473Y-122164556D01*
X103054776Y-122170278D01*
X103054777Y-122170279D01*
X103079416Y-122212955D01*
X103146960Y-122329944D01*
X103274747Y-122471866D01*
X103429248Y-122584118D01*
X103435276Y-122586802D01*
X103435278Y-122586803D01*
X103597681Y-122659109D01*
X103603712Y-122661794D01*
X103697112Y-122681647D01*
X103784056Y-122700128D01*
X103784061Y-122700128D01*
X103790513Y-122701500D01*
X103981487Y-122701500D01*
X103987939Y-122700128D01*
X103987944Y-122700128D01*
X104074888Y-122681647D01*
X104168288Y-122661794D01*
X104174319Y-122659109D01*
X104336722Y-122586803D01*
X104336724Y-122586802D01*
X104342752Y-122584118D01*
X104497253Y-122471866D01*
X104625040Y-122329944D01*
X104692584Y-122212955D01*
X104717223Y-122170279D01*
X104717224Y-122170278D01*
X104720527Y-122164556D01*
X104779542Y-121982928D01*
X104799504Y-121793000D01*
X105258496Y-121793000D01*
X105278458Y-121982928D01*
X105337473Y-122164556D01*
X105340776Y-122170278D01*
X105340777Y-122170279D01*
X105365416Y-122212955D01*
X105432960Y-122329944D01*
X105560747Y-122471866D01*
X105715248Y-122584118D01*
X105721276Y-122586802D01*
X105721278Y-122586803D01*
X105883681Y-122659109D01*
X105889712Y-122661794D01*
X105983112Y-122681647D01*
X106070056Y-122700128D01*
X106070061Y-122700128D01*
X106076513Y-122701500D01*
X106267487Y-122701500D01*
X106273939Y-122700128D01*
X106273944Y-122700128D01*
X106360888Y-122681647D01*
X106454288Y-122661794D01*
X106460319Y-122659109D01*
X106622722Y-122586803D01*
X106622724Y-122586802D01*
X106628752Y-122584118D01*
X106783253Y-122471866D01*
X106911040Y-122329944D01*
X106978584Y-122212955D01*
X107003223Y-122170279D01*
X107003224Y-122170278D01*
X107006527Y-122164556D01*
X107065542Y-121982928D01*
X107085504Y-121793000D01*
X107798496Y-121793000D01*
X107818458Y-121982928D01*
X107877473Y-122164556D01*
X107880776Y-122170278D01*
X107880777Y-122170279D01*
X107905416Y-122212955D01*
X107972960Y-122329944D01*
X108100747Y-122471866D01*
X108255248Y-122584118D01*
X108261276Y-122586802D01*
X108261278Y-122586803D01*
X108423681Y-122659109D01*
X108429712Y-122661794D01*
X108523112Y-122681647D01*
X108610056Y-122700128D01*
X108610061Y-122700128D01*
X108616513Y-122701500D01*
X108807487Y-122701500D01*
X108813939Y-122700128D01*
X108813944Y-122700128D01*
X108900888Y-122681647D01*
X108994288Y-122661794D01*
X109000319Y-122659109D01*
X109162722Y-122586803D01*
X109162724Y-122586802D01*
X109168752Y-122584118D01*
X109323253Y-122471866D01*
X109451040Y-122329944D01*
X109518584Y-122212955D01*
X109543223Y-122170279D01*
X109543224Y-122170278D01*
X109546527Y-122164556D01*
X109605542Y-121982928D01*
X109625504Y-121793000D01*
X109605542Y-121603072D01*
X109573676Y-121505000D01*
X113016496Y-121505000D01*
X113017186Y-121511565D01*
X113020760Y-121545565D01*
X113036458Y-121694928D01*
X113095473Y-121876556D01*
X113190960Y-122041944D01*
X113318747Y-122183866D01*
X113473248Y-122296118D01*
X113479276Y-122298802D01*
X113479278Y-122298803D01*
X113555644Y-122332803D01*
X113647712Y-122373794D01*
X113741113Y-122393647D01*
X113828056Y-122412128D01*
X113828061Y-122412128D01*
X113834513Y-122413500D01*
X114025487Y-122413500D01*
X114031939Y-122412128D01*
X114031944Y-122412128D01*
X114118887Y-122393647D01*
X114212288Y-122373794D01*
X114304356Y-122332803D01*
X114380722Y-122298803D01*
X114380724Y-122298802D01*
X114386752Y-122296118D01*
X114541253Y-122183866D01*
X114669040Y-122041944D01*
X114764527Y-121876556D01*
X114823542Y-121694928D01*
X114835990Y-121576500D01*
X120752496Y-121576500D01*
X120753186Y-121583065D01*
X120768517Y-121728928D01*
X120772458Y-121766428D01*
X120831473Y-121948056D01*
X120926960Y-122113444D01*
X121054747Y-122255366D01*
X121209248Y-122367618D01*
X121215276Y-122370302D01*
X121215278Y-122370303D01*
X121312301Y-122413500D01*
X121383712Y-122445294D01*
X121477113Y-122465147D01*
X121564056Y-122483628D01*
X121564061Y-122483628D01*
X121570513Y-122485000D01*
X121761487Y-122485000D01*
X121767939Y-122483628D01*
X121767944Y-122483628D01*
X121854887Y-122465147D01*
X121948288Y-122445294D01*
X122019699Y-122413500D01*
X122116722Y-122370303D01*
X122116724Y-122370302D01*
X122122752Y-122367618D01*
X122277253Y-122255366D01*
X122405040Y-122113444D01*
X122500527Y-121948056D01*
X122559542Y-121766428D01*
X122563484Y-121728928D01*
X122578814Y-121583065D01*
X122579504Y-121576500D01*
X122575563Y-121539000D01*
X123292496Y-121539000D01*
X123312458Y-121728928D01*
X123371473Y-121910556D01*
X123466960Y-122075944D01*
X123471378Y-122080851D01*
X123471379Y-122080852D01*
X123590325Y-122212955D01*
X123594747Y-122217866D01*
X123749248Y-122330118D01*
X123755276Y-122332802D01*
X123755278Y-122332803D01*
X123917681Y-122405109D01*
X123923712Y-122407794D01*
X124017112Y-122427647D01*
X124104056Y-122446128D01*
X124104061Y-122446128D01*
X124110513Y-122447500D01*
X124301487Y-122447500D01*
X124307939Y-122446128D01*
X124307944Y-122446128D01*
X124394888Y-122427647D01*
X124488288Y-122407794D01*
X124494319Y-122405109D01*
X124656722Y-122332803D01*
X124656724Y-122332802D01*
X124662752Y-122330118D01*
X124817253Y-122217866D01*
X124821675Y-122212955D01*
X124940621Y-122080852D01*
X124940622Y-122080851D01*
X124945040Y-122075944D01*
X125040527Y-121910556D01*
X125099542Y-121728928D01*
X125119504Y-121539000D01*
X125832496Y-121539000D01*
X125852458Y-121728928D01*
X125911473Y-121910556D01*
X126006960Y-122075944D01*
X126011378Y-122080851D01*
X126011379Y-122080852D01*
X126130325Y-122212955D01*
X126134747Y-122217866D01*
X126289248Y-122330118D01*
X126295276Y-122332802D01*
X126295278Y-122332803D01*
X126457681Y-122405109D01*
X126463712Y-122407794D01*
X126557112Y-122427647D01*
X126644056Y-122446128D01*
X126644061Y-122446128D01*
X126650513Y-122447500D01*
X126841487Y-122447500D01*
X126847939Y-122446128D01*
X126847944Y-122446128D01*
X126934888Y-122427647D01*
X127028288Y-122407794D01*
X127034319Y-122405109D01*
X127196722Y-122332803D01*
X127196724Y-122332802D01*
X127202752Y-122330118D01*
X127357253Y-122217866D01*
X127361675Y-122212955D01*
X127480621Y-122080852D01*
X127480622Y-122080851D01*
X127485040Y-122075944D01*
X127580527Y-121910556D01*
X127639542Y-121728928D01*
X127659504Y-121539000D01*
X128372496Y-121539000D01*
X128392458Y-121728928D01*
X128451473Y-121910556D01*
X128546960Y-122075944D01*
X128551378Y-122080851D01*
X128551379Y-122080852D01*
X128670325Y-122212955D01*
X128674747Y-122217866D01*
X128829248Y-122330118D01*
X128835276Y-122332802D01*
X128835278Y-122332803D01*
X128997681Y-122405109D01*
X129003712Y-122407794D01*
X129097112Y-122427647D01*
X129184056Y-122446128D01*
X129184061Y-122446128D01*
X129190513Y-122447500D01*
X129381487Y-122447500D01*
X129387939Y-122446128D01*
X129387944Y-122446128D01*
X129474888Y-122427647D01*
X129568288Y-122407794D01*
X129574319Y-122405109D01*
X129736722Y-122332803D01*
X129736724Y-122332802D01*
X129742752Y-122330118D01*
X129897253Y-122217866D01*
X129901675Y-122212955D01*
X130020621Y-122080852D01*
X130020622Y-122080851D01*
X130025040Y-122075944D01*
X130120527Y-121910556D01*
X130179542Y-121728928D01*
X130199504Y-121539000D01*
X130198814Y-121532435D01*
X130180232Y-121355635D01*
X130180232Y-121355633D01*
X130179542Y-121349072D01*
X130120527Y-121167444D01*
X130025040Y-121002056D01*
X129897253Y-120860134D01*
X129742752Y-120747882D01*
X129736724Y-120745198D01*
X129736722Y-120745197D01*
X129574319Y-120672891D01*
X129574318Y-120672891D01*
X129568288Y-120670206D01*
X129474888Y-120650353D01*
X129387944Y-120631872D01*
X129387939Y-120631872D01*
X129381487Y-120630500D01*
X129190513Y-120630500D01*
X129184061Y-120631872D01*
X129184056Y-120631872D01*
X129097112Y-120650353D01*
X129003712Y-120670206D01*
X128997682Y-120672891D01*
X128997681Y-120672891D01*
X128835278Y-120745197D01*
X128835276Y-120745198D01*
X128829248Y-120747882D01*
X128674747Y-120860134D01*
X128546960Y-121002056D01*
X128451473Y-121167444D01*
X128392458Y-121349072D01*
X128391768Y-121355633D01*
X128391768Y-121355635D01*
X128373186Y-121532435D01*
X128372496Y-121539000D01*
X127659504Y-121539000D01*
X127658814Y-121532435D01*
X127640232Y-121355635D01*
X127640232Y-121355633D01*
X127639542Y-121349072D01*
X127580527Y-121167444D01*
X127485040Y-121002056D01*
X127357253Y-120860134D01*
X127202752Y-120747882D01*
X127196724Y-120745198D01*
X127196722Y-120745197D01*
X127034319Y-120672891D01*
X127034318Y-120672891D01*
X127028288Y-120670206D01*
X126934888Y-120650353D01*
X126847944Y-120631872D01*
X126847939Y-120631872D01*
X126841487Y-120630500D01*
X126650513Y-120630500D01*
X126644061Y-120631872D01*
X126644056Y-120631872D01*
X126557112Y-120650353D01*
X126463712Y-120670206D01*
X126457682Y-120672891D01*
X126457681Y-120672891D01*
X126295278Y-120745197D01*
X126295276Y-120745198D01*
X126289248Y-120747882D01*
X126134747Y-120860134D01*
X126006960Y-121002056D01*
X125911473Y-121167444D01*
X125852458Y-121349072D01*
X125851768Y-121355633D01*
X125851768Y-121355635D01*
X125833186Y-121532435D01*
X125832496Y-121539000D01*
X125119504Y-121539000D01*
X125118814Y-121532435D01*
X125100232Y-121355635D01*
X125100232Y-121355633D01*
X125099542Y-121349072D01*
X125040527Y-121167444D01*
X124945040Y-121002056D01*
X124817253Y-120860134D01*
X124662752Y-120747882D01*
X124656724Y-120745198D01*
X124656722Y-120745197D01*
X124494319Y-120672891D01*
X124494318Y-120672891D01*
X124488288Y-120670206D01*
X124394888Y-120650353D01*
X124307944Y-120631872D01*
X124307939Y-120631872D01*
X124301487Y-120630500D01*
X124110513Y-120630500D01*
X124104061Y-120631872D01*
X124104056Y-120631872D01*
X124017112Y-120650353D01*
X123923712Y-120670206D01*
X123917682Y-120672891D01*
X123917681Y-120672891D01*
X123755278Y-120745197D01*
X123755276Y-120745198D01*
X123749248Y-120747882D01*
X123594747Y-120860134D01*
X123466960Y-121002056D01*
X123371473Y-121167444D01*
X123312458Y-121349072D01*
X123311768Y-121355633D01*
X123311768Y-121355635D01*
X123293186Y-121532435D01*
X123292496Y-121539000D01*
X122575563Y-121539000D01*
X122559542Y-121386572D01*
X122500527Y-121204944D01*
X122405040Y-121039556D01*
X122376424Y-121007774D01*
X122281675Y-120902545D01*
X122281674Y-120902544D01*
X122277253Y-120897634D01*
X122122752Y-120785382D01*
X122116724Y-120782698D01*
X122116722Y-120782697D01*
X121954319Y-120710391D01*
X121954318Y-120710391D01*
X121948288Y-120707706D01*
X121854888Y-120687853D01*
X121767944Y-120669372D01*
X121767939Y-120669372D01*
X121761487Y-120668000D01*
X121570513Y-120668000D01*
X121564061Y-120669372D01*
X121564056Y-120669372D01*
X121477112Y-120687853D01*
X121383712Y-120707706D01*
X121377682Y-120710391D01*
X121377681Y-120710391D01*
X121215278Y-120782697D01*
X121215276Y-120782698D01*
X121209248Y-120785382D01*
X121054747Y-120897634D01*
X121050326Y-120902544D01*
X121050325Y-120902545D01*
X120955577Y-121007774D01*
X120926960Y-121039556D01*
X120831473Y-121204944D01*
X120772458Y-121386572D01*
X120752496Y-121576500D01*
X114835990Y-121576500D01*
X114839241Y-121545565D01*
X114842814Y-121511565D01*
X114843504Y-121505000D01*
X114823542Y-121315072D01*
X114764527Y-121133444D01*
X114751137Y-121110251D01*
X114672341Y-120973774D01*
X114669040Y-120968056D01*
X114568371Y-120856251D01*
X114545675Y-120831045D01*
X114545674Y-120831044D01*
X114541253Y-120826134D01*
X114386752Y-120713882D01*
X114380724Y-120711198D01*
X114380722Y-120711197D01*
X114218319Y-120638891D01*
X114218318Y-120638891D01*
X114212288Y-120636206D01*
X114118887Y-120616353D01*
X114031944Y-120597872D01*
X114031939Y-120597872D01*
X114025487Y-120596500D01*
X113834513Y-120596500D01*
X113828061Y-120597872D01*
X113828056Y-120597872D01*
X113741113Y-120616353D01*
X113647712Y-120636206D01*
X113641682Y-120638891D01*
X113641681Y-120638891D01*
X113479278Y-120711197D01*
X113479276Y-120711198D01*
X113473248Y-120713882D01*
X113318747Y-120826134D01*
X113314326Y-120831044D01*
X113314325Y-120831045D01*
X113291630Y-120856251D01*
X113190960Y-120968056D01*
X113187659Y-120973774D01*
X113108864Y-121110251D01*
X113095473Y-121133444D01*
X113036458Y-121315072D01*
X113016496Y-121505000D01*
X109573676Y-121505000D01*
X109546527Y-121421444D01*
X109451040Y-121256056D01*
X109371254Y-121167444D01*
X109327675Y-121119045D01*
X109327674Y-121119044D01*
X109323253Y-121114134D01*
X109168752Y-121001882D01*
X109162724Y-120999198D01*
X109162722Y-120999197D01*
X109000319Y-120926891D01*
X109000318Y-120926891D01*
X108994288Y-120924206D01*
X108892382Y-120902545D01*
X108813944Y-120885872D01*
X108813939Y-120885872D01*
X108807487Y-120884500D01*
X108616513Y-120884500D01*
X108610061Y-120885872D01*
X108610056Y-120885872D01*
X108531618Y-120902545D01*
X108429712Y-120924206D01*
X108423682Y-120926891D01*
X108423681Y-120926891D01*
X108261278Y-120999197D01*
X108261276Y-120999198D01*
X108255248Y-121001882D01*
X108100747Y-121114134D01*
X108096326Y-121119044D01*
X108096325Y-121119045D01*
X108052747Y-121167444D01*
X107972960Y-121256056D01*
X107877473Y-121421444D01*
X107818458Y-121603072D01*
X107798496Y-121793000D01*
X107085504Y-121793000D01*
X107065542Y-121603072D01*
X107006527Y-121421444D01*
X106911040Y-121256056D01*
X106831254Y-121167444D01*
X106787675Y-121119045D01*
X106787674Y-121119044D01*
X106783253Y-121114134D01*
X106628752Y-121001882D01*
X106622724Y-120999198D01*
X106622722Y-120999197D01*
X106460319Y-120926891D01*
X106460318Y-120926891D01*
X106454288Y-120924206D01*
X106352382Y-120902545D01*
X106273944Y-120885872D01*
X106273939Y-120885872D01*
X106267487Y-120884500D01*
X106076513Y-120884500D01*
X106070061Y-120885872D01*
X106070056Y-120885872D01*
X105991618Y-120902545D01*
X105889712Y-120924206D01*
X105883682Y-120926891D01*
X105883681Y-120926891D01*
X105721278Y-120999197D01*
X105721276Y-120999198D01*
X105715248Y-121001882D01*
X105560747Y-121114134D01*
X105556326Y-121119044D01*
X105556325Y-121119045D01*
X105512747Y-121167444D01*
X105432960Y-121256056D01*
X105337473Y-121421444D01*
X105278458Y-121603072D01*
X105258496Y-121793000D01*
X104799504Y-121793000D01*
X104779542Y-121603072D01*
X104720527Y-121421444D01*
X104625040Y-121256056D01*
X104545254Y-121167444D01*
X104501675Y-121119045D01*
X104501674Y-121119044D01*
X104497253Y-121114134D01*
X104342752Y-121001882D01*
X104336724Y-120999198D01*
X104336722Y-120999197D01*
X104174319Y-120926891D01*
X104174318Y-120926891D01*
X104168288Y-120924206D01*
X104066382Y-120902545D01*
X103987944Y-120885872D01*
X103987939Y-120885872D01*
X103981487Y-120884500D01*
X103790513Y-120884500D01*
X103784061Y-120885872D01*
X103784056Y-120885872D01*
X103705618Y-120902545D01*
X103603712Y-120924206D01*
X103597682Y-120926891D01*
X103597681Y-120926891D01*
X103435278Y-120999197D01*
X103435276Y-120999198D01*
X103429248Y-121001882D01*
X103274747Y-121114134D01*
X103270326Y-121119044D01*
X103270325Y-121119045D01*
X103226747Y-121167444D01*
X103146960Y-121256056D01*
X103051473Y-121421444D01*
X102992458Y-121603072D01*
X102972496Y-121793000D01*
X100838500Y-121793000D01*
X100838500Y-119761000D01*
X101956496Y-119761000D01*
X101957186Y-119767565D01*
X101974863Y-119935749D01*
X101976458Y-119950928D01*
X102035473Y-120132556D01*
X102130960Y-120297944D01*
X102258747Y-120439866D01*
X102413248Y-120552118D01*
X102419276Y-120554802D01*
X102419278Y-120554803D01*
X102581681Y-120627109D01*
X102587712Y-120629794D01*
X102681112Y-120649647D01*
X102768056Y-120668128D01*
X102768061Y-120668128D01*
X102774513Y-120669500D01*
X102965487Y-120669500D01*
X102971939Y-120668128D01*
X102971944Y-120668128D01*
X103058888Y-120649647D01*
X103152288Y-120629794D01*
X103158319Y-120627109D01*
X103320722Y-120554803D01*
X103320724Y-120554802D01*
X103326752Y-120552118D01*
X103481253Y-120439866D01*
X103609040Y-120297944D01*
X103704527Y-120132556D01*
X103763542Y-119950928D01*
X103765138Y-119935749D01*
X103782814Y-119767565D01*
X103783504Y-119761000D01*
X104242496Y-119761000D01*
X104243186Y-119767565D01*
X104260863Y-119935749D01*
X104262458Y-119950928D01*
X104321473Y-120132556D01*
X104416960Y-120297944D01*
X104544747Y-120439866D01*
X104699248Y-120552118D01*
X104705276Y-120554802D01*
X104705278Y-120554803D01*
X104867681Y-120627109D01*
X104873712Y-120629794D01*
X104967112Y-120649647D01*
X105054056Y-120668128D01*
X105054061Y-120668128D01*
X105060513Y-120669500D01*
X105251487Y-120669500D01*
X105257939Y-120668128D01*
X105257944Y-120668128D01*
X105344888Y-120649647D01*
X105438288Y-120629794D01*
X105444319Y-120627109D01*
X105606722Y-120554803D01*
X105606724Y-120554802D01*
X105612752Y-120552118D01*
X105767253Y-120439866D01*
X105895040Y-120297944D01*
X105990527Y-120132556D01*
X106049542Y-119950928D01*
X106051138Y-119935749D01*
X106068814Y-119767565D01*
X106069504Y-119761000D01*
X107036496Y-119761000D01*
X107037186Y-119767565D01*
X107054863Y-119935749D01*
X107056458Y-119950928D01*
X107115473Y-120132556D01*
X107210960Y-120297944D01*
X107338747Y-120439866D01*
X107493248Y-120552118D01*
X107499276Y-120554802D01*
X107499278Y-120554803D01*
X107661681Y-120627109D01*
X107667712Y-120629794D01*
X107761112Y-120649647D01*
X107848056Y-120668128D01*
X107848061Y-120668128D01*
X107854513Y-120669500D01*
X108045487Y-120669500D01*
X108051939Y-120668128D01*
X108051944Y-120668128D01*
X108138888Y-120649647D01*
X108232288Y-120629794D01*
X108238319Y-120627109D01*
X108400722Y-120554803D01*
X108400724Y-120554802D01*
X108406752Y-120552118D01*
X108561253Y-120439866D01*
X108689040Y-120297944D01*
X108784527Y-120132556D01*
X108843542Y-119950928D01*
X108845138Y-119935749D01*
X108862814Y-119767565D01*
X108863504Y-119761000D01*
X108843542Y-119571072D01*
X108822724Y-119507000D01*
X109576496Y-119507000D01*
X109596458Y-119696928D01*
X109655473Y-119878556D01*
X109750960Y-120043944D01*
X109755378Y-120048851D01*
X109755379Y-120048852D01*
X109855572Y-120160128D01*
X109878747Y-120185866D01*
X110033248Y-120298118D01*
X110039276Y-120300802D01*
X110039278Y-120300803D01*
X110201681Y-120373109D01*
X110207712Y-120375794D01*
X110301112Y-120395647D01*
X110388056Y-120414128D01*
X110388061Y-120414128D01*
X110394513Y-120415500D01*
X110585487Y-120415500D01*
X110591939Y-120414128D01*
X110591944Y-120414128D01*
X110678888Y-120395647D01*
X110772288Y-120375794D01*
X110778319Y-120373109D01*
X110940722Y-120300803D01*
X110940724Y-120300802D01*
X110946752Y-120298118D01*
X111101253Y-120185866D01*
X111124428Y-120160128D01*
X111224621Y-120048852D01*
X111224622Y-120048851D01*
X111229040Y-120043944D01*
X111324527Y-119878556D01*
X111383542Y-119696928D01*
X111403504Y-119507000D01*
X111383542Y-119317072D01*
X111362724Y-119253000D01*
X112370496Y-119253000D01*
X112390458Y-119442928D01*
X112449473Y-119624556D01*
X112544960Y-119789944D01*
X112549378Y-119794851D01*
X112549379Y-119794852D01*
X112668325Y-119926955D01*
X112672747Y-119931866D01*
X112827248Y-120044118D01*
X112833276Y-120046802D01*
X112833278Y-120046803D01*
X112995681Y-120119109D01*
X113001712Y-120121794D01*
X113095112Y-120141647D01*
X113182056Y-120160128D01*
X113182061Y-120160128D01*
X113188513Y-120161500D01*
X113379487Y-120161500D01*
X113385939Y-120160128D01*
X113385944Y-120160128D01*
X113472888Y-120141647D01*
X113566288Y-120121794D01*
X113572319Y-120119109D01*
X113734722Y-120046803D01*
X113734724Y-120046802D01*
X113740752Y-120044118D01*
X113895253Y-119931866D01*
X113899675Y-119926955D01*
X114018621Y-119794852D01*
X114018622Y-119794851D01*
X114023040Y-119789944D01*
X114118527Y-119624556D01*
X114177542Y-119442928D01*
X114197504Y-119253000D01*
X114180062Y-119087045D01*
X114178232Y-119069635D01*
X114178232Y-119069633D01*
X114177542Y-119063072D01*
X114118527Y-118881444D01*
X114023040Y-118716056D01*
X113895253Y-118574134D01*
X113757503Y-118474052D01*
X113746094Y-118465763D01*
X113746093Y-118465762D01*
X113740752Y-118461882D01*
X113734724Y-118459198D01*
X113734722Y-118459197D01*
X113572319Y-118386891D01*
X113572318Y-118386891D01*
X113566288Y-118384206D01*
X113472888Y-118364353D01*
X113385944Y-118345872D01*
X113385939Y-118345872D01*
X113379487Y-118344500D01*
X113188513Y-118344500D01*
X113182061Y-118345872D01*
X113182056Y-118345872D01*
X113095112Y-118364353D01*
X113001712Y-118384206D01*
X112995682Y-118386891D01*
X112995681Y-118386891D01*
X112833278Y-118459197D01*
X112833276Y-118459198D01*
X112827248Y-118461882D01*
X112821907Y-118465762D01*
X112821906Y-118465763D01*
X112810497Y-118474052D01*
X112672747Y-118574134D01*
X112544960Y-118716056D01*
X112449473Y-118881444D01*
X112390458Y-119063072D01*
X112389768Y-119069633D01*
X112389768Y-119069635D01*
X112387938Y-119087045D01*
X112370496Y-119253000D01*
X111362724Y-119253000D01*
X111324527Y-119135444D01*
X111229040Y-118970056D01*
X111149254Y-118881444D01*
X111105675Y-118833045D01*
X111105674Y-118833044D01*
X111101253Y-118828134D01*
X111002157Y-118756136D01*
X110952094Y-118719763D01*
X110952093Y-118719762D01*
X110946752Y-118715882D01*
X110940724Y-118713198D01*
X110940722Y-118713197D01*
X110778319Y-118640891D01*
X110778318Y-118640891D01*
X110772288Y-118638206D01*
X110662873Y-118614949D01*
X110591944Y-118599872D01*
X110591939Y-118599872D01*
X110585487Y-118598500D01*
X110394513Y-118598500D01*
X110388061Y-118599872D01*
X110388056Y-118599872D01*
X110317127Y-118614949D01*
X110207712Y-118638206D01*
X110201682Y-118640891D01*
X110201681Y-118640891D01*
X110039278Y-118713197D01*
X110039276Y-118713198D01*
X110033248Y-118715882D01*
X110027907Y-118719762D01*
X110027906Y-118719763D01*
X109977843Y-118756136D01*
X109878747Y-118828134D01*
X109874326Y-118833044D01*
X109874325Y-118833045D01*
X109830747Y-118881444D01*
X109750960Y-118970056D01*
X109655473Y-119135444D01*
X109596458Y-119317072D01*
X109576496Y-119507000D01*
X108822724Y-119507000D01*
X108784527Y-119389444D01*
X108689040Y-119224056D01*
X108609254Y-119135444D01*
X108565675Y-119087045D01*
X108565674Y-119087044D01*
X108561253Y-119082134D01*
X108406752Y-118969882D01*
X108400724Y-118967198D01*
X108400722Y-118967197D01*
X108238319Y-118894891D01*
X108238318Y-118894891D01*
X108232288Y-118892206D01*
X108138888Y-118872353D01*
X108051944Y-118853872D01*
X108051939Y-118853872D01*
X108045487Y-118852500D01*
X107854513Y-118852500D01*
X107848061Y-118853872D01*
X107848056Y-118853872D01*
X107761112Y-118872353D01*
X107667712Y-118892206D01*
X107661682Y-118894891D01*
X107661681Y-118894891D01*
X107499278Y-118967197D01*
X107499276Y-118967198D01*
X107493248Y-118969882D01*
X107338747Y-119082134D01*
X107334326Y-119087044D01*
X107334325Y-119087045D01*
X107290747Y-119135444D01*
X107210960Y-119224056D01*
X107115473Y-119389444D01*
X107056458Y-119571072D01*
X107036496Y-119761000D01*
X106069504Y-119761000D01*
X106049542Y-119571072D01*
X105990527Y-119389444D01*
X105895040Y-119224056D01*
X105815254Y-119135444D01*
X105771675Y-119087045D01*
X105771674Y-119087044D01*
X105767253Y-119082134D01*
X105612752Y-118969882D01*
X105606724Y-118967198D01*
X105606722Y-118967197D01*
X105444319Y-118894891D01*
X105444318Y-118894891D01*
X105438288Y-118892206D01*
X105344888Y-118872353D01*
X105257944Y-118853872D01*
X105257939Y-118853872D01*
X105251487Y-118852500D01*
X105060513Y-118852500D01*
X105054061Y-118853872D01*
X105054056Y-118853872D01*
X104967112Y-118872353D01*
X104873712Y-118892206D01*
X104867682Y-118894891D01*
X104867681Y-118894891D01*
X104705278Y-118967197D01*
X104705276Y-118967198D01*
X104699248Y-118969882D01*
X104544747Y-119082134D01*
X104540326Y-119087044D01*
X104540325Y-119087045D01*
X104496747Y-119135444D01*
X104416960Y-119224056D01*
X104321473Y-119389444D01*
X104262458Y-119571072D01*
X104242496Y-119761000D01*
X103783504Y-119761000D01*
X103763542Y-119571072D01*
X103704527Y-119389444D01*
X103609040Y-119224056D01*
X103529254Y-119135444D01*
X103485675Y-119087045D01*
X103485674Y-119087044D01*
X103481253Y-119082134D01*
X103326752Y-118969882D01*
X103320724Y-118967198D01*
X103320722Y-118967197D01*
X103158319Y-118894891D01*
X103158318Y-118894891D01*
X103152288Y-118892206D01*
X103058888Y-118872353D01*
X102971944Y-118853872D01*
X102971939Y-118853872D01*
X102965487Y-118852500D01*
X102774513Y-118852500D01*
X102768061Y-118853872D01*
X102768056Y-118853872D01*
X102681112Y-118872353D01*
X102587712Y-118892206D01*
X102581682Y-118894891D01*
X102581681Y-118894891D01*
X102419278Y-118967197D01*
X102419276Y-118967198D01*
X102413248Y-118969882D01*
X102258747Y-119082134D01*
X102254326Y-119087044D01*
X102254325Y-119087045D01*
X102210747Y-119135444D01*
X102130960Y-119224056D01*
X102035473Y-119389444D01*
X101976458Y-119571072D01*
X101956496Y-119761000D01*
X100838500Y-119761000D01*
X100838500Y-115911958D01*
X108992296Y-115911958D01*
X109012258Y-116101886D01*
X109071273Y-116283514D01*
X109074576Y-116289236D01*
X109074577Y-116289237D01*
X109080183Y-116298946D01*
X109166760Y-116448902D01*
X109171178Y-116453809D01*
X109171179Y-116453810D01*
X109226592Y-116515352D01*
X109294547Y-116590824D01*
X109449048Y-116703076D01*
X109455076Y-116705760D01*
X109455078Y-116705761D01*
X109617481Y-116778067D01*
X109623512Y-116780752D01*
X109716912Y-116800605D01*
X109803856Y-116819086D01*
X109803861Y-116819086D01*
X109810313Y-116820458D01*
X110001287Y-116820458D01*
X110007739Y-116819086D01*
X110007744Y-116819086D01*
X110094688Y-116800605D01*
X110188088Y-116780752D01*
X110194119Y-116778067D01*
X110356522Y-116705761D01*
X110356524Y-116705760D01*
X110362552Y-116703076D01*
X110517053Y-116590824D01*
X110585008Y-116515352D01*
X110640421Y-116453810D01*
X110640422Y-116453809D01*
X110644840Y-116448902D01*
X110731417Y-116298946D01*
X110737023Y-116289237D01*
X110737024Y-116289236D01*
X110740327Y-116283514D01*
X110799342Y-116101886D01*
X110819304Y-115911958D01*
X110810290Y-115826191D01*
X110800032Y-115728593D01*
X110800032Y-115728591D01*
X110799342Y-115722030D01*
X110740327Y-115540402D01*
X110731564Y-115525223D01*
X110648141Y-115380732D01*
X110644840Y-115375014D01*
X110611415Y-115337891D01*
X110521475Y-115238003D01*
X110521474Y-115238002D01*
X110517053Y-115233092D01*
X110362552Y-115120840D01*
X110356524Y-115118156D01*
X110356522Y-115118155D01*
X110194119Y-115045849D01*
X110194118Y-115045849D01*
X110188088Y-115043164D01*
X110094687Y-115023311D01*
X110007744Y-115004830D01*
X110007739Y-115004830D01*
X110001287Y-115003458D01*
X109810313Y-115003458D01*
X109803861Y-115004830D01*
X109803856Y-115004830D01*
X109716913Y-115023311D01*
X109623512Y-115043164D01*
X109617482Y-115045849D01*
X109617481Y-115045849D01*
X109455078Y-115118155D01*
X109455076Y-115118156D01*
X109449048Y-115120840D01*
X109294547Y-115233092D01*
X109290126Y-115238002D01*
X109290125Y-115238003D01*
X109200186Y-115337891D01*
X109166760Y-115375014D01*
X109163459Y-115380732D01*
X109080037Y-115525223D01*
X109071273Y-115540402D01*
X109012258Y-115722030D01*
X109011568Y-115728591D01*
X109011568Y-115728593D01*
X109001310Y-115826191D01*
X108992296Y-115911958D01*
X100838500Y-115911958D01*
X100838500Y-110241703D01*
X101776743Y-110241703D01*
X101777302Y-110245947D01*
X101777302Y-110245951D01*
X101793810Y-110371340D01*
X101814268Y-110526734D01*
X101890129Y-110804036D01*
X101891813Y-110807984D01*
X101994764Y-111049347D01*
X102002923Y-111068476D01*
X102037385Y-111126058D01*
X102142863Y-111302298D01*
X102150561Y-111315161D01*
X102330313Y-111539528D01*
X102538851Y-111737423D01*
X102772317Y-111905186D01*
X102776112Y-111907195D01*
X102776113Y-111907196D01*
X102797869Y-111918715D01*
X103026392Y-112039712D01*
X103296373Y-112138511D01*
X103577264Y-112199755D01*
X103605841Y-112202004D01*
X103800282Y-112217307D01*
X103800291Y-112217307D01*
X103802739Y-112217500D01*
X103958271Y-112217500D01*
X103960407Y-112217354D01*
X103960418Y-112217354D01*
X104168548Y-112203165D01*
X104168554Y-112203164D01*
X104172825Y-112202873D01*
X104177020Y-112202004D01*
X104177022Y-112202004D01*
X104408004Y-112154170D01*
X104454342Y-112144574D01*
X104725343Y-112048607D01*
X104911536Y-111952506D01*
X104977005Y-111918715D01*
X104977006Y-111918715D01*
X104980812Y-111916750D01*
X104984313Y-111914289D01*
X104984317Y-111914287D01*
X105144304Y-111801846D01*
X105216023Y-111751441D01*
X105317811Y-111656854D01*
X105423479Y-111558661D01*
X105423481Y-111558658D01*
X105426622Y-111555740D01*
X105608713Y-111333268D01*
X105758927Y-111088142D01*
X105798497Y-110998000D01*
X107011096Y-110998000D01*
X107011786Y-111004565D01*
X107026841Y-111147801D01*
X107031058Y-111187928D01*
X107090073Y-111369556D01*
X107185560Y-111534944D01*
X107189978Y-111539851D01*
X107189979Y-111539852D01*
X107287796Y-111648489D01*
X107313347Y-111676866D01*
X107352023Y-111704966D01*
X107433598Y-111764234D01*
X107476952Y-111820457D01*
X107483027Y-111891193D01*
X107464271Y-111933858D01*
X107464960Y-111934256D01*
X107369473Y-112099644D01*
X107310458Y-112281272D01*
X107309768Y-112287833D01*
X107309768Y-112287835D01*
X107309166Y-112293563D01*
X107290496Y-112471200D01*
X107291186Y-112477765D01*
X107305706Y-112615912D01*
X107310458Y-112661128D01*
X107369473Y-112842756D01*
X107464960Y-113008144D01*
X107469378Y-113013051D01*
X107469379Y-113013052D01*
X107531177Y-113081686D01*
X107592747Y-113150066D01*
X107631989Y-113178577D01*
X107735746Y-113253961D01*
X107747248Y-113262318D01*
X107753276Y-113265002D01*
X107753278Y-113265003D01*
X107901987Y-113331212D01*
X107921712Y-113339994D01*
X108010417Y-113358849D01*
X108102056Y-113378328D01*
X108102061Y-113378328D01*
X108108513Y-113379700D01*
X108299487Y-113379700D01*
X108305939Y-113378328D01*
X108305944Y-113378328D01*
X108397583Y-113358849D01*
X108486288Y-113339994D01*
X108506013Y-113331212D01*
X108654722Y-113265003D01*
X108654724Y-113265002D01*
X108660752Y-113262318D01*
X108672255Y-113253961D01*
X108776011Y-113178577D01*
X108815253Y-113150066D01*
X108876823Y-113081686D01*
X108938621Y-113013052D01*
X108938622Y-113013051D01*
X108943040Y-113008144D01*
X109038527Y-112842756D01*
X109097542Y-112661128D01*
X109102295Y-112615912D01*
X109116814Y-112477765D01*
X109117504Y-112471200D01*
X109098834Y-112293563D01*
X109098232Y-112287835D01*
X109098232Y-112287833D01*
X109097542Y-112281272D01*
X109038527Y-112099644D01*
X108943040Y-111934256D01*
X108815253Y-111792334D01*
X108695002Y-111704966D01*
X108651648Y-111648743D01*
X108645573Y-111578007D01*
X108664329Y-111535342D01*
X108663640Y-111534944D01*
X108755823Y-111375279D01*
X108755824Y-111375278D01*
X108759127Y-111369556D01*
X108818142Y-111187928D01*
X108822360Y-111147801D01*
X108837414Y-111004565D01*
X108838104Y-110998000D01*
X108820324Y-110828830D01*
X108818832Y-110814635D01*
X108818832Y-110814633D01*
X108818142Y-110808072D01*
X108759127Y-110626444D01*
X108663640Y-110461056D01*
X108535853Y-110319134D01*
X108381352Y-110206882D01*
X108375324Y-110204198D01*
X108375322Y-110204197D01*
X108212919Y-110131891D01*
X108212918Y-110131891D01*
X108206888Y-110129206D01*
X108102606Y-110107040D01*
X108026544Y-110090872D01*
X108026539Y-110090872D01*
X108020087Y-110089500D01*
X107829113Y-110089500D01*
X107822661Y-110090872D01*
X107822656Y-110090872D01*
X107746594Y-110107040D01*
X107642312Y-110129206D01*
X107636282Y-110131891D01*
X107636281Y-110131891D01*
X107473878Y-110204197D01*
X107473876Y-110204198D01*
X107467848Y-110206882D01*
X107313347Y-110319134D01*
X107185560Y-110461056D01*
X107090073Y-110626444D01*
X107031058Y-110808072D01*
X107030368Y-110814633D01*
X107030368Y-110814635D01*
X107028876Y-110828830D01*
X107011096Y-110998000D01*
X105798497Y-110998000D01*
X105874483Y-110824898D01*
X105877407Y-110814635D01*
X105952068Y-110552534D01*
X105953244Y-110548406D01*
X105993751Y-110263784D01*
X105993845Y-110245951D01*
X105995235Y-109980583D01*
X105995235Y-109980576D01*
X105995257Y-109976297D01*
X105993154Y-109960318D01*
X105967686Y-109766878D01*
X105957732Y-109691266D01*
X105952271Y-109671302D01*
X105905930Y-109501909D01*
X105881871Y-109413964D01*
X105833512Y-109300588D01*
X105770763Y-109153476D01*
X105770761Y-109153472D01*
X105769077Y-109149524D01*
X105663426Y-108972994D01*
X105623643Y-108906521D01*
X105623640Y-108906517D01*
X105621439Y-108902839D01*
X105441687Y-108678472D01*
X105396720Y-108635800D01*
X108001696Y-108635800D01*
X108002386Y-108642365D01*
X108019542Y-108805592D01*
X108021658Y-108825728D01*
X108080673Y-109007356D01*
X108176160Y-109172744D01*
X108303947Y-109314666D01*
X108458448Y-109426918D01*
X108464476Y-109429602D01*
X108464478Y-109429603D01*
X108626881Y-109501909D01*
X108632912Y-109504594D01*
X108726313Y-109524447D01*
X108813256Y-109542928D01*
X108813261Y-109542928D01*
X108819713Y-109544300D01*
X109010687Y-109544300D01*
X109017139Y-109542928D01*
X109017144Y-109542928D01*
X109104087Y-109524447D01*
X109197488Y-109504594D01*
X109203519Y-109501909D01*
X109365922Y-109429603D01*
X109365924Y-109429602D01*
X109371952Y-109426918D01*
X109526453Y-109314666D01*
X109654240Y-109172744D01*
X109749727Y-109007356D01*
X109808742Y-108825728D01*
X109810859Y-108805592D01*
X109828014Y-108642365D01*
X109828704Y-108635800D01*
X109819400Y-108547278D01*
X109809432Y-108452435D01*
X109809432Y-108452433D01*
X109808742Y-108445872D01*
X109749727Y-108264244D01*
X109654240Y-108098856D01*
X109565812Y-108000646D01*
X109530875Y-107961845D01*
X109530874Y-107961844D01*
X109526453Y-107956934D01*
X109371952Y-107844682D01*
X109365924Y-107841998D01*
X109365922Y-107841997D01*
X109203519Y-107769691D01*
X109203518Y-107769691D01*
X109197488Y-107767006D01*
X109101660Y-107746637D01*
X109017144Y-107728672D01*
X109017139Y-107728672D01*
X109010687Y-107727300D01*
X108819713Y-107727300D01*
X108813261Y-107728672D01*
X108813256Y-107728672D01*
X108728740Y-107746637D01*
X108632912Y-107767006D01*
X108626882Y-107769691D01*
X108626881Y-107769691D01*
X108464478Y-107841997D01*
X108464476Y-107841998D01*
X108458448Y-107844682D01*
X108303947Y-107956934D01*
X108299526Y-107961844D01*
X108299525Y-107961845D01*
X108264589Y-108000646D01*
X108176160Y-108098856D01*
X108080673Y-108264244D01*
X108021658Y-108445872D01*
X108020968Y-108452433D01*
X108020968Y-108452435D01*
X108011000Y-108547278D01*
X108001696Y-108635800D01*
X105396720Y-108635800D01*
X105260768Y-108506786D01*
X105236258Y-108483527D01*
X105236255Y-108483525D01*
X105233149Y-108480577D01*
X104999683Y-108312814D01*
X104981320Y-108303091D01*
X104949690Y-108286344D01*
X104745608Y-108178288D01*
X104475627Y-108079489D01*
X104194736Y-108018245D01*
X104163685Y-108015801D01*
X103971718Y-108000693D01*
X103971709Y-108000693D01*
X103969261Y-108000500D01*
X103813729Y-108000500D01*
X103811593Y-108000646D01*
X103811582Y-108000646D01*
X103603452Y-108014835D01*
X103603446Y-108014836D01*
X103599175Y-108015127D01*
X103594980Y-108015996D01*
X103594978Y-108015996D01*
X103458416Y-108044277D01*
X103317658Y-108073426D01*
X103046657Y-108169393D01*
X102791188Y-108301250D01*
X102787687Y-108303711D01*
X102787683Y-108303713D01*
X102722060Y-108349834D01*
X102555977Y-108466559D01*
X102480361Y-108536826D01*
X102366788Y-108642365D01*
X102345378Y-108662260D01*
X102163287Y-108884732D01*
X102013073Y-109129858D01*
X101897517Y-109393102D01*
X101818756Y-109669594D01*
X101778249Y-109954216D01*
X101778227Y-109958505D01*
X101778226Y-109958512D01*
X101777156Y-110162817D01*
X101776743Y-110241703D01*
X100838500Y-110241703D01*
X100838500Y-107264200D01*
X109830496Y-107264200D01*
X109831186Y-107270765D01*
X109832546Y-107283700D01*
X109850458Y-107454128D01*
X109909473Y-107635756D01*
X110004960Y-107801144D01*
X110132747Y-107943066D01*
X110287248Y-108055318D01*
X110293276Y-108058002D01*
X110293278Y-108058003D01*
X110434674Y-108120956D01*
X110461712Y-108132994D01*
X110555112Y-108152847D01*
X110642056Y-108171328D01*
X110642061Y-108171328D01*
X110648513Y-108172700D01*
X110839487Y-108172700D01*
X110845939Y-108171328D01*
X110845944Y-108171328D01*
X110932887Y-108152847D01*
X111026288Y-108132994D01*
X111053326Y-108120956D01*
X111194722Y-108058003D01*
X111194724Y-108058002D01*
X111200752Y-108055318D01*
X111355253Y-107943066D01*
X111483040Y-107801144D01*
X111578527Y-107635756D01*
X111637542Y-107454128D01*
X111655455Y-107283700D01*
X111656814Y-107270765D01*
X111657504Y-107264200D01*
X111656814Y-107257635D01*
X111638232Y-107080835D01*
X111638232Y-107080833D01*
X111637542Y-107074272D01*
X111578527Y-106892644D01*
X111572981Y-106883037D01*
X111540747Y-106827207D01*
X111483040Y-106727256D01*
X111470705Y-106713556D01*
X111359675Y-106590245D01*
X111359674Y-106590244D01*
X111355253Y-106585334D01*
X111200752Y-106473082D01*
X111194724Y-106470398D01*
X111194722Y-106470397D01*
X111032319Y-106398091D01*
X111032318Y-106398091D01*
X111026288Y-106395406D01*
X110931227Y-106375200D01*
X110845944Y-106357072D01*
X110845939Y-106357072D01*
X110839487Y-106355700D01*
X110648513Y-106355700D01*
X110642061Y-106357072D01*
X110642056Y-106357072D01*
X110556773Y-106375200D01*
X110461712Y-106395406D01*
X110455682Y-106398091D01*
X110455681Y-106398091D01*
X110293278Y-106470397D01*
X110293276Y-106470398D01*
X110287248Y-106473082D01*
X110132747Y-106585334D01*
X110128326Y-106590244D01*
X110128325Y-106590245D01*
X110017296Y-106713556D01*
X110004960Y-106727256D01*
X109947253Y-106827207D01*
X109915020Y-106883037D01*
X109909473Y-106892644D01*
X109850458Y-107074272D01*
X109849768Y-107080833D01*
X109849768Y-107080835D01*
X109831186Y-107257635D01*
X109830496Y-107264200D01*
X100838500Y-107264200D01*
X100838500Y-106019529D01*
X100858502Y-105951408D01*
X100912158Y-105904915D01*
X100982432Y-105894811D01*
X101017750Y-105905334D01*
X101085311Y-105936838D01*
X101163804Y-105973440D01*
X101169112Y-105974862D01*
X101169114Y-105974863D01*
X101216705Y-105987615D01*
X101378537Y-106030978D01*
X101600000Y-106050353D01*
X101821463Y-106030978D01*
X101983295Y-105987615D01*
X102030886Y-105974863D01*
X102030888Y-105974862D01*
X102036196Y-105973440D01*
X102098046Y-105944599D01*
X102232690Y-105881814D01*
X102232695Y-105881811D01*
X102237677Y-105879488D01*
X102361500Y-105792786D01*
X102415270Y-105755136D01*
X102415273Y-105755134D01*
X102419781Y-105751977D01*
X102576977Y-105594781D01*
X102580683Y-105589489D01*
X102701331Y-105417185D01*
X102701333Y-105417182D01*
X102704488Y-105412676D01*
X102706811Y-105407694D01*
X102706814Y-105407689D01*
X102796117Y-105216178D01*
X102796118Y-105216177D01*
X102798440Y-105211196D01*
X102855978Y-104996463D01*
X102875353Y-104775000D01*
X102855978Y-104553537D01*
X102798440Y-104338804D01*
X102730334Y-104192750D01*
X102719673Y-104122558D01*
X102748653Y-104057746D01*
X102808073Y-104018889D01*
X102844529Y-104013500D01*
X105435471Y-104013500D01*
X105503592Y-104033502D01*
G37*
%TD.AperFunction*%
%TD*%
M02*
