%TF.GenerationSoftware,KiCad,Pcbnew,(6.0.4-0)*%
%TF.CreationDate,2022-08-06T12:57:23-04:00*%
%TF.ProjectId,QuarkCncStepperDrivers,51756172-6b43-46e6-9353-746570706572,rev?*%
%TF.SameCoordinates,Original*%
%TF.FileFunction,Copper,L1,Top*%
%TF.FilePolarity,Positive*%
%FSLAX46Y46*%
G04 Gerber Fmt 4.6, Leading zero omitted, Abs format (unit mm)*
G04 Created by KiCad (PCBNEW (6.0.4-0)) date 2022-08-06 12:57:23*
%MOMM*%
%LPD*%
G01*
G04 APERTURE LIST*
G04 Aperture macros list*
%AMRoundRect*
0 Rectangle with rounded corners*
0 $1 Rounding radius*
0 $2 $3 $4 $5 $6 $7 $8 $9 X,Y pos of 4 corners*
0 Add a 4 corners polygon primitive as box body*
4,1,4,$2,$3,$4,$5,$6,$7,$8,$9,$2,$3,0*
0 Add four circle primitives for the rounded corners*
1,1,$1+$1,$2,$3*
1,1,$1+$1,$4,$5*
1,1,$1+$1,$6,$7*
1,1,$1+$1,$8,$9*
0 Add four rect primitives between the rounded corners*
20,1,$1+$1,$2,$3,$4,$5,0*
20,1,$1+$1,$4,$5,$6,$7,0*
20,1,$1+$1,$6,$7,$8,$9,0*
20,1,$1+$1,$8,$9,$2,$3,0*%
G04 Aperture macros list end*
%TA.AperFunction,SMDPad,CuDef*%
%ADD10RoundRect,0.250000X-0.450000X0.262500X-0.450000X-0.262500X0.450000X-0.262500X0.450000X0.262500X0*%
%TD*%
%TA.AperFunction,SMDPad,CuDef*%
%ADD11RoundRect,0.250000X-0.650000X0.325000X-0.650000X-0.325000X0.650000X-0.325000X0.650000X0.325000X0*%
%TD*%
%TA.AperFunction,SMDPad,CuDef*%
%ADD12RoundRect,0.225000X0.225000X0.250000X-0.225000X0.250000X-0.225000X-0.250000X0.225000X-0.250000X0*%
%TD*%
%TA.AperFunction,SMDPad,CuDef*%
%ADD13RoundRect,0.250000X0.650000X-0.325000X0.650000X0.325000X-0.650000X0.325000X-0.650000X-0.325000X0*%
%TD*%
%TA.AperFunction,SMDPad,CuDef*%
%ADD14RoundRect,0.150000X-0.150000X0.825000X-0.150000X-0.825000X0.150000X-0.825000X0.150000X0.825000X0*%
%TD*%
%TA.AperFunction,SMDPad,CuDef*%
%ADD15RoundRect,0.250000X0.475000X-0.337500X0.475000X0.337500X-0.475000X0.337500X-0.475000X-0.337500X0*%
%TD*%
%TA.AperFunction,SMDPad,CuDef*%
%ADD16RoundRect,0.225000X-0.250000X0.225000X-0.250000X-0.225000X0.250000X-0.225000X0.250000X0.225000X0*%
%TD*%
%TA.AperFunction,SMDPad,CuDef*%
%ADD17RoundRect,0.225000X-0.225000X-0.250000X0.225000X-0.250000X0.225000X0.250000X-0.225000X0.250000X0*%
%TD*%
%TA.AperFunction,SMDPad,CuDef*%
%ADD18RoundRect,0.250000X1.100000X-0.325000X1.100000X0.325000X-1.100000X0.325000X-1.100000X-0.325000X0*%
%TD*%
%TA.AperFunction,SMDPad,CuDef*%
%ADD19RoundRect,0.135000X0.185000X-0.135000X0.185000X0.135000X-0.185000X0.135000X-0.185000X-0.135000X0*%
%TD*%
%TA.AperFunction,ComponentPad*%
%ADD20R,1.524000X1.524000*%
%TD*%
%TA.AperFunction,ComponentPad*%
%ADD21C,1.524000*%
%TD*%
%TA.AperFunction,SMDPad,CuDef*%
%ADD22RoundRect,0.250000X-0.475000X0.337500X-0.475000X-0.337500X0.475000X-0.337500X0.475000X0.337500X0*%
%TD*%
%TA.AperFunction,ComponentPad*%
%ADD23C,1.498600*%
%TD*%
%TA.AperFunction,SMDPad,CuDef*%
%ADD24RoundRect,0.135000X-0.135000X-0.185000X0.135000X-0.185000X0.135000X0.185000X-0.135000X0.185000X0*%
%TD*%
%TA.AperFunction,SMDPad,CuDef*%
%ADD25RoundRect,0.140000X-0.140000X-0.170000X0.140000X-0.170000X0.140000X0.170000X-0.140000X0.170000X0*%
%TD*%
%TA.AperFunction,SMDPad,CuDef*%
%ADD26RoundRect,0.250000X-0.362500X-1.425000X0.362500X-1.425000X0.362500X1.425000X-0.362500X1.425000X0*%
%TD*%
%TA.AperFunction,SMDPad,CuDef*%
%ADD27RoundRect,0.135000X0.135000X0.185000X-0.135000X0.185000X-0.135000X-0.185000X0.135000X-0.185000X0*%
%TD*%
%TA.AperFunction,SMDPad,CuDef*%
%ADD28RoundRect,0.250000X-0.325000X-1.100000X0.325000X-1.100000X0.325000X1.100000X-0.325000X1.100000X0*%
%TD*%
%TA.AperFunction,SMDPad,CuDef*%
%ADD29RoundRect,0.250000X0.337500X0.475000X-0.337500X0.475000X-0.337500X-0.475000X0.337500X-0.475000X0*%
%TD*%
%TA.AperFunction,SMDPad,CuDef*%
%ADD30RoundRect,0.250000X-0.250000X-0.475000X0.250000X-0.475000X0.250000X0.475000X-0.250000X0.475000X0*%
%TD*%
%TA.AperFunction,SMDPad,CuDef*%
%ADD31RoundRect,0.140000X0.140000X0.170000X-0.140000X0.170000X-0.140000X-0.170000X0.140000X-0.170000X0*%
%TD*%
%TA.AperFunction,SMDPad,CuDef*%
%ADD32RoundRect,0.250000X-0.262500X-0.450000X0.262500X-0.450000X0.262500X0.450000X-0.262500X0.450000X0*%
%TD*%
%TA.AperFunction,SMDPad,CuDef*%
%ADD33RoundRect,0.250000X0.262500X0.450000X-0.262500X0.450000X-0.262500X-0.450000X0.262500X-0.450000X0*%
%TD*%
%TA.AperFunction,SMDPad,CuDef*%
%ADD34RoundRect,0.200000X0.200000X0.275000X-0.200000X0.275000X-0.200000X-0.275000X0.200000X-0.275000X0*%
%TD*%
%TA.AperFunction,SMDPad,CuDef*%
%ADD35RoundRect,0.250000X-0.337500X-0.475000X0.337500X-0.475000X0.337500X0.475000X-0.337500X0.475000X0*%
%TD*%
%TA.AperFunction,SMDPad,CuDef*%
%ADD36RoundRect,0.075000X0.662500X0.075000X-0.662500X0.075000X-0.662500X-0.075000X0.662500X-0.075000X0*%
%TD*%
%TA.AperFunction,SMDPad,CuDef*%
%ADD37RoundRect,0.075000X0.075000X0.662500X-0.075000X0.662500X-0.075000X-0.662500X0.075000X-0.662500X0*%
%TD*%
%TA.AperFunction,ComponentPad*%
%ADD38C,0.500000*%
%TD*%
%TA.AperFunction,SMDPad,CuDef*%
%ADD39R,5.000000X5.000000*%
%TD*%
%TA.AperFunction,ViaPad*%
%ADD40C,0.800000*%
%TD*%
%TA.AperFunction,Conductor*%
%ADD41C,1.000000*%
%TD*%
%TA.AperFunction,Conductor*%
%ADD42C,0.512000*%
%TD*%
%TA.AperFunction,Conductor*%
%ADD43C,0.127000*%
%TD*%
%TA.AperFunction,Conductor*%
%ADD44C,0.250000*%
%TD*%
%TA.AperFunction,Conductor*%
%ADD45C,0.200000*%
%TD*%
%TA.AperFunction,Conductor*%
%ADD46C,0.256000*%
%TD*%
%TA.AperFunction,Conductor*%
%ADD47C,0.177800*%
%TD*%
%TA.AperFunction,Conductor*%
%ADD48C,0.190500*%
%TD*%
%TA.AperFunction,Conductor*%
%ADD49C,0.203200*%
%TD*%
G04 APERTURE END LIST*
D10*
%TO.P,R24,1*%
%TO.N,/STEPPER DRIVER X/HB2*%
X118920000Y-121447500D03*
%TO.P,R24,2*%
%TO.N,Net-(Q7-Pad4)*%
X118920000Y-123272500D03*
%TD*%
D11*
%TO.P,C4,1*%
%TO.N,/STEPPER_COIL_A2*%
X103520000Y-128360000D03*
%TO.P,C4,2*%
%TO.N,GND*%
X103520000Y-131310000D03*
%TD*%
D12*
%TO.P,C9,1*%
%TO.N,Net-(C9-Pad1)*%
X110503000Y-112522000D03*
%TO.P,C9,2*%
%TO.N,GND*%
X108953000Y-112522000D03*
%TD*%
D13*
%TO.P,C19,1*%
%TO.N,/STEPPER_COIL_B1*%
X133920000Y-136635000D03*
%TO.P,C19,2*%
%TO.N,GND*%
X133920000Y-133685000D03*
%TD*%
D14*
%TO.P,Q7,1,S*%
%TO.N,/STEPPER_COIL_B2*%
X126425000Y-135785000D03*
%TO.P,Q7,2,S*%
X125155000Y-135785000D03*
%TO.P,Q7,3,S*%
X123885000Y-135785000D03*
%TO.P,Q7,4,G*%
%TO.N,Net-(Q7-Pad4)*%
X122615000Y-135785000D03*
%TO.P,Q7,5,D*%
%TO.N,VCC*%
X122615000Y-140735000D03*
%TO.P,Q7,6,D*%
X123885000Y-140735000D03*
%TO.P,Q7,7,D*%
X125155000Y-140735000D03*
%TO.P,Q7,8,D*%
X126425000Y-140735000D03*
%TD*%
D15*
%TO.P,C6,1*%
%TO.N,VCC*%
X120650000Y-141140000D03*
%TO.P,C6,2*%
%TO.N,GND*%
X120650000Y-139065000D03*
%TD*%
D16*
%TO.P,C13,1*%
%TO.N,/STEPPER DRIVER X/CB2*%
X118497246Y-132785000D03*
%TO.P,C13,2*%
%TO.N,/STEPPER_COIL_B2*%
X118497246Y-134335000D03*
%TD*%
D14*
%TO.P,Q2,1,S*%
%TO.N,/STEPPER DRIVER X/hbridge_A3/hbridge_low_side*%
X115025000Y-125412500D03*
%TO.P,Q2,2,S*%
X113755000Y-125412500D03*
%TO.P,Q2,3,S*%
X112485000Y-125412500D03*
%TO.P,Q2,4,G*%
%TO.N,Net-(Q2-Pad4)*%
X111215000Y-125412500D03*
%TO.P,Q2,5,D*%
%TO.N,/STEPPER_COIL_A1*%
X111215000Y-130362500D03*
%TO.P,Q2,6,D*%
X112485000Y-130362500D03*
%TO.P,Q2,7,D*%
X113755000Y-130362500D03*
%TO.P,Q2,8,D*%
X115025000Y-130362500D03*
%TD*%
%TO.P,Q1,1,S*%
%TO.N,/STEPPER_COIL_A1*%
X115150000Y-132912500D03*
%TO.P,Q1,2,S*%
X113880000Y-132912500D03*
%TO.P,Q1,3,S*%
X112610000Y-132912500D03*
%TO.P,Q1,4,G*%
%TO.N,Net-(Q1-Pad4)*%
X111340000Y-132912500D03*
%TO.P,Q1,5,D*%
%TO.N,VCC*%
X111340000Y-137862500D03*
%TO.P,Q1,6,D*%
X112610000Y-137862500D03*
%TO.P,Q1,7,D*%
X113880000Y-137862500D03*
%TO.P,Q1,8,D*%
X115150000Y-137862500D03*
%TD*%
D17*
%TO.P,C14,1*%
%TO.N,/STEPPER DRIVER X/CB1*%
X122288000Y-118491000D03*
%TO.P,C14,2*%
%TO.N,/STEPPER_COIL_B1*%
X123838000Y-118491000D03*
%TD*%
D18*
%TO.P,C5,1*%
%TO.N,VCC*%
X103020000Y-137795000D03*
%TO.P,C5,2*%
%TO.N,GND*%
X103020000Y-134845000D03*
%TD*%
D19*
%TO.P,R3,1*%
%TO.N,/STEPPER DRIVER X/SRAH*%
X125222000Y-112905000D03*
%TO.P,R3,2*%
%TO.N,/STEPPER DRIVER X/hbridge_A3/hbridge_low_side*%
X125222000Y-111885000D03*
%TD*%
D20*
%TO.P,J1,1,Pin_1*%
%TO.N,/STEPPER_SCK*%
X134620000Y-104775000D03*
D21*
%TO.P,J1,2,Pin_2*%
%TO.N,/STEPPER_MOSI*%
X132080000Y-104775000D03*
%TO.P,J1,3,Pin_3*%
%TO.N,/STEPPER_MISO*%
X129540000Y-104775000D03*
%TO.P,J1,4,Pin_4*%
%TO.N,/STEPPER_X_CSn*%
X127000000Y-104775000D03*
%TO.P,J1,5,Pin_5*%
%TO.N,/STEPPER_X_STEP*%
X124460000Y-104775000D03*
%TO.P,J1,6,Pin_6*%
%TO.N,/STEPPER_X_DIR*%
X121920000Y-104775000D03*
%TO.P,J1,7,Pin_7*%
%TO.N,/STEPPER_X_ENn*%
X119380000Y-104775000D03*
%TO.P,J1,8,Pin_8*%
%TO.N,+3V3*%
X116840000Y-104775000D03*
%TO.P,J1,9,Pin_9*%
%TO.N,+12V*%
X114300000Y-104775000D03*
%TO.P,J1,10,Pin_10*%
%TO.N,GND*%
X111760000Y-104775000D03*
%TO.P,J1,11,Pin_11*%
%TO.N,VCC*%
X109220000Y-104775000D03*
%TO.P,J1,12,Pin_12*%
%TO.N,GND*%
X106680000Y-104775000D03*
%TO.P,J1,13,Pin_13*%
%TO.N,VCC*%
X104140000Y-104775000D03*
%TO.P,J1,14,Pin_14*%
%TO.N,GND*%
X101600000Y-104775000D03*
%TD*%
D14*
%TO.P,Q8,1,S*%
%TO.N,/STEPPER DRIVER X/hbridge_A2/hbridge_low_side*%
X126425000Y-128285000D03*
%TO.P,Q8,2,S*%
X125155000Y-128285000D03*
%TO.P,Q8,3,S*%
X123885000Y-128285000D03*
%TO.P,Q8,4,G*%
%TO.N,Net-(Q8-Pad4)*%
X122615000Y-128285000D03*
%TO.P,Q8,5,D*%
%TO.N,/STEPPER_COIL_B2*%
X122615000Y-133235000D03*
%TO.P,Q8,6,D*%
X123885000Y-133235000D03*
%TO.P,Q8,7,D*%
X125155000Y-133235000D03*
%TO.P,Q8,8,D*%
X126425000Y-133235000D03*
%TD*%
D22*
%TO.P,C15,1*%
%TO.N,/STEPPER DRIVER X/VSA*%
X124510800Y-114735700D03*
%TO.P,C15,2*%
%TO.N,GND*%
X124510800Y-116810700D03*
%TD*%
D21*
%TO.P,J2,1,Pin_1*%
%TO.N,/STEPPER_COIL_A2*%
X101610000Y-144145000D03*
%TO.P,J2,2,Pin_2*%
X104150000Y-144145000D03*
%TO.P,J2,3,Pin_3*%
X106690000Y-144145000D03*
%TO.P,J2,4,Pin_4*%
%TO.N,/STEPPER_COIL_A1*%
X109230000Y-144145000D03*
%TO.P,J2,5,Pin_5*%
X111770000Y-144145000D03*
%TO.P,J2,6,Pin_6*%
X114310000Y-144145000D03*
%TO.P,J2,7,Pin_7*%
%TO.N,/STEPPER_COIL_B2*%
X116850000Y-144145000D03*
%TO.P,J2,8,Pin_8*%
X119390000Y-144145000D03*
%TO.P,J2,9,Pin_9*%
X121930000Y-144145000D03*
%TO.P,J2,10,Pin_10*%
%TO.N,/STEPPER_COIL_B1*%
X124470000Y-144145000D03*
%TO.P,J2,11,Pin_11*%
X127010000Y-144145000D03*
%TO.P,J2,12,Pin_12*%
X129550000Y-144145000D03*
%TO.P,J2,13,Pin_13*%
%TO.N,/STEPPER_DIAG1*%
X132090000Y-144145000D03*
D23*
%TO.P,J2,14,Pin_14*%
%TO.N,/STEPPER_DIAG2*%
X134630000Y-144145000D03*
%TD*%
D11*
%TO.P,C1,1*%
%TO.N,/STEPPER_COIL_A1*%
X117220000Y-136025000D03*
%TO.P,C1,2*%
%TO.N,GND*%
X117220000Y-138975000D03*
%TD*%
D24*
%TO.P,R4,1*%
%TO.N,/STEPPER DRIVER X/SRAL*%
X129180400Y-113588800D03*
%TO.P,R4,2*%
%TO.N,GND*%
X130200400Y-113588800D03*
%TD*%
D14*
%TO.P,Q6,1,S*%
%TO.N,/STEPPER DRIVER X/hbridge_A2/hbridge_low_side*%
X131925000Y-128285000D03*
%TO.P,Q6,2,S*%
X130655000Y-128285000D03*
%TO.P,Q6,3,S*%
X129385000Y-128285000D03*
%TO.P,Q6,4,G*%
%TO.N,Net-(Q6-Pad4)*%
X128115000Y-128285000D03*
%TO.P,Q6,5,D*%
%TO.N,/STEPPER_COIL_B1*%
X128115000Y-133235000D03*
%TO.P,Q6,6,D*%
X129385000Y-133235000D03*
%TO.P,Q6,7,D*%
X130655000Y-133235000D03*
%TO.P,Q6,8,D*%
X131925000Y-133235000D03*
%TD*%
D10*
%TO.P,R20,1*%
%TO.N,/STEPPER DRIVER X/LB1*%
X132720000Y-122247500D03*
%TO.P,R20,2*%
%TO.N,Net-(Q6-Pad4)*%
X132720000Y-124072500D03*
%TD*%
D24*
%TO.P,R15,1*%
%TO.N,/STEPPER DRIVER X/TMC5160_12VOUT*%
X126617000Y-116306600D03*
%TO.P,R15,2*%
%TO.N,+12V*%
X127637000Y-116306600D03*
%TD*%
D16*
%TO.P,C18,1*%
%TO.N,/STEPPER DRIVER X/CA1*%
X117420000Y-129685000D03*
%TO.P,C18,2*%
%TO.N,/STEPPER_COIL_A1*%
X117420000Y-131235000D03*
%TD*%
D24*
%TO.P,R12,1*%
%TO.N,GND*%
X108913200Y-107797600D03*
%TO.P,R12,2*%
%TO.N,/STEPPER_X_ENn*%
X109933200Y-107797600D03*
%TD*%
D25*
%TO.P,C21,1*%
%TO.N,/STEPPER DRIVER X/hbridge_A2/hbridge_low_side*%
X131940000Y-125560000D03*
%TO.P,C21,2*%
%TO.N,GND*%
X132900000Y-125560000D03*
%TD*%
D11*
%TO.P,C22,1*%
%TO.N,/STEPPER_COIL_B2*%
X120597246Y-133385000D03*
%TO.P,C22,2*%
%TO.N,GND*%
X120597246Y-136335000D03*
%TD*%
D26*
%TO.P,R5,1*%
%TO.N,GND*%
X107273500Y-122047000D03*
%TO.P,R5,2*%
%TO.N,/STEPPER DRIVER X/hbridge_A3/hbridge_low_side*%
X113198500Y-122047000D03*
%TD*%
D24*
%TO.P,R13,1*%
%TO.N,Net-(R13-Pad1)*%
X126490000Y-107950000D03*
%TO.P,R13,2*%
%TO.N,/STEPPER_MISO*%
X127510000Y-107950000D03*
%TD*%
D26*
%TO.P,R23,1*%
%TO.N,GND*%
X124067500Y-124505000D03*
%TO.P,R23,2*%
%TO.N,/STEPPER DRIVER X/hbridge_A2/hbridge_low_side*%
X129992500Y-124505000D03*
%TD*%
D27*
%TO.P,R9,1*%
%TO.N,/STEPPER_X_CSn*%
X125605000Y-107315000D03*
%TO.P,R9,2*%
%TO.N,+3V3*%
X124585000Y-107315000D03*
%TD*%
D28*
%TO.P,C23,1*%
%TO.N,VCC*%
X112190000Y-140716000D03*
%TO.P,C23,2*%
%TO.N,GND*%
X115140000Y-140716000D03*
%TD*%
D12*
%TO.P,C2,1*%
%TO.N,/STEPPER DRIVER X/SRAH*%
X128029000Y-112903000D03*
%TO.P,C2,2*%
%TO.N,/STEPPER DRIVER X/SRAL*%
X126479000Y-112903000D03*
%TD*%
D29*
%TO.P,C17,1*%
%TO.N,VCC*%
X111121100Y-115341400D03*
%TO.P,C17,2*%
%TO.N,GND*%
X109046100Y-115341400D03*
%TD*%
D30*
%TO.P,C12,1*%
%TO.N,/STEPPER DRIVER X/TMC5160_12VOUT*%
X126365000Y-117856000D03*
%TO.P,C12,2*%
%TO.N,GND*%
X128265000Y-117856000D03*
%TD*%
D31*
%TO.P,C3,1*%
%TO.N,/STEPPER DRIVER X/hbridge_A3/hbridge_low_side*%
X105410000Y-123605000D03*
%TO.P,C3,2*%
%TO.N,GND*%
X104450000Y-123605000D03*
%TD*%
D17*
%TO.P,C20,1*%
%TO.N,/STEPPER DRIVER X/SRBH*%
X126580600Y-110515400D03*
%TO.P,C20,2*%
%TO.N,/STEPPER DRIVER X/SRBL*%
X128130600Y-110515400D03*
%TD*%
D10*
%TO.P,R2,1*%
%TO.N,/STEPPER DRIVER X/LA1*%
X115320000Y-120647500D03*
%TO.P,R2,2*%
%TO.N,Net-(Q2-Pad4)*%
X115320000Y-122472500D03*
%TD*%
D24*
%TO.P,R21,1*%
%TO.N,/STEPPER DRIVER X/SRBH*%
X124381800Y-110693200D03*
%TO.P,R21,2*%
%TO.N,/STEPPER DRIVER X/hbridge_A2/hbridge_low_side*%
X125401800Y-110693200D03*
%TD*%
D10*
%TO.P,R7,1*%
%TO.N,/STEPPER DRIVER X/LA2*%
X103015000Y-123732500D03*
%TO.P,R7,2*%
%TO.N,Net-(Q4-Pad4)*%
X103015000Y-125557500D03*
%TD*%
D14*
%TO.P,Q5,1,S*%
%TO.N,/STEPPER_COIL_B1*%
X131925000Y-135712500D03*
%TO.P,Q5,2,S*%
X130655000Y-135712500D03*
%TO.P,Q5,3,S*%
X129385000Y-135712500D03*
%TO.P,Q5,4,G*%
%TO.N,Net-(Q5-Pad4)*%
X128115000Y-135712500D03*
%TO.P,Q5,5,D*%
%TO.N,VCC*%
X128115000Y-140662500D03*
%TO.P,Q5,6,D*%
X129385000Y-140662500D03*
%TO.P,Q5,7,D*%
X130655000Y-140662500D03*
%TO.P,Q5,8,D*%
X131925000Y-140662500D03*
%TD*%
D17*
%TO.P,C11,1*%
%TO.N,/STEPPER DRIVER X/5VOUT*%
X126479000Y-114427000D03*
%TO.P,C11,2*%
%TO.N,GND*%
X128029000Y-114427000D03*
%TD*%
D14*
%TO.P,Q3,1,S*%
%TO.N,/STEPPER_COIL_A2*%
X109425000Y-132885000D03*
%TO.P,Q3,2,S*%
X108155000Y-132885000D03*
%TO.P,Q3,3,S*%
X106885000Y-132885000D03*
%TO.P,Q3,4,G*%
%TO.N,Net-(Q3-Pad4)*%
X105615000Y-132885000D03*
%TO.P,Q3,5,D*%
%TO.N,VCC*%
X105615000Y-137835000D03*
%TO.P,Q3,6,D*%
X106885000Y-137835000D03*
%TO.P,Q3,7,D*%
X108155000Y-137835000D03*
%TO.P,Q3,8,D*%
X109425000Y-137835000D03*
%TD*%
D32*
%TO.P,R19,1*%
%TO.N,/STEPPER DRIVER X/HB1*%
X129897500Y-118618000D03*
%TO.P,R19,2*%
%TO.N,Net-(Q5-Pad4)*%
X131722500Y-118618000D03*
%TD*%
D14*
%TO.P,Q4,1,S*%
%TO.N,/STEPPER DRIVER X/hbridge_A3/hbridge_low_side*%
X109425000Y-125385000D03*
%TO.P,Q4,2,S*%
X108155000Y-125385000D03*
%TO.P,Q4,3,S*%
X106885000Y-125385000D03*
%TO.P,Q4,4,G*%
%TO.N,Net-(Q4-Pad4)*%
X105615000Y-125385000D03*
%TO.P,Q4,5,D*%
%TO.N,/STEPPER_COIL_A2*%
X105615000Y-130335000D03*
%TO.P,Q4,6,D*%
X106885000Y-130335000D03*
%TO.P,Q4,7,D*%
X108155000Y-130335000D03*
%TO.P,Q4,8,D*%
X109425000Y-130335000D03*
%TD*%
D10*
%TO.P,R1,1*%
%TO.N,/STEPPER DRIVER X/HA1*%
X117220000Y-126347500D03*
%TO.P,R1,2*%
%TO.N,Net-(Q1-Pad4)*%
X117220000Y-128172500D03*
%TD*%
D31*
%TO.P,C7,1*%
%TO.N,/STEPPER DRIVER X/TMC5160_CPO*%
X111579600Y-113766600D03*
%TO.P,C7,2*%
%TO.N,/STEPPER DRIVER X/TMC5160_CPI*%
X110619600Y-113766600D03*
%TD*%
D10*
%TO.P,R25,1*%
%TO.N,/STEPPER DRIVER X/LB2*%
X120815000Y-125737500D03*
%TO.P,R25,2*%
%TO.N,Net-(Q8-Pad4)*%
X120815000Y-127562500D03*
%TD*%
D33*
%TO.P,R18,1*%
%TO.N,+3V3*%
X115466500Y-107696000D03*
%TO.P,R18,2*%
%TO.N,/STEPPER DRIVER X/5VOUT*%
X113641500Y-107696000D03*
%TD*%
D25*
%TO.P,C8,1*%
%TO.N,+3V3*%
X116995000Y-108458000D03*
%TO.P,C8,2*%
%TO.N,GND*%
X117955000Y-108458000D03*
%TD*%
D24*
%TO.P,R17,1*%
%TO.N,/STEPPER DRIVER X/VSA*%
X130147600Y-116484400D03*
%TO.P,R17,2*%
%TO.N,VCC*%
X131167600Y-116484400D03*
%TD*%
D34*
%TO.P,R14,1*%
%TO.N,Net-(C9-Pad1)*%
X110472246Y-110998000D03*
%TO.P,R14,2*%
%TO.N,/STEPPER DRIVER X/5VOUT*%
X108822246Y-110998000D03*
%TD*%
D35*
%TO.P,C10,1*%
%TO.N,VCC*%
X105261500Y-114503200D03*
%TO.P,C10,2*%
%TO.N,Net-(C10-Pad2)*%
X107336500Y-114503200D03*
%TD*%
D33*
%TO.P,R6,1*%
%TO.N,/STEPPER DRIVER X/HA2*%
X104315900Y-116459000D03*
%TO.P,R6,2*%
%TO.N,Net-(Q3-Pad4)*%
X102490900Y-116459000D03*
%TD*%
D36*
%TO.P,U1,1,HB1*%
%TO.N,/STEPPER DRIVER X/HB1*%
X121759746Y-117125000D03*
%TO.P,U1,2,CB1*%
%TO.N,/STEPPER DRIVER X/CB1*%
X121759746Y-116625000D03*
%TO.P,U1,3,12VOUT*%
%TO.N,/STEPPER DRIVER X/TMC5160_12VOUT*%
X121759746Y-116125000D03*
%TO.P,U1,4,VSA*%
%TO.N,/STEPPER DRIVER X/VSA*%
X121759746Y-115625000D03*
%TO.P,U1,5,5VOUT*%
%TO.N,/STEPPER DRIVER X/5VOUT*%
X121759746Y-115125000D03*
%TO.P,U1,6,GNDA*%
%TO.N,GND*%
X121759746Y-114625000D03*
%TO.P,U1,7,SRAL*%
%TO.N,/STEPPER DRIVER X/SRAL*%
X121759746Y-114125000D03*
%TO.P,U1,8,SRAH*%
%TO.N,/STEPPER DRIVER X/SRAH*%
X121759746Y-113625000D03*
%TO.P,U1,9,SRBH*%
%TO.N,/STEPPER DRIVER X/SRBH*%
X121759746Y-113125000D03*
%TO.P,U1,10,SRBL*%
%TO.N,/STEPPER DRIVER X/SRBL*%
X121759746Y-112625000D03*
%TO.P,U1,11,TST_MODE*%
%TO.N,GND*%
X121759746Y-112125000D03*
%TO.P,U1,12,CLK*%
X121759746Y-111625000D03*
D37*
%TO.P,U1,13,~{CS}/CFG3*%
%TO.N,/STEPPER_X_CSn*%
X120347246Y-110212500D03*
%TO.P,U1,14,SCK/CFG2*%
%TO.N,/STEPPER_SCK*%
X119847246Y-110212500D03*
%TO.P,U1,15,SDI/CFG1*%
%TO.N,/STEPPER_MOSI*%
X119347246Y-110212500D03*
%TO.P,U1,16,SDO/CFG0*%
%TO.N,Net-(R13-Pad1)*%
X118847246Y-110212500D03*
%TO.P,U1,17,REFL/STEP*%
%TO.N,/STEPPER_X_STEP*%
X118347246Y-110212500D03*
%TO.P,U1,18,REFR/DIR*%
%TO.N,/STEPPER_X_DIR*%
X117847246Y-110212500D03*
%TO.P,U1,19,GNDD*%
%TO.N,GND*%
X117347246Y-110212500D03*
%TO.P,U1,20,VCC_IO*%
%TO.N,+3V3*%
X116847246Y-110212500D03*
%TO.P,U1,21,SD_MODE*%
X116347246Y-110212500D03*
%TO.P,U1,22,SPI_MODE*%
X115847246Y-110212500D03*
%TO.P,U1,23,ENCB/DCEN/CFG4*%
%TO.N,unconnected-(U1-Pad23)*%
X115347246Y-110212500D03*
%TO.P,U1,24,ENCA/DCIN/CFG5*%
%TO.N,GND*%
X114847246Y-110212500D03*
D36*
%TO.P,U1,25,ENCN/DCO/CFG6*%
%TO.N,unconnected-(U1-Pad25)*%
X113434746Y-111625000D03*
%TO.P,U1,26,SWN/DIAG0*%
%TO.N,/STEPPER_DIAG2*%
X113434746Y-112125000D03*
%TO.P,U1,27,SWP/DIAG1*%
%TO.N,/STEPPER_DIAG1*%
X113434746Y-112625000D03*
%TO.P,U1,28,~{DRV_EN}*%
%TO.N,/STEPPER_X_ENn*%
X113434746Y-113125000D03*
%TO.P,U1,29,VCC*%
%TO.N,Net-(C9-Pad1)*%
X113434746Y-113625000D03*
%TO.P,U1,30,GNDD*%
%TO.N,GND*%
X113434746Y-114125000D03*
%TO.P,U1,31,CPO*%
%TO.N,/STEPPER DRIVER X/TMC5160_CPO*%
X113434746Y-114625000D03*
%TO.P,U1,32,CPI*%
%TO.N,/STEPPER DRIVER X/TMC5160_CPI*%
X113434746Y-115125000D03*
%TO.P,U1,33,VS*%
%TO.N,VCC*%
X113434746Y-115625000D03*
%TO.P,U1,34,VCP*%
%TO.N,Net-(C10-Pad2)*%
X113434746Y-116125000D03*
%TO.P,U1,35,CA2*%
%TO.N,/STEPPER DRIVER X/CA2*%
X113434746Y-116625000D03*
%TO.P,U1,36,HA2*%
%TO.N,/STEPPER DRIVER X/HA2*%
X113434746Y-117125000D03*
D37*
%TO.P,U1,37,BMA2*%
%TO.N,/STEPPER_COIL_A2*%
X114847246Y-118537500D03*
%TO.P,U1,38,LA2*%
%TO.N,/STEPPER DRIVER X/LA2*%
X115347246Y-118537500D03*
%TO.P,U1,39,LA1*%
%TO.N,/STEPPER DRIVER X/LA1*%
X115847246Y-118537500D03*
%TO.P,U1,40,BMA1*%
%TO.N,/STEPPER_COIL_A1*%
X116347246Y-118537500D03*
%TO.P,U1,41,HA1*%
%TO.N,/STEPPER DRIVER X/HA1*%
X116847246Y-118537500D03*
%TO.P,U1,42,CA1*%
%TO.N,/STEPPER DRIVER X/CA1*%
X117347246Y-118537500D03*
%TO.P,U1,43,CB2*%
%TO.N,/STEPPER DRIVER X/CB2*%
X117847246Y-118537500D03*
%TO.P,U1,44,HB2*%
%TO.N,/STEPPER DRIVER X/HB2*%
X118347246Y-118537500D03*
%TO.P,U1,45,BMB2*%
%TO.N,/STEPPER_COIL_B2*%
X118847246Y-118537500D03*
%TO.P,U1,46,LB2*%
%TO.N,/STEPPER DRIVER X/LB2*%
X119347246Y-118537500D03*
%TO.P,U1,47,LB1*%
%TO.N,/STEPPER DRIVER X/LB1*%
X119847246Y-118537500D03*
%TO.P,U1,48,BMB1*%
%TO.N,/STEPPER_COIL_B1*%
X120347246Y-118537500D03*
D38*
%TO.P,U1,49,EP*%
%TO.N,GND*%
X117597246Y-112125000D03*
X116472246Y-115500000D03*
X118722246Y-114375000D03*
X116472246Y-112125000D03*
X116472246Y-116625000D03*
X119847246Y-112125000D03*
X115347246Y-115500000D03*
X115347246Y-113250000D03*
X115347246Y-116625000D03*
X115347246Y-112125000D03*
X118722246Y-115500000D03*
X115347246Y-114375000D03*
X116472246Y-113250000D03*
X117597246Y-113250000D03*
X118722246Y-112125000D03*
X117597246Y-114375000D03*
X119847246Y-115500000D03*
X119847246Y-113250000D03*
D39*
X117597246Y-114375000D03*
D38*
X117597246Y-115500000D03*
X118722246Y-116625000D03*
X119847246Y-116625000D03*
X116472246Y-114375000D03*
X118722246Y-113250000D03*
X117597246Y-116625000D03*
X119847246Y-114375000D03*
%TD*%
D29*
%TO.P,C24,1*%
%TO.N,VCC*%
X104415500Y-140081000D03*
%TO.P,C24,2*%
%TO.N,GND*%
X102340500Y-140081000D03*
%TD*%
D12*
%TO.P,C16,1*%
%TO.N,/STEPPER DRIVER X/CA2*%
X107378800Y-116713000D03*
%TO.P,C16,2*%
%TO.N,/STEPPER_COIL_A2*%
X105828800Y-116713000D03*
%TD*%
D24*
%TO.P,R16,1*%
%TO.N,/STEPPER DRIVER X/VSA*%
X130122200Y-115493800D03*
%TO.P,R16,2*%
%TO.N,+12V*%
X131142200Y-115493800D03*
%TD*%
D27*
%TO.P,R10,1*%
%TO.N,/STEPPER_DIAG2*%
X120017000Y-107061000D03*
%TO.P,R10,2*%
%TO.N,+3V3*%
X118997000Y-107061000D03*
%TD*%
%TO.P,R22,1*%
%TO.N,/STEPPER DRIVER X/SRBL*%
X123446000Y-110693200D03*
%TO.P,R22,2*%
%TO.N,GND*%
X122426000Y-110693200D03*
%TD*%
D19*
%TO.P,R11,1*%
%TO.N,/STEPPER_DIAG1*%
X112039400Y-108206000D03*
%TO.P,R11,2*%
%TO.N,+3V3*%
X112039400Y-107186000D03*
%TD*%
D40*
%TO.N,+3V3*%
X124104400Y-106095800D03*
%TO.N,GND*%
X107950000Y-119761000D03*
X127464500Y-117932200D03*
X121666000Y-121576500D03*
X117652800Y-107749400D03*
X129463800Y-114604800D03*
X121756070Y-111617226D03*
X134011489Y-132460000D03*
X118745000Y-139065000D03*
X109905800Y-115911958D03*
X125730000Y-123571000D03*
X110490000Y-119507000D03*
X105156000Y-119761000D03*
X120020000Y-137360000D03*
X129286000Y-121539000D03*
X126746000Y-121539000D03*
X103886000Y-121793000D03*
X124206000Y-121539000D03*
X122377200Y-123723400D03*
X132649500Y-126381426D03*
X108712000Y-121793000D03*
X108204000Y-112471200D03*
X106172000Y-121793000D03*
X101473000Y-140843000D03*
X122428000Y-125603000D03*
X115951000Y-140081000D03*
X113284000Y-119253000D03*
X124739400Y-115973500D03*
X102870000Y-135890000D03*
X108915200Y-108635800D03*
X102870000Y-119761000D03*
X104430000Y-124405000D03*
X102144500Y-131047701D03*
%TO.N,VCC*%
X133604000Y-141351000D03*
X106183593Y-113789951D03*
X107315000Y-141605000D03*
X124206000Y-142240000D03*
X109601000Y-141478000D03*
X108077000Y-139954000D03*
X103505000Y-141732000D03*
X113792000Y-140716000D03*
X131800600Y-117271800D03*
X132461000Y-142240000D03*
X110247144Y-114972549D03*
X119126000Y-141859000D03*
X117094000Y-141732000D03*
X127127000Y-142240000D03*
%TO.N,/STEPPER_COIL_B2*%
X126620000Y-138660000D03*
X126520000Y-131660000D03*
X125620000Y-131660000D03*
X123520000Y-138660000D03*
X122320000Y-137760000D03*
X124620000Y-138660000D03*
X125620000Y-138660000D03*
X126620000Y-137760000D03*
X122720000Y-130760000D03*
X125620000Y-137760000D03*
X123520000Y-137760000D03*
X124620000Y-137760000D03*
X124020000Y-130760000D03*
X122320000Y-138660000D03*
X121220000Y-137760000D03*
X124620000Y-131660000D03*
X126120000Y-130760000D03*
X125120000Y-130760000D03*
X123320000Y-131560000D03*
%TO.N,/STEPPER_COIL_B1*%
X129597246Y-130700000D03*
X130597246Y-130800000D03*
X133697246Y-130600000D03*
X132497246Y-131700000D03*
X129597246Y-131700000D03*
X131597246Y-138000000D03*
X131697246Y-130800000D03*
X129397246Y-137200000D03*
X130397246Y-138000000D03*
X131597246Y-131700000D03*
X132297246Y-137200000D03*
X132697246Y-130800000D03*
X130597246Y-131700000D03*
X130997246Y-137200000D03*
%TO.N,/STEPPER_COIL_A2*%
X108520000Y-134760000D03*
X105320000Y-127860000D03*
X107620000Y-128760000D03*
X106020000Y-135660000D03*
X108520000Y-128760000D03*
X107020000Y-135660000D03*
X106220000Y-127860000D03*
X106520000Y-134760000D03*
X109520000Y-134660000D03*
X108020000Y-135660000D03*
X106720000Y-128760000D03*
X109120000Y-127860000D03*
X109020000Y-135660000D03*
X108020000Y-127860000D03*
X107520000Y-134760000D03*
X105820000Y-128760000D03*
X107120000Y-127860000D03*
%TO.N,/STEPPER_COIL_A1*%
X116020000Y-131860000D03*
X112620000Y-134360000D03*
X111920000Y-127860000D03*
X112320000Y-128760000D03*
X116220000Y-133460000D03*
X114320000Y-128760000D03*
X113120000Y-135160000D03*
X114620000Y-134360000D03*
X113820000Y-127960000D03*
X114720000Y-127860000D03*
X115220000Y-128760000D03*
X115620000Y-134360000D03*
X114120000Y-135160000D03*
X113620000Y-134360000D03*
X112920000Y-127960000D03*
X113320000Y-128760000D03*
X115120000Y-135260000D03*
%TO.N,/STEPPER DRIVER X/hbridge_A2/hbridge_low_side*%
X134289800Y-114122200D03*
X131089400Y-124206000D03*
%TO.N,/STEPPER DRIVER X/hbridge_A3/hbridge_low_side*%
X134289800Y-113080800D03*
X113930000Y-121505000D03*
%TO.N,/STEPPER_X_CSn*%
X124067757Y-109294023D03*
X127254000Y-106959400D03*
%TO.N,/STEPPER_DIAG2*%
X110744000Y-107264200D03*
X120167400Y-106375200D03*
%TO.N,/STEPPER_DIAG1*%
X112801400Y-109169200D03*
%TO.N,/STEPPER_X_ENn*%
X117952348Y-105941980D03*
X115697000Y-105918000D03*
%TO.N,/STEPPER DRIVER X/5VOUT*%
X124029288Y-113543848D03*
X107924600Y-110998000D03*
X113919000Y-109220000D03*
%TO.N,+12V*%
X128473200Y-116255800D03*
X131165600Y-114554000D03*
%TD*%
D41*
%TO.N,+3V3*%
X116553299Y-108563788D02*
X116840000Y-108850489D01*
D42*
X115852000Y-107696000D02*
X116868000Y-108712000D01*
D43*
X118107826Y-107061000D02*
X116840000Y-105793174D01*
D41*
X116840000Y-106801470D02*
X116553299Y-107088171D01*
D43*
X114503480Y-106732980D02*
X115466500Y-107696000D01*
X124585000Y-106576400D02*
X124104400Y-106095800D01*
X112492420Y-106732980D02*
X114503480Y-106732980D01*
D42*
X116741726Y-109001726D02*
X116741726Y-110212500D01*
D43*
X112039400Y-107186000D02*
X112492420Y-106732980D01*
X115847246Y-110212500D02*
X116347246Y-110212500D01*
D41*
X116553299Y-107088171D02*
X116553299Y-108563788D01*
D43*
X124585000Y-107315000D02*
X124585000Y-106576400D01*
D41*
X116840000Y-104775000D02*
X116840000Y-106801470D01*
D42*
X115466500Y-107696000D02*
X115852000Y-107696000D01*
D43*
X118997000Y-107061000D02*
X118107826Y-107061000D01*
D42*
X116452766Y-108807234D02*
X116452766Y-110212500D01*
D43*
X116840000Y-105793174D02*
X116840000Y-104775000D01*
D41*
X116840000Y-108752215D02*
X116741726Y-108850489D01*
D44*
%TO.N,GND*%
X121759746Y-112125000D02*
X119847246Y-112125000D01*
D43*
X115347246Y-112125000D02*
X114847246Y-111625000D01*
X128029000Y-114427000D02*
X129286000Y-114427000D01*
X117347246Y-109496968D02*
X117652800Y-109191414D01*
D44*
X113434746Y-114125000D02*
X115097246Y-114125000D01*
D43*
X109335242Y-115341400D02*
X109905800Y-115911958D01*
X117347246Y-110212500D02*
X117347246Y-109496968D01*
D45*
X132900000Y-126130926D02*
X132649500Y-126381426D01*
D44*
X120520000Y-136860000D02*
X120520000Y-136335000D01*
D41*
X102340500Y-140081000D02*
X101578500Y-140843000D01*
D43*
X124510800Y-116202100D02*
X124739400Y-115973500D01*
D44*
X108953000Y-112522000D02*
X108254800Y-112522000D01*
X120020000Y-137360000D02*
X120520000Y-136860000D01*
X121259746Y-112125000D02*
X121759746Y-111625000D01*
X119847246Y-114375000D02*
X120097246Y-114625000D01*
D41*
X120650000Y-139065000D02*
X118745000Y-139065000D01*
D43*
X129286000Y-114427000D02*
X129463800Y-114604800D01*
D44*
X121756070Y-111540930D02*
X122603800Y-110693200D01*
X108254800Y-112522000D02*
X108204000Y-112471200D01*
D41*
X117220000Y-138975000D02*
X118655000Y-138975000D01*
X117057000Y-138975000D02*
X115951000Y-140081000D01*
D44*
X115097246Y-114125000D02*
X115347246Y-114375000D01*
X103520000Y-131310000D02*
X102406799Y-131310000D01*
X119847246Y-112125000D02*
X121259746Y-112125000D01*
X104450000Y-124385000D02*
X104430000Y-124405000D01*
D43*
X127540700Y-117856000D02*
X127464500Y-117932200D01*
X117652800Y-109191414D02*
X117652800Y-107749400D01*
X128265000Y-117856000D02*
X127540700Y-117856000D01*
D44*
X104450000Y-123605000D02*
X104450000Y-124385000D01*
D45*
X132900000Y-125560000D02*
X132900000Y-126130926D01*
D43*
X108913200Y-107797600D02*
X108913200Y-108633800D01*
D41*
X103020000Y-135740000D02*
X102870000Y-135890000D01*
D44*
X133920000Y-132551489D02*
X134011489Y-132460000D01*
D45*
X117347246Y-111875000D02*
X117597246Y-112125000D01*
D42*
X115316000Y-140716000D02*
X115951000Y-140081000D01*
D43*
X124510800Y-116861500D02*
X124510800Y-116202100D01*
D45*
X117347246Y-110212500D02*
X117347246Y-111875000D01*
D44*
X120097246Y-114625000D02*
X121759746Y-114625000D01*
D41*
X103020000Y-134845000D02*
X103020000Y-135740000D01*
X101578500Y-140843000D02*
X101473000Y-140843000D01*
D44*
X121756070Y-111617226D02*
X121756070Y-111540930D01*
D43*
X114847246Y-111625000D02*
X114847246Y-110212500D01*
D44*
X133920000Y-133685000D02*
X133920000Y-132551489D01*
X102406799Y-131310000D02*
X102144500Y-131047701D01*
D41*
X118655000Y-138975000D02*
X118745000Y-139065000D01*
D43*
X108913200Y-108633800D02*
X108915200Y-108635800D01*
%TO.N,VCC*%
X113434746Y-115625000D02*
X111404700Y-115625000D01*
D46*
X105470344Y-114503200D02*
X106183593Y-113789951D01*
D43*
X110615995Y-115341400D02*
X110247144Y-114972549D01*
D46*
X131167600Y-116638800D02*
X131800600Y-117271800D01*
D43*
%TO.N,/STEPPER DRIVER X/TMC5160_CPO*%
X111605000Y-113919000D02*
X111840756Y-113919000D01*
X111840756Y-113919000D02*
X112546756Y-114625000D01*
X112546756Y-114625000D02*
X113434746Y-114625000D01*
D47*
%TO.N,/STEPPER DRIVER X/TMC5160_12VOUT*%
X123418600Y-117703600D02*
X123211786Y-117496786D01*
X123211785Y-116722962D02*
X122613823Y-116125000D01*
X126151600Y-117703600D02*
X123418600Y-117703600D01*
X126304000Y-117856000D02*
X126151600Y-117703600D01*
D46*
X126365000Y-116558600D02*
X126617000Y-116306600D01*
D47*
X123211786Y-117496786D02*
X123211785Y-116722962D01*
D46*
X126365000Y-117856000D02*
X126365000Y-116558600D01*
D47*
X122613823Y-116125000D02*
X121759746Y-116125000D01*
D44*
%TO.N,/STEPPER DRIVER X/CB2*%
X118870480Y-128870238D02*
X118497246Y-129243472D01*
X117847246Y-118537500D02*
X117847246Y-124387246D01*
X118870480Y-125837270D02*
X118870480Y-128870238D01*
X118497246Y-125464035D02*
X118870480Y-125837270D01*
X118497246Y-130101529D02*
X118669520Y-130273803D01*
X117847246Y-124387246D02*
X118497246Y-125037246D01*
X118669520Y-130273803D02*
X118669520Y-131996305D01*
X118669520Y-131996305D02*
X118497246Y-132168579D01*
X118497246Y-132168579D02*
X118497246Y-132662246D01*
X118497246Y-129243472D02*
X118497246Y-130101529D01*
X118497246Y-125037246D02*
X118497246Y-125464035D01*
%TO.N,/STEPPER_COIL_B2*%
X119944520Y-124511303D02*
X119790480Y-124665343D01*
X119306198Y-120610480D02*
X119607973Y-120610480D01*
X121947246Y-132567246D02*
X122615000Y-133235000D01*
X119295489Y-137660103D02*
X119719897Y-138084511D01*
X123885000Y-135408928D02*
X121695713Y-133219641D01*
X119944520Y-120947027D02*
X119944520Y-124511303D01*
X121947246Y-128650000D02*
X121947246Y-132567246D01*
X121696766Y-128399520D02*
X121947246Y-128650000D01*
X119790480Y-124665343D02*
X119790480Y-128062973D01*
X120127027Y-128399520D02*
X121696766Y-128399520D01*
X118847246Y-118537500D02*
X118847246Y-119722964D01*
X118620000Y-134335000D02*
X118620000Y-134924283D01*
X118847246Y-119722964D02*
X119247246Y-120122964D01*
X119247246Y-120551528D02*
X119306198Y-120610480D01*
X119719897Y-138084511D02*
X120895489Y-138084511D01*
X119790480Y-128062973D02*
X120127027Y-128399520D01*
X120895489Y-138084511D02*
X121220000Y-137760000D01*
X121695713Y-133219641D02*
X120685359Y-133219641D01*
X119295489Y-135599772D02*
X119295489Y-137660103D01*
X118620000Y-134924283D02*
X119295489Y-135599772D01*
X119607973Y-120610480D02*
X119944520Y-120947027D01*
X119247246Y-120122964D02*
X119247246Y-120551528D01*
D48*
%TO.N,/STEPPER DRIVER X/CB1*%
X122792016Y-116896837D02*
X122520179Y-116625000D01*
X122288000Y-118491000D02*
X122792016Y-117986984D01*
X122792016Y-117986984D02*
X122792016Y-116896837D01*
D44*
X122476039Y-116625000D02*
X122501519Y-116650480D01*
X121759746Y-116625000D02*
X122476039Y-116625000D01*
D48*
X122520179Y-116625000D02*
X121759746Y-116625000D01*
D44*
%TO.N,/STEPPER_COIL_B1*%
X130810000Y-119761000D02*
X130810000Y-118005507D01*
X130810000Y-118005507D02*
X130397973Y-117593480D01*
X133945969Y-119885969D02*
X134520000Y-120460000D01*
X120347246Y-118537500D02*
X120347246Y-119261399D01*
D48*
X129090230Y-117942349D02*
X129439099Y-117593480D01*
D44*
X130934969Y-119885969D02*
X130810000Y-119761000D01*
D48*
X124338698Y-118991698D02*
X128785302Y-118991698D01*
D44*
X124944157Y-119885960D02*
X130934960Y-119885960D01*
D48*
X123838000Y-118491000D02*
X124338698Y-118991698D01*
D44*
X120347246Y-119261399D02*
X120946817Y-119860970D01*
D48*
X128785302Y-118991698D02*
X129090230Y-118686770D01*
D44*
X124919167Y-119860970D02*
X124944157Y-119885960D01*
D48*
X129439099Y-117593480D02*
X130397973Y-117593480D01*
D44*
X134520000Y-130640000D02*
X131925000Y-133235000D01*
D48*
X129090230Y-118686770D02*
X129090230Y-117942349D01*
D44*
X134520000Y-120460000D02*
X134520000Y-130640000D01*
X120946817Y-119860970D02*
X124919167Y-119860970D01*
X130934960Y-119885960D02*
X130934969Y-119885969D01*
X130934969Y-119885969D02*
X133945969Y-119885969D01*
%TO.N,/STEPPER DRIVER X/CA2*%
X113434746Y-116625000D02*
X112280504Y-116625000D01*
X107802569Y-117085969D02*
X107378800Y-116662200D01*
X111819535Y-117085969D02*
X107802569Y-117085969D01*
X112280504Y-116625000D02*
X111819535Y-117085969D01*
%TO.N,/STEPPER_COIL_A2*%
X105828800Y-117050842D02*
X106782958Y-118005000D01*
X104897711Y-117555489D02*
X105791000Y-116662200D01*
X105828800Y-116713000D02*
X105828800Y-117050842D01*
X105615000Y-130335000D02*
X101541511Y-126261511D01*
X101541511Y-126261511D02*
X101541511Y-119057785D01*
X106782958Y-118005000D02*
X114314746Y-118005000D01*
X101541511Y-119057785D02*
X103043807Y-117555489D01*
X103043807Y-117555489D02*
X104897711Y-117555489D01*
X114314746Y-118005000D02*
X114847246Y-118537500D01*
%TO.N,/STEPPER DRIVER X/CA1*%
X118420960Y-128684040D02*
X117420000Y-129685000D01*
X117296766Y-119390486D02*
X117296766Y-124936766D01*
X117907973Y-125510480D02*
X118420960Y-126023467D01*
X117347246Y-118537500D02*
X117347246Y-119340006D01*
X117347246Y-119340006D02*
X117296766Y-119390486D01*
X117870480Y-125510480D02*
X117907973Y-125510480D01*
X118420960Y-126023467D02*
X118420960Y-128684040D01*
X117296766Y-124936766D02*
X117870480Y-125510480D01*
%TO.N,/STEPPER_COIL_A1*%
X117420000Y-131235000D02*
X115742500Y-132912500D01*
X116347246Y-125410480D02*
X116195480Y-125562246D01*
X116195480Y-128261302D02*
X115150000Y-129306782D01*
X115150000Y-129306782D02*
X115150000Y-130362500D01*
X115742500Y-132912500D02*
X115150000Y-132912500D01*
X116347246Y-118537500D02*
X116347246Y-125410480D01*
X116195480Y-125562246D02*
X116195480Y-128261302D01*
D42*
X116220000Y-135025000D02*
X117220000Y-136025000D01*
X116220000Y-133460000D02*
X116220000Y-135025000D01*
D43*
%TO.N,/STEPPER DRIVER X/SRBH*%
X122475278Y-113125000D02*
X124381800Y-111218478D01*
X126580600Y-110515400D02*
X126175380Y-110110180D01*
X124381800Y-111218478D02*
X124381800Y-110693200D01*
X124964820Y-110110180D02*
X124381800Y-110693200D01*
X126175380Y-110110180D02*
X124964820Y-110110180D01*
X121759746Y-113125000D02*
X122475278Y-113125000D01*
%TO.N,/STEPPER DRIVER X/SRBL*%
X128130600Y-110515400D02*
X127392580Y-109777380D01*
X124029020Y-110110180D02*
X123446000Y-110693200D01*
X122760266Y-112340012D02*
X122760266Y-112088134D01*
X124255620Y-110110180D02*
X124029020Y-110110180D01*
X124588420Y-109777380D02*
X124255620Y-110110180D01*
X122475278Y-112625000D02*
X122760266Y-112340012D01*
X121759746Y-112625000D02*
X122475278Y-112625000D01*
X127392580Y-109777380D02*
X124588420Y-109777380D01*
X123446000Y-111402400D02*
X123446000Y-110693200D01*
X122760266Y-112088134D02*
X123446000Y-111402400D01*
D44*
%TO.N,/STEPPER DRIVER X/hbridge_A2/hbridge_low_side*%
X131940000Y-125560000D02*
X131925000Y-125575000D01*
D43*
X129975888Y-112679268D02*
X132846868Y-112679268D01*
X126317620Y-111482020D02*
X128778640Y-111482020D01*
X125528800Y-110693200D02*
X126317620Y-111482020D01*
D44*
X131925000Y-125575000D02*
X131925000Y-128285000D01*
D43*
X132846868Y-112679268D02*
X134289800Y-114122200D01*
X128778640Y-111482020D02*
X129975888Y-112679268D01*
%TO.N,/STEPPER DRIVER X/SRAH*%
X123325245Y-112848511D02*
X123516511Y-112657245D01*
X123516511Y-112545523D02*
X123716746Y-112345288D01*
X123716746Y-112345288D02*
X124662288Y-112345288D01*
X123011768Y-113051711D02*
X123071245Y-113051711D01*
X127290980Y-112164980D02*
X128029000Y-112903000D01*
X123516511Y-112657245D02*
X123516511Y-112545523D01*
X123172845Y-112975511D02*
X123299845Y-112848511D01*
X123071245Y-113051711D02*
X123147445Y-112975511D01*
X123011768Y-113098256D02*
X123011768Y-113051711D01*
X123299845Y-112848511D02*
X123325245Y-112848511D01*
X125222000Y-112905000D02*
X125962020Y-112164980D01*
X124662288Y-112345288D02*
X125222000Y-112905000D01*
X123147445Y-112975511D02*
X123172845Y-112975511D01*
X125962020Y-112164980D02*
X127290980Y-112164980D01*
X122485024Y-113625000D02*
X123011768Y-113098256D01*
X121759746Y-113625000D02*
X122485024Y-113625000D01*
%TO.N,/STEPPER DRIVER X/SRAL*%
X129057980Y-113641020D02*
X127217020Y-113641020D01*
X123843022Y-112792490D02*
X123257290Y-113378222D01*
X124150425Y-112671799D02*
X123851991Y-112671799D01*
X123257290Y-113378222D02*
X123193558Y-113378222D01*
X124640401Y-113263375D02*
X124640401Y-113161775D01*
X124815046Y-113438020D02*
X124640401Y-113263375D01*
X122485024Y-114125000D02*
X121759746Y-114125000D01*
X123085798Y-113524226D02*
X122485024Y-114125000D01*
X123851991Y-112671799D02*
X123843022Y-112680768D01*
X126479000Y-112903000D02*
X125943980Y-113438020D01*
X124640401Y-113161775D02*
X124150425Y-112671799D01*
X123085798Y-113485982D02*
X123085798Y-113524226D01*
X123193558Y-113378222D02*
X123085798Y-113485982D01*
X125943980Y-113438020D02*
X124815046Y-113438020D01*
X127217020Y-113641020D02*
X126479000Y-112903000D01*
X123843022Y-112680768D02*
X123843022Y-112792490D01*
%TO.N,/STEPPER DRIVER X/hbridge_A3/hbridge_low_side*%
X130500265Y-113005780D02*
X131181196Y-113686711D01*
X134564425Y-114785201D02*
X135003601Y-114346025D01*
X134015175Y-114785201D02*
X134564425Y-114785201D01*
X129816024Y-113005780D02*
X130500265Y-113005780D01*
X135003601Y-114346025D02*
X135003601Y-113794601D01*
D44*
X106885000Y-125008928D02*
X106885000Y-125385000D01*
X105410000Y-123605000D02*
X105481072Y-123605000D01*
D43*
X125298469Y-111808531D02*
X128618775Y-111808531D01*
X135003601Y-113794601D02*
X134289800Y-113080800D01*
X132916685Y-113686711D02*
X134015175Y-114785201D01*
X131181196Y-113686711D02*
X132916685Y-113686711D01*
X128618775Y-111808531D02*
X129816024Y-113005780D01*
D44*
X105481072Y-123605000D02*
X106885000Y-125008928D01*
%TO.N,Net-(Q1-Pad4)*%
X116620480Y-130137618D02*
X116620480Y-128472020D01*
X111340000Y-135880000D02*
X111820000Y-136360000D01*
X117620000Y-132410108D02*
X118220000Y-131810108D01*
X115657246Y-136360000D02*
X116397246Y-137100000D01*
X116397246Y-137100000D02*
X118197246Y-137100000D01*
X118597246Y-135537247D02*
X118169519Y-135109520D01*
X118220000Y-130460000D02*
X116942862Y-130460000D01*
X118197246Y-137100000D02*
X118597246Y-136700000D01*
X111340000Y-132912500D02*
X111340000Y-135880000D01*
X118597246Y-136700000D02*
X118597246Y-135537247D01*
X116620480Y-128472020D02*
X117020000Y-128072500D01*
X118169519Y-135109520D02*
X118006766Y-135109520D01*
X118006766Y-135109520D02*
X117620000Y-134722754D01*
X116942862Y-130460000D02*
X116620480Y-130137618D01*
X117620000Y-134722754D02*
X117620000Y-132410108D01*
X111820000Y-136360000D02*
X115657246Y-136360000D01*
X118220000Y-131810108D02*
X118220000Y-130460000D01*
%TO.N,Net-(Q2-Pad4)*%
X115220000Y-126960000D02*
X115325000Y-126855000D01*
X115320000Y-122172500D02*
X115320000Y-123672500D01*
X111340000Y-125412500D02*
X111340000Y-126780000D01*
X111340000Y-126780000D02*
X111520000Y-126960000D01*
X111520000Y-126960000D02*
X115220000Y-126960000D01*
X115745960Y-126462612D02*
X115745960Y-124098460D01*
X115448572Y-126760000D02*
X115745960Y-126462612D01*
X115325000Y-126855000D02*
X115325000Y-126760000D01*
X115320000Y-123672500D02*
X115745960Y-124098460D01*
X115325000Y-126760000D02*
X115448572Y-126760000D01*
%TO.N,Net-(Q3-Pad4)*%
X101092000Y-131132000D02*
X101092000Y-118871592D01*
X102490900Y-117472692D02*
X102490900Y-116711100D01*
X101092000Y-118871592D02*
X102490900Y-117472692D01*
X105615000Y-132885000D02*
X102845000Y-132885000D01*
X102845000Y-132885000D02*
X101092000Y-131132000D01*
%TO.N,Net-(Q4-Pad4)*%
X104742500Y-125557500D02*
X104915000Y-125385000D01*
X104915000Y-125385000D02*
X105615000Y-125385000D01*
X103015000Y-125557500D02*
X104742500Y-125557500D01*
%TO.N,Net-(Q5-Pad4)*%
X134006198Y-119310480D02*
X132414980Y-119310480D01*
X135144520Y-133122027D02*
X135144520Y-138473000D01*
X135001000Y-132978507D02*
X135144520Y-133122027D01*
X128115000Y-138955000D02*
X128115000Y-135712500D01*
X135144520Y-138473000D02*
X134366000Y-139251520D01*
X135001000Y-120305282D02*
X135001000Y-132978507D01*
X134366000Y-139251520D02*
X128411520Y-139251520D01*
X134006198Y-119310480D02*
X135001000Y-120305282D01*
X128411520Y-139251520D02*
X128115000Y-138955000D01*
X132414980Y-119310480D02*
X131722500Y-118618000D01*
%TO.N,Net-(Q6-Pad4)*%
X133720960Y-129087612D02*
X133148572Y-129660000D01*
X132720000Y-124072500D02*
X133720960Y-125073460D01*
X129113928Y-129660000D02*
X133148572Y-129660000D01*
X133720960Y-125073460D02*
X133720960Y-129087612D01*
X128115000Y-128661072D02*
X129113928Y-129660000D01*
%TO.N,Net-(Q7-Pad4)*%
X118920000Y-124472500D02*
X119320000Y-124872500D01*
X118920000Y-123272500D02*
X118920000Y-124472500D01*
X119320000Y-124872500D02*
X119320000Y-134460000D01*
X121890000Y-135060000D02*
X122615000Y-135785000D01*
X119320000Y-134460000D02*
X119920000Y-135060000D01*
X119920000Y-135060000D02*
X121890000Y-135060000D01*
%TO.N,Net-(Q8-Pad4)*%
X121892500Y-127562500D02*
X122615000Y-128285000D01*
X120815000Y-127562500D02*
X121892500Y-127562500D01*
%TO.N,/STEPPER DRIVER X/HB1*%
X125130350Y-119436449D02*
X125105360Y-119411459D01*
X121734640Y-119411459D02*
X121158000Y-118834819D01*
X125105360Y-119411459D02*
X121734640Y-119411459D01*
X129079051Y-119436449D02*
X125130350Y-119436449D01*
X121158000Y-117726746D02*
X121759746Y-117125000D01*
X129897500Y-118618000D02*
X129079051Y-119436449D01*
X121158000Y-118834819D02*
X121158000Y-117726746D01*
%TO.N,/STEPPER DRIVER X/LB1*%
X130957380Y-120484880D02*
X132720000Y-122247500D01*
X120880598Y-120484880D02*
X130957380Y-120484880D01*
X119847246Y-118537500D02*
X119847246Y-119451528D01*
X119847246Y-119451528D02*
X120880598Y-120484880D01*
%TO.N,/STEPPER DRIVER X/HB2*%
X118920000Y-120860000D02*
X118920000Y-121447500D01*
X118347246Y-120287246D02*
X118920000Y-120860000D01*
X118347246Y-118537500D02*
X118347246Y-120287246D01*
%TO.N,/STEPPER DRIVER X/LB2*%
X119347246Y-118537500D02*
X119347246Y-119587246D01*
X120469520Y-120709520D02*
X120469520Y-125392020D01*
X119347246Y-119587246D02*
X120469520Y-120709520D01*
%TO.N,/STEPPER DRIVER X/HA1*%
X116847246Y-118537500D02*
X116847246Y-126074746D01*
%TO.N,/STEPPER DRIVER X/LA1*%
X115847246Y-120120254D02*
X115320000Y-120647500D01*
X115847246Y-118537500D02*
X115847246Y-120120254D01*
%TO.N,/STEPPER DRIVER X/HA2*%
X106949151Y-117535489D02*
X106603800Y-117190138D01*
X106217338Y-115798600D02*
X104976300Y-115798600D01*
X113434746Y-117125000D02*
X113024257Y-117535489D01*
X106603800Y-117190138D02*
X106603800Y-116185062D01*
X104976300Y-115798600D02*
X104315900Y-116459000D01*
X113024257Y-117535489D02*
X106949151Y-117535489D01*
X106603800Y-116185062D02*
X106217338Y-115798600D01*
%TO.N,/STEPPER DRIVER X/LA2*%
X115347246Y-118537500D02*
X115347246Y-119432754D01*
X114372726Y-119365486D02*
X114372726Y-118698698D01*
X115347246Y-119432754D02*
X114969520Y-119810480D01*
X102780489Y-118454511D02*
X101991022Y-119243978D01*
X114969520Y-119810480D02*
X114817720Y-119810480D01*
X114817720Y-119810480D02*
X114372726Y-119365486D01*
X101991022Y-119243978D02*
X101991022Y-122708522D01*
X114372726Y-118698698D02*
X114128539Y-118454511D01*
X114128539Y-118454511D02*
X102780489Y-118454511D01*
X101991022Y-122708522D02*
X103015000Y-123732500D01*
D43*
%TO.N,/STEPPER_SCK*%
X120132234Y-109211980D02*
X120562258Y-109211980D01*
X122548932Y-108967512D02*
X123213447Y-108967512D01*
X133426200Y-105968800D02*
X134620000Y-104775000D01*
X123213447Y-108967512D02*
X123549935Y-108631023D01*
X121724393Y-109792051D02*
X122548932Y-108967512D01*
X121142329Y-109792051D02*
X121724393Y-109792051D01*
X120562258Y-109211980D02*
X121142329Y-109792051D01*
X119847246Y-109496968D02*
X120132234Y-109211980D01*
X123549935Y-108631023D02*
X124598498Y-108631023D01*
X128378545Y-109086055D02*
X131495800Y-105968800D01*
X124598498Y-108631023D02*
X125053530Y-109086055D01*
X125053530Y-109086055D02*
X128378545Y-109086055D01*
X131495800Y-105968800D02*
X133426200Y-105968800D01*
X119847246Y-110212500D02*
X119847246Y-109496968D01*
%TO.N,/STEPPER_MOSI*%
X124733756Y-108304512D02*
X125188779Y-108759535D01*
X121277574Y-109465540D02*
X121589148Y-109465540D01*
X123380382Y-108304512D02*
X124733756Y-108304512D01*
X119347246Y-109487222D02*
X119650935Y-109183533D01*
X123043893Y-108641001D02*
X123380382Y-108304512D01*
X119682724Y-109183533D02*
X119682724Y-109151744D01*
X119347246Y-110212500D02*
X119347246Y-109487222D01*
X122413687Y-108641001D02*
X123043893Y-108641001D01*
X119873990Y-108960478D02*
X119921980Y-108960478D01*
X119921980Y-108960478D02*
X119996989Y-108885469D01*
X128095465Y-108759535D02*
X132080000Y-104775000D01*
X121589148Y-109465540D02*
X122413687Y-108641001D01*
X120697503Y-108885469D02*
X121277574Y-109465540D01*
X119650935Y-109183533D02*
X119682724Y-109183533D01*
X125188779Y-108759535D02*
X128095465Y-108759535D01*
X119996989Y-108885469D02*
X120697503Y-108885469D01*
X119682724Y-109151744D02*
X119873990Y-108960478D01*
%TO.N,/STEPPER_MISO*%
X129540000Y-105920000D02*
X129540000Y-104775000D01*
X127510000Y-107950000D02*
X129540000Y-105920000D01*
%TO.N,/STEPPER_X_CSn*%
X120347246Y-110212500D02*
X121765700Y-110212500D01*
X127000000Y-106705400D02*
X127254000Y-106959400D01*
X121765700Y-110212500D02*
X122684177Y-109294023D01*
X127000000Y-104775000D02*
X127000000Y-106705400D01*
D44*
X125960600Y-106959400D02*
X127254000Y-106959400D01*
D43*
X122684177Y-109294023D02*
X124067757Y-109294023D01*
D44*
X125605000Y-107315000D02*
X125960600Y-106959400D01*
D43*
%TO.N,/STEPPER_X_STEP*%
X123009599Y-106225401D02*
X124460000Y-104775000D01*
X119611767Y-108232447D02*
X121898729Y-108232447D01*
X121898729Y-108232447D02*
X122143197Y-107987979D01*
X122549597Y-107987979D02*
X123009599Y-107527977D01*
X118347246Y-110212500D02*
X118347246Y-109496968D01*
X118347246Y-109496968D02*
X119611767Y-108232447D01*
X122143197Y-107987979D02*
X122549597Y-107987979D01*
X123009599Y-107527977D02*
X123009599Y-106225401D01*
%TO.N,/STEPPER_X_DIR*%
X122681999Y-105536999D02*
X121920000Y-104775000D01*
X119438278Y-107905936D02*
X121763484Y-107905936D01*
X117847246Y-110212500D02*
X117847246Y-109496968D01*
X122681999Y-106987421D02*
X122681999Y-105536999D01*
X121763484Y-107905936D02*
X122681999Y-106987421D01*
X117847246Y-109496968D02*
X119438278Y-107905936D01*
D45*
%TO.N,/STEPPER_DIAG2*%
X110744000Y-109523333D02*
X110744000Y-107264200D01*
X112667595Y-112125000D02*
X111571277Y-111028682D01*
D43*
X120017000Y-107061000D02*
X120017000Y-106728800D01*
D45*
X111571276Y-110350609D02*
X110744000Y-109523333D01*
D43*
X120243600Y-106451400D02*
X120167400Y-106375200D01*
X120243600Y-106502200D02*
X120243600Y-106451400D01*
D45*
X111571277Y-111028682D02*
X111571276Y-110350609D01*
D43*
X120017000Y-106728800D02*
X120243600Y-106502200D01*
D45*
X113434746Y-112125000D02*
X112667595Y-112125000D01*
%TO.N,/STEPPER_DIAG1*%
X112801400Y-109724503D02*
X112801400Y-109169200D01*
X114201897Y-112625000D02*
X114471766Y-112355131D01*
X113434746Y-112625000D02*
X114201897Y-112625000D01*
D43*
X112801400Y-109169200D02*
X112801400Y-108968000D01*
D45*
X114471766Y-111394869D02*
X112801400Y-109724503D01*
D43*
X112801400Y-108968000D02*
X112039400Y-108206000D01*
D45*
X114471766Y-112355131D02*
X114471766Y-111394869D01*
%TO.N,/STEPPER_X_ENn*%
X113384266Y-113175480D02*
X112776000Y-113175480D01*
D43*
X109933200Y-107797600D02*
X109933200Y-109145800D01*
X118213020Y-105941980D02*
X117952348Y-105941980D01*
D45*
X110879153Y-110223480D02*
X110369889Y-110223480D01*
D43*
X119380000Y-104775000D02*
X118213020Y-105941980D01*
X109933200Y-109145800D02*
X110032800Y-109245400D01*
D45*
X110044499Y-106974456D02*
X110465955Y-106553000D01*
X110369889Y-110223480D02*
X110044499Y-109898090D01*
D43*
X110492000Y-106553000D02*
X111160973Y-105884027D01*
D45*
X110465955Y-106553000D02*
X110492000Y-106553000D01*
X113384266Y-113074520D02*
X112617115Y-113074520D01*
D43*
X111160973Y-105884027D02*
X115663027Y-105884027D01*
X115663027Y-105884027D02*
X115697000Y-105918000D01*
D45*
X112617115Y-113074520D02*
X111171766Y-111629171D01*
X111171766Y-110516093D02*
X110879153Y-110223480D01*
X110044499Y-109898090D02*
X110044499Y-106974456D01*
X111171766Y-111629171D02*
X111171766Y-110516093D01*
D43*
%TO.N,/STEPPER DRIVER X/TMC5160_CPI*%
X111192620Y-114339620D02*
X110619600Y-113766600D01*
X113434746Y-115125000D02*
X112584986Y-115125000D01*
X112584986Y-115125000D02*
X111799606Y-114339620D01*
X111799606Y-114339620D02*
X111192620Y-114339620D01*
D44*
%TO.N,Net-(C9-Pad1)*%
X112497875Y-113625000D02*
X111394875Y-112522000D01*
X113434746Y-113625000D02*
X112497875Y-113625000D01*
X111394875Y-112522000D02*
X110503000Y-112522000D01*
X110503000Y-112522000D02*
X110503000Y-111028754D01*
%TO.N,Net-(C10-Pad2)*%
X107336500Y-115367762D02*
X107336500Y-114503200D01*
X111633342Y-116636458D02*
X108605196Y-116636458D01*
X112144800Y-116125000D02*
X111633342Y-116636458D01*
X113434746Y-116125000D02*
X112144800Y-116125000D01*
X108605196Y-116636458D02*
X107336500Y-115367762D01*
D49*
%TO.N,/STEPPER DRIVER X/5VOUT*%
X125881031Y-113829031D02*
X124314471Y-113829031D01*
D46*
X122619000Y-115125000D02*
X122874263Y-114869737D01*
D42*
X113641500Y-107696000D02*
X113641500Y-108942500D01*
D49*
X126479000Y-114427000D02*
X125881031Y-113829031D01*
D46*
X122874263Y-114698873D02*
X124029288Y-113543848D01*
X121759746Y-115125000D02*
X122619000Y-115125000D01*
D42*
X113641500Y-108942500D02*
X113919000Y-109220000D01*
D44*
X108822246Y-110998000D02*
X107924600Y-110998000D01*
D46*
X122874263Y-114869737D02*
X122874263Y-114698873D01*
D49*
X124314471Y-113829031D02*
X124029288Y-113543848D01*
D46*
%TO.N,+12V*%
X131142200Y-114577400D02*
X131165600Y-114554000D01*
X128422400Y-116306600D02*
X128473200Y-116255800D01*
X131142200Y-115493800D02*
X131142200Y-114577400D01*
X127637000Y-116306600D02*
X128422400Y-116306600D01*
%TO.N,/STEPPER DRIVER X/VSA*%
X124066599Y-115230701D02*
X129060858Y-115230701D01*
X129060858Y-115230701D02*
X129323957Y-115493800D01*
X121759746Y-115625000D02*
X123672300Y-115625000D01*
X130147600Y-116484400D02*
X130147600Y-115519200D01*
X129323957Y-115493800D02*
X130122200Y-115493800D01*
X123672300Y-115625000D02*
X124066599Y-115230701D01*
D43*
%TO.N,Net-(R13-Pad1)*%
X119487192Y-108857022D02*
X118847246Y-109496968D01*
X120832748Y-108558958D02*
X119861744Y-108558958D01*
X121429119Y-109107339D02*
X121309491Y-108987711D01*
X118847246Y-109496968D02*
X118847246Y-110212500D01*
X126490000Y-107950000D02*
X123176332Y-107950000D01*
X123176332Y-107950000D02*
X122811842Y-108314490D01*
X122811842Y-108314490D02*
X122278442Y-108314490D01*
X121485593Y-109107339D02*
X121429119Y-109107339D01*
X119738745Y-108633967D02*
X119515690Y-108857022D01*
X121261501Y-108987711D02*
X120832748Y-108558958D01*
X119861744Y-108558958D02*
X119786735Y-108633967D01*
X119786735Y-108633967D02*
X119738745Y-108633967D01*
X119515690Y-108857022D02*
X119487192Y-108857022D01*
X121309491Y-108987711D02*
X121261501Y-108987711D01*
X122278442Y-108314490D02*
X121485593Y-109107339D01*
%TD*%
%TA.AperFunction,Conductor*%
%TO.N,VCC*%
G36*
X118355563Y-140000562D02*
G01*
X118444531Y-140027762D01*
X118445559Y-140028082D01*
X118534306Y-140056235D01*
X118539602Y-140056829D01*
X118544698Y-140058387D01*
X118637257Y-140067790D01*
X118638393Y-140067911D01*
X118672008Y-140071681D01*
X118684730Y-140073108D01*
X118684734Y-140073108D01*
X118688227Y-140073500D01*
X118691754Y-140073500D01*
X118692739Y-140073555D01*
X118698419Y-140074002D01*
X118727825Y-140076989D01*
X118735337Y-140077752D01*
X118735339Y-140077752D01*
X118741462Y-140078374D01*
X118787108Y-140074059D01*
X118798967Y-140073500D01*
X119782293Y-140073500D01*
X119838569Y-140089451D01*
X119839395Y-140087680D01*
X119846032Y-140090775D01*
X119852262Y-140094615D01*
X119932005Y-140121064D01*
X120013611Y-140148132D01*
X120013613Y-140148132D01*
X120020139Y-140150297D01*
X120026975Y-140150997D01*
X120026978Y-140150998D01*
X120070031Y-140155409D01*
X120124600Y-140161000D01*
X121175400Y-140161000D01*
X121178646Y-140160663D01*
X121178650Y-140160663D01*
X121274308Y-140150738D01*
X121274312Y-140150737D01*
X121281166Y-140150026D01*
X121287702Y-140147845D01*
X121287704Y-140147845D01*
X121419806Y-140103772D01*
X121448946Y-140094050D01*
X121506577Y-140058387D01*
X121570458Y-140018856D01*
X121636761Y-140000000D01*
X135255500Y-140000000D01*
X135323621Y-140020002D01*
X135370114Y-140073658D01*
X135381500Y-140126000D01*
X135381500Y-142909820D01*
X135361498Y-142977941D01*
X135307842Y-143024434D01*
X135237568Y-143034538D01*
X135202250Y-143024015D01*
X135066818Y-142960862D01*
X135066817Y-142960861D01*
X135061836Y-142958539D01*
X135056528Y-142957117D01*
X135056526Y-142957116D01*
X134854564Y-142903001D01*
X134854563Y-142903001D01*
X134849249Y-142901577D01*
X134630000Y-142882395D01*
X134410751Y-142901577D01*
X134405437Y-142903001D01*
X134405436Y-142903001D01*
X134203474Y-142957116D01*
X134203472Y-142957117D01*
X134198164Y-142958539D01*
X134193184Y-142960861D01*
X134193182Y-142960862D01*
X134003679Y-143049229D01*
X134003676Y-143049231D01*
X133998698Y-143051552D01*
X133818413Y-143177788D01*
X133662788Y-143333413D01*
X133536552Y-143513698D01*
X133534231Y-143518676D01*
X133534229Y-143518679D01*
X133481201Y-143632398D01*
X133434283Y-143685683D01*
X133366006Y-143705144D01*
X133298046Y-143684602D01*
X133252811Y-143632398D01*
X133196814Y-143512311D01*
X133196811Y-143512306D01*
X133194488Y-143507324D01*
X133075874Y-143337925D01*
X133070136Y-143329730D01*
X133070134Y-143329727D01*
X133066977Y-143325219D01*
X132909781Y-143168023D01*
X132905273Y-143164866D01*
X132905270Y-143164864D01*
X132747949Y-143054707D01*
X132727677Y-143040512D01*
X132722695Y-143038189D01*
X132722690Y-143038186D01*
X132531178Y-142948883D01*
X132531177Y-142948882D01*
X132526196Y-142946560D01*
X132520888Y-142945138D01*
X132520886Y-142945137D01*
X132455051Y-142927497D01*
X132311463Y-142889022D01*
X132090000Y-142869647D01*
X131868537Y-142889022D01*
X131724949Y-142927497D01*
X131659114Y-142945137D01*
X131659112Y-142945138D01*
X131653804Y-142946560D01*
X131648823Y-142948882D01*
X131648822Y-142948883D01*
X131457311Y-143038186D01*
X131457306Y-143038189D01*
X131452324Y-143040512D01*
X131447817Y-143043668D01*
X131447815Y-143043669D01*
X131274730Y-143164864D01*
X131274727Y-143164866D01*
X131270219Y-143168023D01*
X131113023Y-143325219D01*
X131109866Y-143329727D01*
X131109864Y-143329730D01*
X131104126Y-143337925D01*
X130985512Y-143507324D01*
X130983189Y-143512306D01*
X130983186Y-143512311D01*
X130934195Y-143617373D01*
X130887277Y-143670658D01*
X130819000Y-143690119D01*
X130751040Y-143669577D01*
X130705805Y-143617373D01*
X130656814Y-143512311D01*
X130656811Y-143512306D01*
X130654488Y-143507324D01*
X130535874Y-143337925D01*
X130530136Y-143329730D01*
X130530134Y-143329727D01*
X130526977Y-143325219D01*
X130369781Y-143168023D01*
X130365273Y-143164866D01*
X130365270Y-143164864D01*
X130207949Y-143054707D01*
X130187677Y-143040512D01*
X130182695Y-143038189D01*
X130182690Y-143038186D01*
X129991178Y-142948883D01*
X129991177Y-142948882D01*
X129986196Y-142946560D01*
X129980888Y-142945138D01*
X129980886Y-142945137D01*
X129915051Y-142927497D01*
X129771463Y-142889022D01*
X129550000Y-142869647D01*
X129328537Y-142889022D01*
X129184949Y-142927497D01*
X129119114Y-142945137D01*
X129119112Y-142945138D01*
X129113804Y-142946560D01*
X129108823Y-142948882D01*
X129108822Y-142948883D01*
X128917311Y-143038186D01*
X128917306Y-143038189D01*
X128912324Y-143040512D01*
X128907817Y-143043668D01*
X128907815Y-143043669D01*
X128734730Y-143164864D01*
X128734727Y-143164866D01*
X128730219Y-143168023D01*
X128573023Y-143325219D01*
X128569866Y-143329727D01*
X128569864Y-143329730D01*
X128564126Y-143337925D01*
X128445512Y-143507324D01*
X128443189Y-143512306D01*
X128443186Y-143512311D01*
X128394195Y-143617373D01*
X128347277Y-143670658D01*
X128279000Y-143690119D01*
X128211040Y-143669577D01*
X128165805Y-143617373D01*
X128116814Y-143512311D01*
X128116811Y-143512306D01*
X128114488Y-143507324D01*
X127995874Y-143337925D01*
X127990136Y-143329730D01*
X127990134Y-143329727D01*
X127986977Y-143325219D01*
X127829781Y-143168023D01*
X127825273Y-143164866D01*
X127825270Y-143164864D01*
X127667949Y-143054707D01*
X127647677Y-143040512D01*
X127642695Y-143038189D01*
X127642690Y-143038186D01*
X127451178Y-142948883D01*
X127451177Y-142948882D01*
X127446196Y-142946560D01*
X127440888Y-142945138D01*
X127440886Y-142945137D01*
X127375051Y-142927497D01*
X127231463Y-142889022D01*
X127010000Y-142869647D01*
X126788537Y-142889022D01*
X126644949Y-142927497D01*
X126579114Y-142945137D01*
X126579112Y-142945138D01*
X126573804Y-142946560D01*
X126568823Y-142948882D01*
X126568822Y-142948883D01*
X126377311Y-143038186D01*
X126377306Y-143038189D01*
X126372324Y-143040512D01*
X126367817Y-143043668D01*
X126367815Y-143043669D01*
X126194730Y-143164864D01*
X126194727Y-143164866D01*
X126190219Y-143168023D01*
X126033023Y-143325219D01*
X126029866Y-143329727D01*
X126029864Y-143329730D01*
X126024126Y-143337925D01*
X125905512Y-143507324D01*
X125903189Y-143512306D01*
X125903186Y-143512311D01*
X125854195Y-143617373D01*
X125807277Y-143670658D01*
X125739000Y-143690119D01*
X125671040Y-143669577D01*
X125625805Y-143617373D01*
X125576814Y-143512311D01*
X125576811Y-143512306D01*
X125574488Y-143507324D01*
X125455874Y-143337925D01*
X125450136Y-143329730D01*
X125450134Y-143329727D01*
X125446977Y-143325219D01*
X125289781Y-143168023D01*
X125285273Y-143164866D01*
X125285270Y-143164864D01*
X125127949Y-143054707D01*
X125107677Y-143040512D01*
X125102695Y-143038189D01*
X125102690Y-143038186D01*
X124911178Y-142948883D01*
X124911177Y-142948882D01*
X124906196Y-142946560D01*
X124900888Y-142945138D01*
X124900886Y-142945137D01*
X124835051Y-142927497D01*
X124691463Y-142889022D01*
X124470000Y-142869647D01*
X124248537Y-142889022D01*
X124104949Y-142927497D01*
X124039114Y-142945137D01*
X124039112Y-142945138D01*
X124033804Y-142946560D01*
X124028823Y-142948882D01*
X124028822Y-142948883D01*
X123837311Y-143038186D01*
X123837306Y-143038189D01*
X123832324Y-143040512D01*
X123827817Y-143043668D01*
X123827815Y-143043669D01*
X123654730Y-143164864D01*
X123654727Y-143164866D01*
X123650219Y-143168023D01*
X123493023Y-143325219D01*
X123489866Y-143329727D01*
X123489864Y-143329730D01*
X123484126Y-143337925D01*
X123365512Y-143507324D01*
X123363189Y-143512306D01*
X123363186Y-143512311D01*
X123314195Y-143617373D01*
X123267277Y-143670658D01*
X123199000Y-143690119D01*
X123131040Y-143669577D01*
X123085805Y-143617373D01*
X123036814Y-143512311D01*
X123036811Y-143512306D01*
X123034488Y-143507324D01*
X122915874Y-143337925D01*
X122910136Y-143329730D01*
X122910134Y-143329727D01*
X122906977Y-143325219D01*
X122749781Y-143168023D01*
X122745273Y-143164866D01*
X122745270Y-143164864D01*
X122587949Y-143054707D01*
X122567677Y-143040512D01*
X122562695Y-143038189D01*
X122562690Y-143038186D01*
X122371178Y-142948883D01*
X122371177Y-142948882D01*
X122366196Y-142946560D01*
X122360888Y-142945138D01*
X122360886Y-142945137D01*
X122295051Y-142927497D01*
X122151463Y-142889022D01*
X121930000Y-142869647D01*
X121708537Y-142889022D01*
X121564949Y-142927497D01*
X121499114Y-142945137D01*
X121499112Y-142945138D01*
X121493804Y-142946560D01*
X121488823Y-142948882D01*
X121488822Y-142948883D01*
X121297311Y-143038186D01*
X121297306Y-143038189D01*
X121292324Y-143040512D01*
X121287817Y-143043668D01*
X121287815Y-143043669D01*
X121114730Y-143164864D01*
X121114727Y-143164866D01*
X121110219Y-143168023D01*
X120953023Y-143325219D01*
X120949866Y-143329727D01*
X120949864Y-143329730D01*
X120944126Y-143337925D01*
X120825512Y-143507324D01*
X120823189Y-143512306D01*
X120823186Y-143512311D01*
X120774195Y-143617373D01*
X120727277Y-143670658D01*
X120659000Y-143690119D01*
X120591040Y-143669577D01*
X120545805Y-143617373D01*
X120496814Y-143512311D01*
X120496811Y-143512306D01*
X120494488Y-143507324D01*
X120375874Y-143337925D01*
X120370136Y-143329730D01*
X120370134Y-143329727D01*
X120366977Y-143325219D01*
X120209781Y-143168023D01*
X120205273Y-143164866D01*
X120205270Y-143164864D01*
X120047949Y-143054707D01*
X120027677Y-143040512D01*
X120022695Y-143038189D01*
X120022690Y-143038186D01*
X119831178Y-142948883D01*
X119831177Y-142948882D01*
X119826196Y-142946560D01*
X119820888Y-142945138D01*
X119820886Y-142945137D01*
X119755051Y-142927497D01*
X119611463Y-142889022D01*
X119390000Y-142869647D01*
X119168537Y-142889022D01*
X119024949Y-142927497D01*
X118959114Y-142945137D01*
X118959112Y-142945138D01*
X118953804Y-142946560D01*
X118948823Y-142948882D01*
X118948822Y-142948883D01*
X118757311Y-143038186D01*
X118757306Y-143038189D01*
X118752324Y-143040512D01*
X118747817Y-143043668D01*
X118747815Y-143043669D01*
X118574730Y-143164864D01*
X118574727Y-143164866D01*
X118570219Y-143168023D01*
X118413023Y-143325219D01*
X118409866Y-143329727D01*
X118409864Y-143329730D01*
X118404126Y-143337925D01*
X118285512Y-143507324D01*
X118283189Y-143512306D01*
X118283186Y-143512311D01*
X118234195Y-143617373D01*
X118187277Y-143670658D01*
X118119000Y-143690119D01*
X118051040Y-143669577D01*
X118005805Y-143617373D01*
X117956814Y-143512311D01*
X117956811Y-143512306D01*
X117954488Y-143507324D01*
X117835874Y-143337925D01*
X117830136Y-143329730D01*
X117830134Y-143329727D01*
X117826977Y-143325219D01*
X117669781Y-143168023D01*
X117665273Y-143164866D01*
X117665270Y-143164864D01*
X117507949Y-143054707D01*
X117487677Y-143040512D01*
X117482695Y-143038189D01*
X117482690Y-143038186D01*
X117291178Y-142948883D01*
X117291177Y-142948882D01*
X117286196Y-142946560D01*
X117280888Y-142945138D01*
X117280886Y-142945137D01*
X117215051Y-142927497D01*
X117071463Y-142889022D01*
X116986810Y-142881616D01*
X116897246Y-142873780D01*
X116897246Y-140560989D01*
X117362829Y-140095405D01*
X117425142Y-140061380D01*
X117451925Y-140058500D01*
X117920400Y-140058500D01*
X117923646Y-140058163D01*
X117923650Y-140058163D01*
X118019308Y-140048238D01*
X118019312Y-140048237D01*
X118026166Y-140047526D01*
X118032702Y-140045345D01*
X118032704Y-140045345D01*
X118126711Y-140013982D01*
X118168618Y-140000000D01*
X118354515Y-140000000D01*
X118355563Y-140000562D01*
G37*
%TD.AperFunction*%
%TD*%
%TA.AperFunction,Conductor*%
%TO.N,/STEPPER DRIVER X/hbridge_A2/hbridge_low_side*%
G36*
X130789996Y-122637672D02*
G01*
X131428843Y-122650246D01*
X131496557Y-122671585D01*
X131541985Y-122726145D01*
X131545888Y-122736345D01*
X131578450Y-122833946D01*
X131671522Y-122984348D01*
X131676704Y-122989521D01*
X131758109Y-123070784D01*
X131792188Y-123133066D01*
X131787185Y-123203886D01*
X131758264Y-123248975D01*
X131670695Y-123336697D01*
X131577885Y-123487262D01*
X131575581Y-123494209D01*
X131550111Y-123571000D01*
X131522203Y-123655139D01*
X131511500Y-123759600D01*
X131511500Y-124385400D01*
X131511837Y-124388646D01*
X131511837Y-124388650D01*
X131521264Y-124479500D01*
X131522474Y-124491166D01*
X131578450Y-124658946D01*
X131671522Y-124809348D01*
X131796697Y-124934305D01*
X131947262Y-125027115D01*
X132053582Y-125062379D01*
X132111941Y-125102809D01*
X132139178Y-125168373D01*
X132134911Y-125217124D01*
X132114394Y-125287746D01*
X132111500Y-125324516D01*
X132111500Y-125585138D01*
X132091498Y-125653259D01*
X132059562Y-125687073D01*
X132043594Y-125698675D01*
X132038247Y-125702560D01*
X131910460Y-125844482D01*
X131907159Y-125850200D01*
X131831988Y-125980400D01*
X131814973Y-126009870D01*
X131755958Y-126191498D01*
X131755268Y-126198059D01*
X131755268Y-126198061D01*
X131749521Y-126252738D01*
X131735996Y-126381426D01*
X131736686Y-126387991D01*
X131751539Y-126529305D01*
X131755958Y-126571354D01*
X131814973Y-126752982D01*
X131910460Y-126918370D01*
X131914878Y-126923277D01*
X131914879Y-126923278D01*
X131931262Y-126941473D01*
X132038247Y-127060292D01*
X132192748Y-127172544D01*
X132198776Y-127175228D01*
X132198778Y-127175229D01*
X132361181Y-127247535D01*
X132367212Y-127250220D01*
X132460613Y-127270073D01*
X132547556Y-127288554D01*
X132547561Y-127288554D01*
X132554013Y-127289926D01*
X132744987Y-127289926D01*
X132751439Y-127288554D01*
X132751444Y-127288554D01*
X132931788Y-127250220D01*
X132932215Y-127252227D01*
X132993495Y-127250478D01*
X133054292Y-127287142D01*
X133085615Y-127350855D01*
X133087460Y-127372338D01*
X133087460Y-128773017D01*
X133067458Y-128841138D01*
X133050555Y-128862113D01*
X132923071Y-128989596D01*
X132860759Y-129023621D01*
X132833976Y-129026500D01*
X129428523Y-129026500D01*
X129360402Y-129006498D01*
X129339427Y-128989595D01*
X128960404Y-128610571D01*
X128926379Y-128548259D01*
X128923500Y-128521476D01*
X128923500Y-127393498D01*
X128920562Y-127356169D01*
X128874145Y-127196399D01*
X128795948Y-127064175D01*
X128793491Y-127060020D01*
X128793489Y-127060017D01*
X128789453Y-127053193D01*
X128671807Y-126935547D01*
X128664983Y-126931511D01*
X128664980Y-126931509D01*
X128535427Y-126854892D01*
X128535428Y-126854892D01*
X128528601Y-126850855D01*
X128520990Y-126848644D01*
X128520988Y-126848643D01*
X128468769Y-126833472D01*
X128368831Y-126804438D01*
X128362426Y-126803934D01*
X128362421Y-126803933D01*
X128333958Y-126801693D01*
X128333950Y-126801693D01*
X128331502Y-126801500D01*
X127898498Y-126801500D01*
X127896050Y-126801693D01*
X127896042Y-126801693D01*
X127867579Y-126803933D01*
X127867574Y-126803934D01*
X127861169Y-126804438D01*
X127761231Y-126833472D01*
X127709012Y-126848643D01*
X127709010Y-126848644D01*
X127701399Y-126850855D01*
X127694572Y-126854892D01*
X127694573Y-126854892D01*
X127565020Y-126931509D01*
X127565017Y-126931511D01*
X127558193Y-126935547D01*
X127440547Y-127053193D01*
X127436511Y-127060017D01*
X127436509Y-127060020D01*
X127434052Y-127064175D01*
X127355855Y-127196399D01*
X127309438Y-127356169D01*
X127306500Y-127393498D01*
X127306500Y-129176502D01*
X127306693Y-129178950D01*
X127306693Y-129178958D01*
X127307067Y-129183701D01*
X127309438Y-129213831D01*
X127316706Y-129238848D01*
X127316503Y-129309843D01*
X127277950Y-129369459D01*
X127213285Y-129398768D01*
X127195709Y-129400000D01*
X123534291Y-129400000D01*
X123466170Y-129379998D01*
X123419677Y-129326342D01*
X123409573Y-129256068D01*
X123413292Y-129238853D01*
X123420562Y-129213831D01*
X123422934Y-129183701D01*
X123423307Y-129178958D01*
X123423307Y-129178950D01*
X123423500Y-129176502D01*
X123423500Y-127393498D01*
X123420562Y-127356169D01*
X123374145Y-127196399D01*
X123295948Y-127064175D01*
X123293491Y-127060020D01*
X123293489Y-127060017D01*
X123289453Y-127053193D01*
X123243669Y-127007409D01*
X123209643Y-126945097D01*
X123214708Y-126874282D01*
X123259325Y-126815929D01*
X123272843Y-126806233D01*
X123430798Y-126692935D01*
X123497806Y-126669485D01*
X123536761Y-126674762D01*
X123536884Y-126674190D01*
X123543616Y-126675633D01*
X123550139Y-126677797D01*
X123556972Y-126678497D01*
X123556976Y-126678498D01*
X123612852Y-126684222D01*
X123654600Y-126688500D01*
X124480400Y-126688500D01*
X124483646Y-126688163D01*
X124483650Y-126688163D01*
X124579308Y-126678238D01*
X124579312Y-126678237D01*
X124586166Y-126677526D01*
X124592702Y-126675345D01*
X124592704Y-126675345D01*
X124746998Y-126623868D01*
X124753946Y-126621550D01*
X124904348Y-126528478D01*
X125029305Y-126403303D01*
X125034967Y-126394118D01*
X125118275Y-126258968D01*
X125118276Y-126258966D01*
X125122115Y-126252738D01*
X125177797Y-126084861D01*
X125188500Y-125980400D01*
X125188500Y-125496851D01*
X125208502Y-125428730D01*
X125241061Y-125394466D01*
X127515827Y-123762817D01*
X129095963Y-122629414D01*
X129162973Y-122605964D01*
X129171872Y-122605824D01*
X130789996Y-122637672D01*
G37*
%TD.AperFunction*%
%TD*%
%TA.AperFunction,Conductor*%
%TO.N,/STEPPER_COIL_A2*%
G36*
X109939367Y-127320002D02*
G01*
X109985860Y-127373658D01*
X109997246Y-127426000D01*
X109997246Y-136174000D01*
X109977244Y-136242121D01*
X109923588Y-136288614D01*
X109871246Y-136300000D01*
X104072841Y-136300000D01*
X104004720Y-136279998D01*
X103958227Y-136226342D01*
X103948123Y-136156068D01*
X103955339Y-136129852D01*
X103955562Y-136129437D01*
X103982762Y-136040469D01*
X103983108Y-136039358D01*
X103990391Y-136016400D01*
X104030056Y-135957516D01*
X104095258Y-135929424D01*
X104110493Y-135928500D01*
X104170400Y-135928500D01*
X104173646Y-135928163D01*
X104173650Y-135928163D01*
X104269308Y-135918238D01*
X104269312Y-135918237D01*
X104276166Y-135917526D01*
X104282702Y-135915345D01*
X104282704Y-135915345D01*
X104436998Y-135863868D01*
X104443946Y-135861550D01*
X104594348Y-135768478D01*
X104719305Y-135643303D01*
X104812115Y-135492738D01*
X104867797Y-135324861D01*
X104878500Y-135220400D01*
X104878500Y-134469600D01*
X104867526Y-134363834D01*
X104867611Y-134363825D01*
X104872567Y-134295981D01*
X104915201Y-134239210D01*
X104981758Y-134214501D01*
X105051109Y-134229697D01*
X105057874Y-134234134D01*
X105058193Y-134234453D01*
X105201399Y-134319145D01*
X105209010Y-134321356D01*
X105209012Y-134321357D01*
X105261231Y-134336528D01*
X105361169Y-134365562D01*
X105367574Y-134366066D01*
X105367579Y-134366067D01*
X105396042Y-134368307D01*
X105396050Y-134368307D01*
X105398498Y-134368500D01*
X105831502Y-134368500D01*
X105833950Y-134368307D01*
X105833958Y-134368307D01*
X105862421Y-134366067D01*
X105862426Y-134366066D01*
X105868831Y-134365562D01*
X105968769Y-134336528D01*
X106020988Y-134321357D01*
X106020990Y-134321356D01*
X106028601Y-134319145D01*
X106067769Y-134295981D01*
X106164980Y-134238491D01*
X106164983Y-134238489D01*
X106171807Y-134234453D01*
X106289453Y-134116807D01*
X106293489Y-134109983D01*
X106293491Y-134109980D01*
X106370108Y-133980427D01*
X106374145Y-133973601D01*
X106420562Y-133813831D01*
X106421068Y-133807413D01*
X106423307Y-133778958D01*
X106423307Y-133778950D01*
X106423500Y-133776502D01*
X106423500Y-131993498D01*
X106420562Y-131956169D01*
X106374145Y-131796399D01*
X106301500Y-131673563D01*
X106293491Y-131660020D01*
X106293489Y-131660017D01*
X106289453Y-131653193D01*
X106171807Y-131535547D01*
X106164983Y-131531511D01*
X106164980Y-131531509D01*
X106035427Y-131454892D01*
X106035428Y-131454892D01*
X106028601Y-131450855D01*
X106020990Y-131448644D01*
X106020988Y-131448643D01*
X105968769Y-131433472D01*
X105868831Y-131404438D01*
X105862426Y-131403934D01*
X105862421Y-131403933D01*
X105833958Y-131401693D01*
X105833950Y-131401693D01*
X105831502Y-131401500D01*
X105398498Y-131401500D01*
X105396050Y-131401693D01*
X105396042Y-131401693D01*
X105367579Y-131403933D01*
X105367574Y-131403934D01*
X105361169Y-131404438D01*
X105261231Y-131433472D01*
X105209012Y-131448643D01*
X105209010Y-131448644D01*
X105201399Y-131450855D01*
X105118637Y-131499801D01*
X105049823Y-131517259D01*
X104982492Y-131494742D01*
X104938022Y-131439398D01*
X104928500Y-131391346D01*
X104928500Y-130934600D01*
X104917526Y-130828834D01*
X104861550Y-130661054D01*
X104768478Y-130510652D01*
X104643303Y-130385695D01*
X104492738Y-130292885D01*
X104355083Y-130247227D01*
X104331389Y-130239368D01*
X104331387Y-130239368D01*
X104324861Y-130237203D01*
X104318025Y-130236503D01*
X104318022Y-130236502D01*
X104274969Y-130232091D01*
X104220400Y-130226500D01*
X102819600Y-130226500D01*
X102816354Y-130226837D01*
X102816350Y-130226837D01*
X102720692Y-130236762D01*
X102720688Y-130236763D01*
X102713834Y-130237474D01*
X102707292Y-130239657D01*
X102707290Y-130239657D01*
X102671363Y-130251643D01*
X102600413Y-130254228D01*
X102580241Y-130247229D01*
X102426788Y-130178907D01*
X102333388Y-130159054D01*
X102246444Y-130140573D01*
X102246439Y-130140573D01*
X102239987Y-130139201D01*
X102049013Y-130139201D01*
X102042561Y-130140573D01*
X102042556Y-130140573D01*
X101957620Y-130158627D01*
X101877695Y-130175616D01*
X101806907Y-130170214D01*
X101750274Y-130127397D01*
X101725780Y-130060760D01*
X101725500Y-130052369D01*
X101725500Y-127426000D01*
X101745502Y-127357879D01*
X101799158Y-127311386D01*
X101851500Y-127300000D01*
X109871246Y-127300000D01*
X109939367Y-127320002D01*
G37*
%TD.AperFunction*%
%TD*%
%TA.AperFunction,Conductor*%
%TO.N,/STEPPER_COIL_A1*%
G36*
X110861683Y-127207502D02*
G01*
X110873998Y-127217748D01*
X110874528Y-127217107D01*
X110908605Y-127245298D01*
X110917384Y-127253288D01*
X111016343Y-127352247D01*
X111023887Y-127360537D01*
X111028000Y-127367018D01*
X111033777Y-127372443D01*
X111077667Y-127413658D01*
X111080509Y-127416413D01*
X111100230Y-127436134D01*
X111103425Y-127438612D01*
X111112447Y-127446318D01*
X111144679Y-127476586D01*
X111151628Y-127480406D01*
X111162432Y-127486346D01*
X111178956Y-127497199D01*
X111194959Y-127509613D01*
X111235543Y-127527176D01*
X111246173Y-127532383D01*
X111284940Y-127553695D01*
X111292617Y-127555666D01*
X111292622Y-127555668D01*
X111304558Y-127558732D01*
X111323266Y-127565137D01*
X111341855Y-127573181D01*
X111349680Y-127574420D01*
X111349682Y-127574421D01*
X111385519Y-127580097D01*
X111397140Y-127582504D01*
X111428959Y-127590673D01*
X111439970Y-127593500D01*
X111460231Y-127593500D01*
X111479940Y-127595051D01*
X111499943Y-127598219D01*
X111507835Y-127597473D01*
X111513062Y-127596979D01*
X111543954Y-127594059D01*
X111555811Y-127593500D01*
X115141233Y-127593500D01*
X115152416Y-127594027D01*
X115159909Y-127595702D01*
X115167835Y-127595453D01*
X115167836Y-127595453D01*
X115227986Y-127593562D01*
X115231945Y-127593500D01*
X115259856Y-127593500D01*
X115263791Y-127593003D01*
X115263856Y-127592995D01*
X115275693Y-127592062D01*
X115307951Y-127591048D01*
X115311970Y-127590922D01*
X115319889Y-127590673D01*
X115339343Y-127585021D01*
X115358700Y-127581013D01*
X115370930Y-127579468D01*
X115370931Y-127579468D01*
X115378797Y-127578474D01*
X115386168Y-127575555D01*
X115386170Y-127575555D01*
X115419912Y-127562196D01*
X115431142Y-127558351D01*
X115465983Y-127548229D01*
X115465984Y-127548229D01*
X115473593Y-127546018D01*
X115480412Y-127541985D01*
X115480417Y-127541983D01*
X115491028Y-127535707D01*
X115508776Y-127527012D01*
X115527617Y-127519552D01*
X115547987Y-127504753D01*
X115563387Y-127493564D01*
X115573307Y-127487048D01*
X115604535Y-127468580D01*
X115604538Y-127468578D01*
X115611362Y-127464542D01*
X115625683Y-127450221D01*
X115640717Y-127437380D01*
X115642432Y-127436134D01*
X115657107Y-127425472D01*
X115685298Y-127391395D01*
X115693288Y-127382616D01*
X115717247Y-127358657D01*
X115725537Y-127351113D01*
X115732018Y-127347000D01*
X115753085Y-127324566D01*
X115770874Y-127308883D01*
X115791956Y-127293566D01*
X115801877Y-127287049D01*
X115833107Y-127268580D01*
X115833110Y-127268578D01*
X115839934Y-127264542D01*
X115854255Y-127250221D01*
X115869289Y-127237380D01*
X115885679Y-127225472D01*
X115889232Y-127221177D01*
X115951645Y-127189599D01*
X115974550Y-127187500D01*
X116115641Y-127187500D01*
X116183762Y-127207502D01*
X116230255Y-127261158D01*
X116240359Y-127331432D01*
X116210865Y-127396012D01*
X116204815Y-127402517D01*
X116187996Y-127419366D01*
X116170695Y-127436697D01*
X116166855Y-127442927D01*
X116166854Y-127442928D01*
X116082302Y-127580097D01*
X116077885Y-127587262D01*
X116022203Y-127755139D01*
X116011500Y-127859600D01*
X116011500Y-128265043D01*
X116007444Y-128293540D01*
X116007299Y-128293875D01*
X116006058Y-128301709D01*
X116006057Y-128301713D01*
X116000381Y-128337544D01*
X115997975Y-128349164D01*
X115986980Y-128391990D01*
X115986980Y-128412244D01*
X115985429Y-128431954D01*
X115982260Y-128451963D01*
X115983006Y-128459855D01*
X115986421Y-128495981D01*
X115986980Y-128507839D01*
X115986980Y-130058851D01*
X115986453Y-130070034D01*
X115984778Y-130077527D01*
X115985027Y-130085453D01*
X115985027Y-130085454D01*
X115986918Y-130145604D01*
X115986980Y-130149563D01*
X115986980Y-130177474D01*
X115987477Y-130181408D01*
X115987477Y-130181409D01*
X115987485Y-130181474D01*
X115988418Y-130193311D01*
X115989807Y-130237507D01*
X115992075Y-130245312D01*
X115995458Y-130256957D01*
X115999467Y-130276318D01*
X116002006Y-130296415D01*
X116004925Y-130303786D01*
X116004925Y-130303788D01*
X116018284Y-130337530D01*
X116022129Y-130348760D01*
X116034462Y-130391211D01*
X116038495Y-130398030D01*
X116038497Y-130398035D01*
X116044773Y-130408646D01*
X116053468Y-130426394D01*
X116060928Y-130445235D01*
X116065590Y-130451651D01*
X116065590Y-130451652D01*
X116086916Y-130481005D01*
X116093432Y-130490925D01*
X116115938Y-130528980D01*
X116121544Y-130534587D01*
X116130260Y-130543303D01*
X116143100Y-130558336D01*
X116155008Y-130574725D01*
X116161115Y-130579777D01*
X116189073Y-130602906D01*
X116197854Y-130610896D01*
X116439215Y-130852258D01*
X116446749Y-130860537D01*
X116450862Y-130867018D01*
X116500514Y-130913644D01*
X116503356Y-130916399D01*
X116523092Y-130936135D01*
X116526289Y-130938615D01*
X116535309Y-130946318D01*
X116567541Y-130976586D01*
X116574487Y-130980405D01*
X116574490Y-130980407D01*
X116585296Y-130986348D01*
X116601815Y-130997199D01*
X116617821Y-131009614D01*
X116625090Y-131012759D01*
X116625094Y-131012762D01*
X116658399Y-131027174D01*
X116669049Y-131032391D01*
X116707802Y-131053695D01*
X116715477Y-131055666D01*
X116715478Y-131055666D01*
X116727424Y-131058733D01*
X116746129Y-131065137D01*
X116764717Y-131073181D01*
X116772540Y-131074420D01*
X116772550Y-131074423D01*
X116808386Y-131080099D01*
X116820006Y-131082505D01*
X116855151Y-131091528D01*
X116862832Y-131093500D01*
X116883086Y-131093500D01*
X116902796Y-131095051D01*
X116922805Y-131098220D01*
X116930697Y-131097474D01*
X116966823Y-131094059D01*
X116978681Y-131093500D01*
X117460500Y-131093500D01*
X117528621Y-131113502D01*
X117575114Y-131167158D01*
X117586500Y-131219500D01*
X117586500Y-131495513D01*
X117566498Y-131563634D01*
X117549595Y-131584609D01*
X117227742Y-131906461D01*
X117219463Y-131913995D01*
X117212982Y-131918108D01*
X117166357Y-131967759D01*
X117163602Y-131970601D01*
X117143865Y-131990338D01*
X117141385Y-131993535D01*
X117133682Y-132002555D01*
X117103414Y-132034787D01*
X117099595Y-132041733D01*
X117099593Y-132041736D01*
X117093652Y-132052542D01*
X117082801Y-132069061D01*
X117070386Y-132085067D01*
X117067241Y-132092336D01*
X117067238Y-132092340D01*
X117052826Y-132125645D01*
X117047609Y-132136295D01*
X117026305Y-132175048D01*
X117024334Y-132182723D01*
X117024334Y-132182724D01*
X117021267Y-132194670D01*
X117014863Y-132213374D01*
X117006819Y-132231963D01*
X117005580Y-132239786D01*
X117005577Y-132239796D01*
X116999901Y-132275632D01*
X116997495Y-132287252D01*
X116986500Y-132330078D01*
X116986500Y-132350332D01*
X116984949Y-132370042D01*
X116981780Y-132390051D01*
X116982526Y-132397943D01*
X116985941Y-132434069D01*
X116986500Y-132445927D01*
X116986500Y-134643987D01*
X116985973Y-134655170D01*
X116984298Y-134662663D01*
X116984547Y-134670589D01*
X116984547Y-134670590D01*
X116986438Y-134730740D01*
X116986500Y-134734699D01*
X116986500Y-134762610D01*
X116986997Y-134766544D01*
X116986997Y-134766545D01*
X116987005Y-134766610D01*
X116987938Y-134778447D01*
X116989327Y-134822643D01*
X116994978Y-134842093D01*
X116998987Y-134861454D01*
X117001526Y-134881551D01*
X117004445Y-134888922D01*
X117004445Y-134888924D01*
X117017804Y-134922666D01*
X117021649Y-134933896D01*
X117033982Y-134976347D01*
X117038015Y-134983166D01*
X117038017Y-134983171D01*
X117044293Y-134993782D01*
X117052988Y-135011530D01*
X117060448Y-135030371D01*
X117065110Y-135036787D01*
X117065110Y-135036788D01*
X117086436Y-135066141D01*
X117092952Y-135076061D01*
X117115458Y-135114116D01*
X117121064Y-135119723D01*
X117129780Y-135128439D01*
X117142620Y-135143472D01*
X117154528Y-135159861D01*
X117160635Y-135164913D01*
X117188593Y-135188042D01*
X117197374Y-135196032D01*
X117503119Y-135501778D01*
X117510653Y-135510057D01*
X117514766Y-135516538D01*
X117564418Y-135563164D01*
X117567260Y-135565919D01*
X117586996Y-135585655D01*
X117586464Y-135586187D01*
X117622442Y-135643238D01*
X117627246Y-135677699D01*
X117627246Y-136161500D01*
X117607244Y-136229621D01*
X117553588Y-136276114D01*
X117501246Y-136287500D01*
X116532841Y-136287500D01*
X116464720Y-136267498D01*
X116443746Y-136250595D01*
X116160898Y-135967747D01*
X116153358Y-135959461D01*
X116149246Y-135952982D01*
X116099594Y-135906356D01*
X116096753Y-135903602D01*
X116077016Y-135883865D01*
X116073819Y-135881385D01*
X116064797Y-135873680D01*
X116038346Y-135848841D01*
X116032567Y-135843414D01*
X116025621Y-135839595D01*
X116025618Y-135839593D01*
X116014812Y-135833652D01*
X115998293Y-135822801D01*
X115994564Y-135819909D01*
X115982287Y-135810386D01*
X115975018Y-135807241D01*
X115975014Y-135807238D01*
X115941709Y-135792826D01*
X115931059Y-135787609D01*
X115892306Y-135766305D01*
X115872683Y-135761267D01*
X115853980Y-135754863D01*
X115842666Y-135749967D01*
X115842665Y-135749967D01*
X115835391Y-135746819D01*
X115827568Y-135745580D01*
X115827558Y-135745577D01*
X115791722Y-135739901D01*
X115780102Y-135737495D01*
X115744957Y-135728472D01*
X115744956Y-135728472D01*
X115737276Y-135726500D01*
X115717022Y-135726500D01*
X115697311Y-135724949D01*
X115685132Y-135723020D01*
X115677303Y-135721780D01*
X115669411Y-135722526D01*
X115633285Y-135725941D01*
X115621427Y-135726500D01*
X112134595Y-135726500D01*
X112066474Y-135706498D01*
X112045498Y-135689594D01*
X112010403Y-135654498D01*
X111976379Y-135592185D01*
X111973500Y-135565404D01*
X111973500Y-134237450D01*
X111993502Y-134169329D01*
X112004059Y-134156229D01*
X112003989Y-134156175D01*
X112008845Y-134149915D01*
X112014453Y-134144307D01*
X112018489Y-134137483D01*
X112018491Y-134137480D01*
X112095108Y-134007927D01*
X112099145Y-134001101D01*
X112145562Y-133841331D01*
X112148500Y-133804002D01*
X112148500Y-132020998D01*
X112145562Y-131983669D01*
X112099145Y-131823899D01*
X112073321Y-131780233D01*
X112018491Y-131687520D01*
X112018489Y-131687517D01*
X112014453Y-131680693D01*
X111896807Y-131563047D01*
X111889983Y-131559011D01*
X111889980Y-131559009D01*
X111760427Y-131482392D01*
X111760428Y-131482392D01*
X111753601Y-131478355D01*
X111745990Y-131476144D01*
X111745988Y-131476143D01*
X111693769Y-131460972D01*
X111593831Y-131431938D01*
X111587426Y-131431434D01*
X111587421Y-131431433D01*
X111558958Y-131429193D01*
X111558950Y-131429193D01*
X111556502Y-131429000D01*
X111123498Y-131429000D01*
X111121050Y-131429193D01*
X111121042Y-131429193D01*
X111092579Y-131431433D01*
X111092574Y-131431434D01*
X111086169Y-131431938D01*
X110986231Y-131460972D01*
X110934012Y-131476143D01*
X110934010Y-131476144D01*
X110926399Y-131478355D01*
X110897387Y-131495513D01*
X110817385Y-131542826D01*
X110748569Y-131560286D01*
X110681238Y-131537769D01*
X110636769Y-131482425D01*
X110627246Y-131434373D01*
X110627246Y-127313500D01*
X110647248Y-127245379D01*
X110700904Y-127198886D01*
X110753246Y-127187500D01*
X110793562Y-127187500D01*
X110861683Y-127207502D01*
G37*
%TD.AperFunction*%
%TD*%
%TA.AperFunction,Conductor*%
%TO.N,VCC*%
G36*
X111496686Y-136910361D02*
G01*
X111535548Y-136927178D01*
X111546188Y-136932391D01*
X111584940Y-136953695D01*
X111592616Y-136955666D01*
X111592619Y-136955667D01*
X111604562Y-136958733D01*
X111623267Y-136965137D01*
X111641855Y-136973181D01*
X111649678Y-136974420D01*
X111649688Y-136974423D01*
X111685524Y-136980099D01*
X111697144Y-136982505D01*
X111732289Y-136991528D01*
X111739970Y-136993500D01*
X111760224Y-136993500D01*
X111779934Y-136995051D01*
X111799943Y-136998220D01*
X111807835Y-136997474D01*
X111843961Y-136994059D01*
X111855819Y-136993500D01*
X115342651Y-136993500D01*
X115410772Y-137013502D01*
X115431747Y-137030405D01*
X115893599Y-137492258D01*
X115901133Y-137500537D01*
X115905246Y-137507018D01*
X115931920Y-137532066D01*
X115954897Y-137553643D01*
X115957739Y-137556398D01*
X115977476Y-137576135D01*
X115980673Y-137578615D01*
X115989693Y-137586318D01*
X116021925Y-137616586D01*
X116028871Y-137620405D01*
X116028874Y-137620407D01*
X116039680Y-137626348D01*
X116056199Y-137637199D01*
X116072205Y-137649614D01*
X116079474Y-137652759D01*
X116079478Y-137652762D01*
X116112783Y-137667174D01*
X116123433Y-137672391D01*
X116162186Y-137693695D01*
X116169861Y-137695666D01*
X116169862Y-137695666D01*
X116181808Y-137698733D01*
X116200513Y-137705137D01*
X116219101Y-137713181D01*
X116226927Y-137714421D01*
X116234545Y-137716634D01*
X116234140Y-137718028D01*
X116290487Y-137744737D01*
X116328016Y-137805004D01*
X116327004Y-137875993D01*
X116287773Y-137935166D01*
X116258864Y-137951391D01*
X116259630Y-137953027D01*
X116253004Y-137956131D01*
X116246054Y-137958450D01*
X116095652Y-138051522D01*
X115970695Y-138176697D01*
X115877885Y-138327262D01*
X115822203Y-138495139D01*
X115811500Y-138599600D01*
X115811500Y-138742074D01*
X115791498Y-138810195D01*
X115774595Y-138831169D01*
X115763218Y-138842546D01*
X115700906Y-138876572D01*
X115634457Y-138873044D01*
X115619861Y-138868203D01*
X115613025Y-138867503D01*
X115613022Y-138867502D01*
X115569969Y-138863091D01*
X115515400Y-138857500D01*
X114764600Y-138857500D01*
X114761354Y-138857837D01*
X114761350Y-138857837D01*
X114665692Y-138867762D01*
X114665688Y-138867763D01*
X114658834Y-138868474D01*
X114652298Y-138870655D01*
X114652296Y-138870655D01*
X114529627Y-138911581D01*
X114491054Y-138924450D01*
X114340652Y-139017522D01*
X114215695Y-139142697D01*
X114122885Y-139293262D01*
X114120581Y-139300209D01*
X114070953Y-139449834D01*
X114067203Y-139461139D01*
X114056500Y-139565600D01*
X114056500Y-141866400D01*
X114067474Y-141972166D01*
X114123450Y-142139946D01*
X114216522Y-142290348D01*
X114341697Y-142415305D01*
X114347927Y-142419145D01*
X114347928Y-142419146D01*
X114485090Y-142503694D01*
X114492262Y-142508115D01*
X114572005Y-142534564D01*
X114653611Y-142561632D01*
X114653613Y-142561632D01*
X114660139Y-142563797D01*
X114666975Y-142564497D01*
X114666978Y-142564498D01*
X114710031Y-142568909D01*
X114764600Y-142574500D01*
X115515400Y-142574500D01*
X115518646Y-142574163D01*
X115518650Y-142574163D01*
X115614308Y-142564238D01*
X115614312Y-142564237D01*
X115621166Y-142563526D01*
X115627702Y-142561345D01*
X115627704Y-142561345D01*
X115759806Y-142517272D01*
X115788946Y-142507550D01*
X115939348Y-142414478D01*
X116064305Y-142289303D01*
X116157115Y-142138738D01*
X116212797Y-141970861D01*
X116223500Y-141866400D01*
X116223500Y-141146680D01*
X116243502Y-141078559D01*
X116297158Y-141032066D01*
X116314344Y-141025684D01*
X116321420Y-141023628D01*
X116321422Y-141023627D01*
X116327336Y-141021909D01*
X116502926Y-140930892D01*
X116623973Y-140834262D01*
X117362829Y-140095405D01*
X117425142Y-140061380D01*
X117451925Y-140058500D01*
X117920400Y-140058500D01*
X117923646Y-140058163D01*
X117923650Y-140058163D01*
X118019308Y-140048238D01*
X118019312Y-140048237D01*
X118026166Y-140047526D01*
X118032702Y-140045345D01*
X118032704Y-140045345D01*
X118193946Y-139991550D01*
X118194435Y-139993016D01*
X118237182Y-139983500D01*
X118291274Y-139983500D01*
X118340732Y-139993654D01*
X118345787Y-139996433D01*
X118350869Y-139998045D01*
X118355563Y-140000562D01*
X118444531Y-140027762D01*
X118445559Y-140028082D01*
X118534306Y-140056235D01*
X118539602Y-140056829D01*
X118544698Y-140058387D01*
X118637257Y-140067790D01*
X118638393Y-140067911D01*
X118672008Y-140071681D01*
X118684730Y-140073108D01*
X118684734Y-140073108D01*
X118688227Y-140073500D01*
X118691754Y-140073500D01*
X118692739Y-140073555D01*
X118698419Y-140074002D01*
X118727825Y-140076989D01*
X118735337Y-140077752D01*
X118735339Y-140077752D01*
X118741462Y-140078374D01*
X118787108Y-140074059D01*
X118797246Y-140073581D01*
X118797246Y-143019564D01*
X118757311Y-143038186D01*
X118757306Y-143038189D01*
X118752324Y-143040512D01*
X118747817Y-143043668D01*
X118747815Y-143043669D01*
X118574730Y-143164864D01*
X118574727Y-143164866D01*
X118570219Y-143168023D01*
X118413023Y-143325219D01*
X118285512Y-143507324D01*
X118283189Y-143512306D01*
X118283186Y-143512311D01*
X118234195Y-143617373D01*
X118187277Y-143670658D01*
X118119000Y-143690119D01*
X118051040Y-143669577D01*
X118005805Y-143617373D01*
X117956814Y-143512311D01*
X117956811Y-143512306D01*
X117954488Y-143507324D01*
X117826977Y-143325219D01*
X117669781Y-143168023D01*
X117665273Y-143164866D01*
X117665270Y-143164864D01*
X117589505Y-143111813D01*
X117487677Y-143040512D01*
X117482695Y-143038189D01*
X117482690Y-143038186D01*
X117291178Y-142948883D01*
X117291177Y-142948882D01*
X117286196Y-142946560D01*
X117280888Y-142945138D01*
X117280886Y-142945137D01*
X117215051Y-142927497D01*
X117071463Y-142889022D01*
X116850000Y-142869647D01*
X116628537Y-142889022D01*
X116484949Y-142927497D01*
X116419114Y-142945137D01*
X116419112Y-142945138D01*
X116413804Y-142946560D01*
X116408823Y-142948882D01*
X116408822Y-142948883D01*
X116217311Y-143038186D01*
X116217306Y-143038189D01*
X116212324Y-143040512D01*
X116207817Y-143043668D01*
X116207815Y-143043669D01*
X116034730Y-143164864D01*
X116034727Y-143164866D01*
X116030219Y-143168023D01*
X115873023Y-143325219D01*
X115745512Y-143507324D01*
X115743189Y-143512306D01*
X115743186Y-143512311D01*
X115694195Y-143617373D01*
X115647277Y-143670658D01*
X115579000Y-143690119D01*
X115511040Y-143669577D01*
X115465805Y-143617373D01*
X115416814Y-143512311D01*
X115416811Y-143512306D01*
X115414488Y-143507324D01*
X115286977Y-143325219D01*
X115129781Y-143168023D01*
X115125273Y-143164866D01*
X115125270Y-143164864D01*
X115049505Y-143111813D01*
X114947677Y-143040512D01*
X114942695Y-143038189D01*
X114942690Y-143038186D01*
X114751178Y-142948883D01*
X114751177Y-142948882D01*
X114746196Y-142946560D01*
X114740888Y-142945138D01*
X114740886Y-142945137D01*
X114675051Y-142927497D01*
X114531463Y-142889022D01*
X114310000Y-142869647D01*
X114088537Y-142889022D01*
X113944949Y-142927497D01*
X113879114Y-142945137D01*
X113879112Y-142945138D01*
X113873804Y-142946560D01*
X113868823Y-142948882D01*
X113868822Y-142948883D01*
X113677311Y-143038186D01*
X113677306Y-143038189D01*
X113672324Y-143040512D01*
X113667817Y-143043668D01*
X113667815Y-143043669D01*
X113494730Y-143164864D01*
X113494727Y-143164866D01*
X113490219Y-143168023D01*
X113333023Y-143325219D01*
X113205512Y-143507324D01*
X113203189Y-143512306D01*
X113203186Y-143512311D01*
X113154195Y-143617373D01*
X113107277Y-143670658D01*
X113039000Y-143690119D01*
X112971040Y-143669577D01*
X112925805Y-143617373D01*
X112876814Y-143512311D01*
X112876811Y-143512306D01*
X112874488Y-143507324D01*
X112746977Y-143325219D01*
X112589781Y-143168023D01*
X112585273Y-143164866D01*
X112585270Y-143164864D01*
X112509505Y-143111813D01*
X112407677Y-143040512D01*
X112402695Y-143038189D01*
X112402690Y-143038186D01*
X112211178Y-142948883D01*
X112211177Y-142948882D01*
X112206196Y-142946560D01*
X112200888Y-142945138D01*
X112200886Y-142945137D01*
X112135051Y-142927497D01*
X111991463Y-142889022D01*
X111770000Y-142869647D01*
X111548537Y-142889022D01*
X111404949Y-142927497D01*
X111339114Y-142945137D01*
X111339112Y-142945138D01*
X111333804Y-142946560D01*
X111328823Y-142948882D01*
X111328822Y-142948883D01*
X111137311Y-143038186D01*
X111137306Y-143038189D01*
X111132324Y-143040512D01*
X111127817Y-143043668D01*
X111127815Y-143043669D01*
X110954730Y-143164864D01*
X110954727Y-143164866D01*
X110950219Y-143168023D01*
X110793023Y-143325219D01*
X110665512Y-143507324D01*
X110663189Y-143512306D01*
X110663186Y-143512311D01*
X110614195Y-143617373D01*
X110567277Y-143670658D01*
X110499000Y-143690119D01*
X110431040Y-143669577D01*
X110385805Y-143617373D01*
X110336814Y-143512311D01*
X110336811Y-143512306D01*
X110334488Y-143507324D01*
X110206977Y-143325219D01*
X110049781Y-143168023D01*
X110045273Y-143164866D01*
X110045270Y-143164864D01*
X109969505Y-143111813D01*
X109867677Y-143040512D01*
X109862695Y-143038189D01*
X109862690Y-143038186D01*
X109671178Y-142948883D01*
X109671177Y-142948882D01*
X109666196Y-142946560D01*
X109660888Y-142945138D01*
X109660886Y-142945137D01*
X109595051Y-142927497D01*
X109451463Y-142889022D01*
X109230000Y-142869647D01*
X109008537Y-142889022D01*
X108864949Y-142927497D01*
X108799114Y-142945137D01*
X108799112Y-142945138D01*
X108793804Y-142946560D01*
X108788823Y-142948882D01*
X108788822Y-142948883D01*
X108597311Y-143038186D01*
X108597306Y-143038189D01*
X108592324Y-143040512D01*
X108587817Y-143043668D01*
X108587815Y-143043669D01*
X108414730Y-143164864D01*
X108414727Y-143164866D01*
X108410219Y-143168023D01*
X108253023Y-143325219D01*
X108125512Y-143507324D01*
X108123189Y-143512306D01*
X108123186Y-143512311D01*
X108074195Y-143617373D01*
X108027277Y-143670658D01*
X107959000Y-143690119D01*
X107891040Y-143669577D01*
X107845805Y-143617373D01*
X107796814Y-143512311D01*
X107796811Y-143512306D01*
X107794488Y-143507324D01*
X107666977Y-143325219D01*
X107509781Y-143168023D01*
X107505273Y-143164866D01*
X107505270Y-143164864D01*
X107429505Y-143111813D01*
X107327677Y-143040512D01*
X107322695Y-143038189D01*
X107322690Y-143038186D01*
X107131178Y-142948883D01*
X107131177Y-142948882D01*
X107126196Y-142946560D01*
X107120888Y-142945138D01*
X107120886Y-142945137D01*
X107055051Y-142927497D01*
X106911463Y-142889022D01*
X106690000Y-142869647D01*
X106468537Y-142889022D01*
X106324949Y-142927497D01*
X106259114Y-142945137D01*
X106259112Y-142945138D01*
X106253804Y-142946560D01*
X106248823Y-142948882D01*
X106248822Y-142948883D01*
X106057311Y-143038186D01*
X106057306Y-143038189D01*
X106052324Y-143040512D01*
X106047817Y-143043668D01*
X106047815Y-143043669D01*
X105874730Y-143164864D01*
X105874727Y-143164866D01*
X105870219Y-143168023D01*
X105713023Y-143325219D01*
X105585512Y-143507324D01*
X105583189Y-143512306D01*
X105583186Y-143512311D01*
X105534195Y-143617373D01*
X105487277Y-143670658D01*
X105419000Y-143690119D01*
X105351040Y-143669577D01*
X105305805Y-143617373D01*
X105256814Y-143512311D01*
X105256811Y-143512306D01*
X105254488Y-143507324D01*
X105126977Y-143325219D01*
X104969781Y-143168023D01*
X104965273Y-143164866D01*
X104965270Y-143164864D01*
X104889505Y-143111813D01*
X104787677Y-143040512D01*
X104782695Y-143038189D01*
X104782690Y-143038186D01*
X104591178Y-142948883D01*
X104591177Y-142948882D01*
X104586196Y-142946560D01*
X104580888Y-142945138D01*
X104580886Y-142945137D01*
X104515051Y-142927497D01*
X104371463Y-142889022D01*
X104150000Y-142869647D01*
X103928537Y-142889022D01*
X103784949Y-142927497D01*
X103719114Y-142945137D01*
X103719112Y-142945138D01*
X103713804Y-142946560D01*
X103708823Y-142948882D01*
X103708822Y-142948883D01*
X103517311Y-143038186D01*
X103517306Y-143038189D01*
X103512324Y-143040512D01*
X103507817Y-143043668D01*
X103507815Y-143043669D01*
X103334730Y-143164864D01*
X103334727Y-143164866D01*
X103330219Y-143168023D01*
X103173023Y-143325219D01*
X103045512Y-143507324D01*
X103043189Y-143512306D01*
X103043186Y-143512311D01*
X102994195Y-143617373D01*
X102947277Y-143670658D01*
X102879000Y-143690119D01*
X102811040Y-143669577D01*
X102765805Y-143617373D01*
X102716814Y-143512311D01*
X102716811Y-143512306D01*
X102714488Y-143507324D01*
X102586977Y-143325219D01*
X102429781Y-143168023D01*
X102425273Y-143164866D01*
X102425270Y-143164864D01*
X102349505Y-143111813D01*
X102247677Y-143040512D01*
X102242695Y-143038189D01*
X102242690Y-143038186D01*
X102051178Y-142948883D01*
X102051177Y-142948882D01*
X102046196Y-142946560D01*
X102040888Y-142945138D01*
X102040886Y-142945137D01*
X101975051Y-142927497D01*
X101831463Y-142889022D01*
X101610000Y-142869647D01*
X101388537Y-142889022D01*
X101244949Y-142927497D01*
X101179114Y-142945137D01*
X101179112Y-142945138D01*
X101173804Y-142946560D01*
X101168823Y-142948882D01*
X101168822Y-142948883D01*
X101017750Y-143019329D01*
X100947558Y-143029990D01*
X100882745Y-143001010D01*
X100843889Y-142941590D01*
X100838500Y-142905134D01*
X100838500Y-141858138D01*
X100858502Y-141790017D01*
X100912158Y-141743524D01*
X100982432Y-141733420D01*
X101025200Y-141747723D01*
X101068387Y-141771465D01*
X101068392Y-141771467D01*
X101073787Y-141774433D01*
X101079654Y-141776294D01*
X101079656Y-141776295D01*
X101256436Y-141832373D01*
X101262306Y-141834235D01*
X101416227Y-141851500D01*
X101516657Y-141851500D01*
X101530264Y-141852237D01*
X101561762Y-141855659D01*
X101561767Y-141855659D01*
X101567888Y-141856324D01*
X101594138Y-141854027D01*
X101617888Y-141851950D01*
X101622714Y-141851621D01*
X101625186Y-141851500D01*
X101628269Y-141851500D01*
X101640238Y-141850326D01*
X101671006Y-141847310D01*
X101672319Y-141847188D01*
X101716584Y-141843315D01*
X101764913Y-141839087D01*
X101770032Y-141837600D01*
X101775333Y-141837080D01*
X101864334Y-141810209D01*
X101865467Y-141809874D01*
X101948914Y-141785630D01*
X101948918Y-141785628D01*
X101954836Y-141783909D01*
X101959568Y-141781456D01*
X101964669Y-141779916D01*
X101974981Y-141774433D01*
X102046760Y-141736269D01*
X102047926Y-141735657D01*
X102124953Y-141695729D01*
X102130426Y-141692892D01*
X102134589Y-141689569D01*
X102139296Y-141687066D01*
X102211418Y-141628245D01*
X102212274Y-141627554D01*
X102251473Y-141596262D01*
X102253977Y-141593758D01*
X102254695Y-141593116D01*
X102259028Y-141589415D01*
X102292562Y-141562065D01*
X102321788Y-141526737D01*
X102329777Y-141517958D01*
X102496330Y-141351405D01*
X102558642Y-141317379D01*
X102585425Y-141314500D01*
X102728400Y-141314500D01*
X102731646Y-141314163D01*
X102731650Y-141314163D01*
X102827308Y-141304238D01*
X102827312Y-141304237D01*
X102834166Y-141303526D01*
X102840702Y-141301345D01*
X102840704Y-141301345D01*
X102994998Y-141249868D01*
X103001946Y-141247550D01*
X103152348Y-141154478D01*
X103277305Y-141029303D01*
X103283610Y-141019075D01*
X103366275Y-140884968D01*
X103366276Y-140884966D01*
X103370115Y-140878738D01*
X103425797Y-140710861D01*
X103436500Y-140606400D01*
X103436500Y-139555600D01*
X103426371Y-139457978D01*
X103426238Y-139456692D01*
X103426237Y-139456688D01*
X103425526Y-139449834D01*
X103369550Y-139282054D01*
X103276478Y-139131652D01*
X103151303Y-139006695D01*
X103014117Y-138922132D01*
X103006968Y-138917725D01*
X103006966Y-138917724D01*
X103000738Y-138913885D01*
X102888242Y-138876572D01*
X102839389Y-138860368D01*
X102839387Y-138860368D01*
X102832861Y-138858203D01*
X102826025Y-138857503D01*
X102826022Y-138857502D01*
X102782969Y-138853091D01*
X102728400Y-138847500D01*
X101952600Y-138847500D01*
X101949354Y-138847837D01*
X101949350Y-138847837D01*
X101853692Y-138857762D01*
X101853688Y-138857763D01*
X101846834Y-138858474D01*
X101840298Y-138860655D01*
X101840296Y-138860655D01*
X101729802Y-138897519D01*
X101679054Y-138914450D01*
X101528652Y-139007522D01*
X101403695Y-139132697D01*
X101310885Y-139283262D01*
X101255203Y-139451139D01*
X101254503Y-139457975D01*
X101254502Y-139457978D01*
X101250091Y-139501031D01*
X101244500Y-139555600D01*
X101244500Y-139698576D01*
X101224498Y-139766697D01*
X101207595Y-139787671D01*
X101105169Y-139890097D01*
X101075227Y-139912254D01*
X101023653Y-139939676D01*
X100954115Y-139953995D01*
X100887875Y-139928447D01*
X100845962Y-139871142D01*
X100838500Y-139828424D01*
X100838500Y-137026000D01*
X100858502Y-136957879D01*
X100912158Y-136911386D01*
X100964500Y-136900000D01*
X111446651Y-136900000D01*
X111496686Y-136910361D01*
G37*
%TD.AperFunction*%
%TD*%
%TA.AperFunction,Conductor*%
%TO.N,/STEPPER DRIVER X/hbridge_A3/hbridge_low_side*%
G36*
X114053621Y-120289002D02*
G01*
X114100114Y-120342658D01*
X114111500Y-120395000D01*
X114111500Y-120960400D01*
X114122474Y-121066166D01*
X114178450Y-121233946D01*
X114271522Y-121384348D01*
X114276704Y-121389521D01*
X114358109Y-121470784D01*
X114392188Y-121533066D01*
X114387185Y-121603886D01*
X114358264Y-121648975D01*
X114270695Y-121736697D01*
X114177885Y-121887262D01*
X114122203Y-122055139D01*
X114111500Y-122159600D01*
X114111500Y-122785400D01*
X114122474Y-122891166D01*
X114178450Y-123058946D01*
X114271522Y-123209348D01*
X114396697Y-123334305D01*
X114547262Y-123427115D01*
X114600168Y-123444663D01*
X114658527Y-123485094D01*
X114685764Y-123550658D01*
X114686500Y-123564256D01*
X114686500Y-123593733D01*
X114685973Y-123604916D01*
X114684298Y-123612409D01*
X114684547Y-123620335D01*
X114684547Y-123620336D01*
X114686438Y-123680486D01*
X114686500Y-123684445D01*
X114686500Y-123712356D01*
X114686997Y-123716290D01*
X114686997Y-123716291D01*
X114687005Y-123716356D01*
X114687938Y-123728193D01*
X114689327Y-123772389D01*
X114694978Y-123791839D01*
X114698987Y-123811200D01*
X114701526Y-123831297D01*
X114704445Y-123838668D01*
X114704445Y-123838670D01*
X114717804Y-123872412D01*
X114721649Y-123883642D01*
X114733982Y-123926093D01*
X114738015Y-123932912D01*
X114738017Y-123932917D01*
X114744293Y-123943528D01*
X114752988Y-123961276D01*
X114760448Y-123980117D01*
X114765110Y-123986533D01*
X114765110Y-123986534D01*
X114786436Y-124015887D01*
X114792952Y-124025807D01*
X114815458Y-124063862D01*
X114829779Y-124078183D01*
X114842619Y-124093216D01*
X114854528Y-124109607D01*
X114860634Y-124114658D01*
X114888605Y-124137798D01*
X114897384Y-124145788D01*
X115075555Y-124323959D01*
X115109581Y-124386271D01*
X115112460Y-124413054D01*
X115112460Y-126075451D01*
X115092458Y-126143572D01*
X115051416Y-126179547D01*
X115053123Y-126182237D01*
X115046169Y-126186650D01*
X115025042Y-126197415D01*
X115024754Y-126197529D01*
X115024749Y-126197532D01*
X115017383Y-126200448D01*
X115010975Y-126205104D01*
X115010969Y-126205107D01*
X114971948Y-126233458D01*
X114965411Y-126237901D01*
X114917982Y-126268000D01*
X114912556Y-126273778D01*
X114912555Y-126273779D01*
X114912341Y-126274007D01*
X114894554Y-126289688D01*
X114894421Y-126289785D01*
X114889118Y-126293638D01*
X114889116Y-126293639D01*
X114887894Y-126294527D01*
X114887751Y-126294330D01*
X114828314Y-126324401D01*
X114805411Y-126326500D01*
X112149500Y-126326500D01*
X112081379Y-126306498D01*
X112034886Y-126252842D01*
X112023500Y-126200500D01*
X112023500Y-124520998D01*
X112020562Y-124483669D01*
X111974145Y-124323899D01*
X111912419Y-124219526D01*
X111893491Y-124187520D01*
X111893489Y-124187517D01*
X111889453Y-124180693D01*
X111771807Y-124063047D01*
X111764983Y-124059011D01*
X111764980Y-124059009D01*
X111635427Y-123982392D01*
X111635428Y-123982392D01*
X111628601Y-123978355D01*
X111620990Y-123976144D01*
X111620988Y-123976143D01*
X111538102Y-123952063D01*
X111468831Y-123931938D01*
X111462426Y-123931434D01*
X111462421Y-123931433D01*
X111433958Y-123929193D01*
X111433950Y-123929193D01*
X111431502Y-123929000D01*
X110998498Y-123929000D01*
X110996050Y-123929193D01*
X110996042Y-123929193D01*
X110967579Y-123931433D01*
X110967574Y-123931434D01*
X110961169Y-123931938D01*
X110891898Y-123952063D01*
X110809012Y-123976143D01*
X110809010Y-123976144D01*
X110801399Y-123978355D01*
X110794572Y-123982392D01*
X110794573Y-123982392D01*
X110665020Y-124059009D01*
X110665017Y-124059011D01*
X110658193Y-124063047D01*
X110540547Y-124180693D01*
X110536511Y-124187517D01*
X110536509Y-124187520D01*
X110517581Y-124219526D01*
X110455855Y-124323899D01*
X110409438Y-124483669D01*
X110406500Y-124520998D01*
X110406500Y-126304002D01*
X110406692Y-126306447D01*
X110406693Y-126306461D01*
X110408304Y-126326928D01*
X110393707Y-126396408D01*
X110343864Y-126446967D01*
X110279272Y-126462767D01*
X106802578Y-126368330D01*
X106735026Y-126346485D01*
X106690007Y-126291587D01*
X106680000Y-126242376D01*
X106680000Y-124459000D01*
X106700002Y-124390879D01*
X106753658Y-124344386D01*
X106806000Y-124333000D01*
X108204000Y-124333000D01*
X112231095Y-120305905D01*
X112293407Y-120271879D01*
X112320190Y-120269000D01*
X113985500Y-120269000D01*
X114053621Y-120289002D01*
G37*
%TD.AperFunction*%
%TD*%
%TA.AperFunction,Conductor*%
%TO.N,/STEPPER_COIL_B2*%
G36*
X127162121Y-130120002D02*
G01*
X127208614Y-130173658D01*
X127220000Y-130226000D01*
X127220000Y-139274000D01*
X127199998Y-139342121D01*
X127146342Y-139388614D01*
X127094000Y-139400000D01*
X127040714Y-139400000D01*
X126976575Y-139382453D01*
X126957810Y-139371355D01*
X126838601Y-139300855D01*
X126830990Y-139298644D01*
X126830988Y-139298643D01*
X126778769Y-139283472D01*
X126678831Y-139254438D01*
X126672426Y-139253934D01*
X126672421Y-139253933D01*
X126643958Y-139251693D01*
X126643950Y-139251693D01*
X126641502Y-139251500D01*
X126208498Y-139251500D01*
X126206050Y-139251693D01*
X126206042Y-139251693D01*
X126177579Y-139253933D01*
X126177574Y-139253934D01*
X126171169Y-139254438D01*
X126071231Y-139283472D01*
X126019012Y-139298643D01*
X126019010Y-139298644D01*
X126011399Y-139300855D01*
X125892191Y-139371355D01*
X125873425Y-139382453D01*
X125809286Y-139400000D01*
X125770714Y-139400000D01*
X125706575Y-139382453D01*
X125687810Y-139371355D01*
X125568601Y-139300855D01*
X125560990Y-139298644D01*
X125560988Y-139298643D01*
X125508769Y-139283472D01*
X125408831Y-139254438D01*
X125402426Y-139253934D01*
X125402421Y-139253933D01*
X125373958Y-139251693D01*
X125373950Y-139251693D01*
X125371502Y-139251500D01*
X124938498Y-139251500D01*
X124936050Y-139251693D01*
X124936042Y-139251693D01*
X124907579Y-139253933D01*
X124907574Y-139253934D01*
X124901169Y-139254438D01*
X124801231Y-139283472D01*
X124749012Y-139298643D01*
X124749010Y-139298644D01*
X124741399Y-139300855D01*
X124622191Y-139371355D01*
X124603425Y-139382453D01*
X124539286Y-139400000D01*
X124500714Y-139400000D01*
X124436575Y-139382453D01*
X124417810Y-139371355D01*
X124298601Y-139300855D01*
X124290990Y-139298644D01*
X124290988Y-139298643D01*
X124238769Y-139283472D01*
X124138831Y-139254438D01*
X124132426Y-139253934D01*
X124132421Y-139253933D01*
X124103958Y-139251693D01*
X124103950Y-139251693D01*
X124101502Y-139251500D01*
X123668498Y-139251500D01*
X123666050Y-139251693D01*
X123666042Y-139251693D01*
X123637579Y-139253933D01*
X123637574Y-139253934D01*
X123631169Y-139254438D01*
X123531231Y-139283472D01*
X123479012Y-139298643D01*
X123479010Y-139298644D01*
X123471399Y-139300855D01*
X123352191Y-139371355D01*
X123333425Y-139382453D01*
X123269286Y-139400000D01*
X123230714Y-139400000D01*
X123166575Y-139382453D01*
X123147810Y-139371355D01*
X123028601Y-139300855D01*
X123020990Y-139298644D01*
X123020988Y-139298643D01*
X122968769Y-139283472D01*
X122868831Y-139254438D01*
X122862426Y-139253934D01*
X122862421Y-139253933D01*
X122833958Y-139251693D01*
X122833950Y-139251693D01*
X122831502Y-139251500D01*
X122398498Y-139251500D01*
X122396050Y-139251693D01*
X122396042Y-139251693D01*
X122367579Y-139253933D01*
X122367574Y-139253934D01*
X122361169Y-139254438D01*
X122261231Y-139283472D01*
X122209012Y-139298643D01*
X122209010Y-139298644D01*
X122201399Y-139300855D01*
X122073637Y-139376414D01*
X122004823Y-139393872D01*
X121937492Y-139371355D01*
X121893022Y-139316011D01*
X121883500Y-139267959D01*
X121883500Y-138677100D01*
X121872526Y-138571334D01*
X121816550Y-138403554D01*
X121723478Y-138253152D01*
X121598303Y-138128195D01*
X121592072Y-138124354D01*
X121453968Y-138039225D01*
X121453966Y-138039224D01*
X121447738Y-138035385D01*
X121367995Y-138008936D01*
X121286389Y-137981868D01*
X121286387Y-137981868D01*
X121279861Y-137979703D01*
X121273025Y-137979003D01*
X121273022Y-137979002D01*
X121229969Y-137974591D01*
X121175400Y-137969000D01*
X120935677Y-137969000D01*
X120867556Y-137948998D01*
X120821063Y-137895342D01*
X120810959Y-137825068D01*
X120826558Y-137780000D01*
X120851223Y-137737279D01*
X120851224Y-137737278D01*
X120854527Y-137731556D01*
X120913542Y-137549928D01*
X120915497Y-137531328D01*
X120942511Y-137465671D01*
X121000734Y-137425042D01*
X121040807Y-137418500D01*
X121297646Y-137418500D01*
X121300892Y-137418163D01*
X121300896Y-137418163D01*
X121396554Y-137408238D01*
X121396558Y-137408237D01*
X121403412Y-137407526D01*
X121409948Y-137405345D01*
X121409950Y-137405345D01*
X121564244Y-137353868D01*
X121571192Y-137351550D01*
X121721594Y-137258478D01*
X121760859Y-137219145D01*
X121841381Y-137138482D01*
X121846551Y-137133303D01*
X121850392Y-137127072D01*
X121851026Y-137126269D01*
X121908942Y-137085205D01*
X121979865Y-137081972D01*
X122039004Y-137115264D01*
X122058193Y-137134453D01*
X122065017Y-137138489D01*
X122065020Y-137138491D01*
X122118421Y-137170072D01*
X122201399Y-137219145D01*
X122209010Y-137221356D01*
X122209012Y-137221357D01*
X122261231Y-137236528D01*
X122361169Y-137265562D01*
X122367574Y-137266066D01*
X122367579Y-137266067D01*
X122396042Y-137268307D01*
X122396050Y-137268307D01*
X122398498Y-137268500D01*
X122831502Y-137268500D01*
X122833950Y-137268307D01*
X122833958Y-137268307D01*
X122862421Y-137266067D01*
X122862426Y-137266066D01*
X122868831Y-137265562D01*
X122968769Y-137236528D01*
X123020988Y-137221357D01*
X123020990Y-137221356D01*
X123028601Y-137219145D01*
X123111579Y-137170072D01*
X123164980Y-137138491D01*
X123164983Y-137138489D01*
X123171807Y-137134453D01*
X123289453Y-137016807D01*
X123293489Y-137009983D01*
X123293491Y-137009980D01*
X123370108Y-136880427D01*
X123374145Y-136873601D01*
X123420562Y-136713831D01*
X123423500Y-136676502D01*
X123423500Y-134893498D01*
X123420562Y-134856169D01*
X123374145Y-134696399D01*
X123310547Y-134588861D01*
X123293491Y-134560020D01*
X123293489Y-134560017D01*
X123289453Y-134553193D01*
X123171807Y-134435547D01*
X123164983Y-134431511D01*
X123164980Y-134431509D01*
X123035427Y-134354892D01*
X123035428Y-134354892D01*
X123028601Y-134350855D01*
X123020990Y-134348644D01*
X123020988Y-134348643D01*
X122968769Y-134333472D01*
X122868831Y-134304438D01*
X122862426Y-134303934D01*
X122862421Y-134303933D01*
X122833958Y-134301693D01*
X122833950Y-134301693D01*
X122831502Y-134301500D01*
X122398498Y-134301500D01*
X122396050Y-134301693D01*
X122396042Y-134301693D01*
X122367579Y-134303933D01*
X122367574Y-134303934D01*
X122361169Y-134304438D01*
X122261231Y-134333472D01*
X122209012Y-134348643D01*
X122209010Y-134348644D01*
X122201399Y-134350855D01*
X122087092Y-134418456D01*
X122018280Y-134435915D01*
X121991620Y-134432043D01*
X121977712Y-134428472D01*
X121977709Y-134428472D01*
X121970030Y-134426500D01*
X121949776Y-134426500D01*
X121930065Y-134424949D01*
X121917886Y-134423020D01*
X121910057Y-134421780D01*
X121902165Y-134422526D01*
X121866039Y-134425941D01*
X121854181Y-134426500D01*
X120234595Y-134426500D01*
X120166474Y-134406498D01*
X120145499Y-134389595D01*
X119990404Y-134234499D01*
X119956379Y-134172187D01*
X119953500Y-134145404D01*
X119953500Y-130226000D01*
X119973502Y-130157879D01*
X120027158Y-130111386D01*
X120079500Y-130100000D01*
X127094000Y-130100000D01*
X127162121Y-130120002D01*
G37*
%TD.AperFunction*%
%TD*%
%TA.AperFunction,Conductor*%
%TO.N,/STEPPER_COIL_B1*%
G36*
X128661455Y-130107502D02*
G01*
X128682429Y-130124405D01*
X128694159Y-130136135D01*
X128697283Y-130138558D01*
X128697287Y-130138562D01*
X128697352Y-130138612D01*
X128706373Y-130146317D01*
X128738607Y-130176586D01*
X128745555Y-130180405D01*
X128745557Y-130180407D01*
X128756360Y-130186346D01*
X128772887Y-130197202D01*
X128782626Y-130204757D01*
X128782628Y-130204758D01*
X128788888Y-130209614D01*
X128829468Y-130227174D01*
X128840116Y-130232391D01*
X128864904Y-130246018D01*
X128878868Y-130253695D01*
X128886544Y-130255666D01*
X128886547Y-130255667D01*
X128898490Y-130258733D01*
X128917195Y-130265137D01*
X128935783Y-130273181D01*
X128943606Y-130274420D01*
X128943616Y-130274423D01*
X128979452Y-130280099D01*
X128991072Y-130282505D01*
X129022887Y-130290673D01*
X129033898Y-130293500D01*
X129054152Y-130293500D01*
X129073862Y-130295051D01*
X129093871Y-130298220D01*
X129101763Y-130297474D01*
X129120508Y-130295702D01*
X129137890Y-130294059D01*
X129149747Y-130293500D01*
X133069805Y-130293500D01*
X133080988Y-130294027D01*
X133088481Y-130295702D01*
X133096407Y-130295453D01*
X133096408Y-130295453D01*
X133156558Y-130293562D01*
X133160517Y-130293500D01*
X133188428Y-130293500D01*
X133192363Y-130293003D01*
X133192428Y-130292995D01*
X133204265Y-130292062D01*
X133236523Y-130291048D01*
X133240542Y-130290922D01*
X133248461Y-130290673D01*
X133267915Y-130285021D01*
X133287272Y-130281013D01*
X133299502Y-130279468D01*
X133299503Y-130279468D01*
X133307369Y-130278474D01*
X133314740Y-130275555D01*
X133314742Y-130275555D01*
X133348484Y-130262196D01*
X133359714Y-130258351D01*
X133394555Y-130248229D01*
X133394556Y-130248229D01*
X133402165Y-130246018D01*
X133408984Y-130241985D01*
X133408989Y-130241983D01*
X133419600Y-130235707D01*
X133437348Y-130227012D01*
X133456189Y-130219552D01*
X133491959Y-130193564D01*
X133501879Y-130187048D01*
X133533107Y-130168580D01*
X133533110Y-130168578D01*
X133539934Y-130164542D01*
X133554255Y-130150221D01*
X133569289Y-130137380D01*
X133585679Y-130125472D01*
X133589232Y-130121177D01*
X133651645Y-130089599D01*
X133674550Y-130087500D01*
X134241500Y-130087500D01*
X134309621Y-130107502D01*
X134356114Y-130161158D01*
X134367500Y-130213500D01*
X134367500Y-131451279D01*
X134347498Y-131519400D01*
X134293842Y-131565893D01*
X134223568Y-131575997D01*
X134215310Y-131574527D01*
X134180058Y-131567034D01*
X134113433Y-131552872D01*
X134113428Y-131552872D01*
X134106976Y-131551500D01*
X133916002Y-131551500D01*
X133909550Y-131552872D01*
X133909545Y-131552872D01*
X133822601Y-131571353D01*
X133729201Y-131591206D01*
X133723171Y-131593891D01*
X133723170Y-131593891D01*
X133560767Y-131666197D01*
X133560765Y-131666198D01*
X133554737Y-131668882D01*
X133400236Y-131781134D01*
X133272449Y-131923056D01*
X133176962Y-132088444D01*
X133117947Y-132270072D01*
X133097985Y-132460000D01*
X133098675Y-132466565D01*
X133103425Y-132511755D01*
X133090653Y-132581593D01*
X133042152Y-132633440D01*
X133017992Y-132644449D01*
X132946054Y-132668450D01*
X132795652Y-132761522D01*
X132670695Y-132886697D01*
X132577885Y-133037262D01*
X132522203Y-133205139D01*
X132511500Y-133309600D01*
X132511500Y-134060400D01*
X132522474Y-134166166D01*
X132524655Y-134172702D01*
X132524655Y-134172704D01*
X132544249Y-134231433D01*
X132578450Y-134333946D01*
X132671522Y-134484348D01*
X132796697Y-134609305D01*
X132802927Y-134613145D01*
X132802928Y-134613146D01*
X132820373Y-134623899D01*
X132947262Y-134702115D01*
X133027005Y-134728564D01*
X133108611Y-134755632D01*
X133108613Y-134755632D01*
X133115139Y-134757797D01*
X133121975Y-134758497D01*
X133121978Y-134758498D01*
X133165031Y-134762909D01*
X133219600Y-134768500D01*
X134385020Y-134768500D01*
X134453141Y-134788502D01*
X134499634Y-134842158D01*
X134511020Y-134894500D01*
X134511020Y-138158405D01*
X134491018Y-138226526D01*
X134474115Y-138247501D01*
X134140499Y-138581116D01*
X134078187Y-138615141D01*
X134051404Y-138618020D01*
X128874500Y-138618020D01*
X128806379Y-138598018D01*
X128759886Y-138544362D01*
X128748500Y-138492020D01*
X128748500Y-137037450D01*
X128768502Y-136969329D01*
X128779059Y-136956229D01*
X128778989Y-136956175D01*
X128783845Y-136949915D01*
X128789453Y-136944307D01*
X128793489Y-136937483D01*
X128793491Y-136937480D01*
X128870108Y-136807927D01*
X128874145Y-136801101D01*
X128920562Y-136641331D01*
X128923500Y-136604002D01*
X128923500Y-134820998D01*
X128920562Y-134783669D01*
X128874145Y-134623899D01*
X128794674Y-134489521D01*
X128793491Y-134487520D01*
X128793489Y-134487517D01*
X128789453Y-134480693D01*
X128671807Y-134363047D01*
X128664983Y-134359011D01*
X128664980Y-134359009D01*
X128535427Y-134282392D01*
X128535428Y-134282392D01*
X128528601Y-134278355D01*
X128520990Y-134276144D01*
X128520988Y-134276143D01*
X128468769Y-134260972D01*
X128368831Y-134231938D01*
X128362426Y-134231434D01*
X128362421Y-134231433D01*
X128333958Y-134229193D01*
X128333950Y-134229193D01*
X128331502Y-134229000D01*
X127953246Y-134229000D01*
X127885125Y-134208998D01*
X127838632Y-134155342D01*
X127827246Y-134103000D01*
X127827246Y-130213500D01*
X127847248Y-130145379D01*
X127900904Y-130098886D01*
X127953246Y-130087500D01*
X128593334Y-130087500D01*
X128661455Y-130107502D01*
G37*
%TD.AperFunction*%
%TD*%
%TA.AperFunction,Conductor*%
%TO.N,GND*%
G36*
X130710906Y-121138382D02*
G01*
X130731881Y-121155285D01*
X131474596Y-121898001D01*
X131508621Y-121960313D01*
X131511500Y-121987096D01*
X131511500Y-122009768D01*
X131491498Y-122077889D01*
X131437842Y-122124382D01*
X131383021Y-122135744D01*
X130800101Y-122124271D01*
X130723940Y-122122772D01*
X129181977Y-122092423D01*
X129174690Y-122092409D01*
X129164372Y-122092389D01*
X129164360Y-122092389D01*
X129163795Y-122092388D01*
X129156725Y-122092499D01*
X129155528Y-122092518D01*
X129155521Y-122092518D01*
X129154896Y-122092528D01*
X129154315Y-122092547D01*
X129154289Y-122092548D01*
X129141840Y-122092963D01*
X129141836Y-122092963D01*
X129136781Y-122093132D01*
X129061616Y-122107887D01*
X128997781Y-122120417D01*
X128997776Y-122120418D01*
X128993361Y-122121285D01*
X128926351Y-122144735D01*
X128922354Y-122146813D01*
X128896989Y-122160000D01*
X121103020Y-122160000D01*
X121103020Y-121244380D01*
X121123022Y-121176259D01*
X121176678Y-121129766D01*
X121229020Y-121118380D01*
X130642785Y-121118380D01*
X130710906Y-121138382D01*
G37*
%TD.AperFunction*%
%TD*%
%TA.AperFunction,Conductor*%
%TO.N,GND*%
G36*
X113356738Y-119760000D02*
G01*
X102656738Y-119760000D01*
X102656738Y-119474168D01*
X103005990Y-119124916D01*
X103068302Y-119090890D01*
X103095085Y-119088011D01*
X113356738Y-119088011D01*
X113356738Y-119760000D01*
G37*
%TD.AperFunction*%
%TD*%
%TA.AperFunction,Conductor*%
%TO.N,GND*%
G36*
X117692573Y-137753502D02*
G01*
X117739066Y-137807158D01*
X117750452Y-137859500D01*
X117750452Y-137895648D01*
X117760556Y-137965922D01*
X117801733Y-138106157D01*
X117806603Y-138113736D01*
X117806605Y-138113739D01*
X117833558Y-138155678D01*
X117880751Y-138229112D01*
X117927244Y-138282768D01*
X117930637Y-138285708D01*
X118030893Y-138372581D01*
X118030896Y-138372583D01*
X118037704Y-138378482D01*
X118170653Y-138439198D01*
X118176814Y-138441007D01*
X118234451Y-138457931D01*
X118234455Y-138457932D01*
X118238774Y-138459200D01*
X118243223Y-138459840D01*
X118243229Y-138459841D01*
X118378996Y-138479361D01*
X118379001Y-138479361D01*
X118383443Y-138480000D01*
X118553500Y-138480000D01*
X118581339Y-138479245D01*
X118582184Y-138479199D01*
X118582187Y-138479199D01*
X118594130Y-138478551D01*
X118594163Y-138478549D01*
X118594987Y-138478504D01*
X118622770Y-138476238D01*
X118764335Y-138439889D01*
X118768483Y-138438164D01*
X118825731Y-138414355D01*
X118825733Y-138414354D01*
X118829888Y-138412626D01*
X118833756Y-138410323D01*
X118833761Y-138410321D01*
X118947645Y-138342531D01*
X119016411Y-138324875D01*
X119083806Y-138347200D01*
X119101188Y-138361706D01*
X119216240Y-138476758D01*
X119223784Y-138485048D01*
X119227897Y-138491529D01*
X119233674Y-138496954D01*
X119277564Y-138538169D01*
X119280406Y-138540924D01*
X119300128Y-138560646D01*
X119303252Y-138563069D01*
X119303256Y-138563073D01*
X119303321Y-138563123D01*
X119312342Y-138570828D01*
X119344576Y-138601097D01*
X119351524Y-138604916D01*
X119351526Y-138604918D01*
X119362329Y-138610857D01*
X119378856Y-138621713D01*
X119388595Y-138629268D01*
X119388597Y-138629269D01*
X119394857Y-138634125D01*
X119435437Y-138651685D01*
X119446085Y-138656902D01*
X119470873Y-138670529D01*
X119484837Y-138678206D01*
X119492513Y-138680177D01*
X119492516Y-138680178D01*
X119504459Y-138683244D01*
X119523164Y-138689648D01*
X119541752Y-138697692D01*
X119549575Y-138698931D01*
X119549585Y-138698934D01*
X119585421Y-138704610D01*
X119597041Y-138707016D01*
X119628856Y-138715184D01*
X119639867Y-138718011D01*
X119660121Y-138718011D01*
X119679831Y-138719562D01*
X119699840Y-138722731D01*
X119707732Y-138721985D01*
X119726477Y-138720213D01*
X119743859Y-138718570D01*
X119755716Y-138718011D01*
X120816722Y-138718011D01*
X120827905Y-138718538D01*
X120835398Y-138720213D01*
X120843324Y-138719964D01*
X120843325Y-138719964D01*
X120903475Y-138718073D01*
X120907434Y-138718011D01*
X120935345Y-138718011D01*
X120939280Y-138717514D01*
X120939345Y-138717506D01*
X120951182Y-138716573D01*
X120983440Y-138715559D01*
X120987459Y-138715433D01*
X120995378Y-138715184D01*
X121014832Y-138709532D01*
X121034189Y-138705524D01*
X121046419Y-138703979D01*
X121046420Y-138703979D01*
X121054286Y-138702985D01*
X121061657Y-138700066D01*
X121061659Y-138700066D01*
X121095401Y-138686707D01*
X121106630Y-138682862D01*
X121138847Y-138673502D01*
X121173997Y-138668500D01*
X121244000Y-138668500D01*
X121312121Y-138688502D01*
X121358614Y-138742158D01*
X121370000Y-138794500D01*
X121370000Y-139267959D01*
X121372480Y-139293231D01*
X121379355Y-139363297D01*
X121379794Y-139367773D01*
X121389316Y-139415825D01*
X121390205Y-139418767D01*
X121390207Y-139418775D01*
X121390949Y-139421229D01*
X121391507Y-139492223D01*
X121353594Y-139552249D01*
X121321209Y-139572949D01*
X121300247Y-139582200D01*
X121296542Y-139584493D01*
X121296532Y-139584498D01*
X121242134Y-139618161D01*
X121215713Y-139630538D01*
X121185226Y-139640709D01*
X121158369Y-139646510D01*
X121155314Y-139646827D01*
X121142312Y-139647500D01*
X120157282Y-139647500D01*
X120144425Y-139646842D01*
X120142134Y-139646607D01*
X120115325Y-139640858D01*
X120039781Y-139615802D01*
X120034474Y-139613909D01*
X119994321Y-139598567D01*
X119994316Y-139598566D01*
X119988007Y-139596155D01*
X119981327Y-139595140D01*
X119981185Y-139595118D01*
X119965764Y-139591775D01*
X119922324Y-139579462D01*
X119918020Y-139578864D01*
X119918016Y-139578863D01*
X119870162Y-139572212D01*
X119782293Y-139560000D01*
X118798967Y-139560000D01*
X118798246Y-139560017D01*
X118775495Y-139560553D01*
X118775464Y-139560554D01*
X118774789Y-139560570D01*
X118774119Y-139560602D01*
X118774076Y-139560603D01*
X118773065Y-139560651D01*
X118773062Y-139560651D01*
X118762924Y-139561129D01*
X118762182Y-139561182D01*
X118762157Y-139561183D01*
X118755980Y-139561621D01*
X118753178Y-139561819D01*
X118734386Y-139561745D01*
X118733356Y-139561664D01*
X118733348Y-139561663D01*
X118733025Y-139561638D01*
X118732119Y-139561577D01*
X118726555Y-139561079D01*
X118695624Y-139557610D01*
X118692780Y-139557299D01*
X118691644Y-139557178D01*
X118689156Y-139556919D01*
X118657031Y-139553656D01*
X118631668Y-139548403D01*
X118600830Y-139538620D01*
X118598180Y-139537787D01*
X118597152Y-139537467D01*
X118594663Y-139536699D01*
X118581792Y-139532764D01*
X118521350Y-139514285D01*
X118509154Y-139509857D01*
X118508820Y-139509716D01*
X118508808Y-139509711D01*
X118506127Y-139508579D01*
X118501045Y-139506967D01*
X118500738Y-139507936D01*
X118499185Y-139507300D01*
X118491513Y-139506197D01*
X118484022Y-139504158D01*
X118484111Y-139503833D01*
X118470453Y-139500379D01*
X118444002Y-139490646D01*
X118439379Y-139489697D01*
X118439376Y-139489696D01*
X118397666Y-139481133D01*
X118397667Y-139481133D01*
X118394544Y-139480492D01*
X118291274Y-139470000D01*
X118237182Y-139470000D01*
X118233755Y-139470377D01*
X118233752Y-139470377D01*
X118186098Y-139475617D01*
X118125602Y-139482269D01*
X118109413Y-139485873D01*
X118090040Y-139490185D01*
X118090036Y-139490186D01*
X118082855Y-139491785D01*
X118083052Y-139492672D01*
X118069203Y-139497602D01*
X118060737Y-139499135D01*
X118035869Y-139503640D01*
X118035864Y-139503641D01*
X118031433Y-139504444D01*
X118027164Y-139505868D01*
X118027161Y-139505869D01*
X117930228Y-139538208D01*
X117903379Y-139544009D01*
X117901493Y-139544205D01*
X117900335Y-139544325D01*
X117887312Y-139545000D01*
X117451925Y-139545000D01*
X117403412Y-139547601D01*
X117398702Y-139547853D01*
X117398700Y-139547853D01*
X117397024Y-139547943D01*
X117370241Y-139550823D01*
X117315993Y-139559614D01*
X117310193Y-139561777D01*
X117310190Y-139561778D01*
X117183261Y-139609119D01*
X117183256Y-139609121D01*
X117179050Y-139610690D01*
X117175106Y-139612843D01*
X117175105Y-139612844D01*
X117120690Y-139642556D01*
X117120685Y-139642560D01*
X117116737Y-139644715D01*
X117113129Y-139647416D01*
X117038847Y-139703023D01*
X116999729Y-139732306D01*
X116996546Y-139735489D01*
X116286158Y-140445878D01*
X116275670Y-140455255D01*
X116231564Y-140490464D01*
X116210941Y-140503857D01*
X116133019Y-140544248D01*
X116120499Y-140549787D01*
X116120532Y-140549871D01*
X116119452Y-140550295D01*
X116118398Y-140550686D01*
X116117366Y-140551113D01*
X116117365Y-140551113D01*
X116089055Y-140562815D01*
X116089050Y-140562817D01*
X116083843Y-140564970D01*
X115960888Y-140643988D01*
X115907232Y-140690481D01*
X115904292Y-140693874D01*
X115817419Y-140794130D01*
X115817417Y-140794133D01*
X115811518Y-140800941D01*
X115750802Y-140933890D01*
X115730800Y-141002011D01*
X115730160Y-141006460D01*
X115730159Y-141006466D01*
X115716834Y-141099147D01*
X115710000Y-141146680D01*
X115710000Y-141833720D01*
X115709342Y-141846583D01*
X115709107Y-141848873D01*
X115703359Y-141875675D01*
X115693199Y-141906308D01*
X115680864Y-141932760D01*
X115666301Y-141956385D01*
X115648215Y-141979286D01*
X115628603Y-141998932D01*
X115605735Y-142017057D01*
X115584765Y-142030034D01*
X115582138Y-142031659D01*
X115555711Y-142044038D01*
X115525227Y-142054208D01*
X115498379Y-142060009D01*
X115496493Y-142060205D01*
X115495335Y-142060325D01*
X115482312Y-142061000D01*
X114797282Y-142061000D01*
X114784436Y-142060343D01*
X114782143Y-142060108D01*
X114755327Y-142054360D01*
X114724685Y-142044196D01*
X114698238Y-142031864D01*
X114697906Y-142031659D01*
X114674618Y-142017304D01*
X114651717Y-141999218D01*
X114632070Y-141979605D01*
X114613945Y-141956738D01*
X114613727Y-141956385D01*
X114599338Y-141933134D01*
X114586960Y-141906710D01*
X114576791Y-141876228D01*
X114570990Y-141849369D01*
X114570674Y-141846326D01*
X114570000Y-141833312D01*
X114570000Y-141219224D01*
X114586880Y-141156226D01*
X114626527Y-141087556D01*
X114685542Y-140905928D01*
X114695978Y-140806640D01*
X114704814Y-140722565D01*
X114705504Y-140716000D01*
X114703442Y-140696384D01*
X114686232Y-140532635D01*
X114686232Y-140532633D01*
X114685542Y-140526072D01*
X114626527Y-140344444D01*
X114586880Y-140275774D01*
X114570000Y-140212776D01*
X114570000Y-139598279D01*
X114570658Y-139585416D01*
X114570893Y-139583126D01*
X114576641Y-139556324D01*
X114586801Y-139525691D01*
X114599134Y-139499243D01*
X114613698Y-139475615D01*
X114631783Y-139452716D01*
X114651397Y-139433068D01*
X114674265Y-139414943D01*
X114697862Y-139400341D01*
X114724289Y-139387962D01*
X114754773Y-139377792D01*
X114781621Y-139371991D01*
X114783507Y-139371795D01*
X114784665Y-139371675D01*
X114797688Y-139371000D01*
X115482721Y-139371000D01*
X115495564Y-139371656D01*
X115531002Y-139375287D01*
X115560662Y-139378326D01*
X115567492Y-139379026D01*
X115567350Y-139380413D01*
X115578702Y-139380434D01*
X115607232Y-139385822D01*
X115611437Y-139386045D01*
X115611443Y-139386046D01*
X115669479Y-139389127D01*
X115669480Y-139389127D01*
X115673681Y-139389350D01*
X115810065Y-139378335D01*
X115823253Y-139373416D01*
X115942792Y-139328829D01*
X115942794Y-139328828D01*
X115947006Y-139327257D01*
X116009318Y-139293231D01*
X116047179Y-139264888D01*
X116122715Y-139208342D01*
X116122719Y-139208338D01*
X116126317Y-139205645D01*
X116137694Y-139194268D01*
X116174417Y-139153387D01*
X116191320Y-139132413D01*
X116195534Y-139126570D01*
X116219862Y-139092834D01*
X116219865Y-139092829D01*
X116223482Y-139087813D01*
X116284198Y-138954864D01*
X116304200Y-138886743D01*
X116317463Y-138794500D01*
X116324361Y-138746521D01*
X116324361Y-138746516D01*
X116325000Y-138742074D01*
X116325000Y-138632280D01*
X116325658Y-138619417D01*
X116325893Y-138617127D01*
X116331641Y-138590325D01*
X116341801Y-138559692D01*
X116354136Y-138533240D01*
X116368699Y-138509615D01*
X116386785Y-138486714D01*
X116406397Y-138467068D01*
X116429267Y-138448942D01*
X116442964Y-138440466D01*
X116493055Y-138409469D01*
X116497906Y-138406615D01*
X116535444Y-138385648D01*
X116535449Y-138385645D01*
X116541340Y-138382354D01*
X116545577Y-138378612D01*
X116546529Y-138378285D01*
X116546308Y-138377966D01*
X116612334Y-138332252D01*
X116612336Y-138332250D01*
X116618479Y-138327997D01*
X116672699Y-138267197D01*
X116712759Y-138222275D01*
X116712761Y-138222273D01*
X116715756Y-138218914D01*
X116754987Y-138159741D01*
X116817591Y-138027671D01*
X116828076Y-137961466D01*
X116839748Y-137887759D01*
X116839748Y-137887758D01*
X116840452Y-137883313D01*
X116840817Y-137857704D01*
X116861788Y-137789876D01*
X116916100Y-137744152D01*
X116966804Y-137733500D01*
X117624452Y-137733500D01*
X117692573Y-137753502D01*
G37*
%TD.AperFunction*%
%TA.AperFunction,Conductor*%
G36*
X102708564Y-139361657D02*
G01*
X102710857Y-139361892D01*
X102737673Y-139367640D01*
X102768312Y-139377803D01*
X102794760Y-139390136D01*
X102818386Y-139404700D01*
X102841286Y-139422785D01*
X102860930Y-139442395D01*
X102879055Y-139465262D01*
X102893662Y-139488866D01*
X102906040Y-139515290D01*
X102913810Y-139538582D01*
X102916209Y-139545772D01*
X102922010Y-139572631D01*
X102922326Y-139575674D01*
X102923000Y-139588688D01*
X102923000Y-140573720D01*
X102922342Y-140586583D01*
X102922107Y-140588873D01*
X102916358Y-140615678D01*
X102906198Y-140646309D01*
X102893865Y-140672757D01*
X102879301Y-140696384D01*
X102861214Y-140719286D01*
X102841602Y-140738932D01*
X102818733Y-140757058D01*
X102795140Y-140771658D01*
X102768711Y-140784038D01*
X102738227Y-140794208D01*
X102711379Y-140800009D01*
X102709493Y-140800205D01*
X102708335Y-140800325D01*
X102695312Y-140801000D01*
X102585425Y-140801000D01*
X102558850Y-140802424D01*
X102532236Y-140803850D01*
X102532226Y-140803851D01*
X102530543Y-140803941D01*
X102503760Y-140806820D01*
X102502103Y-140807088D01*
X102502092Y-140807090D01*
X102455595Y-140814625D01*
X102455590Y-140814626D01*
X102449483Y-140815616D01*
X102443686Y-140817778D01*
X102443683Y-140817779D01*
X102316756Y-140865122D01*
X102316754Y-140865123D01*
X102312542Y-140866694D01*
X102250230Y-140900720D01*
X102246630Y-140903415D01*
X102136833Y-140985609D01*
X102136829Y-140985613D01*
X102133231Y-140988306D01*
X101966678Y-141154859D01*
X101949992Y-141172349D01*
X101942003Y-141181128D01*
X101941528Y-141181675D01*
X101941515Y-141181690D01*
X101935588Y-141188520D01*
X101922245Y-141201757D01*
X101921189Y-141202659D01*
X101920861Y-141202946D01*
X101920856Y-141202950D01*
X101920486Y-141203273D01*
X101916181Y-141206869D01*
X101891913Y-141226242D01*
X101889732Y-141227993D01*
X101888876Y-141228684D01*
X101886872Y-141230310D01*
X101861826Y-141250737D01*
X101840181Y-141264955D01*
X101818824Y-141276026D01*
X101811609Y-141279766D01*
X101809280Y-141280981D01*
X101809126Y-141281062D01*
X101808114Y-141281593D01*
X101805693Y-141282872D01*
X101777232Y-141298004D01*
X101753237Y-141307747D01*
X101728399Y-141314964D01*
X101722200Y-141316765D01*
X101719869Y-141317448D01*
X101718736Y-141317783D01*
X101715916Y-141318625D01*
X101715915Y-141318625D01*
X101685064Y-141327939D01*
X101659632Y-141332836D01*
X101641608Y-141334413D01*
X101627564Y-141335642D01*
X101624811Y-141335890D01*
X101623498Y-141336012D01*
X101620911Y-141336259D01*
X101597795Y-141338525D01*
X101595206Y-141338779D01*
X101590270Y-141339165D01*
X101587789Y-141339310D01*
X101587514Y-141339329D01*
X101587510Y-141339329D01*
X101583372Y-141339611D01*
X101583346Y-141339613D01*
X101582963Y-141339639D01*
X101581191Y-141339777D01*
X101561160Y-141339743D01*
X101558894Y-141339558D01*
X101558839Y-141339554D01*
X101558036Y-141339489D01*
X101554454Y-141339295D01*
X101545283Y-141338798D01*
X101545265Y-141338797D01*
X101544429Y-141338752D01*
X101516657Y-141338000D01*
X101451984Y-141338000D01*
X101437939Y-141337215D01*
X101423915Y-141335642D01*
X101381852Y-141330924D01*
X101357804Y-141325812D01*
X101286750Y-141303273D01*
X101272635Y-141297596D01*
X101272574Y-141297736D01*
X101188065Y-141260735D01*
X101182773Y-141258965D01*
X101179797Y-141257970D01*
X101145297Y-141246432D01*
X101077509Y-141230362D01*
X101062657Y-141226841D01*
X101062655Y-141226841D01*
X101055510Y-141225147D01*
X100964500Y-141225147D01*
X100896379Y-141205145D01*
X100849886Y-141151489D01*
X100838500Y-141099147D01*
X100838500Y-140588796D01*
X100858502Y-140520675D01*
X100912158Y-140474182D01*
X100956909Y-140463025D01*
X101053193Y-140457214D01*
X101053196Y-140457214D01*
X101057680Y-140456943D01*
X101127218Y-140442624D01*
X101131445Y-140441101D01*
X101131451Y-140441099D01*
X101202441Y-140415516D01*
X101264724Y-140393071D01*
X101316298Y-140365649D01*
X101380678Y-140325027D01*
X101382554Y-140323639D01*
X101382561Y-140323634D01*
X101408740Y-140304261D01*
X101410620Y-140302870D01*
X101468268Y-140253196D01*
X101570694Y-140150770D01*
X101607417Y-140109889D01*
X101624320Y-140088915D01*
X101628534Y-140083072D01*
X101652862Y-140049336D01*
X101652865Y-140049331D01*
X101656482Y-140044315D01*
X101717198Y-139911366D01*
X101737200Y-139843245D01*
X101753151Y-139732306D01*
X101757361Y-139703023D01*
X101757361Y-139703018D01*
X101758000Y-139698576D01*
X101758000Y-139588282D01*
X101758657Y-139575436D01*
X101758892Y-139573143D01*
X101764641Y-139546325D01*
X101774803Y-139515688D01*
X101787136Y-139489240D01*
X101801700Y-139465614D01*
X101819785Y-139442714D01*
X101839397Y-139423068D01*
X101862265Y-139404943D01*
X101885862Y-139390341D01*
X101912289Y-139377962D01*
X101942773Y-139367792D01*
X101969621Y-139361991D01*
X101971507Y-139361795D01*
X101972665Y-139361675D01*
X101985688Y-139361000D01*
X102695718Y-139361000D01*
X102708564Y-139361657D01*
G37*
%TD.AperFunction*%
%TA.AperFunction,Conductor*%
G36*
X121643526Y-135713502D02*
G01*
X121664501Y-135730405D01*
X121769596Y-135835501D01*
X121803621Y-135897813D01*
X121806500Y-135924596D01*
X121806500Y-136489534D01*
X121786498Y-136557655D01*
X121738010Y-136601643D01*
X121611937Y-136666314D01*
X121554021Y-136707378D01*
X121550757Y-136710478D01*
X121550752Y-136710482D01*
X121494191Y-136764199D01*
X121484460Y-136771843D01*
X121483135Y-136770520D01*
X121473561Y-136780111D01*
X121435484Y-136818254D01*
X121373201Y-136852333D01*
X121328631Y-136852461D01*
X121328515Y-136853563D01*
X121321944Y-136852872D01*
X121315487Y-136851500D01*
X121124513Y-136851500D01*
X121118061Y-136852872D01*
X121118056Y-136852872D01*
X121031113Y-136871353D01*
X120937712Y-136891206D01*
X120763248Y-136968882D01*
X120757909Y-136972761D01*
X120741608Y-136984604D01*
X120724218Y-136995204D01*
X120706878Y-137003935D01*
X120703191Y-137006508D01*
X120703189Y-137006509D01*
X120652340Y-137041992D01*
X120652335Y-137041996D01*
X120648655Y-137044564D01*
X120612397Y-137078482D01*
X120612175Y-137078244D01*
X120611599Y-137079062D01*
X120608747Y-137081134D01*
X120604393Y-137085970D01*
X120604004Y-137086334D01*
X120601494Y-137088594D01*
X120600443Y-137089665D01*
X120541917Y-137144414D01*
X120537337Y-137152175D01*
X120529597Y-137165290D01*
X120514725Y-137185556D01*
X120480960Y-137223056D01*
X120477659Y-137228774D01*
X120385723Y-137388011D01*
X120334340Y-137437004D01*
X120276604Y-137451011D01*
X120054989Y-137451011D01*
X119986868Y-137431009D01*
X119940375Y-137377353D01*
X119928989Y-137325011D01*
X119928989Y-135819500D01*
X119948991Y-135751379D01*
X120002647Y-135704886D01*
X120054989Y-135693500D01*
X121575405Y-135693500D01*
X121643526Y-135713502D01*
G37*
%TD.AperFunction*%
%TA.AperFunction,Conductor*%
G36*
X101047012Y-131983370D02*
G01*
X101053595Y-131989499D01*
X101374283Y-132310187D01*
X101408309Y-132372499D01*
X101403244Y-132443314D01*
X101380414Y-132481792D01*
X101285264Y-132591601D01*
X101224548Y-132724550D01*
X101204546Y-132792671D01*
X101203906Y-132797120D01*
X101203905Y-132797126D01*
X101184385Y-132932893D01*
X101183746Y-132937340D01*
X101183746Y-133639633D01*
X101201791Y-133774567D01*
X101219191Y-133838457D01*
X101220817Y-133842315D01*
X101268674Y-133955879D01*
X101268676Y-133955882D01*
X101272053Y-133963896D01*
X101363337Y-134078042D01*
X101366629Y-134081130D01*
X101387504Y-134100711D01*
X101415118Y-134126614D01*
X101534872Y-134210423D01*
X101543413Y-134213301D01*
X101543415Y-134213302D01*
X101669103Y-134255654D01*
X101669105Y-134255655D01*
X101673377Y-134257094D01*
X101677804Y-134257910D01*
X101677809Y-134257911D01*
X101733992Y-134268263D01*
X101743198Y-134269959D01*
X101852811Y-134274281D01*
X101869600Y-134274943D01*
X101869450Y-134278744D01*
X101870895Y-134278617D01*
X101871038Y-134275000D01*
X101889247Y-134275718D01*
X101893734Y-134275252D01*
X101898221Y-134275109D01*
X101898225Y-134275231D01*
X101902685Y-134275000D01*
X102713998Y-134275000D01*
X102718709Y-134274281D01*
X102718714Y-134274281D01*
X102840825Y-134255654D01*
X102867094Y-134251647D01*
X102887632Y-134245232D01*
X102934267Y-134230666D01*
X102934271Y-134230665D01*
X102938809Y-134229247D01*
X103004622Y-134197121D01*
X103069640Y-134165383D01*
X103069642Y-134165382D01*
X103077979Y-134161312D01*
X103089374Y-134150733D01*
X103181791Y-134064933D01*
X103181793Y-134064931D01*
X103185091Y-134061869D01*
X103229717Y-134006651D01*
X103304476Y-133881054D01*
X103340819Y-133739487D01*
X103348507Y-133668908D01*
X103347818Y-133648819D01*
X103365473Y-133580053D01*
X103417504Y-133531748D01*
X103473744Y-133518500D01*
X103503654Y-133518500D01*
X103571775Y-133538502D01*
X103618268Y-133592158D01*
X103629550Y-133639374D01*
X103632253Y-133705776D01*
X103633073Y-133710193D01*
X103656877Y-133838457D01*
X103658923Y-133849484D01*
X103662995Y-133857519D01*
X103662996Y-133857521D01*
X103720355Y-133970692D01*
X103724998Y-133979853D01*
X103727583Y-133983536D01*
X103763197Y-134034288D01*
X103763201Y-134034293D01*
X103765780Y-134037968D01*
X103768857Y-134041240D01*
X103768861Y-134041245D01*
X103806369Y-134081130D01*
X103865907Y-134144441D01*
X103991975Y-134218391D01*
X103996138Y-134220091D01*
X103996140Y-134220092D01*
X104022033Y-134230666D01*
X104057702Y-134245232D01*
X104103729Y-134256735D01*
X104112902Y-134260498D01*
X104113202Y-134259593D01*
X104210310Y-134291802D01*
X104236759Y-134304135D01*
X104289755Y-134336802D01*
X104300784Y-134344440D01*
X104307430Y-134349587D01*
X104307801Y-134349839D01*
X104351091Y-134405895D01*
X104359036Y-134438689D01*
X104364327Y-134489682D01*
X104365000Y-134502686D01*
X104365000Y-135187720D01*
X104364342Y-135200583D01*
X104364107Y-135202873D01*
X104358359Y-135229675D01*
X104348199Y-135260308D01*
X104335864Y-135286760D01*
X104321301Y-135310385D01*
X104303215Y-135333286D01*
X104283603Y-135352932D01*
X104260735Y-135371057D01*
X104239765Y-135384034D01*
X104237138Y-135385659D01*
X104210711Y-135398038D01*
X104180227Y-135408208D01*
X104153379Y-135414009D01*
X104151493Y-135414205D01*
X104150335Y-135414325D01*
X104137312Y-135415000D01*
X104110493Y-135415000D01*
X104109579Y-135415028D01*
X104109559Y-135415028D01*
X104092361Y-135415549D01*
X104079406Y-135415942D01*
X104067755Y-135416649D01*
X104065110Y-135416809D01*
X104065107Y-135416809D01*
X104064171Y-135416866D01*
X104033168Y-135419692D01*
X103892075Y-135457832D01*
X103887939Y-135459614D01*
X103831001Y-135484145D01*
X103830996Y-135484148D01*
X103826873Y-135485924D01*
X103702244Y-135562267D01*
X103604168Y-135670633D01*
X103564503Y-135729517D01*
X103500929Y-135861127D01*
X103493646Y-135884085D01*
X103492834Y-135886671D01*
X103492488Y-135887782D01*
X103491699Y-135890337D01*
X103464499Y-135979305D01*
X103463495Y-135978998D01*
X103461966Y-135986699D01*
X103462694Y-135986944D01*
X103461568Y-135990290D01*
X103460251Y-135993578D01*
X103453035Y-136019794D01*
X103439850Y-136082990D01*
X103439850Y-136229148D01*
X103441779Y-136242568D01*
X103431679Y-136312838D01*
X103385188Y-136366495D01*
X103317063Y-136386500D01*
X100964500Y-136386500D01*
X100896379Y-136366498D01*
X100849886Y-136312842D01*
X100838500Y-136260500D01*
X100838500Y-132078594D01*
X100858502Y-132010473D01*
X100912158Y-131963980D01*
X100982432Y-131953876D01*
X101047012Y-131983370D01*
G37*
%TD.AperFunction*%
%TA.AperFunction,Conductor*%
G36*
X134108039Y-132076699D02*
G01*
X134108169Y-132076725D01*
X134108548Y-132076806D01*
X134108976Y-132076890D01*
X134108988Y-132076892D01*
X134124762Y-132079972D01*
X134124803Y-132079980D01*
X134125317Y-132080080D01*
X134125848Y-132080174D01*
X134125872Y-132080179D01*
X134133091Y-132081464D01*
X134133109Y-132081467D01*
X134133575Y-132081550D01*
X134150490Y-132084270D01*
X134241500Y-132084270D01*
X134309621Y-132104272D01*
X134356114Y-132157928D01*
X134367500Y-132210270D01*
X134367500Y-132899740D01*
X134366973Y-132910923D01*
X134365298Y-132918416D01*
X134365547Y-132926342D01*
X134365547Y-132926343D01*
X134367438Y-132986493D01*
X134367500Y-132990452D01*
X134367500Y-133018363D01*
X134367997Y-133022297D01*
X134367997Y-133022298D01*
X134368005Y-133022363D01*
X134368938Y-133034200D01*
X134370327Y-133078396D01*
X134375978Y-133097846D01*
X134379987Y-133117207D01*
X134382526Y-133137304D01*
X134385445Y-133144675D01*
X134385445Y-133144677D01*
X134398804Y-133178419D01*
X134402649Y-133189649D01*
X134414982Y-133232100D01*
X134419015Y-133238919D01*
X134419017Y-133238924D01*
X134425293Y-133249535D01*
X134433988Y-133267283D01*
X134441448Y-133286124D01*
X134446110Y-133292540D01*
X134446110Y-133292541D01*
X134467436Y-133321894D01*
X134473952Y-133331814D01*
X134493473Y-133364822D01*
X134511020Y-133428962D01*
X134511020Y-134129000D01*
X134491018Y-134197121D01*
X134437362Y-134243614D01*
X134385020Y-134255000D01*
X133252282Y-134255000D01*
X133239436Y-134254343D01*
X133237143Y-134254108D01*
X133210327Y-134248360D01*
X133179688Y-134238197D01*
X133153244Y-134225866D01*
X133129613Y-134211299D01*
X133106716Y-134193216D01*
X133096969Y-134183487D01*
X133087065Y-134173599D01*
X133068942Y-134150733D01*
X133065048Y-134144441D01*
X133054341Y-134127139D01*
X133041962Y-134100711D01*
X133031792Y-134070227D01*
X133025991Y-134043375D01*
X133025675Y-134040334D01*
X133025000Y-134027311D01*
X133025000Y-133342280D01*
X133025658Y-133329417D01*
X133025893Y-133327127D01*
X133031641Y-133300325D01*
X133041801Y-133269692D01*
X133054136Y-133243240D01*
X133068699Y-133219615D01*
X133086785Y-133196714D01*
X133106397Y-133177068D01*
X133129261Y-133158946D01*
X133152874Y-133144334D01*
X133177432Y-133132831D01*
X133177365Y-133132648D01*
X133178908Y-133132087D01*
X133180507Y-133131554D01*
X133182081Y-133130935D01*
X133229350Y-133112340D01*
X133229361Y-133112335D01*
X133230915Y-133111724D01*
X133255075Y-133100715D01*
X133303129Y-133075677D01*
X133309613Y-133070477D01*
X133413643Y-132987050D01*
X133413647Y-132987046D01*
X133417150Y-132984237D01*
X133456815Y-132941836D01*
X133462579Y-132935674D01*
X133462579Y-132935673D01*
X133465651Y-132932390D01*
X133549289Y-132812538D01*
X133595776Y-132673970D01*
X133608548Y-132604132D01*
X133612877Y-132490511D01*
X133635458Y-132423201D01*
X133649691Y-132406213D01*
X133953415Y-132102489D01*
X134015727Y-132068463D01*
X134068708Y-132068338D01*
X134108039Y-132076699D01*
G37*
%TD.AperFunction*%
%TA.AperFunction,Conductor*%
G36*
X102198966Y-130655455D02*
G01*
X102254282Y-130667213D01*
X102279334Y-130675352D01*
X102306904Y-130687627D01*
X102371381Y-130716334D01*
X102411918Y-130732357D01*
X102413165Y-130732790D01*
X102413174Y-130732793D01*
X102430827Y-130738918D01*
X102430836Y-130738921D01*
X102432090Y-130739356D01*
X102433353Y-130739735D01*
X102468190Y-130750191D01*
X102468192Y-130750191D01*
X102473778Y-130751868D01*
X102479576Y-130752487D01*
X102479580Y-130752488D01*
X102614639Y-130766911D01*
X102614645Y-130766911D01*
X102619110Y-130767388D01*
X102690060Y-130764803D01*
X102694489Y-130764001D01*
X102694495Y-130764000D01*
X102796538Y-130745514D01*
X102805992Y-130744169D01*
X102824031Y-130742297D01*
X102839683Y-130740673D01*
X102852686Y-130740000D01*
X104187718Y-130740000D01*
X104200564Y-130740657D01*
X104202857Y-130740892D01*
X104229673Y-130746640D01*
X104260312Y-130756803D01*
X104286760Y-130769136D01*
X104310386Y-130783700D01*
X104333286Y-130801785D01*
X104352930Y-130821395D01*
X104371055Y-130844262D01*
X104385662Y-130867866D01*
X104398040Y-130894290D01*
X104408209Y-130924772D01*
X104414010Y-130951631D01*
X104414326Y-130954674D01*
X104415000Y-130967688D01*
X104415000Y-131391346D01*
X104424794Y-131491160D01*
X104434316Y-131539212D01*
X104463332Y-131635234D01*
X104537734Y-131761037D01*
X104582204Y-131816381D01*
X104689028Y-131916122D01*
X104697078Y-131920166D01*
X104697081Y-131920168D01*
X104737062Y-131940253D01*
X104788954Y-131988706D01*
X104806500Y-132052844D01*
X104806500Y-132125500D01*
X104786498Y-132193621D01*
X104732842Y-132240114D01*
X104680500Y-132251500D01*
X103159595Y-132251500D01*
X103091474Y-132231498D01*
X103070500Y-132214595D01*
X101762405Y-130906500D01*
X101728379Y-130844188D01*
X101725500Y-130817405D01*
X101725500Y-130813047D01*
X101745502Y-130744926D01*
X101799158Y-130698433D01*
X101843107Y-130687328D01*
X101938058Y-130680991D01*
X101979968Y-130678194D01*
X101979971Y-130678194D01*
X101984460Y-130677894D01*
X101988860Y-130676959D01*
X101988865Y-130676958D01*
X102090025Y-130655455D01*
X102116222Y-130652701D01*
X102172769Y-130652701D01*
X102198966Y-130655455D01*
G37*
%TD.AperFunction*%
%TA.AperFunction,Conductor*%
G36*
X130710906Y-121138382D02*
G01*
X130731881Y-121155285D01*
X131474596Y-121898001D01*
X131508621Y-121960313D01*
X131511500Y-121987096D01*
X131511500Y-122009768D01*
X131491498Y-122077889D01*
X131437842Y-122124382D01*
X131383021Y-122135744D01*
X130800101Y-122124271D01*
X130723940Y-122122772D01*
X129181977Y-122092423D01*
X129174690Y-122092409D01*
X129164372Y-122092389D01*
X129164360Y-122092389D01*
X129163795Y-122092388D01*
X129156725Y-122092499D01*
X129155528Y-122092518D01*
X129155521Y-122092518D01*
X129154896Y-122092528D01*
X129154315Y-122092547D01*
X129154289Y-122092548D01*
X129141840Y-122092963D01*
X129141836Y-122092963D01*
X129136781Y-122093132D01*
X129061616Y-122107887D01*
X128997781Y-122120417D01*
X128997776Y-122120418D01*
X128993361Y-122121285D01*
X128926351Y-122144735D01*
X128922354Y-122146813D01*
X128800655Y-122210082D01*
X128800652Y-122210084D01*
X128796670Y-122212154D01*
X127922555Y-122839141D01*
X125076081Y-124880866D01*
X124941768Y-124977206D01*
X124939531Y-124979154D01*
X124939529Y-124979156D01*
X124871057Y-125038795D01*
X124871048Y-125038804D01*
X124868818Y-125040746D01*
X124836259Y-125075010D01*
X124776518Y-125151112D01*
X124715802Y-125284061D01*
X124714534Y-125288380D01*
X124704645Y-125322060D01*
X124695800Y-125352182D01*
X124675000Y-125496851D01*
X124675000Y-125947720D01*
X124674342Y-125960583D01*
X124674107Y-125962873D01*
X124668358Y-125989677D01*
X124658197Y-126020312D01*
X124645865Y-126046759D01*
X124631306Y-126070379D01*
X124613218Y-126093283D01*
X124593603Y-126112932D01*
X124570735Y-126131057D01*
X124552251Y-126142495D01*
X124547138Y-126145659D01*
X124520711Y-126158038D01*
X124490227Y-126168208D01*
X124463379Y-126174009D01*
X124461493Y-126174205D01*
X124460335Y-126174325D01*
X124447312Y-126175000D01*
X123687282Y-126175000D01*
X123674440Y-126174344D01*
X123665197Y-126173397D01*
X123665187Y-126173396D01*
X123665130Y-126173390D01*
X123665003Y-126173377D01*
X123664976Y-126173374D01*
X123633280Y-126170127D01*
X123625669Y-126169347D01*
X123620922Y-126168769D01*
X123617564Y-126168296D01*
X123608189Y-126166973D01*
X123605634Y-126166335D01*
X123605692Y-126165910D01*
X123572318Y-126161389D01*
X123569624Y-126161024D01*
X123569622Y-126161024D01*
X123566737Y-126160633D01*
X123563825Y-126160511D01*
X123563823Y-126160511D01*
X123544553Y-126159705D01*
X123471609Y-126156654D01*
X123328189Y-126184807D01*
X123261181Y-126208257D01*
X123257191Y-126210332D01*
X123257185Y-126210334D01*
X123179191Y-126250883D01*
X123131505Y-126275675D01*
X123127847Y-126278299D01*
X123127845Y-126278300D01*
X123065892Y-126322738D01*
X122973554Y-126388970D01*
X122960036Y-126398666D01*
X122851402Y-126504029D01*
X122806785Y-126562382D01*
X122733585Y-126694831D01*
X122731634Y-126703800D01*
X122728409Y-126712379D01*
X122726784Y-126711768D01*
X122697943Y-126764592D01*
X122635632Y-126798619D01*
X122608844Y-126801500D01*
X122398498Y-126801500D01*
X122396050Y-126801693D01*
X122396042Y-126801693D01*
X122367579Y-126803933D01*
X122367574Y-126803934D01*
X122361169Y-126804438D01*
X122266712Y-126831880D01*
X122209012Y-126848643D01*
X122209010Y-126848644D01*
X122201399Y-126850855D01*
X122194572Y-126854892D01*
X122194573Y-126854892D01*
X122084904Y-126919750D01*
X122016088Y-126937210D01*
X121989433Y-126933339D01*
X121972532Y-126929000D01*
X121973119Y-126926713D01*
X121918896Y-126903066D01*
X121892619Y-126872743D01*
X121867332Y-126831880D01*
X121863478Y-126825652D01*
X121776891Y-126739216D01*
X121742812Y-126676934D01*
X121747815Y-126606114D01*
X121776736Y-126561025D01*
X121859134Y-126478483D01*
X121864305Y-126473303D01*
X121901294Y-126413296D01*
X121953275Y-126328968D01*
X121953276Y-126328966D01*
X121957115Y-126322738D01*
X121994398Y-126210334D01*
X122010632Y-126161389D01*
X122010632Y-126161387D01*
X122012797Y-126154861D01*
X122014031Y-126142824D01*
X122023172Y-126053598D01*
X122023500Y-126050400D01*
X122023500Y-125424600D01*
X122019708Y-125388054D01*
X122013238Y-125325692D01*
X122013237Y-125325688D01*
X122012526Y-125318834D01*
X121956550Y-125151054D01*
X121863478Y-125000652D01*
X121841945Y-124979156D01*
X121743483Y-124880866D01*
X121738303Y-124875695D01*
X121656788Y-124825448D01*
X121593968Y-124786725D01*
X121593966Y-124786724D01*
X121587738Y-124782885D01*
X121441005Y-124734216D01*
X121426389Y-124729368D01*
X121426387Y-124729368D01*
X121419861Y-124727203D01*
X121413025Y-124726503D01*
X121413022Y-124726502D01*
X121369969Y-124722091D01*
X121315400Y-124716500D01*
X121229020Y-124716500D01*
X121160899Y-124696498D01*
X121114406Y-124642842D01*
X121103020Y-124590500D01*
X121103020Y-121244380D01*
X121123022Y-121176259D01*
X121176678Y-121129766D01*
X121229020Y-121118380D01*
X130642785Y-121118380D01*
X130710906Y-121138382D01*
G37*
%TD.AperFunction*%
%TA.AperFunction,Conductor*%
G36*
X132914869Y-125169067D02*
G01*
X132940302Y-125188706D01*
X133050555Y-125298959D01*
X133084581Y-125361271D01*
X133087460Y-125388054D01*
X133087460Y-126611632D01*
X133067458Y-126679753D01*
X133013802Y-126726246D01*
X132965056Y-126737581D01*
X132946984Y-126738096D01*
X132930341Y-126738571D01*
X132930339Y-126738571D01*
X132917565Y-126738936D01*
X132917625Y-126741022D01*
X132911754Y-126742153D01*
X132829516Y-126747642D01*
X132829514Y-126747642D01*
X132825023Y-126747942D01*
X132710694Y-126772244D01*
X132639906Y-126766842D01*
X132583274Y-126724025D01*
X132558780Y-126657388D01*
X132558500Y-126648997D01*
X132558500Y-126220807D01*
X132578502Y-126152686D01*
X132586450Y-126142824D01*
X132586026Y-126142495D01*
X132590882Y-126136235D01*
X132596488Y-126130629D01*
X132679894Y-125989597D01*
X132683677Y-125976578D01*
X132723811Y-125838431D01*
X132725606Y-125832254D01*
X132728500Y-125795484D01*
X132728500Y-125324516D01*
X132725606Y-125287746D01*
X132728702Y-125287502D01*
X132734519Y-125230262D01*
X132778745Y-125174722D01*
X132845976Y-125151910D01*
X132914869Y-125169067D01*
G37*
%TD.AperFunction*%
%TA.AperFunction,Conductor*%
G36*
X113681347Y-119108013D02*
G01*
X113727840Y-119161669D01*
X113739226Y-119214011D01*
X113739226Y-119286719D01*
X113738699Y-119297902D01*
X113737024Y-119305395D01*
X113737273Y-119313321D01*
X113737273Y-119313322D01*
X113739164Y-119373472D01*
X113739226Y-119377431D01*
X113739226Y-119405342D01*
X113739723Y-119409276D01*
X113739723Y-119409277D01*
X113739731Y-119409342D01*
X113740664Y-119421179D01*
X113742053Y-119465375D01*
X113747704Y-119484825D01*
X113751713Y-119504186D01*
X113754252Y-119524283D01*
X113757171Y-119531654D01*
X113757171Y-119531656D01*
X113770530Y-119565398D01*
X113774374Y-119576624D01*
X113775620Y-119580911D01*
X113779523Y-119594346D01*
X113779321Y-119665342D01*
X113740767Y-119724959D01*
X113676102Y-119754268D01*
X113658526Y-119755500D01*
X112320190Y-119755500D01*
X112293615Y-119756924D01*
X112267001Y-119758350D01*
X112266991Y-119758351D01*
X112265308Y-119758441D01*
X112238525Y-119761320D01*
X112236868Y-119761588D01*
X112236857Y-119761590D01*
X112190360Y-119769125D01*
X112190355Y-119769126D01*
X112184248Y-119770116D01*
X112178451Y-119772278D01*
X112178448Y-119772279D01*
X112051521Y-119819622D01*
X112051519Y-119819623D01*
X112047307Y-119821194D01*
X111984995Y-119855220D01*
X111981395Y-119857915D01*
X111871598Y-119940109D01*
X111871594Y-119940113D01*
X111867996Y-119942806D01*
X108028207Y-123782595D01*
X107965895Y-123816621D01*
X107939112Y-123819500D01*
X106806000Y-123819500D01*
X106802654Y-123819860D01*
X106802649Y-123819860D01*
X106700215Y-123830872D01*
X106700208Y-123830873D01*
X106696851Y-123831234D01*
X106693559Y-123831950D01*
X106693541Y-123831953D01*
X106687167Y-123833340D01*
X106616351Y-123828274D01*
X106571290Y-123799314D01*
X106235404Y-123463427D01*
X106201379Y-123401115D01*
X106198500Y-123374332D01*
X106198500Y-123369516D01*
X106195606Y-123332746D01*
X106149894Y-123175403D01*
X106066488Y-123034371D01*
X105950629Y-122918512D01*
X105943808Y-122914478D01*
X105816420Y-122839141D01*
X105816419Y-122839141D01*
X105809597Y-122835106D01*
X105801986Y-122832895D01*
X105801984Y-122832894D01*
X105751005Y-122818084D01*
X105652254Y-122789394D01*
X105645849Y-122788890D01*
X105645844Y-122788889D01*
X105617940Y-122786693D01*
X105617932Y-122786693D01*
X105615484Y-122786500D01*
X105204516Y-122786500D01*
X105202068Y-122786693D01*
X105202060Y-122786693D01*
X105174156Y-122788889D01*
X105174151Y-122788890D01*
X105167746Y-122789394D01*
X105068995Y-122818084D01*
X105018016Y-122832894D01*
X105018014Y-122832895D01*
X105010403Y-122835106D01*
X105003581Y-122839141D01*
X105003580Y-122839141D01*
X104876192Y-122914478D01*
X104869371Y-122918512D01*
X104753512Y-123034371D01*
X104670106Y-123175403D01*
X104624394Y-123332746D01*
X104621500Y-123369516D01*
X104621500Y-123840484D01*
X104624394Y-123877254D01*
X104670106Y-124034597D01*
X104674141Y-124041419D01*
X104674141Y-124041420D01*
X104749478Y-124168808D01*
X104753512Y-124175629D01*
X104807312Y-124229429D01*
X104841338Y-124291741D01*
X104839214Y-124353676D01*
X104811233Y-124449989D01*
X104809438Y-124456169D01*
X104806500Y-124493498D01*
X104806500Y-124660982D01*
X104786498Y-124729103D01*
X104726884Y-124778134D01*
X104715089Y-124782804D01*
X104703865Y-124786646D01*
X104696561Y-124788768D01*
X104661407Y-124798982D01*
X104654581Y-124803019D01*
X104643972Y-124809293D01*
X104626224Y-124817988D01*
X104607383Y-124825448D01*
X104600967Y-124830110D01*
X104600966Y-124830110D01*
X104571613Y-124851436D01*
X104561693Y-124857952D01*
X104530465Y-124876420D01*
X104530462Y-124876422D01*
X104523638Y-124880458D01*
X104517001Y-124887095D01*
X104515999Y-124887642D01*
X104511772Y-124890921D01*
X104511243Y-124890239D01*
X104454689Y-124921121D01*
X104427906Y-124924000D01*
X104197634Y-124924000D01*
X104129513Y-124903998D01*
X104090490Y-124864303D01*
X104067332Y-124826880D01*
X104063478Y-124820652D01*
X103976891Y-124734216D01*
X103942812Y-124671934D01*
X103947815Y-124601114D01*
X103976736Y-124556025D01*
X104059134Y-124473483D01*
X104064305Y-124468303D01*
X104075594Y-124449989D01*
X104153275Y-124323968D01*
X104153276Y-124323966D01*
X104157115Y-124317738D01*
X104212797Y-124149861D01*
X104223500Y-124045400D01*
X104223500Y-123419600D01*
X104218560Y-123371986D01*
X104213238Y-123320692D01*
X104213237Y-123320688D01*
X104212526Y-123313834D01*
X104156550Y-123146054D01*
X104063478Y-122995652D01*
X103938303Y-122870695D01*
X103887113Y-122839141D01*
X103793968Y-122781725D01*
X103793966Y-122781724D01*
X103787738Y-122777885D01*
X103707995Y-122751436D01*
X103626389Y-122724368D01*
X103626387Y-122724368D01*
X103619861Y-122722203D01*
X103613025Y-122721503D01*
X103613022Y-122721502D01*
X103569969Y-122717091D01*
X103515400Y-122711500D01*
X102942095Y-122711500D01*
X102873974Y-122691498D01*
X102853000Y-122674595D01*
X102661427Y-122483022D01*
X102627401Y-122420710D01*
X102624522Y-122393927D01*
X102624522Y-119558573D01*
X102644524Y-119490452D01*
X102661427Y-119469477D01*
X103005990Y-119124915D01*
X103068302Y-119090890D01*
X103095085Y-119088011D01*
X113613226Y-119088011D01*
X113681347Y-119108013D01*
G37*
%TD.AperFunction*%
%TA.AperFunction,Conductor*%
G36*
X128117727Y-117092010D02*
G01*
X128190912Y-117124594D01*
X128284313Y-117144447D01*
X128371256Y-117162928D01*
X128371261Y-117162928D01*
X128377713Y-117164300D01*
X128568687Y-117164300D01*
X128575139Y-117162928D01*
X128575144Y-117162928D01*
X128718699Y-117132414D01*
X128789490Y-117137816D01*
X128846122Y-117180633D01*
X128870616Y-117247271D01*
X128855195Y-117316572D01*
X128833991Y-117344756D01*
X128697138Y-117481609D01*
X128684746Y-117492477D01*
X128659630Y-117511749D01*
X128562855Y-117637869D01*
X128523531Y-117732807D01*
X128502020Y-117784738D01*
X128481270Y-117942349D01*
X128482348Y-117950537D01*
X128485402Y-117973735D01*
X128486480Y-117990181D01*
X128486480Y-118261948D01*
X128466478Y-118330069D01*
X128412822Y-118376562D01*
X128360480Y-118387948D01*
X127499500Y-118387948D01*
X127431379Y-118367946D01*
X127384886Y-118314290D01*
X127373500Y-118261948D01*
X127373500Y-117330600D01*
X127372045Y-117316572D01*
X127367638Y-117274104D01*
X127380503Y-117204283D01*
X127429073Y-117152500D01*
X127492965Y-117135100D01*
X127820065Y-117135099D01*
X127836988Y-117135099D01*
X127873466Y-117132229D01*
X128029596Y-117086869D01*
X128030435Y-117089756D01*
X128086878Y-117082779D01*
X128117727Y-117092010D01*
G37*
%TD.AperFunction*%
%TA.AperFunction,Conductor*%
G36*
X102963592Y-104033502D02*
G01*
X103010085Y-104087158D01*
X103020189Y-104157432D01*
X103009666Y-104192750D01*
X102941560Y-104338804D01*
X102884022Y-104553537D01*
X102864647Y-104775000D01*
X102884022Y-104996463D01*
X102899141Y-105052888D01*
X102926078Y-105153415D01*
X102941560Y-105211196D01*
X102943882Y-105216177D01*
X102943883Y-105216178D01*
X103033186Y-105407689D01*
X103033189Y-105407694D01*
X103035512Y-105412676D01*
X103038667Y-105417182D01*
X103038669Y-105417185D01*
X103141429Y-105563941D01*
X103163023Y-105594781D01*
X103320219Y-105751977D01*
X103324727Y-105755134D01*
X103324730Y-105755136D01*
X103394435Y-105803944D01*
X103502323Y-105879488D01*
X103507305Y-105881811D01*
X103507310Y-105881814D01*
X103698822Y-105971117D01*
X103703804Y-105973440D01*
X103709112Y-105974862D01*
X103709114Y-105974863D01*
X103740624Y-105983306D01*
X103918537Y-106030978D01*
X104140000Y-106050353D01*
X104361463Y-106030978D01*
X104539376Y-105983306D01*
X104570886Y-105974863D01*
X104570888Y-105974862D01*
X104576196Y-105973440D01*
X104581178Y-105971117D01*
X104772690Y-105881814D01*
X104772695Y-105881811D01*
X104777677Y-105879488D01*
X104885565Y-105803944D01*
X104955270Y-105755136D01*
X104955273Y-105755134D01*
X104959781Y-105751977D01*
X105116977Y-105594781D01*
X105138572Y-105563941D01*
X105241331Y-105417185D01*
X105241333Y-105417182D01*
X105244488Y-105412676D01*
X105246811Y-105407694D01*
X105246814Y-105407689D01*
X105336117Y-105216178D01*
X105336118Y-105216177D01*
X105338440Y-105211196D01*
X105353923Y-105153415D01*
X105380859Y-105052888D01*
X105395978Y-104996463D01*
X105415353Y-104775000D01*
X105395978Y-104553537D01*
X105338440Y-104338804D01*
X105270334Y-104192750D01*
X105259673Y-104122558D01*
X105288653Y-104057746D01*
X105348073Y-104018889D01*
X105384529Y-104013500D01*
X107975471Y-104013500D01*
X108043592Y-104033502D01*
X108090085Y-104087158D01*
X108100189Y-104157432D01*
X108089666Y-104192750D01*
X108021560Y-104338804D01*
X107964022Y-104553537D01*
X107944647Y-104775000D01*
X107964022Y-104996463D01*
X107979141Y-105052888D01*
X108006078Y-105153415D01*
X108021560Y-105211196D01*
X108023882Y-105216177D01*
X108023883Y-105216178D01*
X108113186Y-105407689D01*
X108113189Y-105407694D01*
X108115512Y-105412676D01*
X108118667Y-105417182D01*
X108118669Y-105417185D01*
X108221429Y-105563941D01*
X108243023Y-105594781D01*
X108400219Y-105751977D01*
X108404727Y-105755134D01*
X108404730Y-105755136D01*
X108474435Y-105803944D01*
X108582323Y-105879488D01*
X108587305Y-105881811D01*
X108587310Y-105881814D01*
X108778822Y-105971117D01*
X108783804Y-105973440D01*
X108789112Y-105974862D01*
X108789114Y-105974863D01*
X108820624Y-105983306D01*
X108998537Y-106030978D01*
X109220000Y-106050353D01*
X109441463Y-106030978D01*
X109619376Y-105983306D01*
X109650886Y-105974863D01*
X109650888Y-105974862D01*
X109656196Y-105973440D01*
X109661178Y-105971117D01*
X109852690Y-105881814D01*
X109852695Y-105881811D01*
X109857677Y-105879488D01*
X109965565Y-105803944D01*
X110035270Y-105755136D01*
X110035273Y-105755134D01*
X110039781Y-105751977D01*
X110196977Y-105594781D01*
X110218572Y-105563941D01*
X110321331Y-105417185D01*
X110321333Y-105417182D01*
X110324488Y-105412676D01*
X110326811Y-105407694D01*
X110326814Y-105407689D01*
X110416117Y-105216178D01*
X110416118Y-105216177D01*
X110418440Y-105211196D01*
X110433923Y-105153415D01*
X110460859Y-105052888D01*
X110475978Y-104996463D01*
X110495353Y-104775000D01*
X110475978Y-104553537D01*
X110418440Y-104338804D01*
X110350334Y-104192750D01*
X110339673Y-104122558D01*
X110368653Y-104057746D01*
X110428073Y-104018889D01*
X110464529Y-104013500D01*
X113055471Y-104013500D01*
X113123592Y-104033502D01*
X113170085Y-104087158D01*
X113180189Y-104157432D01*
X113169666Y-104192750D01*
X113101560Y-104338804D01*
X113044022Y-104553537D01*
X113024647Y-104775000D01*
X113044022Y-104996463D01*
X113056001Y-105041167D01*
X113086078Y-105153415D01*
X113084388Y-105224392D01*
X113044594Y-105283188D01*
X112979330Y-105311136D01*
X112964371Y-105312027D01*
X111206724Y-105312027D01*
X111190277Y-105310949D01*
X111169161Y-105308169D01*
X111160973Y-105307091D01*
X111011651Y-105326750D01*
X110872505Y-105384386D01*
X110865954Y-105389413D01*
X110865952Y-105389414D01*
X110862727Y-105391889D01*
X110796980Y-105442339D01*
X110753018Y-105476072D01*
X110747992Y-105482622D01*
X110747989Y-105482625D01*
X110735024Y-105499522D01*
X110724157Y-105511913D01*
X110271573Y-105964497D01*
X110230696Y-105991811D01*
X110205981Y-106002049D01*
X110159079Y-106021476D01*
X110122070Y-106049874D01*
X110063892Y-106094515D01*
X110063876Y-106094529D01*
X110038521Y-106113984D01*
X110038518Y-106113987D01*
X110031968Y-106119013D01*
X110026938Y-106125568D01*
X110012503Y-106144379D01*
X110001636Y-106156770D01*
X109648265Y-106510141D01*
X109635874Y-106521008D01*
X109610512Y-106540469D01*
X109586025Y-106572381D01*
X109586022Y-106572384D01*
X109512975Y-106667580D01*
X109451661Y-106815605D01*
X109451661Y-106815606D01*
X109449913Y-106828882D01*
X109435999Y-106934571D01*
X109435999Y-106934576D01*
X109431894Y-106965762D01*
X109430749Y-106974456D01*
X109431827Y-106982645D01*
X109431827Y-106982648D01*
X109433754Y-106997288D01*
X109422813Y-107067437D01*
X109397927Y-107102826D01*
X109285694Y-107215059D01*
X109281660Y-107221880D01*
X109215391Y-107333936D01*
X109202931Y-107355004D01*
X109157571Y-107511134D01*
X109154700Y-107547611D01*
X109154701Y-108047588D01*
X109157571Y-108084066D01*
X109202931Y-108240196D01*
X109285694Y-108380141D01*
X109324295Y-108418742D01*
X109358321Y-108481054D01*
X109361200Y-108507837D01*
X109361200Y-109100056D01*
X109360122Y-109116502D01*
X109356265Y-109145800D01*
X109361200Y-109183286D01*
X109361200Y-109183292D01*
X109374872Y-109287142D01*
X109375923Y-109295122D01*
X109379082Y-109302748D01*
X109379082Y-109302749D01*
X109426408Y-109417004D01*
X109435999Y-109465222D01*
X109435999Y-109849954D01*
X109434921Y-109866397D01*
X109430749Y-109898090D01*
X109431827Y-109906277D01*
X109433877Y-109921849D01*
X109422938Y-109991998D01*
X109375809Y-110045096D01*
X109307455Y-110064286D01*
X109271276Y-110058529D01*
X109183439Y-110031003D01*
X109152308Y-110021247D01*
X109078881Y-110014500D01*
X109075983Y-110014500D01*
X108821581Y-110014501D01*
X108565612Y-110014501D01*
X108562754Y-110014764D01*
X108562745Y-110014764D01*
X108527242Y-110018026D01*
X108492184Y-110021247D01*
X108485806Y-110023246D01*
X108485805Y-110023246D01*
X108335796Y-110070256D01*
X108335794Y-110070257D01*
X108328547Y-110072528D01*
X108270339Y-110107780D01*
X108201710Y-110125959D01*
X108178873Y-110123251D01*
X108119632Y-110110659D01*
X108026544Y-110090872D01*
X108026539Y-110090872D01*
X108020087Y-110089500D01*
X107829113Y-110089500D01*
X107822661Y-110090872D01*
X107822656Y-110090872D01*
X107743113Y-110107780D01*
X107642312Y-110129206D01*
X107636282Y-110131891D01*
X107636281Y-110131891D01*
X107473878Y-110204197D01*
X107473876Y-110204198D01*
X107467848Y-110206882D01*
X107462507Y-110210762D01*
X107462506Y-110210763D01*
X107430596Y-110233947D01*
X107313347Y-110319134D01*
X107308926Y-110324044D01*
X107308925Y-110324045D01*
X107199405Y-110445680D01*
X107185560Y-110461056D01*
X107090073Y-110626444D01*
X107031058Y-110808072D01*
X107030368Y-110814633D01*
X107030368Y-110814635D01*
X107012828Y-110981519D01*
X107011096Y-110998000D01*
X107011786Y-111004565D01*
X107029150Y-111169771D01*
X107031058Y-111187928D01*
X107090073Y-111369556D01*
X107093376Y-111375278D01*
X107093377Y-111375279D01*
X107098808Y-111384686D01*
X107185560Y-111534944D01*
X107189978Y-111539851D01*
X107189979Y-111539852D01*
X107295603Y-111657159D01*
X107313347Y-111676866D01*
X107392636Y-111734473D01*
X107439268Y-111768353D01*
X107467848Y-111789118D01*
X107473876Y-111791802D01*
X107473878Y-111791803D01*
X107636281Y-111864109D01*
X107642312Y-111866794D01*
X107735712Y-111886647D01*
X107822656Y-111905128D01*
X107822661Y-111905128D01*
X107829113Y-111906500D01*
X108020087Y-111906500D01*
X108026539Y-111905128D01*
X108026544Y-111905128D01*
X108129833Y-111883173D01*
X108178872Y-111872749D01*
X108249662Y-111878151D01*
X108270337Y-111888219D01*
X108328547Y-111923472D01*
X108335794Y-111925743D01*
X108335796Y-111925744D01*
X108394048Y-111943999D01*
X108492184Y-111974753D01*
X108565611Y-111981500D01*
X108568509Y-111981500D01*
X108822911Y-111981499D01*
X109078880Y-111981499D01*
X109081738Y-111981236D01*
X109081747Y-111981236D01*
X109117250Y-111977974D01*
X109152308Y-111974753D01*
X109158693Y-111972752D01*
X109308696Y-111925744D01*
X109308698Y-111925743D01*
X109315945Y-111923472D01*
X109404877Y-111869614D01*
X109473504Y-111851435D01*
X109541068Y-111873245D01*
X109586114Y-111928121D01*
X109594341Y-111998639D01*
X109589739Y-112017057D01*
X109559818Y-112107268D01*
X109554851Y-112122243D01*
X109554151Y-112129080D01*
X109554150Y-112129082D01*
X109552991Y-112140394D01*
X109544500Y-112223268D01*
X109544500Y-112820732D01*
X109555113Y-112923019D01*
X109557295Y-112929559D01*
X109600444Y-113058890D01*
X109609244Y-113085268D01*
X109613096Y-113091492D01*
X109613096Y-113091493D01*
X109665037Y-113175428D01*
X109699248Y-113230713D01*
X109704430Y-113235886D01*
X109810284Y-113341556D01*
X109844363Y-113403839D01*
X109842264Y-113465880D01*
X109833994Y-113494346D01*
X109833490Y-113500751D01*
X109833489Y-113500756D01*
X109832299Y-113515878D01*
X109831100Y-113531116D01*
X109831100Y-114002084D01*
X109831293Y-114004532D01*
X109831293Y-114004540D01*
X109832808Y-114023783D01*
X109833994Y-114038854D01*
X109835891Y-114045384D01*
X109835890Y-114045589D01*
X109836946Y-114051368D01*
X109835874Y-114051564D01*
X109835691Y-114116378D01*
X109797139Y-114175995D01*
X109788966Y-114182467D01*
X109690543Y-114253976D01*
X109646045Y-114286306D01*
X109635891Y-114293683D01*
X109631470Y-114298593D01*
X109631469Y-114298594D01*
X109566022Y-114371281D01*
X109508104Y-114435605D01*
X109504803Y-114441323D01*
X109428087Y-114574199D01*
X109412617Y-114600993D01*
X109353602Y-114782621D01*
X109352912Y-114789182D01*
X109352912Y-114789184D01*
X109346276Y-114852324D01*
X109333640Y-114972549D01*
X109334330Y-114979114D01*
X109344120Y-115072257D01*
X109353602Y-115162477D01*
X109412617Y-115344105D01*
X109415920Y-115349827D01*
X109415921Y-115349828D01*
X109420800Y-115358279D01*
X109508104Y-115509493D01*
X109512522Y-115514400D01*
X109512523Y-115514401D01*
X109631469Y-115646504D01*
X109635891Y-115651415D01*
X109675279Y-115680032D01*
X109785047Y-115759784D01*
X109785050Y-115759785D01*
X109790392Y-115763667D01*
X109796426Y-115766353D01*
X109798999Y-115767839D01*
X109847992Y-115819223D01*
X109861427Y-115888936D01*
X109835040Y-115954847D01*
X109777207Y-115996028D01*
X109735998Y-116002958D01*
X108919791Y-116002958D01*
X108851670Y-115982956D01*
X108830696Y-115966053D01*
X108360069Y-115495426D01*
X108326043Y-115433114D01*
X108331108Y-115362299D01*
X108341901Y-115340220D01*
X108366115Y-115300938D01*
X108399213Y-115201150D01*
X108419632Y-115139589D01*
X108419632Y-115139587D01*
X108421797Y-115133061D01*
X108432500Y-115028600D01*
X108432500Y-113977800D01*
X108424187Y-113897676D01*
X108422238Y-113878892D01*
X108422237Y-113878888D01*
X108421526Y-113872034D01*
X108417496Y-113859953D01*
X108367868Y-113711202D01*
X108365550Y-113704254D01*
X108272478Y-113553852D01*
X108147303Y-113428895D01*
X108096657Y-113397676D01*
X108002968Y-113339925D01*
X108002966Y-113339924D01*
X107996738Y-113336085D01*
X107836254Y-113282855D01*
X107835389Y-113282568D01*
X107835387Y-113282568D01*
X107828861Y-113280403D01*
X107822025Y-113279703D01*
X107822022Y-113279702D01*
X107778969Y-113275291D01*
X107724400Y-113269700D01*
X106993762Y-113269700D01*
X106925641Y-113249698D01*
X106900128Y-113228013D01*
X106794846Y-113111085D01*
X106695750Y-113039087D01*
X106645687Y-113002714D01*
X106645686Y-113002713D01*
X106640345Y-112998833D01*
X106634317Y-112996149D01*
X106634315Y-112996148D01*
X106471912Y-112923842D01*
X106471911Y-112923842D01*
X106465881Y-112921157D01*
X106372481Y-112901304D01*
X106285537Y-112882823D01*
X106285532Y-112882823D01*
X106279080Y-112881451D01*
X106088106Y-112881451D01*
X106081654Y-112882823D01*
X106081649Y-112882823D01*
X105994705Y-112901304D01*
X105901305Y-112921157D01*
X105895275Y-112923842D01*
X105895274Y-112923842D01*
X105732871Y-112996148D01*
X105732869Y-112996149D01*
X105726841Y-112998833D01*
X105721500Y-113002713D01*
X105721499Y-113002714D01*
X105671436Y-113039087D01*
X105572340Y-113111085D01*
X105467059Y-113228012D01*
X105406614Y-113265250D01*
X105373424Y-113269700D01*
X104873600Y-113269700D01*
X104870354Y-113270037D01*
X104870350Y-113270037D01*
X104774692Y-113279962D01*
X104774688Y-113279963D01*
X104767834Y-113280674D01*
X104761298Y-113282855D01*
X104761296Y-113282855D01*
X104629194Y-113326928D01*
X104600054Y-113336650D01*
X104449652Y-113429722D01*
X104324695Y-113554897D01*
X104320855Y-113561127D01*
X104320854Y-113561128D01*
X104303571Y-113589167D01*
X104231885Y-113705462D01*
X104229581Y-113712409D01*
X104188482Y-113836320D01*
X104176203Y-113873339D01*
X104175503Y-113880175D01*
X104175502Y-113880178D01*
X104173730Y-113897473D01*
X104165500Y-113977800D01*
X104165500Y-115028600D01*
X104165837Y-115031846D01*
X104165837Y-115031850D01*
X104174101Y-115111496D01*
X104161236Y-115181318D01*
X104112665Y-115233100D01*
X104048774Y-115250500D01*
X104003000Y-115250500D01*
X103999754Y-115250837D01*
X103999750Y-115250837D01*
X103904092Y-115260762D01*
X103904088Y-115260763D01*
X103897234Y-115261474D01*
X103890698Y-115263655D01*
X103890696Y-115263655D01*
X103817720Y-115288002D01*
X103729454Y-115317450D01*
X103579052Y-115410522D01*
X103573879Y-115415704D01*
X103492616Y-115497109D01*
X103430334Y-115531188D01*
X103359514Y-115526185D01*
X103314425Y-115497264D01*
X103231883Y-115414866D01*
X103226703Y-115409695D01*
X103207205Y-115397676D01*
X103082368Y-115320725D01*
X103082366Y-115320724D01*
X103076138Y-115316885D01*
X102915654Y-115263655D01*
X102914789Y-115263368D01*
X102914787Y-115263368D01*
X102908261Y-115261203D01*
X102901425Y-115260503D01*
X102901422Y-115260502D01*
X102855059Y-115255752D01*
X102803800Y-115250500D01*
X102178000Y-115250500D01*
X102174754Y-115250837D01*
X102174750Y-115250837D01*
X102079092Y-115260762D01*
X102079088Y-115260763D01*
X102072234Y-115261474D01*
X102065698Y-115263655D01*
X102065696Y-115263655D01*
X101992720Y-115288002D01*
X101904454Y-115317450D01*
X101754052Y-115410522D01*
X101629095Y-115535697D01*
X101625255Y-115541927D01*
X101625254Y-115541928D01*
X101555372Y-115655298D01*
X101536285Y-115686262D01*
X101480603Y-115854139D01*
X101479903Y-115860975D01*
X101479902Y-115860978D01*
X101477215Y-115887203D01*
X101469900Y-115958600D01*
X101469900Y-116959400D01*
X101470237Y-116962646D01*
X101470237Y-116962650D01*
X101480158Y-117058262D01*
X101480874Y-117065166D01*
X101483055Y-117071702D01*
X101483055Y-117071704D01*
X101504206Y-117135100D01*
X101536850Y-117232946D01*
X101540704Y-117239174D01*
X101540705Y-117239176D01*
X101556831Y-117265235D01*
X101597281Y-117330600D01*
X101598220Y-117332118D01*
X101617058Y-117400570D01*
X101595897Y-117468339D01*
X101580171Y-117487516D01*
X101053595Y-118014092D01*
X100991283Y-118048118D01*
X100920468Y-118043053D01*
X100863632Y-118000506D01*
X100838821Y-117933986D01*
X100838500Y-117924997D01*
X100838500Y-110241703D01*
X101776743Y-110241703D01*
X101777302Y-110245947D01*
X101777302Y-110245951D01*
X101790003Y-110342420D01*
X101814268Y-110526734D01*
X101890129Y-110804036D01*
X101891813Y-110807984D01*
X101997304Y-111055302D01*
X102002923Y-111068476D01*
X102038657Y-111128183D01*
X102145030Y-111305919D01*
X102150561Y-111315161D01*
X102330313Y-111539528D01*
X102448115Y-111651318D01*
X102510141Y-111710178D01*
X102538851Y-111737423D01*
X102772317Y-111905186D01*
X102776112Y-111907195D01*
X102776113Y-111907196D01*
X102797869Y-111918715D01*
X103026392Y-112039712D01*
X103050699Y-112048607D01*
X103251919Y-112122243D01*
X103296373Y-112138511D01*
X103577264Y-112199755D01*
X103605841Y-112202004D01*
X103800282Y-112217307D01*
X103800291Y-112217307D01*
X103802739Y-112217500D01*
X103958271Y-112217500D01*
X103960407Y-112217354D01*
X103960418Y-112217354D01*
X104168548Y-112203165D01*
X104168554Y-112203164D01*
X104172825Y-112202873D01*
X104177020Y-112202004D01*
X104177022Y-112202004D01*
X104320457Y-112172300D01*
X104454342Y-112144574D01*
X104725343Y-112048607D01*
X104938068Y-111938812D01*
X104977005Y-111918715D01*
X104977006Y-111918715D01*
X104980812Y-111916750D01*
X104984313Y-111914289D01*
X104984317Y-111914287D01*
X105098417Y-111834096D01*
X105216023Y-111751441D01*
X105426622Y-111555740D01*
X105608713Y-111333268D01*
X105758927Y-111088142D01*
X105810261Y-110971201D01*
X105872757Y-110828830D01*
X105874483Y-110824898D01*
X105877407Y-110814635D01*
X105952068Y-110552534D01*
X105953244Y-110548406D01*
X105993751Y-110263784D01*
X105993821Y-110250604D01*
X105995235Y-109980583D01*
X105995235Y-109980576D01*
X105995257Y-109976297D01*
X105957732Y-109691266D01*
X105881871Y-109413964D01*
X105855682Y-109352565D01*
X105770763Y-109153476D01*
X105770761Y-109153472D01*
X105769077Y-109149524D01*
X105694527Y-109024960D01*
X105623643Y-108906521D01*
X105623640Y-108906517D01*
X105621439Y-108902839D01*
X105441687Y-108678472D01*
X105261875Y-108507837D01*
X105236258Y-108483527D01*
X105236255Y-108483525D01*
X105233149Y-108480577D01*
X104999683Y-108312814D01*
X104977843Y-108301250D01*
X104875418Y-108247019D01*
X104745608Y-108178288D01*
X104505033Y-108090250D01*
X104479658Y-108080964D01*
X104479656Y-108080963D01*
X104475627Y-108079489D01*
X104194736Y-108018245D01*
X104163685Y-108015801D01*
X103971718Y-108000693D01*
X103971709Y-108000693D01*
X103969261Y-108000500D01*
X103813729Y-108000500D01*
X103811593Y-108000646D01*
X103811582Y-108000646D01*
X103603452Y-108014835D01*
X103603446Y-108014836D01*
X103599175Y-108015127D01*
X103594980Y-108015996D01*
X103594978Y-108015996D01*
X103568014Y-108021580D01*
X103317658Y-108073426D01*
X103046657Y-108169393D01*
X102791188Y-108301250D01*
X102787687Y-108303711D01*
X102787683Y-108303713D01*
X102777594Y-108310804D01*
X102555977Y-108466559D01*
X102540892Y-108480577D01*
X102390481Y-108620348D01*
X102345378Y-108662260D01*
X102163287Y-108884732D01*
X102013073Y-109129858D01*
X102011347Y-109133791D01*
X102011346Y-109133792D01*
X101992921Y-109175765D01*
X101897517Y-109393102D01*
X101896342Y-109397229D01*
X101896341Y-109397230D01*
X101884885Y-109437448D01*
X101818756Y-109669594D01*
X101799981Y-109801514D01*
X101779432Y-109945907D01*
X101778249Y-109954216D01*
X101778227Y-109958505D01*
X101778226Y-109958512D01*
X101776765Y-110237417D01*
X101776743Y-110241703D01*
X100838500Y-110241703D01*
X100838500Y-104139500D01*
X100858502Y-104071379D01*
X100912158Y-104024886D01*
X100964500Y-104013500D01*
X102895471Y-104013500D01*
X102963592Y-104033502D01*
G37*
%TD.AperFunction*%
%TA.AperFunction,Conductor*%
G36*
X122586765Y-110304531D02*
G01*
X122643601Y-110347078D01*
X122668412Y-110413598D01*
X122668345Y-110432473D01*
X122667500Y-110443211D01*
X122667501Y-110943188D01*
X122670371Y-110979666D01*
X122715731Y-111135796D01*
X122735526Y-111169267D01*
X122735824Y-111169771D01*
X122753283Y-111238588D01*
X122730766Y-111305919D01*
X122716465Y-111323005D01*
X122388152Y-111651318D01*
X122375761Y-111662185D01*
X122352311Y-111680179D01*
X122329291Y-111710179D01*
X122329290Y-111710180D01*
X122329284Y-111710187D01*
X122329281Y-111710191D01*
X122306465Y-111739926D01*
X122284652Y-111768353D01*
X122260625Y-111799666D01*
X122227787Y-111878946D01*
X122223739Y-111888718D01*
X122179191Y-111943999D01*
X122107330Y-111966500D01*
X121059002Y-111966500D01*
X121054916Y-111967038D01*
X121054915Y-111967038D01*
X121016093Y-111972149D01*
X120944922Y-111981519D01*
X120937295Y-111984678D01*
X120937292Y-111984679D01*
X120886679Y-112005644D01*
X120802978Y-112040314D01*
X120681089Y-112133843D01*
X120587560Y-112255733D01*
X120528765Y-112397676D01*
X120513746Y-112511756D01*
X120513746Y-112738244D01*
X120514284Y-112742330D01*
X120514284Y-112742331D01*
X120528765Y-112852324D01*
X120527220Y-112852527D01*
X120527220Y-112897473D01*
X120528765Y-112897676D01*
X120524568Y-112929559D01*
X120513746Y-113011756D01*
X120513746Y-113238244D01*
X120514284Y-113242330D01*
X120514284Y-113242331D01*
X120528765Y-113352324D01*
X120527220Y-113352527D01*
X120527220Y-113397473D01*
X120528765Y-113397676D01*
X120513746Y-113511756D01*
X120513746Y-113738244D01*
X120514284Y-113742330D01*
X120514284Y-113742331D01*
X120528765Y-113852324D01*
X120527220Y-113852527D01*
X120527220Y-113897473D01*
X120528765Y-113897676D01*
X120513746Y-114011756D01*
X120513746Y-114238244D01*
X120528765Y-114352324D01*
X120531924Y-114359951D01*
X120531925Y-114359954D01*
X120536617Y-114371281D01*
X120587560Y-114494268D01*
X120629019Y-114548298D01*
X120654618Y-114614517D01*
X120640353Y-114684065D01*
X120629017Y-114701704D01*
X120592590Y-114749177D01*
X120592588Y-114749180D01*
X120587560Y-114755733D01*
X120528765Y-114897676D01*
X120513746Y-115011756D01*
X120513746Y-115238244D01*
X120514284Y-115242330D01*
X120514284Y-115242331D01*
X120528765Y-115352324D01*
X120527220Y-115352527D01*
X120527220Y-115397473D01*
X120528765Y-115397676D01*
X120513746Y-115511756D01*
X120513746Y-115738244D01*
X120514284Y-115742330D01*
X120514284Y-115742331D01*
X120528765Y-115852324D01*
X120527220Y-115852527D01*
X120527220Y-115897473D01*
X120528765Y-115897676D01*
X120513746Y-116011756D01*
X120513746Y-116238244D01*
X120514284Y-116242330D01*
X120514284Y-116242331D01*
X120528765Y-116352324D01*
X120527220Y-116352527D01*
X120527220Y-116397473D01*
X120528765Y-116397676D01*
X120513746Y-116511756D01*
X120513746Y-116738244D01*
X120514284Y-116742330D01*
X120514284Y-116742331D01*
X120528765Y-116852324D01*
X120527220Y-116852527D01*
X120527220Y-116897473D01*
X120528765Y-116897676D01*
X120513746Y-117011756D01*
X120513746Y-117165500D01*
X120493744Y-117233621D01*
X120440088Y-117280114D01*
X120387746Y-117291500D01*
X120234002Y-117291500D01*
X120229916Y-117292038D01*
X120229915Y-117292038D01*
X120119922Y-117306519D01*
X120119719Y-117304974D01*
X120074773Y-117304974D01*
X120074570Y-117306519D01*
X119964577Y-117292038D01*
X119964576Y-117292038D01*
X119960490Y-117291500D01*
X119734002Y-117291500D01*
X119729916Y-117292038D01*
X119729915Y-117292038D01*
X119619922Y-117306519D01*
X119619719Y-117304974D01*
X119574773Y-117304974D01*
X119574570Y-117306519D01*
X119464577Y-117292038D01*
X119464576Y-117292038D01*
X119460490Y-117291500D01*
X119234002Y-117291500D01*
X119229916Y-117292038D01*
X119229915Y-117292038D01*
X119119922Y-117306519D01*
X119119719Y-117304974D01*
X119074773Y-117304974D01*
X119074570Y-117306519D01*
X118964577Y-117292038D01*
X118964576Y-117292038D01*
X118960490Y-117291500D01*
X118734002Y-117291500D01*
X118729916Y-117292038D01*
X118729915Y-117292038D01*
X118619922Y-117306519D01*
X118619719Y-117304974D01*
X118574773Y-117304974D01*
X118574570Y-117306519D01*
X118464577Y-117292038D01*
X118464576Y-117292038D01*
X118460490Y-117291500D01*
X118234002Y-117291500D01*
X118229916Y-117292038D01*
X118229915Y-117292038D01*
X118119922Y-117306519D01*
X118119719Y-117304974D01*
X118074773Y-117304974D01*
X118074570Y-117306519D01*
X117964577Y-117292038D01*
X117964576Y-117292038D01*
X117960490Y-117291500D01*
X117734002Y-117291500D01*
X117729916Y-117292038D01*
X117729915Y-117292038D01*
X117619922Y-117306519D01*
X117619719Y-117304974D01*
X117574773Y-117304974D01*
X117574570Y-117306519D01*
X117464577Y-117292038D01*
X117464576Y-117292038D01*
X117460490Y-117291500D01*
X117234002Y-117291500D01*
X117229916Y-117292038D01*
X117229915Y-117292038D01*
X117119922Y-117306519D01*
X117119719Y-117304974D01*
X117074773Y-117304974D01*
X117074570Y-117306519D01*
X116964577Y-117292038D01*
X116964576Y-117292038D01*
X116960490Y-117291500D01*
X116734002Y-117291500D01*
X116729916Y-117292038D01*
X116729915Y-117292038D01*
X116619922Y-117306519D01*
X116619719Y-117304974D01*
X116574773Y-117304974D01*
X116574570Y-117306519D01*
X116464577Y-117292038D01*
X116464576Y-117292038D01*
X116460490Y-117291500D01*
X116234002Y-117291500D01*
X116229916Y-117292038D01*
X116229915Y-117292038D01*
X116119922Y-117306519D01*
X116119719Y-117304974D01*
X116074773Y-117304974D01*
X116074570Y-117306519D01*
X115964577Y-117292038D01*
X115964576Y-117292038D01*
X115960490Y-117291500D01*
X115734002Y-117291500D01*
X115729916Y-117292038D01*
X115729915Y-117292038D01*
X115619922Y-117306519D01*
X115619719Y-117304974D01*
X115574773Y-117304974D01*
X115574570Y-117306519D01*
X115464577Y-117292038D01*
X115464576Y-117292038D01*
X115460490Y-117291500D01*
X115234002Y-117291500D01*
X115229916Y-117292038D01*
X115229915Y-117292038D01*
X115119922Y-117306519D01*
X115119719Y-117304974D01*
X115074773Y-117304974D01*
X115074570Y-117306519D01*
X114964577Y-117292038D01*
X114964576Y-117292038D01*
X114960490Y-117291500D01*
X114806746Y-117291500D01*
X114738625Y-117271498D01*
X114692132Y-117217842D01*
X114680746Y-117165500D01*
X114680746Y-117011756D01*
X114665727Y-116897676D01*
X114667272Y-116897473D01*
X114667272Y-116852527D01*
X114665727Y-116852324D01*
X114680208Y-116742331D01*
X114680208Y-116742330D01*
X114680746Y-116738244D01*
X114680746Y-116511756D01*
X114665727Y-116397676D01*
X114667272Y-116397473D01*
X114667272Y-116352527D01*
X114665727Y-116352324D01*
X114680208Y-116242331D01*
X114680208Y-116242330D01*
X114680746Y-116238244D01*
X114680746Y-116011756D01*
X114665727Y-115897676D01*
X114667272Y-115897473D01*
X114667272Y-115852527D01*
X114665727Y-115852324D01*
X114680208Y-115742331D01*
X114680208Y-115742330D01*
X114680746Y-115738244D01*
X114680746Y-115511756D01*
X114665727Y-115397676D01*
X114667272Y-115397473D01*
X114667272Y-115352527D01*
X114665727Y-115352324D01*
X114680208Y-115242331D01*
X114680208Y-115242330D01*
X114680746Y-115238244D01*
X114680746Y-115011756D01*
X114669398Y-114925556D01*
X114665727Y-114897676D01*
X114667272Y-114897473D01*
X114667272Y-114852527D01*
X114665727Y-114852324D01*
X114680208Y-114742331D01*
X114680208Y-114742330D01*
X114680746Y-114738244D01*
X114680746Y-114511756D01*
X114665727Y-114397676D01*
X114654527Y-114370635D01*
X114610092Y-114263362D01*
X114606932Y-114255732D01*
X114565473Y-114201702D01*
X114539874Y-114135483D01*
X114554139Y-114065935D01*
X114565475Y-114048296D01*
X114601902Y-114000823D01*
X114601904Y-114000820D01*
X114606932Y-113994267D01*
X114665727Y-113852324D01*
X114680746Y-113738244D01*
X114680746Y-113511756D01*
X114665727Y-113397676D01*
X114667272Y-113397473D01*
X114667272Y-113352527D01*
X114665727Y-113352324D01*
X114680208Y-113242331D01*
X114680208Y-113242330D01*
X114680746Y-113238244D01*
X114680746Y-113058890D01*
X114700748Y-112990769D01*
X114717651Y-112969795D01*
X114868000Y-112819446D01*
X114880391Y-112808579D01*
X114899203Y-112794144D01*
X114905753Y-112789118D01*
X114930240Y-112757206D01*
X114930243Y-112757203D01*
X114994973Y-112672845D01*
X115003290Y-112662006D01*
X115064604Y-112513981D01*
X115080266Y-112395016D01*
X115080266Y-112395009D01*
X115085516Y-112355131D01*
X115081344Y-112323438D01*
X115080266Y-112306995D01*
X115080266Y-111581936D01*
X115100268Y-111513815D01*
X115153924Y-111467322D01*
X115222708Y-111457013D01*
X115234002Y-111458500D01*
X115460490Y-111458500D01*
X115464576Y-111457962D01*
X115464577Y-111457962D01*
X115574570Y-111443481D01*
X115574773Y-111445026D01*
X115619719Y-111445026D01*
X115619922Y-111443481D01*
X115729915Y-111457962D01*
X115729916Y-111457962D01*
X115734002Y-111458500D01*
X115960490Y-111458500D01*
X115964576Y-111457962D01*
X115964577Y-111457962D01*
X116074570Y-111443481D01*
X116074773Y-111445026D01*
X116119719Y-111445026D01*
X116119922Y-111443481D01*
X116229915Y-111457962D01*
X116229916Y-111457962D01*
X116234002Y-111458500D01*
X116460490Y-111458500D01*
X116464576Y-111457962D01*
X116464577Y-111457962D01*
X116574570Y-111443481D01*
X116574773Y-111445026D01*
X116619719Y-111445026D01*
X116619922Y-111443481D01*
X116729915Y-111457962D01*
X116729916Y-111457962D01*
X116734002Y-111458500D01*
X116960490Y-111458500D01*
X116964576Y-111457962D01*
X116964577Y-111457962D01*
X117003399Y-111452851D01*
X117074570Y-111443481D01*
X117082197Y-111440322D01*
X117082200Y-111440321D01*
X117145542Y-111414083D01*
X117216514Y-111384686D01*
X117270544Y-111343227D01*
X117336763Y-111317628D01*
X117406311Y-111331893D01*
X117423950Y-111343229D01*
X117471423Y-111379656D01*
X117471425Y-111379657D01*
X117477979Y-111384686D01*
X117619922Y-111443481D01*
X117691093Y-111452851D01*
X117729915Y-111457962D01*
X117729916Y-111457962D01*
X117734002Y-111458500D01*
X117960490Y-111458500D01*
X117964576Y-111457962D01*
X117964577Y-111457962D01*
X118074570Y-111443481D01*
X118074773Y-111445026D01*
X118119719Y-111445026D01*
X118119922Y-111443481D01*
X118229915Y-111457962D01*
X118229916Y-111457962D01*
X118234002Y-111458500D01*
X118460490Y-111458500D01*
X118464576Y-111457962D01*
X118464577Y-111457962D01*
X118574570Y-111443481D01*
X118574773Y-111445026D01*
X118619719Y-111445026D01*
X118619922Y-111443481D01*
X118729915Y-111457962D01*
X118729916Y-111457962D01*
X118734002Y-111458500D01*
X118960490Y-111458500D01*
X118964576Y-111457962D01*
X118964577Y-111457962D01*
X119074570Y-111443481D01*
X119074773Y-111445026D01*
X119119719Y-111445026D01*
X119119922Y-111443481D01*
X119229915Y-111457962D01*
X119229916Y-111457962D01*
X119234002Y-111458500D01*
X119460490Y-111458500D01*
X119464576Y-111457962D01*
X119464577Y-111457962D01*
X119574570Y-111443481D01*
X119574773Y-111445026D01*
X119619719Y-111445026D01*
X119619922Y-111443481D01*
X119729915Y-111457962D01*
X119729916Y-111457962D01*
X119734002Y-111458500D01*
X119960490Y-111458500D01*
X119964576Y-111457962D01*
X119964577Y-111457962D01*
X120074570Y-111443481D01*
X120074773Y-111445026D01*
X120119719Y-111445026D01*
X120119922Y-111443481D01*
X120229915Y-111457962D01*
X120229916Y-111457962D01*
X120234002Y-111458500D01*
X120460490Y-111458500D01*
X120464576Y-111457962D01*
X120464577Y-111457962D01*
X120503399Y-111452851D01*
X120574570Y-111443481D01*
X120582197Y-111440322D01*
X120582200Y-111440321D01*
X120645542Y-111414083D01*
X120716514Y-111384686D01*
X120838403Y-111291157D01*
X120931932Y-111169267D01*
X120990727Y-111027324D01*
X121005746Y-110913244D01*
X121005746Y-110909123D01*
X121006016Y-110905003D01*
X121007335Y-110905089D01*
X121025748Y-110842379D01*
X121079404Y-110795886D01*
X121131746Y-110784500D01*
X121719956Y-110784500D01*
X121736402Y-110785578D01*
X121757511Y-110788357D01*
X121757512Y-110788357D01*
X121765700Y-110789435D01*
X121773888Y-110788357D01*
X121773889Y-110788357D01*
X121803179Y-110784501D01*
X121803191Y-110784500D01*
X121803194Y-110784500D01*
X121803203Y-110784499D01*
X121884325Y-110773818D01*
X121915022Y-110769777D01*
X121959808Y-110751226D01*
X122046540Y-110715301D01*
X122046542Y-110715300D01*
X122054168Y-110712141D01*
X122060722Y-110707112D01*
X122078852Y-110693201D01*
X122143628Y-110643497D01*
X122143643Y-110643485D01*
X122143654Y-110643476D01*
X122143655Y-110643475D01*
X122173655Y-110620455D01*
X122191649Y-110597005D01*
X122202516Y-110584614D01*
X122453638Y-110333492D01*
X122515950Y-110299466D01*
X122586765Y-110304531D01*
G37*
%TD.AperFunction*%
%TA.AperFunction,Conductor*%
G36*
X125786994Y-115887203D02*
G01*
X125833487Y-115940859D01*
X125842761Y-116015351D01*
X125841371Y-116020134D01*
X125838500Y-116056611D01*
X125838500Y-116156018D01*
X125820955Y-116220154D01*
X125817641Y-116225759D01*
X125812784Y-116232020D01*
X125795131Y-116272815D01*
X125789914Y-116283463D01*
X125782533Y-116296890D01*
X125768494Y-116322426D01*
X125766522Y-116330106D01*
X125766521Y-116330109D01*
X125763420Y-116342189D01*
X125757018Y-116360889D01*
X125748916Y-116379611D01*
X125747676Y-116387441D01*
X125741962Y-116423515D01*
X125739558Y-116435124D01*
X125728500Y-116478191D01*
X125728500Y-116498590D01*
X125726949Y-116518301D01*
X125723758Y-116538448D01*
X125724504Y-116546339D01*
X125727941Y-116582699D01*
X125728500Y-116594557D01*
X125728500Y-116657958D01*
X125708498Y-116726079D01*
X125668804Y-116765101D01*
X125640652Y-116782522D01*
X125515695Y-116907697D01*
X125468341Y-116984520D01*
X125430249Y-117046316D01*
X125377477Y-117093809D01*
X125322989Y-117106200D01*
X123935185Y-117106200D01*
X123867064Y-117086198D01*
X123820571Y-117032542D01*
X123809185Y-116980200D01*
X123809185Y-116770376D01*
X123810263Y-116753929D01*
X123813262Y-116731150D01*
X123814340Y-116722962D01*
X123804317Y-116646828D01*
X123793808Y-116567008D01*
X123733613Y-116421684D01*
X123736271Y-116420583D01*
X123722824Y-116365140D01*
X123746049Y-116298050D01*
X123801859Y-116254166D01*
X123817344Y-116249102D01*
X123823987Y-116247396D01*
X123831849Y-116246403D01*
X123873176Y-116230040D01*
X123884402Y-116226198D01*
X123919476Y-116216007D01*
X123927093Y-116213794D01*
X123933917Y-116209758D01*
X123933920Y-116209757D01*
X123944652Y-116203410D01*
X123962404Y-116194713D01*
X123981373Y-116187202D01*
X124017327Y-116161080D01*
X124027249Y-116154562D01*
X124058693Y-116135967D01*
X124058698Y-116135963D01*
X124065516Y-116131931D01*
X124079940Y-116117507D01*
X124094972Y-116104668D01*
X124111477Y-116092676D01*
X124139813Y-116058424D01*
X124147802Y-116049645D01*
X124293341Y-115904106D01*
X124355653Y-115870080D01*
X124382436Y-115867201D01*
X125718873Y-115867201D01*
X125786994Y-115887203D01*
G37*
%TD.AperFunction*%
%TA.AperFunction,Conductor*%
G36*
X130279266Y-113597782D02*
G01*
X130300240Y-113614685D01*
X130472804Y-113787249D01*
X130506830Y-113849561D01*
X130501765Y-113920376D01*
X130477348Y-113960650D01*
X130426560Y-114017056D01*
X130331073Y-114182444D01*
X130272058Y-114364072D01*
X130271368Y-114370633D01*
X130271368Y-114370635D01*
X130264540Y-114435605D01*
X130255613Y-114520543D01*
X130252257Y-114552470D01*
X130225244Y-114618127D01*
X130167022Y-114658757D01*
X130126948Y-114665300D01*
X129928275Y-114665301D01*
X129922212Y-114665301D01*
X129885734Y-114668171D01*
X129788930Y-114696295D01*
X129737217Y-114711319D01*
X129737215Y-114711320D01*
X129729604Y-114713531D01*
X129722782Y-114717566D01*
X129722781Y-114717566D01*
X129634021Y-114770058D01*
X129565204Y-114787517D01*
X129497873Y-114765000D01*
X129486550Y-114756112D01*
X129485418Y-114755114D01*
X129482615Y-114752311D01*
X129479485Y-114749883D01*
X129479380Y-114749801D01*
X129470359Y-114742096D01*
X129461867Y-114734122D01*
X129437957Y-114711669D01*
X129420076Y-114701839D01*
X129403557Y-114690988D01*
X129393703Y-114683344D01*
X129393700Y-114683342D01*
X129387438Y-114678485D01*
X129346643Y-114660832D01*
X129335983Y-114655608D01*
X129331535Y-114653162D01*
X129281482Y-114602811D01*
X129266597Y-114533392D01*
X129291606Y-114466946D01*
X129348568Y-114424569D01*
X129382366Y-114417143D01*
X129416866Y-114414429D01*
X129513670Y-114386305D01*
X129565383Y-114371281D01*
X129565385Y-114371280D01*
X129572996Y-114369069D01*
X129581446Y-114364072D01*
X129706120Y-114290340D01*
X129712941Y-114286306D01*
X129827906Y-114171341D01*
X129902398Y-114045381D01*
X129906634Y-114038219D01*
X129906634Y-114038218D01*
X129910669Y-114031396D01*
X129915178Y-114015878D01*
X129954234Y-113881444D01*
X129956029Y-113875266D01*
X129956695Y-113866811D01*
X129958707Y-113841244D01*
X129958707Y-113841238D01*
X129958900Y-113838789D01*
X129958899Y-113703779D01*
X129978901Y-113635660D01*
X130032556Y-113589167D01*
X130084899Y-113577780D01*
X130211145Y-113577780D01*
X130279266Y-113597782D01*
G37*
%TD.AperFunction*%
%TA.AperFunction,Conductor*%
G36*
X128590504Y-114233022D02*
G01*
X128611478Y-114249925D01*
X128647859Y-114286306D01*
X128654680Y-114290340D01*
X128772041Y-114359747D01*
X128820494Y-114411640D01*
X128833199Y-114481491D01*
X128806124Y-114547122D01*
X128747863Y-114587696D01*
X128707902Y-114594201D01*
X127563500Y-114594201D01*
X127495379Y-114574199D01*
X127448886Y-114520543D01*
X127437500Y-114468201D01*
X127437500Y-114339020D01*
X127457502Y-114270899D01*
X127511158Y-114224406D01*
X127563500Y-114213020D01*
X128522383Y-114213020D01*
X128590504Y-114233022D01*
G37*
%TD.AperFunction*%
%TA.AperFunction,Conductor*%
G36*
X117764503Y-107518550D02*
G01*
X117812802Y-107555611D01*
X117812805Y-107555613D01*
X117819358Y-107560641D01*
X117958504Y-107618277D01*
X118107826Y-107637936D01*
X118116014Y-107636858D01*
X118137130Y-107634078D01*
X118153577Y-107633000D01*
X118286763Y-107633000D01*
X118354884Y-107653002D01*
X118375858Y-107669905D01*
X118464459Y-107758506D01*
X118471277Y-107762538D01*
X118471282Y-107762542D01*
X118520897Y-107791884D01*
X118569349Y-107843777D01*
X118582054Y-107913627D01*
X118554978Y-107979258D01*
X118545852Y-107989432D01*
X118016755Y-108518529D01*
X117954443Y-108552555D01*
X117883628Y-108547490D01*
X117826792Y-108504943D01*
X117806911Y-108465431D01*
X117788751Y-108404515D01*
X117783500Y-108368518D01*
X117783500Y-108222516D01*
X117780606Y-108185746D01*
X117734894Y-108028403D01*
X117651488Y-107887371D01*
X117598704Y-107834587D01*
X117564678Y-107772275D01*
X117561799Y-107745492D01*
X117561799Y-107618512D01*
X117581801Y-107550391D01*
X117635457Y-107503898D01*
X117705731Y-107493794D01*
X117764503Y-107518550D01*
G37*
%TD.AperFunction*%
%TD*%
M02*
