%TF.GenerationSoftware,KiCad,Pcbnew,(6.0.4-0)*%
%TF.CreationDate,2022-08-06T12:57:23-04:00*%
%TF.ProjectId,QuarkCncStepperDrivers,51756172-6b43-46e6-9353-746570706572,rev?*%
%TF.SameCoordinates,Original*%
%TF.FileFunction,Copper,L2,Inr*%
%TF.FilePolarity,Positive*%
%FSLAX46Y46*%
G04 Gerber Fmt 4.6, Leading zero omitted, Abs format (unit mm)*
G04 Created by KiCad (PCBNEW (6.0.4-0)) date 2022-08-06 12:57:23*
%MOMM*%
%LPD*%
G01*
G04 APERTURE LIST*
%TA.AperFunction,ComponentPad*%
%ADD10R,1.524000X1.524000*%
%TD*%
%TA.AperFunction,ComponentPad*%
%ADD11C,1.524000*%
%TD*%
%TA.AperFunction,ComponentPad*%
%ADD12C,1.498600*%
%TD*%
%TA.AperFunction,ComponentPad*%
%ADD13C,0.500000*%
%TD*%
%TA.AperFunction,ViaPad*%
%ADD14C,0.800000*%
%TD*%
G04 APERTURE END LIST*
D10*
%TO.N,/STEPPER_SCK*%
%TO.C,J1*%
X134620000Y-104775000D03*
D11*
%TO.N,/STEPPER_MOSI*%
X132080000Y-104775000D03*
%TO.N,/STEPPER_MISO*%
X129540000Y-104775000D03*
%TO.N,/STEPPER_X_CSn*%
X127000000Y-104775000D03*
%TO.N,/STEPPER_X_STEP*%
X124460000Y-104775000D03*
%TO.N,/STEPPER_X_DIR*%
X121920000Y-104775000D03*
%TO.N,/STEPPER_X_ENn*%
X119380000Y-104775000D03*
%TO.N,+3V3*%
X116840000Y-104775000D03*
%TO.N,+12V*%
X114300000Y-104775000D03*
%TO.N,GND*%
X111760000Y-104775000D03*
%TO.N,VCC*%
X109220000Y-104775000D03*
%TO.N,GND*%
X106680000Y-104775000D03*
%TO.N,VCC*%
X104140000Y-104775000D03*
%TO.N,GND*%
X101600000Y-104775000D03*
%TD*%
%TO.N,/STEPPER_COIL_A2*%
%TO.C,J2*%
X101610000Y-144145000D03*
X104150000Y-144145000D03*
X106690000Y-144145000D03*
%TO.N,/STEPPER_COIL_A1*%
X109230000Y-144145000D03*
X111770000Y-144145000D03*
X114310000Y-144145000D03*
%TO.N,/STEPPER_COIL_B2*%
X116850000Y-144145000D03*
X119390000Y-144145000D03*
X121930000Y-144145000D03*
%TO.N,/STEPPER_COIL_B1*%
X124470000Y-144145000D03*
X127010000Y-144145000D03*
X129550000Y-144145000D03*
%TO.N,/STEPPER_DIAG1*%
X132090000Y-144145000D03*
D12*
%TO.N,/STEPPER_DIAG2*%
X134630000Y-144145000D03*
%TD*%
D13*
%TO.N,GND*%
%TO.C,U1*%
X117597246Y-112125000D03*
X116472246Y-115500000D03*
X118722246Y-114375000D03*
X116472246Y-112125000D03*
X116472246Y-116625000D03*
X119847246Y-112125000D03*
X115347246Y-115500000D03*
X115347246Y-113250000D03*
X115347246Y-116625000D03*
X115347246Y-112125000D03*
X118722246Y-115500000D03*
X115347246Y-114375000D03*
X116472246Y-113250000D03*
X117597246Y-113250000D03*
X118722246Y-112125000D03*
X117597246Y-114375000D03*
X119847246Y-115500000D03*
X119847246Y-113250000D03*
X117597246Y-115500000D03*
X118722246Y-116625000D03*
X119847246Y-116625000D03*
X116472246Y-114375000D03*
X118722246Y-113250000D03*
X117597246Y-116625000D03*
X119847246Y-114375000D03*
%TD*%
D14*
%TO.N,+3V3*%
X124104400Y-106095800D03*
%TO.N,GND*%
X107950000Y-119761000D03*
X127464500Y-117932200D03*
X121666000Y-121576500D03*
X117652800Y-107749400D03*
X129463800Y-114604800D03*
X121756070Y-111617226D03*
X134011489Y-132460000D03*
X118745000Y-139065000D03*
X109905800Y-115911958D03*
X125730000Y-123571000D03*
X110490000Y-119507000D03*
X105156000Y-119761000D03*
X120020000Y-137360000D03*
X129286000Y-121539000D03*
X126746000Y-121539000D03*
X103886000Y-121793000D03*
X124206000Y-121539000D03*
X122377200Y-123723400D03*
X132649500Y-126381426D03*
X108712000Y-121793000D03*
X108204000Y-112471200D03*
X106172000Y-121793000D03*
X101473000Y-140843000D03*
X122428000Y-125603000D03*
X115951000Y-140081000D03*
X113284000Y-119253000D03*
X124739400Y-115973500D03*
X102870000Y-135890000D03*
X108915200Y-108635800D03*
X102870000Y-119761000D03*
X104430000Y-124405000D03*
X102144500Y-131047701D03*
%TO.N,VCC*%
X133604000Y-141351000D03*
X106183593Y-113789951D03*
X107315000Y-141605000D03*
X124206000Y-142240000D03*
X109601000Y-141478000D03*
X108077000Y-139954000D03*
X103505000Y-141732000D03*
X113792000Y-140716000D03*
X131800600Y-117271800D03*
X132461000Y-142240000D03*
X110247144Y-114972549D03*
X119126000Y-141859000D03*
X117094000Y-141732000D03*
X127127000Y-142240000D03*
%TO.N,/STEPPER_COIL_B2*%
X126620000Y-138660000D03*
X126520000Y-131660000D03*
X125620000Y-131660000D03*
X123520000Y-138660000D03*
X122320000Y-137760000D03*
X124620000Y-138660000D03*
X125620000Y-138660000D03*
X126620000Y-137760000D03*
X122720000Y-130760000D03*
X125620000Y-137760000D03*
X123520000Y-137760000D03*
X124620000Y-137760000D03*
X124020000Y-130760000D03*
X122320000Y-138660000D03*
X121220000Y-137760000D03*
X124620000Y-131660000D03*
X126120000Y-130760000D03*
X125120000Y-130760000D03*
X123320000Y-131560000D03*
%TO.N,/STEPPER_COIL_B1*%
X129597246Y-130700000D03*
X130597246Y-130800000D03*
X133697246Y-130600000D03*
X132497246Y-131700000D03*
X129597246Y-131700000D03*
X131597246Y-138000000D03*
X131697246Y-130800000D03*
X129397246Y-137200000D03*
X130397246Y-138000000D03*
X131597246Y-131700000D03*
X132297246Y-137200000D03*
X132697246Y-130800000D03*
X130597246Y-131700000D03*
X130997246Y-137200000D03*
%TO.N,/STEPPER_COIL_A2*%
X108520000Y-134760000D03*
X105320000Y-127860000D03*
X107620000Y-128760000D03*
X106020000Y-135660000D03*
X108520000Y-128760000D03*
X107020000Y-135660000D03*
X106220000Y-127860000D03*
X106520000Y-134760000D03*
X109520000Y-134660000D03*
X108020000Y-135660000D03*
X106720000Y-128760000D03*
X109120000Y-127860000D03*
X109020000Y-135660000D03*
X108020000Y-127860000D03*
X107520000Y-134760000D03*
X105820000Y-128760000D03*
X107120000Y-127860000D03*
%TO.N,/STEPPER_COIL_A1*%
X116020000Y-131860000D03*
X112620000Y-134360000D03*
X111920000Y-127860000D03*
X112320000Y-128760000D03*
X116220000Y-133460000D03*
X114320000Y-128760000D03*
X113120000Y-135160000D03*
X114620000Y-134360000D03*
X113820000Y-127960000D03*
X114720000Y-127860000D03*
X115220000Y-128760000D03*
X115620000Y-134360000D03*
X114120000Y-135160000D03*
X113620000Y-134360000D03*
X112920000Y-127960000D03*
X113320000Y-128760000D03*
X115120000Y-135260000D03*
%TO.N,/STEPPER DRIVER X/hbridge_A2/hbridge_low_side*%
X134289800Y-114122200D03*
X131089400Y-124206000D03*
%TO.N,/STEPPER DRIVER X/hbridge_A3/hbridge_low_side*%
X134289800Y-113080800D03*
X113930000Y-121505000D03*
%TO.N,/STEPPER_X_CSn*%
X124067757Y-109294023D03*
X127254000Y-106959400D03*
%TO.N,/STEPPER_DIAG2*%
X110744000Y-107264200D03*
X120167400Y-106375200D03*
%TO.N,/STEPPER_DIAG1*%
X112801400Y-109169200D03*
%TO.N,/STEPPER_X_ENn*%
X117952348Y-105941980D03*
X115697000Y-105918000D03*
%TO.N,/STEPPER DRIVER X/5VOUT*%
X124029288Y-113543848D03*
X107924600Y-110998000D03*
X113919000Y-109220000D03*
%TO.N,+12V*%
X128473200Y-116255800D03*
X131165600Y-114554000D03*
%TD*%
%TA.AperFunction,Conductor*%
%TO.N,GND*%
G36*
X102963592Y-104033502D02*
G01*
X103010085Y-104087158D01*
X103020189Y-104157432D01*
X103009666Y-104192750D01*
X102941560Y-104338804D01*
X102884022Y-104553537D01*
X102864647Y-104775000D01*
X102884022Y-104996463D01*
X102941560Y-105211196D01*
X102943882Y-105216177D01*
X102943883Y-105216178D01*
X103033186Y-105407689D01*
X103033189Y-105407694D01*
X103035512Y-105412676D01*
X103038667Y-105417182D01*
X103038669Y-105417185D01*
X103158647Y-105588531D01*
X103163023Y-105594781D01*
X103320219Y-105751977D01*
X103324727Y-105755134D01*
X103324730Y-105755136D01*
X103400495Y-105808187D01*
X103502323Y-105879488D01*
X103507305Y-105881811D01*
X103507310Y-105881814D01*
X103641954Y-105944599D01*
X103703804Y-105973440D01*
X103709112Y-105974862D01*
X103709114Y-105974863D01*
X103756705Y-105987615D01*
X103918537Y-106030978D01*
X104140000Y-106050353D01*
X104361463Y-106030978D01*
X104523295Y-105987615D01*
X104570886Y-105974863D01*
X104570888Y-105974862D01*
X104576196Y-105973440D01*
X104638046Y-105944599D01*
X104772690Y-105881814D01*
X104772695Y-105881811D01*
X104777677Y-105879488D01*
X104879505Y-105808187D01*
X104955270Y-105755136D01*
X104955273Y-105755134D01*
X104959781Y-105751977D01*
X105116977Y-105594781D01*
X105121354Y-105588531D01*
X105241331Y-105417185D01*
X105241333Y-105417182D01*
X105244488Y-105412676D01*
X105246811Y-105407694D01*
X105246814Y-105407689D01*
X105336117Y-105216178D01*
X105336118Y-105216177D01*
X105338440Y-105211196D01*
X105395978Y-104996463D01*
X105415353Y-104775000D01*
X105395978Y-104553537D01*
X105338440Y-104338804D01*
X105270334Y-104192750D01*
X105259673Y-104122558D01*
X105288653Y-104057746D01*
X105348073Y-104018889D01*
X105384529Y-104013500D01*
X107975471Y-104013500D01*
X108043592Y-104033502D01*
X108090085Y-104087158D01*
X108100189Y-104157432D01*
X108089666Y-104192750D01*
X108021560Y-104338804D01*
X107964022Y-104553537D01*
X107944647Y-104775000D01*
X107964022Y-104996463D01*
X108021560Y-105211196D01*
X108023882Y-105216177D01*
X108023883Y-105216178D01*
X108113186Y-105407689D01*
X108113189Y-105407694D01*
X108115512Y-105412676D01*
X108118667Y-105417182D01*
X108118669Y-105417185D01*
X108238647Y-105588531D01*
X108243023Y-105594781D01*
X108400219Y-105751977D01*
X108404727Y-105755134D01*
X108404730Y-105755136D01*
X108480495Y-105808187D01*
X108582323Y-105879488D01*
X108587305Y-105881811D01*
X108587310Y-105881814D01*
X108721954Y-105944599D01*
X108783804Y-105973440D01*
X108789112Y-105974862D01*
X108789114Y-105974863D01*
X108836705Y-105987615D01*
X108998537Y-106030978D01*
X109220000Y-106050353D01*
X109441463Y-106030978D01*
X109603295Y-105987615D01*
X109650886Y-105974863D01*
X109650888Y-105974862D01*
X109656196Y-105973440D01*
X109718046Y-105944599D01*
X109852690Y-105881814D01*
X109852695Y-105881811D01*
X109857677Y-105879488D01*
X109959505Y-105808187D01*
X110035270Y-105755136D01*
X110035273Y-105755134D01*
X110039781Y-105751977D01*
X110196977Y-105594781D01*
X110201354Y-105588531D01*
X110321331Y-105417185D01*
X110321333Y-105417182D01*
X110324488Y-105412676D01*
X110326811Y-105407694D01*
X110326814Y-105407689D01*
X110416117Y-105216178D01*
X110416118Y-105216177D01*
X110418440Y-105211196D01*
X110475978Y-104996463D01*
X110495353Y-104775000D01*
X110475978Y-104553537D01*
X110418440Y-104338804D01*
X110350334Y-104192750D01*
X110339673Y-104122558D01*
X110368653Y-104057746D01*
X110428073Y-104018889D01*
X110464529Y-104013500D01*
X113055471Y-104013500D01*
X113123592Y-104033502D01*
X113170085Y-104087158D01*
X113180189Y-104157432D01*
X113169666Y-104192750D01*
X113101560Y-104338804D01*
X113044022Y-104553537D01*
X113024647Y-104775000D01*
X113044022Y-104996463D01*
X113101560Y-105211196D01*
X113103882Y-105216177D01*
X113103883Y-105216178D01*
X113193186Y-105407689D01*
X113193189Y-105407694D01*
X113195512Y-105412676D01*
X113198667Y-105417182D01*
X113198669Y-105417185D01*
X113318647Y-105588531D01*
X113323023Y-105594781D01*
X113480219Y-105751977D01*
X113484727Y-105755134D01*
X113484730Y-105755136D01*
X113560495Y-105808187D01*
X113662323Y-105879488D01*
X113667305Y-105881811D01*
X113667310Y-105881814D01*
X113801954Y-105944599D01*
X113863804Y-105973440D01*
X113869112Y-105974862D01*
X113869114Y-105974863D01*
X113916705Y-105987615D01*
X114078537Y-106030978D01*
X114300000Y-106050353D01*
X114521463Y-106030978D01*
X114603004Y-106009129D01*
X114645367Y-105997778D01*
X114716343Y-105999468D01*
X114775139Y-106039262D01*
X114798742Y-106095464D01*
X114801394Y-106094900D01*
X114802768Y-106101364D01*
X114803458Y-106107928D01*
X114862473Y-106289556D01*
X114957960Y-106454944D01*
X114962378Y-106459851D01*
X114962379Y-106459852D01*
X115079785Y-106590245D01*
X115085747Y-106596866D01*
X115240248Y-106709118D01*
X115246276Y-106711802D01*
X115246278Y-106711803D01*
X115396193Y-106778549D01*
X115414712Y-106786794D01*
X115508113Y-106806647D01*
X115595056Y-106825128D01*
X115595061Y-106825128D01*
X115601513Y-106826500D01*
X115792487Y-106826500D01*
X115798939Y-106825128D01*
X115798944Y-106825128D01*
X115885887Y-106806647D01*
X115979288Y-106786794D01*
X115997807Y-106778549D01*
X116147722Y-106711803D01*
X116147724Y-106711802D01*
X116153752Y-106709118D01*
X116308253Y-106596866D01*
X116314215Y-106590245D01*
X116431621Y-106459852D01*
X116431622Y-106459851D01*
X116436040Y-106454944D01*
X116531527Y-106289556D01*
X116584656Y-106126043D01*
X116624730Y-106067437D01*
X116690126Y-106039800D01*
X116715467Y-106039458D01*
X116840000Y-106050353D01*
X116845475Y-106049874D01*
X116927435Y-106042704D01*
X116997040Y-106056694D01*
X117048032Y-106106093D01*
X117057933Y-106132192D01*
X117058806Y-106131908D01*
X117117821Y-106313536D01*
X117213308Y-106478924D01*
X117217726Y-106483831D01*
X117217727Y-106483832D01*
X117336673Y-106615935D01*
X117341095Y-106620846D01*
X117495596Y-106733098D01*
X117501624Y-106735782D01*
X117501626Y-106735783D01*
X117619281Y-106788166D01*
X117670060Y-106810774D01*
X117744045Y-106826500D01*
X117850404Y-106849108D01*
X117850409Y-106849108D01*
X117856861Y-106850480D01*
X118047835Y-106850480D01*
X118054287Y-106849108D01*
X118054292Y-106849108D01*
X118160651Y-106826500D01*
X118234636Y-106810774D01*
X118285415Y-106788166D01*
X118403070Y-106735783D01*
X118403072Y-106735782D01*
X118409100Y-106733098D01*
X118563601Y-106620846D01*
X118568023Y-106615935D01*
X118686969Y-106483832D01*
X118686970Y-106483831D01*
X118691388Y-106478924D01*
X118786875Y-106313536D01*
X118845890Y-106131908D01*
X118846823Y-106123036D01*
X118847697Y-106114713D01*
X118849350Y-106098984D01*
X118876362Y-106033327D01*
X118934583Y-105992697D01*
X119007271Y-105990446D01*
X119158537Y-106030978D01*
X119164018Y-106031458D01*
X119169436Y-106032413D01*
X119169181Y-106033858D01*
X119228884Y-106057210D01*
X119270525Y-106114713D01*
X119274955Y-106181896D01*
X119273858Y-106185272D01*
X119273168Y-106191833D01*
X119273168Y-106191835D01*
X119255801Y-106357072D01*
X119253896Y-106375200D01*
X119254586Y-106381765D01*
X119265314Y-106483832D01*
X119273858Y-106565128D01*
X119332873Y-106746756D01*
X119336176Y-106752478D01*
X119336177Y-106752479D01*
X119348987Y-106774666D01*
X119428360Y-106912144D01*
X119432778Y-106917051D01*
X119432779Y-106917052D01*
X119551725Y-107049155D01*
X119556147Y-107054066D01*
X119710648Y-107166318D01*
X119716676Y-107169002D01*
X119716678Y-107169003D01*
X119879081Y-107241309D01*
X119885112Y-107243994D01*
X119949288Y-107257635D01*
X120065456Y-107282328D01*
X120065461Y-107282328D01*
X120071913Y-107283700D01*
X120262887Y-107283700D01*
X120269339Y-107282328D01*
X120269344Y-107282328D01*
X120385512Y-107257635D01*
X120449688Y-107243994D01*
X120455719Y-107241309D01*
X120618122Y-107169003D01*
X120618124Y-107169002D01*
X120624152Y-107166318D01*
X120778653Y-107054066D01*
X120783075Y-107049155D01*
X120902021Y-106917052D01*
X120902022Y-106917051D01*
X120906440Y-106912144D01*
X120985813Y-106774666D01*
X120998623Y-106752479D01*
X120998624Y-106752478D01*
X121001927Y-106746756D01*
X121060942Y-106565128D01*
X121069487Y-106483832D01*
X121080214Y-106381765D01*
X121080904Y-106375200D01*
X121078999Y-106357072D01*
X121061632Y-106191835D01*
X121061632Y-106191833D01*
X121060942Y-106185272D01*
X121001927Y-106003644D01*
X120975499Y-105957870D01*
X120958762Y-105888878D01*
X120981982Y-105821786D01*
X121037789Y-105777898D01*
X121108464Y-105771149D01*
X121156890Y-105791659D01*
X121277814Y-105876331D01*
X121282323Y-105879488D01*
X121287305Y-105881811D01*
X121287310Y-105881814D01*
X121421954Y-105944599D01*
X121483804Y-105973440D01*
X121489112Y-105974862D01*
X121489114Y-105974863D01*
X121536705Y-105987615D01*
X121698537Y-106030978D01*
X121920000Y-106050353D01*
X122141463Y-106030978D01*
X122303295Y-105987615D01*
X122350886Y-105974863D01*
X122350888Y-105974862D01*
X122356196Y-105973440D01*
X122418046Y-105944599D01*
X122552690Y-105881814D01*
X122552695Y-105881811D01*
X122557677Y-105879488D01*
X122659505Y-105808187D01*
X122735270Y-105755136D01*
X122735273Y-105755134D01*
X122739781Y-105751977D01*
X122896977Y-105594781D01*
X122901354Y-105588531D01*
X123021331Y-105417185D01*
X123021333Y-105417182D01*
X123024488Y-105412676D01*
X123026811Y-105407694D01*
X123026814Y-105407689D01*
X123075805Y-105302627D01*
X123122723Y-105249342D01*
X123191000Y-105229881D01*
X123258960Y-105250423D01*
X123304195Y-105302627D01*
X123353186Y-105407689D01*
X123353189Y-105407694D01*
X123355512Y-105412676D01*
X123358667Y-105417182D01*
X123358670Y-105417187D01*
X123361338Y-105420997D01*
X123384024Y-105488272D01*
X123366737Y-105557132D01*
X123366269Y-105557846D01*
X123365360Y-105558856D01*
X123269873Y-105724244D01*
X123210858Y-105905872D01*
X123210168Y-105912433D01*
X123210168Y-105912435D01*
X123196230Y-106045053D01*
X123190896Y-106095800D01*
X123191586Y-106102365D01*
X123200990Y-106191835D01*
X123210858Y-106285728D01*
X123269873Y-106467356D01*
X123273176Y-106473078D01*
X123273177Y-106473079D01*
X123276552Y-106478924D01*
X123365360Y-106632744D01*
X123369778Y-106637651D01*
X123369779Y-106637652D01*
X123488470Y-106769472D01*
X123493147Y-106774666D01*
X123647648Y-106886918D01*
X123653676Y-106889602D01*
X123653678Y-106889603D01*
X123810446Y-106959400D01*
X123822112Y-106964594D01*
X123915512Y-106984447D01*
X124002456Y-107002928D01*
X124002461Y-107002928D01*
X124008913Y-107004300D01*
X124199887Y-107004300D01*
X124206339Y-107002928D01*
X124206344Y-107002928D01*
X124293288Y-106984447D01*
X124386688Y-106964594D01*
X124398354Y-106959400D01*
X124555122Y-106889603D01*
X124555124Y-106889602D01*
X124561152Y-106886918D01*
X124715653Y-106774666D01*
X124720330Y-106769472D01*
X124839021Y-106637652D01*
X124839022Y-106637651D01*
X124843440Y-106632744D01*
X124932248Y-106478924D01*
X124935623Y-106473079D01*
X124935624Y-106473078D01*
X124938927Y-106467356D01*
X124997942Y-106285728D01*
X125007811Y-106191835D01*
X125017214Y-106102365D01*
X125017904Y-106095800D01*
X125013185Y-106050900D01*
X125009353Y-106014437D01*
X125022126Y-105944599D01*
X125070628Y-105892752D01*
X125081413Y-105887072D01*
X125092690Y-105881814D01*
X125092695Y-105881811D01*
X125097677Y-105879488D01*
X125199505Y-105808187D01*
X125275270Y-105755136D01*
X125275273Y-105755134D01*
X125279781Y-105751977D01*
X125436977Y-105594781D01*
X125441354Y-105588531D01*
X125561331Y-105417185D01*
X125561333Y-105417182D01*
X125564488Y-105412676D01*
X125566811Y-105407694D01*
X125566814Y-105407689D01*
X125615805Y-105302627D01*
X125662723Y-105249342D01*
X125731000Y-105229881D01*
X125798960Y-105250423D01*
X125844195Y-105302627D01*
X125893186Y-105407689D01*
X125893189Y-105407694D01*
X125895512Y-105412676D01*
X125898667Y-105417182D01*
X125898669Y-105417185D01*
X126018647Y-105588531D01*
X126023023Y-105594781D01*
X126180219Y-105751977D01*
X126184727Y-105755134D01*
X126184730Y-105755136D01*
X126260495Y-105808187D01*
X126362323Y-105879488D01*
X126367305Y-105881811D01*
X126367310Y-105881814D01*
X126501954Y-105944599D01*
X126563804Y-105973440D01*
X126569112Y-105974862D01*
X126569114Y-105974863D01*
X126675108Y-106003264D01*
X126735731Y-106040216D01*
X126766752Y-106104077D01*
X126758324Y-106174571D01*
X126716558Y-106226907D01*
X126642747Y-106280534D01*
X126638326Y-106285444D01*
X126638325Y-106285445D01*
X126563421Y-106368635D01*
X126514960Y-106422456D01*
X126456686Y-106523390D01*
X126428964Y-106571406D01*
X126419473Y-106587844D01*
X126360458Y-106769472D01*
X126359768Y-106776033D01*
X126359768Y-106776035D01*
X126358637Y-106786794D01*
X126340496Y-106959400D01*
X126341186Y-106965965D01*
X126351910Y-107067994D01*
X126360458Y-107149328D01*
X126419473Y-107330956D01*
X126514960Y-107496344D01*
X126642747Y-107638266D01*
X126797248Y-107750518D01*
X126803276Y-107753202D01*
X126803278Y-107753203D01*
X126910956Y-107801144D01*
X126971712Y-107828194D01*
X127065113Y-107848047D01*
X127152056Y-107866528D01*
X127152061Y-107866528D01*
X127158513Y-107867900D01*
X127349487Y-107867900D01*
X127355939Y-107866528D01*
X127355944Y-107866528D01*
X127442888Y-107848047D01*
X127536288Y-107828194D01*
X127597044Y-107801144D01*
X127704722Y-107753203D01*
X127704724Y-107753202D01*
X127710752Y-107750518D01*
X127865253Y-107638266D01*
X127993040Y-107496344D01*
X128088527Y-107330956D01*
X128147542Y-107149328D01*
X128156091Y-107067994D01*
X128166814Y-106965965D01*
X128167504Y-106959400D01*
X128149363Y-106786794D01*
X128148232Y-106776035D01*
X128148232Y-106776033D01*
X128147542Y-106769472D01*
X128088527Y-106587844D01*
X128079037Y-106571406D01*
X128051314Y-106523390D01*
X127993040Y-106422456D01*
X127944580Y-106368635D01*
X127869675Y-106285445D01*
X127869674Y-106285444D01*
X127865253Y-106280534D01*
X127710752Y-106168282D01*
X127704726Y-106165599D01*
X127704719Y-106165595D01*
X127609128Y-106123036D01*
X127555032Y-106077056D01*
X127534382Y-106009129D01*
X127553734Y-105940821D01*
X127607127Y-105893734D01*
X127632686Y-105881816D01*
X127632692Y-105881813D01*
X127637677Y-105879488D01*
X127739505Y-105808187D01*
X127815270Y-105755136D01*
X127815273Y-105755134D01*
X127819781Y-105751977D01*
X127976977Y-105594781D01*
X127981354Y-105588531D01*
X128101331Y-105417185D01*
X128101333Y-105417182D01*
X128104488Y-105412676D01*
X128106811Y-105407694D01*
X128106814Y-105407689D01*
X128155805Y-105302627D01*
X128202723Y-105249342D01*
X128271000Y-105229881D01*
X128338960Y-105250423D01*
X128384195Y-105302627D01*
X128433186Y-105407689D01*
X128433189Y-105407694D01*
X128435512Y-105412676D01*
X128438667Y-105417182D01*
X128438669Y-105417185D01*
X128558647Y-105588531D01*
X128563023Y-105594781D01*
X128720219Y-105751977D01*
X128724727Y-105755134D01*
X128724730Y-105755136D01*
X128800495Y-105808187D01*
X128902323Y-105879488D01*
X128907305Y-105881811D01*
X128907310Y-105881814D01*
X129041954Y-105944599D01*
X129103804Y-105973440D01*
X129109112Y-105974862D01*
X129109114Y-105974863D01*
X129156705Y-105987615D01*
X129318537Y-106030978D01*
X129540000Y-106050353D01*
X129761463Y-106030978D01*
X129923295Y-105987615D01*
X129970886Y-105974863D01*
X129970888Y-105974862D01*
X129976196Y-105973440D01*
X130038046Y-105944599D01*
X130172690Y-105881814D01*
X130172695Y-105881811D01*
X130177677Y-105879488D01*
X130279505Y-105808187D01*
X130355270Y-105755136D01*
X130355273Y-105755134D01*
X130359781Y-105751977D01*
X130516977Y-105594781D01*
X130521354Y-105588531D01*
X130641331Y-105417185D01*
X130641333Y-105417182D01*
X130644488Y-105412676D01*
X130646811Y-105407694D01*
X130646814Y-105407689D01*
X130695805Y-105302627D01*
X130742723Y-105249342D01*
X130811000Y-105229881D01*
X130878960Y-105250423D01*
X130924195Y-105302627D01*
X130973186Y-105407689D01*
X130973189Y-105407694D01*
X130975512Y-105412676D01*
X130978667Y-105417182D01*
X130978669Y-105417185D01*
X131098647Y-105588531D01*
X131103023Y-105594781D01*
X131260219Y-105751977D01*
X131264727Y-105755134D01*
X131264730Y-105755136D01*
X131340495Y-105808187D01*
X131442323Y-105879488D01*
X131447305Y-105881811D01*
X131447310Y-105881814D01*
X131581954Y-105944599D01*
X131643804Y-105973440D01*
X131649112Y-105974862D01*
X131649114Y-105974863D01*
X131696705Y-105987615D01*
X131858537Y-106030978D01*
X132080000Y-106050353D01*
X132301463Y-106030978D01*
X132463295Y-105987615D01*
X132510886Y-105974863D01*
X132510888Y-105974862D01*
X132516196Y-105973440D01*
X132578046Y-105944599D01*
X132712690Y-105881814D01*
X132712695Y-105881811D01*
X132717677Y-105879488D01*
X132819505Y-105808187D01*
X132895270Y-105755136D01*
X132895273Y-105755134D01*
X132899781Y-105751977D01*
X133056977Y-105594781D01*
X133061354Y-105588531D01*
X133120287Y-105504365D01*
X133175744Y-105460037D01*
X133246363Y-105452728D01*
X133309724Y-105484759D01*
X133345709Y-105545960D01*
X133349500Y-105576636D01*
X133349500Y-105585134D01*
X133356255Y-105647316D01*
X133407385Y-105783705D01*
X133494739Y-105900261D01*
X133611295Y-105987615D01*
X133747684Y-106038745D01*
X133809866Y-106045500D01*
X135255500Y-106045500D01*
X135323621Y-106065502D01*
X135370114Y-106119158D01*
X135381500Y-106171500D01*
X135381500Y-112705209D01*
X135361498Y-112773330D01*
X135307842Y-112819823D01*
X135237568Y-112829927D01*
X135172988Y-112800433D01*
X135135667Y-112744145D01*
X135126369Y-112715529D01*
X135124327Y-112709244D01*
X135028840Y-112543856D01*
X134901053Y-112401934D01*
X134746552Y-112289682D01*
X134740524Y-112286998D01*
X134740522Y-112286997D01*
X134578119Y-112214691D01*
X134578118Y-112214691D01*
X134572088Y-112212006D01*
X134478687Y-112192153D01*
X134391744Y-112173672D01*
X134391739Y-112173672D01*
X134385287Y-112172300D01*
X134194313Y-112172300D01*
X134187861Y-112173672D01*
X134187856Y-112173672D01*
X134100912Y-112192153D01*
X134007512Y-112212006D01*
X134001482Y-112214691D01*
X134001481Y-112214691D01*
X133839078Y-112286997D01*
X133839076Y-112286998D01*
X133833048Y-112289682D01*
X133678547Y-112401934D01*
X133550760Y-112543856D01*
X133455273Y-112709244D01*
X133396258Y-112890872D01*
X133395568Y-112897433D01*
X133395568Y-112897435D01*
X133384503Y-113002714D01*
X133376296Y-113080800D01*
X133376986Y-113087365D01*
X133393880Y-113248099D01*
X133396258Y-113270728D01*
X133455273Y-113452356D01*
X133505010Y-113538502D01*
X133521747Y-113607495D01*
X133505010Y-113664498D01*
X133455273Y-113750644D01*
X133396258Y-113932272D01*
X133395568Y-113938833D01*
X133395568Y-113938835D01*
X133387863Y-114012148D01*
X133376296Y-114122200D01*
X133376986Y-114128765D01*
X133394836Y-114298594D01*
X133396258Y-114312128D01*
X133455273Y-114493756D01*
X133550760Y-114659144D01*
X133555178Y-114664051D01*
X133555179Y-114664052D01*
X133656286Y-114776343D01*
X133678547Y-114801066D01*
X133833048Y-114913318D01*
X133839076Y-114916002D01*
X133839078Y-114916003D01*
X133980829Y-114979114D01*
X134007512Y-114990994D01*
X134100912Y-115010847D01*
X134187856Y-115029328D01*
X134187861Y-115029328D01*
X134194313Y-115030700D01*
X134385287Y-115030700D01*
X134391739Y-115029328D01*
X134391744Y-115029328D01*
X134478688Y-115010847D01*
X134572088Y-114990994D01*
X134598771Y-114979114D01*
X134740522Y-114916003D01*
X134740524Y-114916002D01*
X134746552Y-114913318D01*
X134901053Y-114801066D01*
X134923314Y-114776343D01*
X135024421Y-114664052D01*
X135024422Y-114664051D01*
X135028840Y-114659144D01*
X135124327Y-114493756D01*
X135135667Y-114458855D01*
X135175740Y-114400249D01*
X135241137Y-114372612D01*
X135311094Y-114384719D01*
X135363400Y-114432725D01*
X135381500Y-114497791D01*
X135381500Y-142909820D01*
X135361498Y-142977941D01*
X135307842Y-143024434D01*
X135237568Y-143034538D01*
X135202250Y-143024015D01*
X135066818Y-142960862D01*
X135066817Y-142960861D01*
X135061836Y-142958539D01*
X135056528Y-142957117D01*
X135056526Y-142957116D01*
X134854564Y-142903001D01*
X134854563Y-142903001D01*
X134849249Y-142901577D01*
X134630000Y-142882395D01*
X134410751Y-142901577D01*
X134405437Y-142903001D01*
X134405436Y-142903001D01*
X134203474Y-142957116D01*
X134203472Y-142957117D01*
X134198164Y-142958539D01*
X134193184Y-142960861D01*
X134193182Y-142960862D01*
X134003679Y-143049229D01*
X134003676Y-143049231D01*
X133998698Y-143051552D01*
X133818413Y-143177788D01*
X133662788Y-143333413D01*
X133536552Y-143513698D01*
X133534231Y-143518676D01*
X133534229Y-143518679D01*
X133481201Y-143632398D01*
X133434283Y-143685683D01*
X133366006Y-143705144D01*
X133298046Y-143684602D01*
X133252811Y-143632398D01*
X133196814Y-143512311D01*
X133196811Y-143512306D01*
X133194488Y-143507324D01*
X133075874Y-143337925D01*
X133070136Y-143329730D01*
X133070134Y-143329727D01*
X133066977Y-143325219D01*
X132938158Y-143196400D01*
X132904132Y-143134088D01*
X132909197Y-143063273D01*
X132953192Y-143005369D01*
X133066909Y-142922749D01*
X133066911Y-142922747D01*
X133072253Y-142918866D01*
X133090249Y-142898879D01*
X133195621Y-142781852D01*
X133195622Y-142781851D01*
X133200040Y-142776944D01*
X133295527Y-142611556D01*
X133354542Y-142429928D01*
X133356138Y-142414749D01*
X133360843Y-142369979D01*
X133387857Y-142304322D01*
X133446078Y-142263693D01*
X133499323Y-142257840D01*
X133502053Y-142258127D01*
X133508513Y-142259500D01*
X133699487Y-142259500D01*
X133705939Y-142258128D01*
X133705944Y-142258128D01*
X133792887Y-142239647D01*
X133886288Y-142219794D01*
X134018906Y-142160749D01*
X134054722Y-142144803D01*
X134054724Y-142144802D01*
X134060752Y-142142118D01*
X134215253Y-142029866D01*
X134233837Y-142009226D01*
X134338621Y-141892852D01*
X134338622Y-141892851D01*
X134343040Y-141887944D01*
X134429284Y-141738565D01*
X134435223Y-141728279D01*
X134435224Y-141728278D01*
X134438527Y-141722556D01*
X134497542Y-141540928D01*
X134500814Y-141509803D01*
X134516814Y-141357565D01*
X134517504Y-141351000D01*
X134515599Y-141332872D01*
X134498232Y-141167635D01*
X134498232Y-141167633D01*
X134497542Y-141161072D01*
X134438527Y-140979444D01*
X134343040Y-140814056D01*
X134215253Y-140672134D01*
X134116157Y-140600136D01*
X134066094Y-140563763D01*
X134066093Y-140563762D01*
X134060752Y-140559882D01*
X134054724Y-140557198D01*
X134054722Y-140557197D01*
X133892319Y-140484891D01*
X133892318Y-140484891D01*
X133886288Y-140482206D01*
X133792888Y-140462353D01*
X133705944Y-140443872D01*
X133705939Y-140443872D01*
X133699487Y-140442500D01*
X133508513Y-140442500D01*
X133502061Y-140443872D01*
X133502056Y-140443872D01*
X133415112Y-140462353D01*
X133321712Y-140482206D01*
X133315682Y-140484891D01*
X133315681Y-140484891D01*
X133153278Y-140557197D01*
X133153276Y-140557198D01*
X133147248Y-140559882D01*
X133141907Y-140563762D01*
X133141906Y-140563763D01*
X133091843Y-140600136D01*
X132992747Y-140672134D01*
X132864960Y-140814056D01*
X132769473Y-140979444D01*
X132710458Y-141161072D01*
X132709768Y-141167633D01*
X132709768Y-141167635D01*
X132704157Y-141221021D01*
X132677143Y-141286678D01*
X132618922Y-141327307D01*
X132565677Y-141333160D01*
X132562947Y-141332873D01*
X132556487Y-141331500D01*
X132365513Y-141331500D01*
X132359061Y-141332872D01*
X132359056Y-141332872D01*
X132273773Y-141351000D01*
X132178712Y-141371206D01*
X132172682Y-141373891D01*
X132172681Y-141373891D01*
X132010278Y-141446197D01*
X132010276Y-141446198D01*
X132004248Y-141448882D01*
X131998907Y-141452762D01*
X131998906Y-141452763D01*
X131964171Y-141478000D01*
X131849747Y-141561134D01*
X131845326Y-141566044D01*
X131845325Y-141566045D01*
X131747937Y-141674206D01*
X131721960Y-141703056D01*
X131705249Y-141732000D01*
X131631926Y-141859000D01*
X131626473Y-141868444D01*
X131567458Y-142050072D01*
X131566768Y-142056633D01*
X131566768Y-142056635D01*
X131549149Y-142224271D01*
X131547496Y-142240000D01*
X131548186Y-142246565D01*
X131565863Y-142414749D01*
X131567458Y-142429928D01*
X131626473Y-142611556D01*
X131629776Y-142617278D01*
X131629777Y-142617279D01*
X131716210Y-142766986D01*
X131732948Y-142835982D01*
X131709727Y-142903073D01*
X131653485Y-142945875D01*
X131653804Y-142946560D01*
X131648818Y-142948885D01*
X131457311Y-143038186D01*
X131457306Y-143038189D01*
X131452324Y-143040512D01*
X131447817Y-143043668D01*
X131447815Y-143043669D01*
X131274730Y-143164864D01*
X131274727Y-143164866D01*
X131270219Y-143168023D01*
X131113023Y-143325219D01*
X131109866Y-143329727D01*
X131109864Y-143329730D01*
X131104126Y-143337925D01*
X130985512Y-143507324D01*
X130983189Y-143512306D01*
X130983186Y-143512311D01*
X130934195Y-143617373D01*
X130887277Y-143670658D01*
X130819000Y-143690119D01*
X130751040Y-143669577D01*
X130705805Y-143617373D01*
X130656814Y-143512311D01*
X130656811Y-143512306D01*
X130654488Y-143507324D01*
X130535874Y-143337925D01*
X130530136Y-143329730D01*
X130530134Y-143329727D01*
X130526977Y-143325219D01*
X130369781Y-143168023D01*
X130365273Y-143164866D01*
X130365270Y-143164864D01*
X130212605Y-143057967D01*
X130187677Y-143040512D01*
X130182695Y-143038189D01*
X130182690Y-143038186D01*
X129991178Y-142948883D01*
X129991177Y-142948882D01*
X129986196Y-142946560D01*
X129980888Y-142945138D01*
X129980886Y-142945137D01*
X129864513Y-142913955D01*
X129771463Y-142889022D01*
X129550000Y-142869647D01*
X129328537Y-142889022D01*
X129235487Y-142913955D01*
X129119114Y-142945137D01*
X129119112Y-142945138D01*
X129113804Y-142946560D01*
X129108823Y-142948882D01*
X129108822Y-142948883D01*
X128917311Y-143038186D01*
X128917306Y-143038189D01*
X128912324Y-143040512D01*
X128907817Y-143043668D01*
X128907815Y-143043669D01*
X128734730Y-143164864D01*
X128734727Y-143164866D01*
X128730219Y-143168023D01*
X128573023Y-143325219D01*
X128569866Y-143329727D01*
X128569864Y-143329730D01*
X128564126Y-143337925D01*
X128445512Y-143507324D01*
X128443189Y-143512306D01*
X128443186Y-143512311D01*
X128394195Y-143617373D01*
X128347277Y-143670658D01*
X128279000Y-143690119D01*
X128211040Y-143669577D01*
X128165805Y-143617373D01*
X128116814Y-143512311D01*
X128116811Y-143512306D01*
X128114488Y-143507324D01*
X127995874Y-143337925D01*
X127990136Y-143329730D01*
X127990134Y-143329727D01*
X127986977Y-143325219D01*
X127829781Y-143168023D01*
X127825271Y-143164865D01*
X127825265Y-143164860D01*
X127751806Y-143113424D01*
X127707477Y-143057967D01*
X127700168Y-142987348D01*
X127732198Y-142923988D01*
X127735055Y-142921189D01*
X127738253Y-142918866D01*
X127742668Y-142913963D01*
X127742671Y-142913960D01*
X127861621Y-142781852D01*
X127861622Y-142781851D01*
X127866040Y-142776944D01*
X127961527Y-142611556D01*
X128020542Y-142429928D01*
X128022138Y-142414749D01*
X128039814Y-142246565D01*
X128040504Y-142240000D01*
X128038851Y-142224271D01*
X128021232Y-142056635D01*
X128021232Y-142056633D01*
X128020542Y-142050072D01*
X127961527Y-141868444D01*
X127956075Y-141859000D01*
X127882751Y-141732000D01*
X127866040Y-141703056D01*
X127840064Y-141674206D01*
X127742675Y-141566045D01*
X127742674Y-141566044D01*
X127738253Y-141561134D01*
X127623829Y-141478000D01*
X127589094Y-141452763D01*
X127589093Y-141452762D01*
X127583752Y-141448882D01*
X127577724Y-141446198D01*
X127577722Y-141446197D01*
X127415319Y-141373891D01*
X127415318Y-141373891D01*
X127409288Y-141371206D01*
X127314227Y-141351000D01*
X127228944Y-141332872D01*
X127228939Y-141332872D01*
X127222487Y-141331500D01*
X127031513Y-141331500D01*
X127025061Y-141332872D01*
X127025056Y-141332872D01*
X126939773Y-141351000D01*
X126844712Y-141371206D01*
X126838682Y-141373891D01*
X126838681Y-141373891D01*
X126676278Y-141446197D01*
X126676276Y-141446198D01*
X126670248Y-141448882D01*
X126664907Y-141452762D01*
X126664906Y-141452763D01*
X126630171Y-141478000D01*
X126515747Y-141561134D01*
X126511326Y-141566044D01*
X126511325Y-141566045D01*
X126413937Y-141674206D01*
X126387960Y-141703056D01*
X126371249Y-141732000D01*
X126297926Y-141859000D01*
X126292473Y-141868444D01*
X126233458Y-142050072D01*
X126232768Y-142056633D01*
X126232768Y-142056635D01*
X126215149Y-142224271D01*
X126213496Y-142240000D01*
X126214186Y-142246565D01*
X126231863Y-142414749D01*
X126233458Y-142429928D01*
X126292473Y-142611556D01*
X126387960Y-142776944D01*
X126436539Y-142830896D01*
X126467256Y-142894904D01*
X126458491Y-142965357D01*
X126413028Y-143019888D01*
X126396151Y-143029401D01*
X126377315Y-143038184D01*
X126377312Y-143038186D01*
X126372324Y-143040512D01*
X126367817Y-143043668D01*
X126367815Y-143043669D01*
X126194730Y-143164864D01*
X126194727Y-143164866D01*
X126190219Y-143168023D01*
X126033023Y-143325219D01*
X126029866Y-143329727D01*
X126029864Y-143329730D01*
X126024126Y-143337925D01*
X125905512Y-143507324D01*
X125903189Y-143512306D01*
X125903186Y-143512311D01*
X125854195Y-143617373D01*
X125807277Y-143670658D01*
X125739000Y-143690119D01*
X125671040Y-143669577D01*
X125625805Y-143617373D01*
X125576814Y-143512311D01*
X125576811Y-143512306D01*
X125574488Y-143507324D01*
X125455874Y-143337925D01*
X125450136Y-143329730D01*
X125450134Y-143329727D01*
X125446977Y-143325219D01*
X125289781Y-143168023D01*
X125285273Y-143164866D01*
X125285270Y-143164864D01*
X125132605Y-143057967D01*
X125107677Y-143040512D01*
X125102695Y-143038189D01*
X125102690Y-143038186D01*
X124980317Y-142981123D01*
X124927032Y-142934206D01*
X124907571Y-142865928D01*
X124928113Y-142797968D01*
X124939932Y-142782617D01*
X124940621Y-142781852D01*
X124940622Y-142781851D01*
X124945040Y-142776944D01*
X125040527Y-142611556D01*
X125099542Y-142429928D01*
X125101138Y-142414749D01*
X125118814Y-142246565D01*
X125119504Y-142240000D01*
X125117851Y-142224271D01*
X125100232Y-142056635D01*
X125100232Y-142056633D01*
X125099542Y-142050072D01*
X125040527Y-141868444D01*
X125035075Y-141859000D01*
X124961751Y-141732000D01*
X124945040Y-141703056D01*
X124919064Y-141674206D01*
X124821675Y-141566045D01*
X124821674Y-141566044D01*
X124817253Y-141561134D01*
X124702829Y-141478000D01*
X124668094Y-141452763D01*
X124668093Y-141452762D01*
X124662752Y-141448882D01*
X124656724Y-141446198D01*
X124656722Y-141446197D01*
X124494319Y-141373891D01*
X124494318Y-141373891D01*
X124488288Y-141371206D01*
X124393227Y-141351000D01*
X124307944Y-141332872D01*
X124307939Y-141332872D01*
X124301487Y-141331500D01*
X124110513Y-141331500D01*
X124104061Y-141332872D01*
X124104056Y-141332872D01*
X124018773Y-141351000D01*
X123923712Y-141371206D01*
X123917682Y-141373891D01*
X123917681Y-141373891D01*
X123755278Y-141446197D01*
X123755276Y-141446198D01*
X123749248Y-141448882D01*
X123743907Y-141452762D01*
X123743906Y-141452763D01*
X123709171Y-141478000D01*
X123594747Y-141561134D01*
X123590326Y-141566044D01*
X123590325Y-141566045D01*
X123492937Y-141674206D01*
X123466960Y-141703056D01*
X123450249Y-141732000D01*
X123376926Y-141859000D01*
X123371473Y-141868444D01*
X123312458Y-142050072D01*
X123311768Y-142056633D01*
X123311768Y-142056635D01*
X123294149Y-142224271D01*
X123292496Y-142240000D01*
X123293186Y-142246565D01*
X123310863Y-142414749D01*
X123312458Y-142429928D01*
X123371473Y-142611556D01*
X123466960Y-142776944D01*
X123471378Y-142781851D01*
X123471379Y-142781852D01*
X123576751Y-142898879D01*
X123594747Y-142918866D01*
X123653696Y-142961695D01*
X123697048Y-143017917D01*
X123703123Y-143088653D01*
X123669991Y-143151445D01*
X123658709Y-143161050D01*
X123658943Y-143161329D01*
X123654730Y-143164864D01*
X123650219Y-143168023D01*
X123493023Y-143325219D01*
X123489866Y-143329727D01*
X123489864Y-143329730D01*
X123484126Y-143337925D01*
X123365512Y-143507324D01*
X123363189Y-143512306D01*
X123363186Y-143512311D01*
X123314195Y-143617373D01*
X123267277Y-143670658D01*
X123199000Y-143690119D01*
X123131040Y-143669577D01*
X123085805Y-143617373D01*
X123036814Y-143512311D01*
X123036811Y-143512306D01*
X123034488Y-143507324D01*
X122915874Y-143337925D01*
X122910136Y-143329730D01*
X122910134Y-143329727D01*
X122906977Y-143325219D01*
X122749781Y-143168023D01*
X122745273Y-143164866D01*
X122745270Y-143164864D01*
X122592605Y-143057967D01*
X122567677Y-143040512D01*
X122562695Y-143038189D01*
X122562690Y-143038186D01*
X122371178Y-142948883D01*
X122371177Y-142948882D01*
X122366196Y-142946560D01*
X122360888Y-142945138D01*
X122360886Y-142945137D01*
X122244513Y-142913955D01*
X122151463Y-142889022D01*
X121930000Y-142869647D01*
X121708537Y-142889022D01*
X121615487Y-142913955D01*
X121499114Y-142945137D01*
X121499112Y-142945138D01*
X121493804Y-142946560D01*
X121488823Y-142948882D01*
X121488822Y-142948883D01*
X121297311Y-143038186D01*
X121297306Y-143038189D01*
X121292324Y-143040512D01*
X121287817Y-143043668D01*
X121287815Y-143043669D01*
X121114730Y-143164864D01*
X121114727Y-143164866D01*
X121110219Y-143168023D01*
X120953023Y-143325219D01*
X120949866Y-143329727D01*
X120949864Y-143329730D01*
X120944126Y-143337925D01*
X120825512Y-143507324D01*
X120823189Y-143512306D01*
X120823186Y-143512311D01*
X120774195Y-143617373D01*
X120727277Y-143670658D01*
X120659000Y-143690119D01*
X120591040Y-143669577D01*
X120545805Y-143617373D01*
X120496814Y-143512311D01*
X120496811Y-143512306D01*
X120494488Y-143507324D01*
X120375874Y-143337925D01*
X120370136Y-143329730D01*
X120370134Y-143329727D01*
X120366977Y-143325219D01*
X120209781Y-143168023D01*
X120205273Y-143164866D01*
X120205270Y-143164864D01*
X120052605Y-143057967D01*
X120027677Y-143040512D01*
X120022695Y-143038189D01*
X120022690Y-143038186D01*
X119831178Y-142948883D01*
X119831177Y-142948882D01*
X119826196Y-142946560D01*
X119820888Y-142945138D01*
X119820886Y-142945137D01*
X119616774Y-142890445D01*
X119616773Y-142890445D01*
X119611463Y-142889022D01*
X119610392Y-142888928D01*
X119548005Y-142858010D01*
X119511535Y-142797097D01*
X119513786Y-142726136D01*
X119554045Y-142667657D01*
X119571484Y-142656948D01*
X119570999Y-142656107D01*
X119576722Y-142652803D01*
X119582752Y-142650118D01*
X119597879Y-142639128D01*
X119654336Y-142598109D01*
X119737253Y-142537866D01*
X119865040Y-142395944D01*
X119951284Y-142246565D01*
X119957223Y-142236279D01*
X119957224Y-142236278D01*
X119960527Y-142230556D01*
X120019542Y-142048928D01*
X120021138Y-142033749D01*
X120038814Y-141865565D01*
X120039504Y-141859000D01*
X120019542Y-141669072D01*
X119960527Y-141487444D01*
X119955075Y-141478000D01*
X119907077Y-141394866D01*
X119865040Y-141322056D01*
X119785254Y-141233444D01*
X119741675Y-141185045D01*
X119741674Y-141185044D01*
X119737253Y-141180134D01*
X119609831Y-141087556D01*
X119588094Y-141071763D01*
X119588093Y-141071762D01*
X119582752Y-141067882D01*
X119576724Y-141065198D01*
X119576722Y-141065197D01*
X119414319Y-140992891D01*
X119414318Y-140992891D01*
X119408288Y-140990206D01*
X119314887Y-140970353D01*
X119227944Y-140951872D01*
X119227939Y-140951872D01*
X119221487Y-140950500D01*
X119030513Y-140950500D01*
X119024061Y-140951872D01*
X119024056Y-140951872D01*
X118937113Y-140970353D01*
X118843712Y-140990206D01*
X118837682Y-140992891D01*
X118837681Y-140992891D01*
X118675278Y-141065197D01*
X118675276Y-141065198D01*
X118669248Y-141067882D01*
X118663907Y-141071762D01*
X118663906Y-141071763D01*
X118642169Y-141087556D01*
X118514747Y-141180134D01*
X118510326Y-141185044D01*
X118510325Y-141185045D01*
X118466747Y-141233444D01*
X118386960Y-141322056D01*
X118344923Y-141394866D01*
X118296926Y-141478000D01*
X118291473Y-141487444D01*
X118246941Y-141624500D01*
X118240669Y-141643802D01*
X118200595Y-141702407D01*
X118135199Y-141730044D01*
X118065242Y-141717937D01*
X118012936Y-141669931D01*
X117995526Y-141618036D01*
X117988232Y-141548634D01*
X117988231Y-141548631D01*
X117987542Y-141542072D01*
X117928527Y-141360444D01*
X117923075Y-141351000D01*
X117836341Y-141200774D01*
X117833040Y-141195056D01*
X117753254Y-141106444D01*
X117709675Y-141058045D01*
X117709674Y-141058044D01*
X117705253Y-141053134D01*
X117595951Y-140973721D01*
X117556094Y-140944763D01*
X117556093Y-140944762D01*
X117550752Y-140940882D01*
X117544724Y-140938198D01*
X117544722Y-140938197D01*
X117382319Y-140865891D01*
X117382318Y-140865891D01*
X117376288Y-140863206D01*
X117282887Y-140843353D01*
X117195944Y-140824872D01*
X117195939Y-140824872D01*
X117189487Y-140823500D01*
X116998513Y-140823500D01*
X116992061Y-140824872D01*
X116992056Y-140824872D01*
X116905113Y-140843353D01*
X116811712Y-140863206D01*
X116805682Y-140865891D01*
X116805681Y-140865891D01*
X116643278Y-140938197D01*
X116643276Y-140938198D01*
X116637248Y-140940882D01*
X116631907Y-140944762D01*
X116631906Y-140944763D01*
X116592049Y-140973721D01*
X116482747Y-141053134D01*
X116478326Y-141058044D01*
X116478325Y-141058045D01*
X116434747Y-141106444D01*
X116354960Y-141195056D01*
X116351659Y-141200774D01*
X116264926Y-141351000D01*
X116259473Y-141360444D01*
X116200458Y-141542072D01*
X116199768Y-141548633D01*
X116199768Y-141548635D01*
X116189766Y-141643802D01*
X116180496Y-141732000D01*
X116200458Y-141921928D01*
X116259473Y-142103556D01*
X116354960Y-142268944D01*
X116482747Y-142410866D01*
X116565664Y-142471109D01*
X116622122Y-142512128D01*
X116637248Y-142523118D01*
X116643276Y-142525802D01*
X116643278Y-142525803D01*
X116679094Y-142541749D01*
X116811712Y-142600794D01*
X116818164Y-142602166D01*
X116818169Y-142602167D01*
X116919512Y-142623708D01*
X116981986Y-142657437D01*
X117002360Y-142694331D01*
X117020003Y-142668705D01*
X117085487Y-142641276D01*
X117099452Y-142640500D01*
X117189487Y-142640500D01*
X117195939Y-142639128D01*
X117195944Y-142639128D01*
X117282887Y-142620647D01*
X117376288Y-142600794D01*
X117508906Y-142541749D01*
X117544722Y-142525803D01*
X117544724Y-142525802D01*
X117550752Y-142523118D01*
X117565879Y-142512128D01*
X117622336Y-142471109D01*
X117705253Y-142410866D01*
X117833040Y-142268944D01*
X117928527Y-142103556D01*
X117979331Y-141947197D01*
X118019405Y-141888593D01*
X118084801Y-141860956D01*
X118154758Y-141873063D01*
X118207064Y-141921069D01*
X118224474Y-141972964D01*
X118225357Y-141981363D01*
X118230863Y-142033749D01*
X118232458Y-142048928D01*
X118291473Y-142230556D01*
X118294776Y-142236278D01*
X118294777Y-142236279D01*
X118300716Y-142246565D01*
X118386960Y-142395944D01*
X118514747Y-142537866D01*
X118597664Y-142598109D01*
X118654122Y-142639128D01*
X118669248Y-142650118D01*
X118675276Y-142652802D01*
X118675278Y-142652803D01*
X118837681Y-142725109D01*
X118843712Y-142727794D01*
X118870025Y-142733387D01*
X118873238Y-142734070D01*
X118935712Y-142767797D01*
X118970034Y-142829947D01*
X118965307Y-142900786D01*
X118923032Y-142957824D01*
X118900293Y-142971512D01*
X118774888Y-143029990D01*
X118752324Y-143040512D01*
X118747817Y-143043668D01*
X118747815Y-143043669D01*
X118574730Y-143164864D01*
X118574727Y-143164866D01*
X118570219Y-143168023D01*
X118413023Y-143325219D01*
X118409866Y-143329727D01*
X118409864Y-143329730D01*
X118404126Y-143337925D01*
X118285512Y-143507324D01*
X118283189Y-143512306D01*
X118283186Y-143512311D01*
X118234195Y-143617373D01*
X118187277Y-143670658D01*
X118119000Y-143690119D01*
X118051040Y-143669577D01*
X118005805Y-143617373D01*
X117956814Y-143512311D01*
X117956811Y-143512306D01*
X117954488Y-143507324D01*
X117835874Y-143337925D01*
X117830136Y-143329730D01*
X117830134Y-143329727D01*
X117826977Y-143325219D01*
X117669781Y-143168023D01*
X117665273Y-143164866D01*
X117665270Y-143164864D01*
X117512605Y-143057967D01*
X117487677Y-143040512D01*
X117482695Y-143038189D01*
X117482690Y-143038186D01*
X117291178Y-142948883D01*
X117291177Y-142948882D01*
X117286196Y-142946560D01*
X117280888Y-142945138D01*
X117280886Y-142945137D01*
X117071463Y-142889022D01*
X117071809Y-142887730D01*
X117013959Y-142859058D01*
X116990165Y-142819316D01*
X116969303Y-142847463D01*
X116902901Y-142872590D01*
X116882333Y-142872475D01*
X116855485Y-142870126D01*
X116855475Y-142870126D01*
X116850000Y-142869647D01*
X116628537Y-142889022D01*
X116535487Y-142913955D01*
X116419114Y-142945137D01*
X116419112Y-142945138D01*
X116413804Y-142946560D01*
X116408823Y-142948882D01*
X116408822Y-142948883D01*
X116217311Y-143038186D01*
X116217306Y-143038189D01*
X116212324Y-143040512D01*
X116207817Y-143043668D01*
X116207815Y-143043669D01*
X116034730Y-143164864D01*
X116034727Y-143164866D01*
X116030219Y-143168023D01*
X115873023Y-143325219D01*
X115869866Y-143329727D01*
X115869864Y-143329730D01*
X115864126Y-143337925D01*
X115745512Y-143507324D01*
X115743189Y-143512306D01*
X115743186Y-143512311D01*
X115694195Y-143617373D01*
X115647277Y-143670658D01*
X115579000Y-143690119D01*
X115511040Y-143669577D01*
X115465805Y-143617373D01*
X115416814Y-143512311D01*
X115416811Y-143512306D01*
X115414488Y-143507324D01*
X115295874Y-143337925D01*
X115290136Y-143329730D01*
X115290134Y-143329727D01*
X115286977Y-143325219D01*
X115129781Y-143168023D01*
X115125273Y-143164866D01*
X115125270Y-143164864D01*
X114972605Y-143057967D01*
X114947677Y-143040512D01*
X114942695Y-143038189D01*
X114942690Y-143038186D01*
X114751178Y-142948883D01*
X114751177Y-142948882D01*
X114746196Y-142946560D01*
X114740888Y-142945138D01*
X114740886Y-142945137D01*
X114624513Y-142913955D01*
X114531463Y-142889022D01*
X114310000Y-142869647D01*
X114088537Y-142889022D01*
X113995487Y-142913955D01*
X113879114Y-142945137D01*
X113879112Y-142945138D01*
X113873804Y-142946560D01*
X113868823Y-142948882D01*
X113868822Y-142948883D01*
X113677311Y-143038186D01*
X113677306Y-143038189D01*
X113672324Y-143040512D01*
X113667817Y-143043668D01*
X113667815Y-143043669D01*
X113494730Y-143164864D01*
X113494727Y-143164866D01*
X113490219Y-143168023D01*
X113333023Y-143325219D01*
X113329866Y-143329727D01*
X113329864Y-143329730D01*
X113324126Y-143337925D01*
X113205512Y-143507324D01*
X113203189Y-143512306D01*
X113203186Y-143512311D01*
X113154195Y-143617373D01*
X113107277Y-143670658D01*
X113039000Y-143690119D01*
X112971040Y-143669577D01*
X112925805Y-143617373D01*
X112876814Y-143512311D01*
X112876811Y-143512306D01*
X112874488Y-143507324D01*
X112755874Y-143337925D01*
X112750136Y-143329730D01*
X112750134Y-143329727D01*
X112746977Y-143325219D01*
X112589781Y-143168023D01*
X112585273Y-143164866D01*
X112585270Y-143164864D01*
X112432605Y-143057967D01*
X112407677Y-143040512D01*
X112402695Y-143038189D01*
X112402690Y-143038186D01*
X112211178Y-142948883D01*
X112211177Y-142948882D01*
X112206196Y-142946560D01*
X112200888Y-142945138D01*
X112200886Y-142945137D01*
X112084513Y-142913955D01*
X111991463Y-142889022D01*
X111770000Y-142869647D01*
X111548537Y-142889022D01*
X111455487Y-142913955D01*
X111339114Y-142945137D01*
X111339112Y-142945138D01*
X111333804Y-142946560D01*
X111328823Y-142948882D01*
X111328822Y-142948883D01*
X111137311Y-143038186D01*
X111137306Y-143038189D01*
X111132324Y-143040512D01*
X111127817Y-143043668D01*
X111127815Y-143043669D01*
X110954730Y-143164864D01*
X110954727Y-143164866D01*
X110950219Y-143168023D01*
X110793023Y-143325219D01*
X110789866Y-143329727D01*
X110789864Y-143329730D01*
X110784126Y-143337925D01*
X110665512Y-143507324D01*
X110663189Y-143512306D01*
X110663186Y-143512311D01*
X110614195Y-143617373D01*
X110567277Y-143670658D01*
X110499000Y-143690119D01*
X110431040Y-143669577D01*
X110385805Y-143617373D01*
X110336814Y-143512311D01*
X110336811Y-143512306D01*
X110334488Y-143507324D01*
X110215874Y-143337925D01*
X110210136Y-143329730D01*
X110210134Y-143329727D01*
X110206977Y-143325219D01*
X110049781Y-143168023D01*
X110045273Y-143164866D01*
X110045270Y-143164864D01*
X109892605Y-143057967D01*
X109867677Y-143040512D01*
X109862695Y-143038189D01*
X109862690Y-143038186D01*
X109671178Y-142948883D01*
X109671177Y-142948882D01*
X109666196Y-142946560D01*
X109660888Y-142945138D01*
X109660886Y-142945137D01*
X109544513Y-142913955D01*
X109451463Y-142889022D01*
X109230000Y-142869647D01*
X109008537Y-142889022D01*
X108915487Y-142913955D01*
X108799114Y-142945137D01*
X108799112Y-142945138D01*
X108793804Y-142946560D01*
X108788823Y-142948882D01*
X108788822Y-142948883D01*
X108597311Y-143038186D01*
X108597306Y-143038189D01*
X108592324Y-143040512D01*
X108587817Y-143043668D01*
X108587815Y-143043669D01*
X108414730Y-143164864D01*
X108414727Y-143164866D01*
X108410219Y-143168023D01*
X108253023Y-143325219D01*
X108249866Y-143329727D01*
X108249864Y-143329730D01*
X108244126Y-143337925D01*
X108125512Y-143507324D01*
X108123189Y-143512306D01*
X108123186Y-143512311D01*
X108074195Y-143617373D01*
X108027277Y-143670658D01*
X107959000Y-143690119D01*
X107891040Y-143669577D01*
X107845805Y-143617373D01*
X107796814Y-143512311D01*
X107796811Y-143512306D01*
X107794488Y-143507324D01*
X107675874Y-143337925D01*
X107670136Y-143329730D01*
X107670134Y-143329727D01*
X107666977Y-143325219D01*
X107509781Y-143168023D01*
X107505273Y-143164866D01*
X107505270Y-143164864D01*
X107352605Y-143057967D01*
X107327677Y-143040512D01*
X107322695Y-143038189D01*
X107322690Y-143038186D01*
X107131178Y-142948883D01*
X107131177Y-142948882D01*
X107126196Y-142946560D01*
X107120888Y-142945138D01*
X107120886Y-142945137D01*
X107004513Y-142913955D01*
X106911463Y-142889022D01*
X106690000Y-142869647D01*
X106468537Y-142889022D01*
X106375487Y-142913955D01*
X106259114Y-142945137D01*
X106259112Y-142945138D01*
X106253804Y-142946560D01*
X106248823Y-142948882D01*
X106248822Y-142948883D01*
X106057311Y-143038186D01*
X106057306Y-143038189D01*
X106052324Y-143040512D01*
X106047817Y-143043668D01*
X106047815Y-143043669D01*
X105874730Y-143164864D01*
X105874727Y-143164866D01*
X105870219Y-143168023D01*
X105713023Y-143325219D01*
X105709866Y-143329727D01*
X105709864Y-143329730D01*
X105704126Y-143337925D01*
X105585512Y-143507324D01*
X105583189Y-143512306D01*
X105583186Y-143512311D01*
X105534195Y-143617373D01*
X105487277Y-143670658D01*
X105419000Y-143690119D01*
X105351040Y-143669577D01*
X105305805Y-143617373D01*
X105256814Y-143512311D01*
X105256811Y-143512306D01*
X105254488Y-143507324D01*
X105135874Y-143337925D01*
X105130136Y-143329730D01*
X105130134Y-143329727D01*
X105126977Y-143325219D01*
X104969781Y-143168023D01*
X104965273Y-143164866D01*
X104965270Y-143164864D01*
X104812605Y-143057967D01*
X104787677Y-143040512D01*
X104782695Y-143038189D01*
X104782690Y-143038186D01*
X104591178Y-142948883D01*
X104591177Y-142948882D01*
X104586196Y-142946560D01*
X104580888Y-142945138D01*
X104580886Y-142945137D01*
X104464513Y-142913955D01*
X104371463Y-142889022D01*
X104150000Y-142869647D01*
X103928537Y-142889022D01*
X103835487Y-142913955D01*
X103719114Y-142945137D01*
X103719112Y-142945138D01*
X103713804Y-142946560D01*
X103708823Y-142948882D01*
X103708822Y-142948883D01*
X103517311Y-143038186D01*
X103517306Y-143038189D01*
X103512324Y-143040512D01*
X103507817Y-143043668D01*
X103507815Y-143043669D01*
X103334730Y-143164864D01*
X103334727Y-143164866D01*
X103330219Y-143168023D01*
X103173023Y-143325219D01*
X103169866Y-143329727D01*
X103169864Y-143329730D01*
X103164126Y-143337925D01*
X103045512Y-143507324D01*
X103043189Y-143512306D01*
X103043186Y-143512311D01*
X102994195Y-143617373D01*
X102947277Y-143670658D01*
X102879000Y-143690119D01*
X102811040Y-143669577D01*
X102765805Y-143617373D01*
X102716814Y-143512311D01*
X102716811Y-143512306D01*
X102714488Y-143507324D01*
X102595874Y-143337925D01*
X102590136Y-143329730D01*
X102590134Y-143329727D01*
X102586977Y-143325219D01*
X102429781Y-143168023D01*
X102425273Y-143164866D01*
X102425270Y-143164864D01*
X102272605Y-143057967D01*
X102247677Y-143040512D01*
X102242695Y-143038189D01*
X102242690Y-143038186D01*
X102051178Y-142948883D01*
X102051177Y-142948882D01*
X102046196Y-142946560D01*
X102040888Y-142945138D01*
X102040886Y-142945137D01*
X101924513Y-142913955D01*
X101831463Y-142889022D01*
X101610000Y-142869647D01*
X101388537Y-142889022D01*
X101295487Y-142913955D01*
X101179114Y-142945137D01*
X101179112Y-142945138D01*
X101173804Y-142946560D01*
X101168823Y-142948882D01*
X101168822Y-142948883D01*
X101017750Y-143019329D01*
X100947558Y-143029990D01*
X100882745Y-143001010D01*
X100843889Y-142941590D01*
X100838500Y-142905134D01*
X100838500Y-141732000D01*
X102591496Y-141732000D01*
X102611458Y-141921928D01*
X102670473Y-142103556D01*
X102765960Y-142268944D01*
X102893747Y-142410866D01*
X102976664Y-142471109D01*
X103033122Y-142512128D01*
X103048248Y-142523118D01*
X103054276Y-142525802D01*
X103054278Y-142525803D01*
X103090094Y-142541749D01*
X103222712Y-142600794D01*
X103316113Y-142620647D01*
X103403056Y-142639128D01*
X103403061Y-142639128D01*
X103409513Y-142640500D01*
X103600487Y-142640500D01*
X103606939Y-142639128D01*
X103606944Y-142639128D01*
X103693887Y-142620647D01*
X103787288Y-142600794D01*
X103919906Y-142541749D01*
X103955722Y-142525803D01*
X103955724Y-142525802D01*
X103961752Y-142523118D01*
X103976879Y-142512128D01*
X104033336Y-142471109D01*
X104116253Y-142410866D01*
X104244040Y-142268944D01*
X104339527Y-142103556D01*
X104398542Y-141921928D01*
X104418504Y-141732000D01*
X104409234Y-141643802D01*
X104405156Y-141605000D01*
X106401496Y-141605000D01*
X106402186Y-141611565D01*
X106403546Y-141624500D01*
X106421458Y-141794928D01*
X106480473Y-141976556D01*
X106575960Y-142141944D01*
X106580378Y-142146851D01*
X106580379Y-142146852D01*
X106664250Y-142240000D01*
X106703747Y-142283866D01*
X106786664Y-142344109D01*
X106843122Y-142385128D01*
X106858248Y-142396118D01*
X106864276Y-142398802D01*
X106864278Y-142398803D01*
X107026681Y-142471109D01*
X107032712Y-142473794D01*
X107126113Y-142493647D01*
X107213056Y-142512128D01*
X107213061Y-142512128D01*
X107219513Y-142513500D01*
X107410487Y-142513500D01*
X107416939Y-142512128D01*
X107416944Y-142512128D01*
X107503887Y-142493647D01*
X107597288Y-142473794D01*
X107603319Y-142471109D01*
X107765722Y-142398803D01*
X107765724Y-142398802D01*
X107771752Y-142396118D01*
X107786879Y-142385128D01*
X107843336Y-142344109D01*
X107926253Y-142283866D01*
X107965750Y-142240000D01*
X108049621Y-142146852D01*
X108049622Y-142146851D01*
X108054040Y-142141944D01*
X108149527Y-141976556D01*
X108208542Y-141794928D01*
X108226455Y-141624500D01*
X108227814Y-141611565D01*
X108228504Y-141605000D01*
X108227814Y-141598435D01*
X108215156Y-141478000D01*
X108687496Y-141478000D01*
X108688186Y-141484565D01*
X108702894Y-141624500D01*
X108707458Y-141667928D01*
X108766473Y-141849556D01*
X108769776Y-141855278D01*
X108769777Y-141855279D01*
X108773055Y-141860956D01*
X108861960Y-142014944D01*
X108866378Y-142019851D01*
X108866379Y-142019852D01*
X108971163Y-142136226D01*
X108989747Y-142156866D01*
X109072664Y-142217109D01*
X109129122Y-142258128D01*
X109144248Y-142269118D01*
X109150276Y-142271802D01*
X109150278Y-142271803D01*
X109312681Y-142344109D01*
X109318712Y-142346794D01*
X109412112Y-142366647D01*
X109499056Y-142385128D01*
X109499061Y-142385128D01*
X109505513Y-142386500D01*
X109696487Y-142386500D01*
X109702939Y-142385128D01*
X109702944Y-142385128D01*
X109789888Y-142366647D01*
X109883288Y-142346794D01*
X109889319Y-142344109D01*
X110051722Y-142271803D01*
X110051724Y-142271802D01*
X110057752Y-142269118D01*
X110072879Y-142258128D01*
X110129336Y-142217109D01*
X110212253Y-142156866D01*
X110230837Y-142136226D01*
X110335621Y-142019852D01*
X110335622Y-142019851D01*
X110340040Y-142014944D01*
X110428945Y-141860956D01*
X110432223Y-141855279D01*
X110432224Y-141855278D01*
X110435527Y-141849556D01*
X110494542Y-141667928D01*
X110499107Y-141624500D01*
X110513814Y-141484565D01*
X110514504Y-141478000D01*
X110507230Y-141408794D01*
X110495232Y-141294635D01*
X110495232Y-141294633D01*
X110494542Y-141288072D01*
X110435527Y-141106444D01*
X110340040Y-140941056D01*
X110326973Y-140926543D01*
X110216675Y-140804045D01*
X110216674Y-140804044D01*
X110212253Y-140799134D01*
X110097829Y-140716000D01*
X112878496Y-140716000D01*
X112879186Y-140722565D01*
X112893894Y-140862500D01*
X112898458Y-140905928D01*
X112957473Y-141087556D01*
X113052960Y-141252944D01*
X113057378Y-141257851D01*
X113057379Y-141257852D01*
X113149753Y-141360444D01*
X113180747Y-141394866D01*
X113251398Y-141446197D01*
X113316820Y-141493729D01*
X113335248Y-141507118D01*
X113341276Y-141509802D01*
X113341278Y-141509803D01*
X113503681Y-141582109D01*
X113509712Y-141584794D01*
X113573888Y-141598435D01*
X113690056Y-141623128D01*
X113690061Y-141623128D01*
X113696513Y-141624500D01*
X113887487Y-141624500D01*
X113893939Y-141623128D01*
X113893944Y-141623128D01*
X114010112Y-141598435D01*
X114074288Y-141584794D01*
X114080319Y-141582109D01*
X114242722Y-141509803D01*
X114242724Y-141509802D01*
X114248752Y-141507118D01*
X114267181Y-141493729D01*
X114332602Y-141446197D01*
X114403253Y-141394866D01*
X114434247Y-141360444D01*
X114526621Y-141257852D01*
X114526622Y-141257851D01*
X114531040Y-141252944D01*
X114626527Y-141087556D01*
X114685542Y-140905928D01*
X114690107Y-140862500D01*
X114704814Y-140722565D01*
X114705504Y-140716000D01*
X114703599Y-140697872D01*
X114686232Y-140532635D01*
X114686232Y-140532633D01*
X114685542Y-140526072D01*
X114626527Y-140344444D01*
X114531040Y-140179056D01*
X114505064Y-140150206D01*
X114407675Y-140042045D01*
X114407674Y-140042044D01*
X114403253Y-140037134D01*
X114288829Y-139954000D01*
X114254094Y-139928763D01*
X114254093Y-139928762D01*
X114248752Y-139924882D01*
X114242724Y-139922198D01*
X114242722Y-139922197D01*
X114080319Y-139849891D01*
X114080318Y-139849891D01*
X114074288Y-139847206D01*
X113980887Y-139827353D01*
X113893944Y-139808872D01*
X113893939Y-139808872D01*
X113887487Y-139807500D01*
X113696513Y-139807500D01*
X113690061Y-139808872D01*
X113690056Y-139808872D01*
X113603113Y-139827353D01*
X113509712Y-139847206D01*
X113503682Y-139849891D01*
X113503681Y-139849891D01*
X113341278Y-139922197D01*
X113341276Y-139922198D01*
X113335248Y-139924882D01*
X113329907Y-139928762D01*
X113329906Y-139928763D01*
X113295171Y-139954000D01*
X113180747Y-140037134D01*
X113176326Y-140042044D01*
X113176325Y-140042045D01*
X113078937Y-140150206D01*
X113052960Y-140179056D01*
X112957473Y-140344444D01*
X112898458Y-140526072D01*
X112897768Y-140532633D01*
X112897768Y-140532635D01*
X112880401Y-140697872D01*
X112878496Y-140716000D01*
X110097829Y-140716000D01*
X110063094Y-140690763D01*
X110063093Y-140690762D01*
X110057752Y-140686882D01*
X110051724Y-140684198D01*
X110051722Y-140684197D01*
X109889319Y-140611891D01*
X109889318Y-140611891D01*
X109883288Y-140609206D01*
X109789887Y-140589353D01*
X109702944Y-140570872D01*
X109702939Y-140570872D01*
X109696487Y-140569500D01*
X109505513Y-140569500D01*
X109499061Y-140570872D01*
X109499056Y-140570872D01*
X109412113Y-140589353D01*
X109318712Y-140609206D01*
X109312682Y-140611891D01*
X109312681Y-140611891D01*
X109150278Y-140684197D01*
X109150276Y-140684198D01*
X109144248Y-140686882D01*
X109138907Y-140690762D01*
X109138906Y-140690763D01*
X109104171Y-140716000D01*
X108989747Y-140799134D01*
X108985326Y-140804044D01*
X108985325Y-140804045D01*
X108875028Y-140926543D01*
X108861960Y-140941056D01*
X108766473Y-141106444D01*
X108707458Y-141288072D01*
X108706768Y-141294633D01*
X108706768Y-141294635D01*
X108694770Y-141408794D01*
X108687496Y-141478000D01*
X108215156Y-141478000D01*
X108209232Y-141421635D01*
X108209232Y-141421633D01*
X108208542Y-141415072D01*
X108149527Y-141233444D01*
X108121584Y-141185045D01*
X108057342Y-141073774D01*
X108057339Y-141073769D01*
X108054040Y-141068056D01*
X108049621Y-141063148D01*
X108049195Y-141062562D01*
X108025336Y-140995695D01*
X108041415Y-140926543D01*
X108092328Y-140877062D01*
X108151130Y-140862500D01*
X108172487Y-140862500D01*
X108178939Y-140861128D01*
X108178944Y-140861128D01*
X108265888Y-140842647D01*
X108359288Y-140822794D01*
X108379305Y-140813882D01*
X108527722Y-140747803D01*
X108527724Y-140747802D01*
X108533752Y-140745118D01*
X108546019Y-140736206D01*
X108639550Y-140668251D01*
X108688253Y-140632866D01*
X108784411Y-140526072D01*
X108811621Y-140495852D01*
X108811622Y-140495851D01*
X108816040Y-140490944D01*
X108911527Y-140325556D01*
X108970542Y-140143928D01*
X108982175Y-140033251D01*
X108989814Y-139960565D01*
X108990504Y-139954000D01*
X108979280Y-139847206D01*
X108971232Y-139770635D01*
X108971232Y-139770633D01*
X108970542Y-139764072D01*
X108911527Y-139582444D01*
X108903477Y-139568500D01*
X108835706Y-139451118D01*
X108816040Y-139417056D01*
X108745638Y-139338866D01*
X108692675Y-139280045D01*
X108692674Y-139280044D01*
X108688253Y-139275134D01*
X108533752Y-139162882D01*
X108527724Y-139160198D01*
X108527722Y-139160197D01*
X108365319Y-139087891D01*
X108365318Y-139087891D01*
X108359288Y-139085206D01*
X108265888Y-139065353D01*
X108178944Y-139046872D01*
X108178939Y-139046872D01*
X108172487Y-139045500D01*
X107981513Y-139045500D01*
X107975061Y-139046872D01*
X107975056Y-139046872D01*
X107888112Y-139065353D01*
X107794712Y-139085206D01*
X107788682Y-139087891D01*
X107788681Y-139087891D01*
X107626278Y-139160197D01*
X107626276Y-139160198D01*
X107620248Y-139162882D01*
X107465747Y-139275134D01*
X107461326Y-139280044D01*
X107461325Y-139280045D01*
X107408363Y-139338866D01*
X107337960Y-139417056D01*
X107318294Y-139451118D01*
X107250524Y-139568500D01*
X107242473Y-139582444D01*
X107183458Y-139764072D01*
X107182768Y-139770633D01*
X107182768Y-139770635D01*
X107174720Y-139847206D01*
X107163496Y-139954000D01*
X107164186Y-139960565D01*
X107171826Y-140033251D01*
X107183458Y-140143928D01*
X107242473Y-140325556D01*
X107245776Y-140331278D01*
X107245777Y-140331279D01*
X107334658Y-140485226D01*
X107334661Y-140485231D01*
X107337960Y-140490944D01*
X107342379Y-140495852D01*
X107342805Y-140496438D01*
X107366664Y-140563305D01*
X107350585Y-140632457D01*
X107299672Y-140681938D01*
X107240870Y-140696500D01*
X107219513Y-140696500D01*
X107213061Y-140697872D01*
X107213056Y-140697872D01*
X107127773Y-140716000D01*
X107032712Y-140736206D01*
X107026682Y-140738891D01*
X107026681Y-140738891D01*
X106864278Y-140811197D01*
X106864276Y-140811198D01*
X106858248Y-140813882D01*
X106852907Y-140817762D01*
X106852906Y-140817763D01*
X106802843Y-140854136D01*
X106703747Y-140926134D01*
X106699326Y-140931044D01*
X106699325Y-140931045D01*
X106655747Y-140979444D01*
X106575960Y-141068056D01*
X106480473Y-141233444D01*
X106421458Y-141415072D01*
X106420768Y-141421633D01*
X106420768Y-141421635D01*
X106402186Y-141598435D01*
X106401496Y-141605000D01*
X104405156Y-141605000D01*
X104399232Y-141548635D01*
X104399232Y-141548633D01*
X104398542Y-141542072D01*
X104339527Y-141360444D01*
X104334075Y-141351000D01*
X104247341Y-141200774D01*
X104244040Y-141195056D01*
X104164254Y-141106444D01*
X104120675Y-141058045D01*
X104120674Y-141058044D01*
X104116253Y-141053134D01*
X104006951Y-140973721D01*
X103967094Y-140944763D01*
X103967093Y-140944762D01*
X103961752Y-140940882D01*
X103955724Y-140938198D01*
X103955722Y-140938197D01*
X103793319Y-140865891D01*
X103793318Y-140865891D01*
X103787288Y-140863206D01*
X103693887Y-140843353D01*
X103606944Y-140824872D01*
X103606939Y-140824872D01*
X103600487Y-140823500D01*
X103409513Y-140823500D01*
X103403061Y-140824872D01*
X103403056Y-140824872D01*
X103316113Y-140843353D01*
X103222712Y-140863206D01*
X103216682Y-140865891D01*
X103216681Y-140865891D01*
X103054278Y-140938197D01*
X103054276Y-140938198D01*
X103048248Y-140940882D01*
X103042907Y-140944762D01*
X103042906Y-140944763D01*
X103003049Y-140973721D01*
X102893747Y-141053134D01*
X102889326Y-141058044D01*
X102889325Y-141058045D01*
X102845747Y-141106444D01*
X102765960Y-141195056D01*
X102762659Y-141200774D01*
X102675926Y-141351000D01*
X102670473Y-141360444D01*
X102611458Y-141542072D01*
X102610768Y-141548633D01*
X102610768Y-141548635D01*
X102600766Y-141643802D01*
X102591496Y-141732000D01*
X100838500Y-141732000D01*
X100838500Y-137760000D01*
X120306496Y-137760000D01*
X120326458Y-137949928D01*
X120385473Y-138131556D01*
X120480960Y-138296944D01*
X120485378Y-138301851D01*
X120485379Y-138301852D01*
X120548141Y-138371556D01*
X120608747Y-138438866D01*
X120763248Y-138551118D01*
X120769276Y-138553802D01*
X120769278Y-138553803D01*
X120931681Y-138626109D01*
X120937712Y-138628794D01*
X121031113Y-138648647D01*
X121118056Y-138667128D01*
X121118061Y-138667128D01*
X121124513Y-138668500D01*
X121293938Y-138668500D01*
X121362059Y-138688502D01*
X121408552Y-138742158D01*
X121419248Y-138781329D01*
X121426458Y-138849928D01*
X121485473Y-139031556D01*
X121488776Y-139037278D01*
X121488777Y-139037279D01*
X121494316Y-139046872D01*
X121580960Y-139196944D01*
X121585378Y-139201851D01*
X121585379Y-139201852D01*
X121655784Y-139280045D01*
X121708747Y-139338866D01*
X121761223Y-139376992D01*
X121820000Y-139419696D01*
X121863248Y-139451118D01*
X121869276Y-139453802D01*
X121869278Y-139453803D01*
X121871248Y-139454680D01*
X122037712Y-139528794D01*
X122131113Y-139548647D01*
X122218056Y-139567128D01*
X122218061Y-139567128D01*
X122224513Y-139568500D01*
X122415487Y-139568500D01*
X122421939Y-139567128D01*
X122421944Y-139567128D01*
X122508887Y-139548647D01*
X122602288Y-139528794D01*
X122768752Y-139454680D01*
X122770722Y-139453803D01*
X122770724Y-139453802D01*
X122776752Y-139451118D01*
X122795940Y-139437177D01*
X122845939Y-139400851D01*
X122912807Y-139376992D01*
X122981959Y-139393073D01*
X122994061Y-139400851D01*
X123044060Y-139437177D01*
X123063248Y-139451118D01*
X123069276Y-139453802D01*
X123069278Y-139453803D01*
X123071248Y-139454680D01*
X123237712Y-139528794D01*
X123331113Y-139548647D01*
X123418056Y-139567128D01*
X123418061Y-139567128D01*
X123424513Y-139568500D01*
X123615487Y-139568500D01*
X123621939Y-139567128D01*
X123621944Y-139567128D01*
X123708887Y-139548647D01*
X123802288Y-139528794D01*
X123968752Y-139454680D01*
X123970722Y-139453803D01*
X123970724Y-139453802D01*
X123976752Y-139451118D01*
X123995940Y-139437177D01*
X124062808Y-139413319D01*
X124131959Y-139429400D01*
X124144060Y-139437177D01*
X124163248Y-139451118D01*
X124169276Y-139453802D01*
X124169278Y-139453803D01*
X124171248Y-139454680D01*
X124337712Y-139528794D01*
X124431113Y-139548647D01*
X124518056Y-139567128D01*
X124518061Y-139567128D01*
X124524513Y-139568500D01*
X124715487Y-139568500D01*
X124721939Y-139567128D01*
X124721944Y-139567128D01*
X124808887Y-139548647D01*
X124902288Y-139528794D01*
X125068752Y-139454680D01*
X125139118Y-139445246D01*
X125171247Y-139454680D01*
X125337712Y-139528794D01*
X125431113Y-139548647D01*
X125518056Y-139567128D01*
X125518061Y-139567128D01*
X125524513Y-139568500D01*
X125715487Y-139568500D01*
X125721939Y-139567128D01*
X125721944Y-139567128D01*
X125808887Y-139548647D01*
X125902288Y-139528794D01*
X126068752Y-139454680D01*
X126139118Y-139445246D01*
X126171247Y-139454680D01*
X126337712Y-139528794D01*
X126431113Y-139548647D01*
X126518056Y-139567128D01*
X126518061Y-139567128D01*
X126524513Y-139568500D01*
X126715487Y-139568500D01*
X126721939Y-139567128D01*
X126721944Y-139567128D01*
X126808887Y-139548647D01*
X126902288Y-139528794D01*
X127068752Y-139454680D01*
X127070722Y-139453803D01*
X127070724Y-139453802D01*
X127076752Y-139451118D01*
X127120001Y-139419696D01*
X127178777Y-139376992D01*
X127231253Y-139338866D01*
X127284216Y-139280045D01*
X127354621Y-139201852D01*
X127354622Y-139201851D01*
X127359040Y-139196944D01*
X127445684Y-139046872D01*
X127451223Y-139037279D01*
X127451224Y-139037278D01*
X127454527Y-139031556D01*
X127513542Y-138849928D01*
X127533504Y-138660000D01*
X127521086Y-138541852D01*
X127514232Y-138476635D01*
X127514232Y-138476633D01*
X127513542Y-138470072D01*
X127454527Y-138288444D01*
X127445611Y-138273001D01*
X127428872Y-138204007D01*
X127445611Y-138146998D01*
X127451224Y-138137277D01*
X127454527Y-138131556D01*
X127513542Y-137949928D01*
X127533504Y-137760000D01*
X127530480Y-137731226D01*
X127514232Y-137576635D01*
X127514232Y-137576633D01*
X127513542Y-137570072D01*
X127454527Y-137388444D01*
X127359040Y-137223056D01*
X127344192Y-137206565D01*
X127338281Y-137200000D01*
X128483742Y-137200000D01*
X128484432Y-137206565D01*
X128502947Y-137382721D01*
X128503704Y-137389928D01*
X128562719Y-137571556D01*
X128658206Y-137736944D01*
X128662624Y-137741851D01*
X128662625Y-137741852D01*
X128678966Y-137760000D01*
X128785993Y-137878866D01*
X128940494Y-137991118D01*
X128946522Y-137993802D01*
X128946524Y-137993803D01*
X129108927Y-138066109D01*
X129114958Y-138068794D01*
X129192711Y-138085321D01*
X129295302Y-138107128D01*
X129295307Y-138107128D01*
X129301759Y-138108500D01*
X129385702Y-138108500D01*
X129453823Y-138128502D01*
X129500316Y-138182158D01*
X129505535Y-138195562D01*
X129562719Y-138371556D01*
X129658206Y-138536944D01*
X129785993Y-138678866D01*
X129799256Y-138688502D01*
X129927021Y-138781329D01*
X129940494Y-138791118D01*
X129946522Y-138793802D01*
X129946524Y-138793803D01*
X130108927Y-138866109D01*
X130114958Y-138868794D01*
X130208359Y-138888647D01*
X130295302Y-138907128D01*
X130295307Y-138907128D01*
X130301759Y-138908500D01*
X130492733Y-138908500D01*
X130499185Y-138907128D01*
X130499190Y-138907128D01*
X130586133Y-138888647D01*
X130679534Y-138868794D01*
X130685565Y-138866109D01*
X130847968Y-138793803D01*
X130847970Y-138793802D01*
X130853998Y-138791118D01*
X130859340Y-138787237D01*
X130923185Y-138740851D01*
X130990053Y-138716992D01*
X131059205Y-138733073D01*
X131071307Y-138740851D01*
X131135152Y-138787237D01*
X131140494Y-138791118D01*
X131146522Y-138793802D01*
X131146524Y-138793803D01*
X131308927Y-138866109D01*
X131314958Y-138868794D01*
X131408359Y-138888647D01*
X131495302Y-138907128D01*
X131495307Y-138907128D01*
X131501759Y-138908500D01*
X131692733Y-138908500D01*
X131699185Y-138907128D01*
X131699190Y-138907128D01*
X131786133Y-138888647D01*
X131879534Y-138868794D01*
X131885565Y-138866109D01*
X132047968Y-138793803D01*
X132047970Y-138793802D01*
X132053998Y-138791118D01*
X132067472Y-138781329D01*
X132195236Y-138688502D01*
X132208499Y-138678866D01*
X132336286Y-138536944D01*
X132431773Y-138371556D01*
X132484266Y-138210000D01*
X132488748Y-138196207D01*
X132488748Y-138196205D01*
X132490788Y-138189928D01*
X132492358Y-138174991D01*
X132519372Y-138109334D01*
X132577405Y-138069246D01*
X132579534Y-138068794D01*
X132666766Y-138029956D01*
X132747968Y-137993803D01*
X132747970Y-137993802D01*
X132753998Y-137991118D01*
X132908499Y-137878866D01*
X133015526Y-137760000D01*
X133031867Y-137741852D01*
X133031868Y-137741851D01*
X133036286Y-137736944D01*
X133131773Y-137571556D01*
X133190788Y-137389928D01*
X133191546Y-137382721D01*
X133210060Y-137206565D01*
X133210750Y-137200000D01*
X133194250Y-137043008D01*
X133191478Y-137016635D01*
X133191478Y-137016633D01*
X133190788Y-137010072D01*
X133131773Y-136828444D01*
X133036286Y-136663056D01*
X133003611Y-136626766D01*
X132912921Y-136526045D01*
X132912920Y-136526044D01*
X132908499Y-136521134D01*
X132753998Y-136408882D01*
X132747970Y-136406198D01*
X132747968Y-136406197D01*
X132585565Y-136333891D01*
X132585564Y-136333891D01*
X132579534Y-136331206D01*
X132486133Y-136311353D01*
X132399190Y-136292872D01*
X132399185Y-136292872D01*
X132392733Y-136291500D01*
X132201759Y-136291500D01*
X132195307Y-136292872D01*
X132195302Y-136292872D01*
X132108359Y-136311353D01*
X132014958Y-136331206D01*
X132008928Y-136333891D01*
X132008927Y-136333891D01*
X131846524Y-136406197D01*
X131846522Y-136406198D01*
X131840494Y-136408882D01*
X131835153Y-136412762D01*
X131835152Y-136412763D01*
X131721307Y-136495477D01*
X131654440Y-136519335D01*
X131585288Y-136503255D01*
X131573185Y-136495477D01*
X131459340Y-136412763D01*
X131459339Y-136412762D01*
X131453998Y-136408882D01*
X131447970Y-136406198D01*
X131447968Y-136406197D01*
X131285565Y-136333891D01*
X131285564Y-136333891D01*
X131279534Y-136331206D01*
X131186133Y-136311353D01*
X131099190Y-136292872D01*
X131099185Y-136292872D01*
X131092733Y-136291500D01*
X130901759Y-136291500D01*
X130895307Y-136292872D01*
X130895302Y-136292872D01*
X130808359Y-136311353D01*
X130714958Y-136331206D01*
X130708928Y-136333891D01*
X130708927Y-136333891D01*
X130546524Y-136406197D01*
X130546522Y-136406198D01*
X130540494Y-136408882D01*
X130385993Y-136521134D01*
X130381572Y-136526044D01*
X130381571Y-136526045D01*
X130290882Y-136626766D01*
X130230436Y-136664006D01*
X130159453Y-136662654D01*
X130103610Y-136626766D01*
X130012921Y-136526045D01*
X130012920Y-136526044D01*
X130008499Y-136521134D01*
X129853998Y-136408882D01*
X129847970Y-136406198D01*
X129847968Y-136406197D01*
X129685565Y-136333891D01*
X129685564Y-136333891D01*
X129679534Y-136331206D01*
X129586133Y-136311353D01*
X129499190Y-136292872D01*
X129499185Y-136292872D01*
X129492733Y-136291500D01*
X129301759Y-136291500D01*
X129295307Y-136292872D01*
X129295302Y-136292872D01*
X129208359Y-136311353D01*
X129114958Y-136331206D01*
X129108928Y-136333891D01*
X129108927Y-136333891D01*
X128946524Y-136406197D01*
X128946522Y-136406198D01*
X128940494Y-136408882D01*
X128785993Y-136521134D01*
X128781572Y-136526044D01*
X128781571Y-136526045D01*
X128690882Y-136626766D01*
X128658206Y-136663056D01*
X128562719Y-136828444D01*
X128503704Y-137010072D01*
X128503014Y-137016633D01*
X128503014Y-137016635D01*
X128500242Y-137043008D01*
X128483742Y-137200000D01*
X127338281Y-137200000D01*
X127235675Y-137086045D01*
X127235674Y-137086044D01*
X127231253Y-137081134D01*
X127124804Y-137003794D01*
X127082094Y-136972763D01*
X127082093Y-136972762D01*
X127076752Y-136968882D01*
X127070724Y-136966198D01*
X127070722Y-136966197D01*
X126908319Y-136893891D01*
X126908318Y-136893891D01*
X126902288Y-136891206D01*
X126808887Y-136871353D01*
X126721944Y-136852872D01*
X126721939Y-136852872D01*
X126715487Y-136851500D01*
X126524513Y-136851500D01*
X126518061Y-136852872D01*
X126518056Y-136852872D01*
X126431113Y-136871353D01*
X126337712Y-136891206D01*
X126171248Y-136965320D01*
X126100882Y-136974754D01*
X126068753Y-136965320D01*
X125902288Y-136891206D01*
X125808887Y-136871353D01*
X125721944Y-136852872D01*
X125721939Y-136852872D01*
X125715487Y-136851500D01*
X125524513Y-136851500D01*
X125518061Y-136852872D01*
X125518056Y-136852872D01*
X125431113Y-136871353D01*
X125337712Y-136891206D01*
X125171248Y-136965320D01*
X125100882Y-136974754D01*
X125068753Y-136965320D01*
X124902288Y-136891206D01*
X124808887Y-136871353D01*
X124721944Y-136852872D01*
X124721939Y-136852872D01*
X124715487Y-136851500D01*
X124524513Y-136851500D01*
X124518061Y-136852872D01*
X124518056Y-136852872D01*
X124431113Y-136871353D01*
X124337712Y-136891206D01*
X124331682Y-136893891D01*
X124331681Y-136893891D01*
X124169278Y-136966197D01*
X124169276Y-136966198D01*
X124163248Y-136968882D01*
X124155166Y-136974754D01*
X124144060Y-136982823D01*
X124077192Y-137006681D01*
X124008041Y-136990600D01*
X123995940Y-136982823D01*
X123984834Y-136974754D01*
X123976752Y-136968882D01*
X123970724Y-136966198D01*
X123970722Y-136966197D01*
X123808319Y-136893891D01*
X123808318Y-136893891D01*
X123802288Y-136891206D01*
X123708887Y-136871353D01*
X123621944Y-136852872D01*
X123621939Y-136852872D01*
X123615487Y-136851500D01*
X123424513Y-136851500D01*
X123418061Y-136852872D01*
X123418056Y-136852872D01*
X123331113Y-136871353D01*
X123237712Y-136891206D01*
X123231682Y-136893891D01*
X123231681Y-136893891D01*
X123069278Y-136966197D01*
X123069276Y-136966198D01*
X123063248Y-136968882D01*
X123057907Y-136972762D01*
X123057906Y-136972763D01*
X122994061Y-137019149D01*
X122927193Y-137043008D01*
X122858041Y-137026927D01*
X122845939Y-137019149D01*
X122782094Y-136972763D01*
X122782093Y-136972762D01*
X122776752Y-136968882D01*
X122770724Y-136966198D01*
X122770722Y-136966197D01*
X122608319Y-136893891D01*
X122608318Y-136893891D01*
X122602288Y-136891206D01*
X122508887Y-136871353D01*
X122421944Y-136852872D01*
X122421939Y-136852872D01*
X122415487Y-136851500D01*
X122224513Y-136851500D01*
X122218061Y-136852872D01*
X122218056Y-136852872D01*
X122131113Y-136871353D01*
X122037712Y-136891206D01*
X122031682Y-136893891D01*
X122031681Y-136893891D01*
X121869278Y-136966197D01*
X121869276Y-136966198D01*
X121863248Y-136968882D01*
X121855166Y-136974754D01*
X121844060Y-136982823D01*
X121777192Y-137006681D01*
X121708041Y-136990600D01*
X121695940Y-136982823D01*
X121684834Y-136974754D01*
X121676752Y-136968882D01*
X121670724Y-136966198D01*
X121670722Y-136966197D01*
X121508319Y-136893891D01*
X121508318Y-136893891D01*
X121502288Y-136891206D01*
X121408887Y-136871353D01*
X121321944Y-136852872D01*
X121321939Y-136852872D01*
X121315487Y-136851500D01*
X121124513Y-136851500D01*
X121118061Y-136852872D01*
X121118056Y-136852872D01*
X121031113Y-136871353D01*
X120937712Y-136891206D01*
X120931682Y-136893891D01*
X120931681Y-136893891D01*
X120769278Y-136966197D01*
X120769276Y-136966198D01*
X120763248Y-136968882D01*
X120757907Y-136972762D01*
X120757906Y-136972763D01*
X120715196Y-137003794D01*
X120608747Y-137081134D01*
X120604326Y-137086044D01*
X120604325Y-137086045D01*
X120495809Y-137206565D01*
X120480960Y-137223056D01*
X120385473Y-137388444D01*
X120326458Y-137570072D01*
X120325768Y-137576633D01*
X120325768Y-137576635D01*
X120309520Y-137731226D01*
X120306496Y-137760000D01*
X100838500Y-137760000D01*
X100838500Y-135660000D01*
X105106496Y-135660000D01*
X105126458Y-135849928D01*
X105185473Y-136031556D01*
X105188776Y-136037278D01*
X105188777Y-136037279D01*
X105206803Y-136068500D01*
X105280960Y-136196944D01*
X105285378Y-136201851D01*
X105285379Y-136201852D01*
X105401850Y-136331206D01*
X105408747Y-136338866D01*
X105501420Y-136406197D01*
X105520000Y-136419696D01*
X105563248Y-136451118D01*
X105569276Y-136453802D01*
X105569278Y-136453803D01*
X105731681Y-136526109D01*
X105737712Y-136528794D01*
X105831112Y-136548647D01*
X105918056Y-136567128D01*
X105918061Y-136567128D01*
X105924513Y-136568500D01*
X106115487Y-136568500D01*
X106121939Y-136567128D01*
X106121944Y-136567128D01*
X106208888Y-136548647D01*
X106302288Y-136528794D01*
X106308463Y-136526045D01*
X106377120Y-136495477D01*
X106468752Y-136454680D01*
X106539118Y-136445246D01*
X106571247Y-136454680D01*
X106662880Y-136495477D01*
X106731538Y-136526045D01*
X106737712Y-136528794D01*
X106831112Y-136548647D01*
X106918056Y-136567128D01*
X106918061Y-136567128D01*
X106924513Y-136568500D01*
X107115487Y-136568500D01*
X107121939Y-136567128D01*
X107121944Y-136567128D01*
X107208888Y-136548647D01*
X107302288Y-136528794D01*
X107308463Y-136526045D01*
X107377120Y-136495477D01*
X107468752Y-136454680D01*
X107539118Y-136445246D01*
X107571247Y-136454680D01*
X107662880Y-136495477D01*
X107731538Y-136526045D01*
X107737712Y-136528794D01*
X107831112Y-136548647D01*
X107918056Y-136567128D01*
X107918061Y-136567128D01*
X107924513Y-136568500D01*
X108115487Y-136568500D01*
X108121939Y-136567128D01*
X108121944Y-136567128D01*
X108208888Y-136548647D01*
X108302288Y-136528794D01*
X108308463Y-136526045D01*
X108377120Y-136495477D01*
X108468752Y-136454680D01*
X108539118Y-136445246D01*
X108571247Y-136454680D01*
X108662880Y-136495477D01*
X108731538Y-136526045D01*
X108737712Y-136528794D01*
X108831112Y-136548647D01*
X108918056Y-136567128D01*
X108918061Y-136567128D01*
X108924513Y-136568500D01*
X109115487Y-136568500D01*
X109121939Y-136567128D01*
X109121944Y-136567128D01*
X109208888Y-136548647D01*
X109302288Y-136528794D01*
X109308319Y-136526109D01*
X109470722Y-136453803D01*
X109470724Y-136453802D01*
X109476752Y-136451118D01*
X109520001Y-136419696D01*
X109538580Y-136406197D01*
X109631253Y-136338866D01*
X109638150Y-136331206D01*
X109754621Y-136201852D01*
X109754622Y-136201851D01*
X109759040Y-136196944D01*
X109833197Y-136068500D01*
X109851223Y-136037279D01*
X109851224Y-136037278D01*
X109854527Y-136031556D01*
X109913542Y-135849928D01*
X109933504Y-135660000D01*
X109923754Y-135567233D01*
X109936526Y-135497396D01*
X109978264Y-135453199D01*
X109976752Y-135451118D01*
X109987423Y-135443365D01*
X110131253Y-135338866D01*
X110202264Y-135260000D01*
X110254621Y-135201852D01*
X110254622Y-135201851D01*
X110259040Y-135196944D01*
X110354527Y-135031556D01*
X110413542Y-134849928D01*
X110433504Y-134660000D01*
X110424052Y-134570072D01*
X110414232Y-134476635D01*
X110414232Y-134476633D01*
X110413542Y-134470072D01*
X110377777Y-134360000D01*
X111706496Y-134360000D01*
X111726458Y-134549928D01*
X111785473Y-134731556D01*
X111880960Y-134896944D01*
X112008747Y-135038866D01*
X112117869Y-135118148D01*
X112163248Y-135151118D01*
X112161507Y-135153515D01*
X112201595Y-135195548D01*
X112214918Y-135240126D01*
X112226458Y-135349928D01*
X112285473Y-135531556D01*
X112380960Y-135696944D01*
X112508747Y-135838866D01*
X112607843Y-135910864D01*
X112646385Y-135938866D01*
X112663248Y-135951118D01*
X112669276Y-135953802D01*
X112669278Y-135953803D01*
X112790996Y-136007995D01*
X112837712Y-136028794D01*
X112924479Y-136047237D01*
X113018056Y-136067128D01*
X113018061Y-136067128D01*
X113024513Y-136068500D01*
X113215487Y-136068500D01*
X113221939Y-136067128D01*
X113221944Y-136067128D01*
X113315521Y-136047237D01*
X113402288Y-136028794D01*
X113568752Y-135954680D01*
X113639118Y-135945246D01*
X113671247Y-135954680D01*
X113837712Y-136028794D01*
X113924479Y-136047237D01*
X114018056Y-136067128D01*
X114018061Y-136067128D01*
X114024513Y-136068500D01*
X114215487Y-136068500D01*
X114221939Y-136067128D01*
X114221944Y-136067128D01*
X114315521Y-136047237D01*
X114402288Y-136028794D01*
X114478587Y-135994824D01*
X114548952Y-135985390D01*
X114603893Y-136007994D01*
X114663248Y-136051118D01*
X114669276Y-136053802D01*
X114669278Y-136053803D01*
X114831681Y-136126109D01*
X114837712Y-136128794D01*
X114931112Y-136148647D01*
X115018056Y-136167128D01*
X115018061Y-136167128D01*
X115024513Y-136168500D01*
X115215487Y-136168500D01*
X115221939Y-136167128D01*
X115221944Y-136167128D01*
X115308888Y-136148647D01*
X115402288Y-136128794D01*
X115408319Y-136126109D01*
X115570722Y-136053803D01*
X115570724Y-136053802D01*
X115576752Y-136051118D01*
X115731253Y-135938866D01*
X115811333Y-135849928D01*
X115854621Y-135801852D01*
X115854622Y-135801851D01*
X115859040Y-135796944D01*
X115954527Y-135631556D01*
X116013542Y-135449928D01*
X116023393Y-135356206D01*
X116032814Y-135266565D01*
X116033504Y-135260000D01*
X116032814Y-135253435D01*
X116032814Y-135247241D01*
X116052816Y-135179120D01*
X116084753Y-135145305D01*
X116122131Y-135118148D01*
X116231253Y-135038866D01*
X116359040Y-134896944D01*
X116454527Y-134731556D01*
X116513542Y-134549928D01*
X116530873Y-134385029D01*
X116557886Y-134319373D01*
X116604934Y-134283093D01*
X116605770Y-134282721D01*
X116676752Y-134251118D01*
X116831253Y-134138866D01*
X116959040Y-133996944D01*
X117054527Y-133831556D01*
X117113542Y-133649928D01*
X117133504Y-133460000D01*
X117113542Y-133270072D01*
X117054527Y-133088444D01*
X116959040Y-132923056D01*
X116831253Y-132781134D01*
X116691687Y-132679733D01*
X116648333Y-132623511D01*
X116642258Y-132552774D01*
X116672110Y-132493489D01*
X116759040Y-132396944D01*
X116854527Y-132231556D01*
X116913542Y-132049928D01*
X116914872Y-132037279D01*
X116932814Y-131866565D01*
X116933504Y-131860000D01*
X116913542Y-131670072D01*
X116854527Y-131488444D01*
X116759040Y-131323056D01*
X116722748Y-131282749D01*
X116635675Y-131186045D01*
X116635674Y-131186044D01*
X116631253Y-131181134D01*
X116532157Y-131109136D01*
X116482094Y-131072763D01*
X116482093Y-131072762D01*
X116476752Y-131068882D01*
X116470724Y-131066198D01*
X116470722Y-131066197D01*
X116308319Y-130993891D01*
X116308318Y-130993891D01*
X116302288Y-130991206D01*
X116208888Y-130971353D01*
X116121944Y-130952872D01*
X116121939Y-130952872D01*
X116115487Y-130951500D01*
X115924513Y-130951500D01*
X115918061Y-130952872D01*
X115918056Y-130952872D01*
X115831112Y-130971353D01*
X115737712Y-130991206D01*
X115731682Y-130993891D01*
X115731681Y-130993891D01*
X115569278Y-131066197D01*
X115569276Y-131066198D01*
X115563248Y-131068882D01*
X115557907Y-131072762D01*
X115557906Y-131072763D01*
X115507843Y-131109136D01*
X115408747Y-131181134D01*
X115404326Y-131186044D01*
X115404325Y-131186045D01*
X115317253Y-131282749D01*
X115280960Y-131323056D01*
X115185473Y-131488444D01*
X115126458Y-131670072D01*
X115106496Y-131860000D01*
X115107186Y-131866565D01*
X115125129Y-132037279D01*
X115126458Y-132049928D01*
X115185473Y-132231556D01*
X115280960Y-132396944D01*
X115285375Y-132401847D01*
X115285379Y-132401852D01*
X115399678Y-132528794D01*
X115408747Y-132538866D01*
X115548313Y-132640267D01*
X115591667Y-132696489D01*
X115597742Y-132767226D01*
X115567890Y-132826511D01*
X115480960Y-132923056D01*
X115385473Y-133088444D01*
X115326458Y-133270072D01*
X115325768Y-133276633D01*
X115325768Y-133276635D01*
X115309127Y-133434970D01*
X115282114Y-133500627D01*
X115235066Y-133536907D01*
X115171248Y-133565320D01*
X115100883Y-133574754D01*
X115068752Y-133565320D01*
X114908319Y-133493891D01*
X114908318Y-133493891D01*
X114902288Y-133491206D01*
X114786362Y-133466565D01*
X114721944Y-133452872D01*
X114721939Y-133452872D01*
X114715487Y-133451500D01*
X114524513Y-133451500D01*
X114518061Y-133452872D01*
X114518056Y-133452872D01*
X114453638Y-133466565D01*
X114337712Y-133491206D01*
X114171248Y-133565320D01*
X114100882Y-133574754D01*
X114068753Y-133565320D01*
X113902288Y-133491206D01*
X113786362Y-133466565D01*
X113721944Y-133452872D01*
X113721939Y-133452872D01*
X113715487Y-133451500D01*
X113524513Y-133451500D01*
X113518061Y-133452872D01*
X113518056Y-133452872D01*
X113453638Y-133466565D01*
X113337712Y-133491206D01*
X113171248Y-133565320D01*
X113100882Y-133574754D01*
X113068753Y-133565320D01*
X112902288Y-133491206D01*
X112786362Y-133466565D01*
X112721944Y-133452872D01*
X112721939Y-133452872D01*
X112715487Y-133451500D01*
X112524513Y-133451500D01*
X112518061Y-133452872D01*
X112518056Y-133452872D01*
X112453638Y-133466565D01*
X112337712Y-133491206D01*
X112331682Y-133493891D01*
X112331681Y-133493891D01*
X112169278Y-133566197D01*
X112169276Y-133566198D01*
X112163248Y-133568882D01*
X112157907Y-133572762D01*
X112157906Y-133572763D01*
X112107843Y-133609136D01*
X112008747Y-133681134D01*
X111880960Y-133823056D01*
X111785473Y-133988444D01*
X111726458Y-134170072D01*
X111706496Y-134360000D01*
X110377777Y-134360000D01*
X110354527Y-134288444D01*
X110259040Y-134123056D01*
X110131253Y-133981134D01*
X109976752Y-133868882D01*
X109970724Y-133866198D01*
X109970722Y-133866197D01*
X109808319Y-133793891D01*
X109808318Y-133793891D01*
X109802288Y-133791206D01*
X109708887Y-133771353D01*
X109621944Y-133752872D01*
X109621939Y-133752872D01*
X109615487Y-133751500D01*
X109424513Y-133751500D01*
X109418061Y-133752872D01*
X109418056Y-133752872D01*
X109331113Y-133771353D01*
X109237712Y-133791206D01*
X109231682Y-133793891D01*
X109231681Y-133793891D01*
X109069278Y-133866197D01*
X109069276Y-133866198D01*
X109063248Y-133868882D01*
X109003893Y-133912006D01*
X108937028Y-133935863D01*
X108878587Y-133925176D01*
X108802288Y-133891206D01*
X108708887Y-133871353D01*
X108621944Y-133852872D01*
X108621939Y-133852872D01*
X108615487Y-133851500D01*
X108424513Y-133851500D01*
X108418061Y-133852872D01*
X108418056Y-133852872D01*
X108331113Y-133871353D01*
X108237712Y-133891206D01*
X108071248Y-133965320D01*
X108000882Y-133974754D01*
X107968753Y-133965320D01*
X107802288Y-133891206D01*
X107708887Y-133871353D01*
X107621944Y-133852872D01*
X107621939Y-133852872D01*
X107615487Y-133851500D01*
X107424513Y-133851500D01*
X107418061Y-133852872D01*
X107418056Y-133852872D01*
X107331113Y-133871353D01*
X107237712Y-133891206D01*
X107071248Y-133965320D01*
X107000882Y-133974754D01*
X106968753Y-133965320D01*
X106802288Y-133891206D01*
X106708887Y-133871353D01*
X106621944Y-133852872D01*
X106621939Y-133852872D01*
X106615487Y-133851500D01*
X106424513Y-133851500D01*
X106418061Y-133852872D01*
X106418056Y-133852872D01*
X106331113Y-133871353D01*
X106237712Y-133891206D01*
X106231682Y-133893891D01*
X106231681Y-133893891D01*
X106069278Y-133966197D01*
X106069276Y-133966198D01*
X106063248Y-133968882D01*
X106057907Y-133972762D01*
X106057906Y-133972763D01*
X106017869Y-134001852D01*
X105908747Y-134081134D01*
X105904326Y-134086044D01*
X105904325Y-134086045D01*
X105822758Y-134176635D01*
X105780960Y-134223056D01*
X105685473Y-134388444D01*
X105626458Y-134570072D01*
X105606496Y-134760000D01*
X105607186Y-134766565D01*
X105607186Y-134772759D01*
X105587184Y-134840880D01*
X105555247Y-134874695D01*
X105408747Y-134981134D01*
X105280960Y-135123056D01*
X105185473Y-135288444D01*
X105126458Y-135470072D01*
X105106496Y-135660000D01*
X100838500Y-135660000D01*
X100838500Y-130760000D01*
X121806496Y-130760000D01*
X121807186Y-130766565D01*
X121809642Y-130789928D01*
X121826458Y-130949928D01*
X121885473Y-131131556D01*
X121980960Y-131296944D01*
X121985378Y-131301851D01*
X121985379Y-131301852D01*
X122068172Y-131393803D01*
X122108747Y-131438866D01*
X122263248Y-131551118D01*
X122269274Y-131553801D01*
X122269281Y-131553805D01*
X122346091Y-131588002D01*
X122400187Y-131633982D01*
X122420153Y-131689939D01*
X122426458Y-131749928D01*
X122485473Y-131931556D01*
X122580960Y-132096944D01*
X122708747Y-132238866D01*
X122775277Y-132287203D01*
X122851724Y-132342745D01*
X122863248Y-132351118D01*
X122869276Y-132353802D01*
X122869278Y-132353803D01*
X122977199Y-132401852D01*
X123037712Y-132428794D01*
X123124479Y-132447237D01*
X123218056Y-132467128D01*
X123218061Y-132467128D01*
X123224513Y-132468500D01*
X123415487Y-132468500D01*
X123421939Y-132467128D01*
X123421944Y-132467128D01*
X123515521Y-132447237D01*
X123602288Y-132428794D01*
X123662801Y-132401852D01*
X123770722Y-132353803D01*
X123770724Y-132353802D01*
X123776752Y-132351118D01*
X123831885Y-132311061D01*
X123898754Y-132287203D01*
X123967905Y-132303284D01*
X123999583Y-132328689D01*
X124004328Y-132333960D01*
X124004336Y-132333968D01*
X124008747Y-132338866D01*
X124020269Y-132347237D01*
X124120000Y-132419696D01*
X124163248Y-132451118D01*
X124169276Y-132453802D01*
X124169278Y-132453803D01*
X124331681Y-132526109D01*
X124337712Y-132528794D01*
X124403365Y-132542749D01*
X124518056Y-132567128D01*
X124518061Y-132567128D01*
X124524513Y-132568500D01*
X124715487Y-132568500D01*
X124721939Y-132567128D01*
X124721944Y-132567128D01*
X124836635Y-132542749D01*
X124902288Y-132528794D01*
X124928911Y-132516941D01*
X125037711Y-132468500D01*
X125068752Y-132454680D01*
X125139118Y-132445246D01*
X125171247Y-132454680D01*
X125202289Y-132468500D01*
X125311090Y-132516941D01*
X125337712Y-132528794D01*
X125403365Y-132542749D01*
X125518056Y-132567128D01*
X125518061Y-132567128D01*
X125524513Y-132568500D01*
X125715487Y-132568500D01*
X125721939Y-132567128D01*
X125721944Y-132567128D01*
X125836635Y-132542749D01*
X125902288Y-132528794D01*
X126018752Y-132476941D01*
X126089118Y-132467507D01*
X126121246Y-132476940D01*
X126237712Y-132528794D01*
X126303365Y-132542749D01*
X126418056Y-132567128D01*
X126418061Y-132567128D01*
X126424513Y-132568500D01*
X126615487Y-132568500D01*
X126621939Y-132567128D01*
X126621944Y-132567128D01*
X126736635Y-132542749D01*
X126802288Y-132528794D01*
X126808319Y-132526109D01*
X126970722Y-132453803D01*
X126970724Y-132453802D01*
X126976752Y-132451118D01*
X127020001Y-132419696D01*
X127032157Y-132410864D01*
X127131253Y-132338866D01*
X127135675Y-132333955D01*
X127254621Y-132201852D01*
X127254622Y-132201851D01*
X127259040Y-132196944D01*
X127354527Y-132031556D01*
X127413542Y-131849928D01*
X127423393Y-131756206D01*
X127429300Y-131700000D01*
X128683742Y-131700000D01*
X128703704Y-131889928D01*
X128762719Y-132071556D01*
X128766022Y-132077278D01*
X128766023Y-132077279D01*
X128777377Y-132096944D01*
X128858206Y-132236944D01*
X128862624Y-132241851D01*
X128862625Y-132241852D01*
X128963426Y-132353803D01*
X128985993Y-132378866D01*
X129051017Y-132426109D01*
X129097246Y-132459696D01*
X129140494Y-132491118D01*
X129146522Y-132493802D01*
X129146524Y-132493803D01*
X129278976Y-132552774D01*
X129314958Y-132568794D01*
X129408359Y-132588647D01*
X129495302Y-132607128D01*
X129495307Y-132607128D01*
X129501759Y-132608500D01*
X129692733Y-132608500D01*
X129699185Y-132607128D01*
X129699190Y-132607128D01*
X129786133Y-132588647D01*
X129879534Y-132568794D01*
X130045998Y-132494680D01*
X130116364Y-132485246D01*
X130148493Y-132494680D01*
X130314958Y-132568794D01*
X130408359Y-132588647D01*
X130495302Y-132607128D01*
X130495307Y-132607128D01*
X130501759Y-132608500D01*
X130692733Y-132608500D01*
X130699185Y-132607128D01*
X130699190Y-132607128D01*
X130786133Y-132588647D01*
X130879534Y-132568794D01*
X131045998Y-132494680D01*
X131116364Y-132485246D01*
X131148493Y-132494680D01*
X131314958Y-132568794D01*
X131408359Y-132588647D01*
X131495302Y-132607128D01*
X131495307Y-132607128D01*
X131501759Y-132608500D01*
X131692733Y-132608500D01*
X131699185Y-132607128D01*
X131699190Y-132607128D01*
X131786133Y-132588647D01*
X131879534Y-132568794D01*
X131995998Y-132516941D01*
X132066364Y-132507507D01*
X132098492Y-132516940D01*
X132214958Y-132568794D01*
X132308359Y-132588647D01*
X132395302Y-132607128D01*
X132395307Y-132607128D01*
X132401759Y-132608500D01*
X132592733Y-132608500D01*
X132599185Y-132607128D01*
X132599190Y-132607128D01*
X132686133Y-132588647D01*
X132779534Y-132568794D01*
X132815516Y-132552774D01*
X132947968Y-132493803D01*
X132947970Y-132493802D01*
X132953998Y-132491118D01*
X132997247Y-132459696D01*
X133043475Y-132426109D01*
X133108499Y-132378866D01*
X133131066Y-132353803D01*
X133231867Y-132241852D01*
X133231868Y-132241851D01*
X133236286Y-132236944D01*
X133317115Y-132096944D01*
X133328469Y-132077279D01*
X133328470Y-132077278D01*
X133331773Y-132071556D01*
X133390788Y-131889928D01*
X133410750Y-131700000D01*
X133408294Y-131676635D01*
X133403926Y-131635070D01*
X133416699Y-131565232D01*
X133465201Y-131513385D01*
X133534034Y-131495991D01*
X133555433Y-131498653D01*
X133595302Y-131507128D01*
X133595307Y-131507128D01*
X133601759Y-131508500D01*
X133792733Y-131508500D01*
X133799185Y-131507128D01*
X133799190Y-131507128D01*
X133887089Y-131488444D01*
X133979534Y-131468794D01*
X133985565Y-131466109D01*
X134147968Y-131393803D01*
X134147970Y-131393802D01*
X134153998Y-131391118D01*
X134308499Y-131278866D01*
X134396497Y-131181134D01*
X134431867Y-131141852D01*
X134431868Y-131141851D01*
X134436286Y-131136944D01*
X134531773Y-130971556D01*
X134590788Y-130789928D01*
X134610750Y-130600000D01*
X134608294Y-130576635D01*
X134591478Y-130416635D01*
X134591478Y-130416633D01*
X134590788Y-130410072D01*
X134531773Y-130228444D01*
X134436286Y-130063056D01*
X134371047Y-129990600D01*
X134312921Y-129926045D01*
X134312920Y-129926044D01*
X134308499Y-129921134D01*
X134153998Y-129808882D01*
X134147970Y-129806198D01*
X134147968Y-129806197D01*
X133985565Y-129733891D01*
X133985564Y-129733891D01*
X133979534Y-129731206D01*
X133886133Y-129711353D01*
X133799190Y-129692872D01*
X133799185Y-129692872D01*
X133792733Y-129691500D01*
X133601759Y-129691500D01*
X133595307Y-129692872D01*
X133595302Y-129692872D01*
X133508359Y-129711353D01*
X133414958Y-129731206D01*
X133408928Y-129733891D01*
X133408927Y-129733891D01*
X133246524Y-129806197D01*
X133246522Y-129806198D01*
X133240494Y-129808882D01*
X133235153Y-129812762D01*
X133235152Y-129812763D01*
X133094765Y-129914760D01*
X133027897Y-129938619D01*
X132983212Y-129932844D01*
X132979534Y-129931206D01*
X132973081Y-129929834D01*
X132973080Y-129929834D01*
X132799190Y-129892872D01*
X132799185Y-129892872D01*
X132792733Y-129891500D01*
X132601759Y-129891500D01*
X132595307Y-129892872D01*
X132595302Y-129892872D01*
X132508359Y-129911353D01*
X132414958Y-129931206D01*
X132248494Y-130005320D01*
X132178128Y-130014754D01*
X132145999Y-130005320D01*
X131979534Y-129931206D01*
X131886133Y-129911353D01*
X131799190Y-129892872D01*
X131799185Y-129892872D01*
X131792733Y-129891500D01*
X131601759Y-129891500D01*
X131595307Y-129892872D01*
X131595302Y-129892872D01*
X131508359Y-129911353D01*
X131414958Y-129931206D01*
X131408928Y-129933891D01*
X131408927Y-129933891D01*
X131246524Y-130006197D01*
X131246522Y-130006198D01*
X131240494Y-130008882D01*
X131235154Y-130012762D01*
X131221306Y-130022823D01*
X131154438Y-130046681D01*
X131085287Y-130030600D01*
X131073186Y-130022823D01*
X131059338Y-130012762D01*
X131053998Y-130008882D01*
X131047970Y-130006198D01*
X131047968Y-130006197D01*
X130885565Y-129933891D01*
X130885564Y-129933891D01*
X130879534Y-129931206D01*
X130786133Y-129911353D01*
X130699190Y-129892872D01*
X130699185Y-129892872D01*
X130692733Y-129891500D01*
X130501759Y-129891500D01*
X130495307Y-129892872D01*
X130495302Y-129892872D01*
X130408359Y-129911353D01*
X130314958Y-129931206D01*
X130238659Y-129965176D01*
X130168294Y-129974610D01*
X130113353Y-129952006D01*
X130053998Y-129908882D01*
X130047970Y-129906198D01*
X130047968Y-129906197D01*
X129885565Y-129833891D01*
X129885564Y-129833891D01*
X129879534Y-129831206D01*
X129786134Y-129811353D01*
X129699190Y-129792872D01*
X129699185Y-129792872D01*
X129692733Y-129791500D01*
X129501759Y-129791500D01*
X129495307Y-129792872D01*
X129495302Y-129792872D01*
X129408358Y-129811353D01*
X129314958Y-129831206D01*
X129308928Y-129833891D01*
X129308927Y-129833891D01*
X129146524Y-129906197D01*
X129146522Y-129906198D01*
X129140494Y-129908882D01*
X129135153Y-129912762D01*
X129135152Y-129912763D01*
X129116871Y-129926045D01*
X128985993Y-130021134D01*
X128981572Y-130026044D01*
X128981571Y-130026045D01*
X128933589Y-130079335D01*
X128858206Y-130163056D01*
X128762719Y-130328444D01*
X128703704Y-130510072D01*
X128683742Y-130700000D01*
X128684432Y-130706565D01*
X128693854Y-130796206D01*
X128703704Y-130889928D01*
X128762719Y-131071556D01*
X128766022Y-131077278D01*
X128766023Y-131077279D01*
X128800503Y-131137000D01*
X128817241Y-131205995D01*
X128800503Y-131263000D01*
X128762719Y-131328444D01*
X128703704Y-131510072D01*
X128703014Y-131516633D01*
X128703014Y-131516635D01*
X128686198Y-131676635D01*
X128683742Y-131700000D01*
X127429300Y-131700000D01*
X127432814Y-131666565D01*
X127433504Y-131660000D01*
X127415473Y-131488444D01*
X127414232Y-131476635D01*
X127414232Y-131476633D01*
X127413542Y-131470072D01*
X127354527Y-131288444D01*
X127259040Y-131123056D01*
X127142740Y-130993891D01*
X127135675Y-130986045D01*
X127135674Y-130986044D01*
X127131253Y-130981134D01*
X127125912Y-130977254D01*
X127125907Y-130977249D01*
X127077698Y-130942223D01*
X127034345Y-130886001D01*
X127026450Y-130827118D01*
X127032814Y-130766565D01*
X127033504Y-130760000D01*
X127013542Y-130570072D01*
X126954527Y-130388444D01*
X126859040Y-130223056D01*
X126731253Y-130081134D01*
X126628778Y-130006681D01*
X126582094Y-129972763D01*
X126582093Y-129972762D01*
X126576752Y-129968882D01*
X126570724Y-129966198D01*
X126570722Y-129966197D01*
X126408319Y-129893891D01*
X126408318Y-129893891D01*
X126402288Y-129891206D01*
X126308887Y-129871353D01*
X126221944Y-129852872D01*
X126221939Y-129852872D01*
X126215487Y-129851500D01*
X126024513Y-129851500D01*
X126018061Y-129852872D01*
X126018056Y-129852872D01*
X125931113Y-129871353D01*
X125837712Y-129891206D01*
X125671248Y-129965320D01*
X125600882Y-129974754D01*
X125568753Y-129965320D01*
X125402288Y-129891206D01*
X125308887Y-129871353D01*
X125221944Y-129852872D01*
X125221939Y-129852872D01*
X125215487Y-129851500D01*
X125024513Y-129851500D01*
X125018061Y-129852872D01*
X125018056Y-129852872D01*
X124931113Y-129871353D01*
X124837712Y-129891206D01*
X124831682Y-129893891D01*
X124831681Y-129893891D01*
X124669278Y-129966197D01*
X124669276Y-129966198D01*
X124663248Y-129968882D01*
X124655364Y-129974610D01*
X124644060Y-129982823D01*
X124577192Y-130006681D01*
X124508041Y-129990600D01*
X124495940Y-129982823D01*
X124484636Y-129974610D01*
X124476752Y-129968882D01*
X124470724Y-129966198D01*
X124470722Y-129966197D01*
X124308319Y-129893891D01*
X124308318Y-129893891D01*
X124302288Y-129891206D01*
X124208887Y-129871353D01*
X124121944Y-129852872D01*
X124121939Y-129852872D01*
X124115487Y-129851500D01*
X123924513Y-129851500D01*
X123918061Y-129852872D01*
X123918056Y-129852872D01*
X123831113Y-129871353D01*
X123737712Y-129891206D01*
X123731682Y-129893891D01*
X123731681Y-129893891D01*
X123569278Y-129966197D01*
X123569276Y-129966198D01*
X123563248Y-129968882D01*
X123557907Y-129972762D01*
X123557906Y-129972763D01*
X123511222Y-130006681D01*
X123456168Y-130046681D01*
X123444061Y-130055477D01*
X123377194Y-130079335D01*
X123308042Y-130063255D01*
X123295939Y-130055477D01*
X123283833Y-130046681D01*
X123228778Y-130006681D01*
X123182094Y-129972763D01*
X123182093Y-129972762D01*
X123176752Y-129968882D01*
X123170724Y-129966198D01*
X123170722Y-129966197D01*
X123008319Y-129893891D01*
X123008318Y-129893891D01*
X123002288Y-129891206D01*
X122908887Y-129871353D01*
X122821944Y-129852872D01*
X122821939Y-129852872D01*
X122815487Y-129851500D01*
X122624513Y-129851500D01*
X122618061Y-129852872D01*
X122618056Y-129852872D01*
X122531113Y-129871353D01*
X122437712Y-129891206D01*
X122431682Y-129893891D01*
X122431681Y-129893891D01*
X122269278Y-129966197D01*
X122269276Y-129966198D01*
X122263248Y-129968882D01*
X122257907Y-129972762D01*
X122257906Y-129972763D01*
X122211222Y-130006681D01*
X122108747Y-130081134D01*
X121980960Y-130223056D01*
X121885473Y-130388444D01*
X121826458Y-130570072D01*
X121806496Y-130760000D01*
X100838500Y-130760000D01*
X100838500Y-127860000D01*
X104406496Y-127860000D01*
X104426458Y-128049928D01*
X104485473Y-128231556D01*
X104580960Y-128396944D01*
X104708747Y-128538866D01*
X104762303Y-128577777D01*
X104855247Y-128645305D01*
X104898601Y-128701528D01*
X104907186Y-128747241D01*
X104907186Y-128753435D01*
X104906496Y-128760000D01*
X104926458Y-128949928D01*
X104985473Y-129131556D01*
X105080960Y-129296944D01*
X105208747Y-129438866D01*
X105307843Y-129510864D01*
X105320000Y-129519696D01*
X105363248Y-129551118D01*
X105369276Y-129553802D01*
X105369278Y-129553803D01*
X105531681Y-129626109D01*
X105537712Y-129628794D01*
X105631113Y-129648647D01*
X105718056Y-129667128D01*
X105718061Y-129667128D01*
X105724513Y-129668500D01*
X105915487Y-129668500D01*
X105921939Y-129667128D01*
X105921944Y-129667128D01*
X106008887Y-129648647D01*
X106102288Y-129628794D01*
X106218752Y-129576941D01*
X106289118Y-129567507D01*
X106321246Y-129576940D01*
X106437712Y-129628794D01*
X106531113Y-129648647D01*
X106618056Y-129667128D01*
X106618061Y-129667128D01*
X106624513Y-129668500D01*
X106815487Y-129668500D01*
X106821939Y-129667128D01*
X106821944Y-129667128D01*
X106908887Y-129648647D01*
X107002288Y-129628794D01*
X107118752Y-129576941D01*
X107189118Y-129567507D01*
X107221246Y-129576940D01*
X107337712Y-129628794D01*
X107431113Y-129648647D01*
X107518056Y-129667128D01*
X107518061Y-129667128D01*
X107524513Y-129668500D01*
X107715487Y-129668500D01*
X107721939Y-129667128D01*
X107721944Y-129667128D01*
X107808887Y-129648647D01*
X107902288Y-129628794D01*
X108018752Y-129576941D01*
X108089118Y-129567507D01*
X108121246Y-129576940D01*
X108237712Y-129628794D01*
X108331113Y-129648647D01*
X108418056Y-129667128D01*
X108418061Y-129667128D01*
X108424513Y-129668500D01*
X108615487Y-129668500D01*
X108621939Y-129667128D01*
X108621944Y-129667128D01*
X108708887Y-129648647D01*
X108802288Y-129628794D01*
X108808319Y-129626109D01*
X108970722Y-129553803D01*
X108970724Y-129553802D01*
X108976752Y-129551118D01*
X109020001Y-129519696D01*
X109032157Y-129510864D01*
X109131253Y-129438866D01*
X109259040Y-129296944D01*
X109354527Y-129131556D01*
X109413542Y-128949928D01*
X109430873Y-128785029D01*
X109457886Y-128719373D01*
X109504934Y-128683093D01*
X109524504Y-128674380D01*
X109576752Y-128651118D01*
X109731253Y-128538866D01*
X109859040Y-128396944D01*
X109954527Y-128231556D01*
X110013542Y-128049928D01*
X110033504Y-127860000D01*
X111006496Y-127860000D01*
X111026458Y-128049928D01*
X111085473Y-128231556D01*
X111180960Y-128396944D01*
X111308747Y-128538866D01*
X111314088Y-128542746D01*
X111314093Y-128542751D01*
X111362302Y-128577777D01*
X111405655Y-128633999D01*
X111413550Y-128692882D01*
X111410766Y-128719373D01*
X111406496Y-128760000D01*
X111426458Y-128949928D01*
X111485473Y-129131556D01*
X111580960Y-129296944D01*
X111708747Y-129438866D01*
X111807843Y-129510864D01*
X111820000Y-129519696D01*
X111863248Y-129551118D01*
X111869276Y-129553802D01*
X111869278Y-129553803D01*
X112031681Y-129626109D01*
X112037712Y-129628794D01*
X112131113Y-129648647D01*
X112218056Y-129667128D01*
X112218061Y-129667128D01*
X112224513Y-129668500D01*
X112415487Y-129668500D01*
X112421939Y-129667128D01*
X112421944Y-129667128D01*
X112508887Y-129648647D01*
X112602288Y-129628794D01*
X112768752Y-129554680D01*
X112839118Y-129545246D01*
X112871247Y-129554680D01*
X113037712Y-129628794D01*
X113131113Y-129648647D01*
X113218056Y-129667128D01*
X113218061Y-129667128D01*
X113224513Y-129668500D01*
X113415487Y-129668500D01*
X113421939Y-129667128D01*
X113421944Y-129667128D01*
X113508887Y-129648647D01*
X113602288Y-129628794D01*
X113768752Y-129554680D01*
X113839118Y-129545246D01*
X113871247Y-129554680D01*
X114037712Y-129628794D01*
X114131113Y-129648647D01*
X114218056Y-129667128D01*
X114218061Y-129667128D01*
X114224513Y-129668500D01*
X114415487Y-129668500D01*
X114421939Y-129667128D01*
X114421944Y-129667128D01*
X114508887Y-129648647D01*
X114602288Y-129628794D01*
X114718752Y-129576941D01*
X114789118Y-129567507D01*
X114821246Y-129576940D01*
X114937712Y-129628794D01*
X115031113Y-129648647D01*
X115118056Y-129667128D01*
X115118061Y-129667128D01*
X115124513Y-129668500D01*
X115315487Y-129668500D01*
X115321939Y-129667128D01*
X115321944Y-129667128D01*
X115408887Y-129648647D01*
X115502288Y-129628794D01*
X115508319Y-129626109D01*
X115670722Y-129553803D01*
X115670724Y-129553802D01*
X115676752Y-129551118D01*
X115720001Y-129519696D01*
X115732157Y-129510864D01*
X115831253Y-129438866D01*
X115959040Y-129296944D01*
X116054527Y-129131556D01*
X116113542Y-128949928D01*
X116133504Y-128760000D01*
X116113542Y-128570072D01*
X116054527Y-128388444D01*
X115959040Y-128223056D01*
X115831253Y-128081134D01*
X115684753Y-127974695D01*
X115641399Y-127918472D01*
X115632814Y-127872759D01*
X115632814Y-127866565D01*
X115633504Y-127860000D01*
X115613542Y-127670072D01*
X115554527Y-127488444D01*
X115459040Y-127323056D01*
X115331253Y-127181134D01*
X115176752Y-127068882D01*
X115170724Y-127066198D01*
X115170722Y-127066197D01*
X115008319Y-126993891D01*
X115008318Y-126993891D01*
X115002288Y-126991206D01*
X114908887Y-126971353D01*
X114821944Y-126952872D01*
X114821939Y-126952872D01*
X114815487Y-126951500D01*
X114624513Y-126951500D01*
X114618061Y-126952872D01*
X114618056Y-126952872D01*
X114531113Y-126971353D01*
X114437712Y-126991206D01*
X114431682Y-126993891D01*
X114431681Y-126993891D01*
X114269278Y-127066197D01*
X114269276Y-127066198D01*
X114263248Y-127068882D01*
X114241889Y-127084400D01*
X114175024Y-127108257D01*
X114116580Y-127097569D01*
X114102288Y-127091206D01*
X114008887Y-127071353D01*
X113921944Y-127052872D01*
X113921939Y-127052872D01*
X113915487Y-127051500D01*
X113724513Y-127051500D01*
X113718061Y-127052872D01*
X113718056Y-127052872D01*
X113631113Y-127071353D01*
X113537712Y-127091206D01*
X113421248Y-127143059D01*
X113350882Y-127152493D01*
X113318754Y-127143060D01*
X113202288Y-127091206D01*
X113108887Y-127071353D01*
X113021944Y-127052872D01*
X113021939Y-127052872D01*
X113015487Y-127051500D01*
X112824513Y-127051500D01*
X112818061Y-127052872D01*
X112818056Y-127052872D01*
X112731113Y-127071353D01*
X112637712Y-127091206D01*
X112561413Y-127125176D01*
X112491048Y-127134610D01*
X112436107Y-127112006D01*
X112376752Y-127068882D01*
X112370724Y-127066198D01*
X112370722Y-127066197D01*
X112208319Y-126993891D01*
X112208318Y-126993891D01*
X112202288Y-126991206D01*
X112108887Y-126971353D01*
X112021944Y-126952872D01*
X112021939Y-126952872D01*
X112015487Y-126951500D01*
X111824513Y-126951500D01*
X111818061Y-126952872D01*
X111818056Y-126952872D01*
X111731113Y-126971353D01*
X111637712Y-126991206D01*
X111631682Y-126993891D01*
X111631681Y-126993891D01*
X111469278Y-127066197D01*
X111469276Y-127066198D01*
X111463248Y-127068882D01*
X111308747Y-127181134D01*
X111180960Y-127323056D01*
X111085473Y-127488444D01*
X111026458Y-127670072D01*
X111006496Y-127860000D01*
X110033504Y-127860000D01*
X110013542Y-127670072D01*
X109954527Y-127488444D01*
X109859040Y-127323056D01*
X109731253Y-127181134D01*
X109576752Y-127068882D01*
X109570724Y-127066198D01*
X109570722Y-127066197D01*
X109408319Y-126993891D01*
X109408318Y-126993891D01*
X109402288Y-126991206D01*
X109308887Y-126971353D01*
X109221944Y-126952872D01*
X109221939Y-126952872D01*
X109215487Y-126951500D01*
X109024513Y-126951500D01*
X109018061Y-126952872D01*
X109018056Y-126952872D01*
X108931113Y-126971353D01*
X108837712Y-126991206D01*
X108831682Y-126993891D01*
X108831681Y-126993891D01*
X108669278Y-127066197D01*
X108669276Y-127066198D01*
X108663248Y-127068882D01*
X108644060Y-127082823D01*
X108577192Y-127106681D01*
X108508041Y-127090600D01*
X108495940Y-127082823D01*
X108476752Y-127068882D01*
X108470724Y-127066198D01*
X108470722Y-127066197D01*
X108308319Y-126993891D01*
X108308318Y-126993891D01*
X108302288Y-126991206D01*
X108208887Y-126971353D01*
X108121944Y-126952872D01*
X108121939Y-126952872D01*
X108115487Y-126951500D01*
X107924513Y-126951500D01*
X107918061Y-126952872D01*
X107918056Y-126952872D01*
X107831113Y-126971353D01*
X107737712Y-126991206D01*
X107621248Y-127043059D01*
X107550882Y-127052493D01*
X107518754Y-127043060D01*
X107402288Y-126991206D01*
X107308887Y-126971353D01*
X107221944Y-126952872D01*
X107221939Y-126952872D01*
X107215487Y-126951500D01*
X107024513Y-126951500D01*
X107018061Y-126952872D01*
X107018056Y-126952872D01*
X106931113Y-126971353D01*
X106837712Y-126991206D01*
X106721248Y-127043059D01*
X106650882Y-127052493D01*
X106618754Y-127043060D01*
X106502288Y-126991206D01*
X106408887Y-126971353D01*
X106321944Y-126952872D01*
X106321939Y-126952872D01*
X106315487Y-126951500D01*
X106124513Y-126951500D01*
X106118061Y-126952872D01*
X106118056Y-126952872D01*
X106031113Y-126971353D01*
X105937712Y-126991206D01*
X105821248Y-127043059D01*
X105750882Y-127052493D01*
X105718754Y-127043060D01*
X105602288Y-126991206D01*
X105508887Y-126971353D01*
X105421944Y-126952872D01*
X105421939Y-126952872D01*
X105415487Y-126951500D01*
X105224513Y-126951500D01*
X105218061Y-126952872D01*
X105218056Y-126952872D01*
X105131113Y-126971353D01*
X105037712Y-126991206D01*
X105031682Y-126993891D01*
X105031681Y-126993891D01*
X104869278Y-127066197D01*
X104869276Y-127066198D01*
X104863248Y-127068882D01*
X104708747Y-127181134D01*
X104580960Y-127323056D01*
X104485473Y-127488444D01*
X104426458Y-127670072D01*
X104406496Y-127860000D01*
X100838500Y-127860000D01*
X100838500Y-124206000D01*
X130175896Y-124206000D01*
X130195858Y-124395928D01*
X130254873Y-124577556D01*
X130350360Y-124742944D01*
X130478147Y-124884866D01*
X130632648Y-124997118D01*
X130638676Y-124999802D01*
X130638678Y-124999803D01*
X130801081Y-125072109D01*
X130807112Y-125074794D01*
X130900512Y-125094647D01*
X130987456Y-125113128D01*
X130987461Y-125113128D01*
X130993913Y-125114500D01*
X131184887Y-125114500D01*
X131191339Y-125113128D01*
X131191344Y-125113128D01*
X131278288Y-125094647D01*
X131371688Y-125074794D01*
X131377719Y-125072109D01*
X131540122Y-124999803D01*
X131540124Y-124999802D01*
X131546152Y-124997118D01*
X131700653Y-124884866D01*
X131828440Y-124742944D01*
X131923927Y-124577556D01*
X131982942Y-124395928D01*
X132002904Y-124206000D01*
X131982942Y-124016072D01*
X131923927Y-123834444D01*
X131828440Y-123669056D01*
X131700653Y-123527134D01*
X131546152Y-123414882D01*
X131540124Y-123412198D01*
X131540122Y-123412197D01*
X131377719Y-123339891D01*
X131377718Y-123339891D01*
X131371688Y-123337206D01*
X131278287Y-123317353D01*
X131191344Y-123298872D01*
X131191339Y-123298872D01*
X131184887Y-123297500D01*
X130993913Y-123297500D01*
X130987461Y-123298872D01*
X130987456Y-123298872D01*
X130900513Y-123317353D01*
X130807112Y-123337206D01*
X130801082Y-123339891D01*
X130801081Y-123339891D01*
X130638678Y-123412197D01*
X130638676Y-123412198D01*
X130632648Y-123414882D01*
X130478147Y-123527134D01*
X130350360Y-123669056D01*
X130254873Y-123834444D01*
X130195858Y-124016072D01*
X130175896Y-124206000D01*
X100838500Y-124206000D01*
X100838500Y-121505000D01*
X113016496Y-121505000D01*
X113036458Y-121694928D01*
X113095473Y-121876556D01*
X113190960Y-122041944D01*
X113318747Y-122183866D01*
X113473248Y-122296118D01*
X113479276Y-122298802D01*
X113479278Y-122298803D01*
X113641681Y-122371109D01*
X113647712Y-122373794D01*
X113741113Y-122393647D01*
X113828056Y-122412128D01*
X113828061Y-122412128D01*
X113834513Y-122413500D01*
X114025487Y-122413500D01*
X114031939Y-122412128D01*
X114031944Y-122412128D01*
X114118887Y-122393647D01*
X114212288Y-122373794D01*
X114218319Y-122371109D01*
X114380722Y-122298803D01*
X114380724Y-122298802D01*
X114386752Y-122296118D01*
X114541253Y-122183866D01*
X114669040Y-122041944D01*
X114764527Y-121876556D01*
X114823542Y-121694928D01*
X114843504Y-121505000D01*
X114823542Y-121315072D01*
X114764527Y-121133444D01*
X114669040Y-120968056D01*
X114541253Y-120826134D01*
X114386752Y-120713882D01*
X114380724Y-120711198D01*
X114380722Y-120711197D01*
X114218319Y-120638891D01*
X114218318Y-120638891D01*
X114212288Y-120636206D01*
X114118887Y-120616353D01*
X114031944Y-120597872D01*
X114031939Y-120597872D01*
X114025487Y-120596500D01*
X113834513Y-120596500D01*
X113828061Y-120597872D01*
X113828056Y-120597872D01*
X113741113Y-120616353D01*
X113647712Y-120636206D01*
X113641682Y-120638891D01*
X113641681Y-120638891D01*
X113479278Y-120711197D01*
X113479276Y-120711198D01*
X113473248Y-120713882D01*
X113318747Y-120826134D01*
X113190960Y-120968056D01*
X113095473Y-121133444D01*
X113036458Y-121315072D01*
X113016496Y-121505000D01*
X100838500Y-121505000D01*
X100838500Y-117271800D01*
X130887096Y-117271800D01*
X130907058Y-117461728D01*
X130966073Y-117643356D01*
X131061560Y-117808744D01*
X131189347Y-117950666D01*
X131343848Y-118062918D01*
X131349876Y-118065602D01*
X131349878Y-118065603D01*
X131512281Y-118137909D01*
X131518312Y-118140594D01*
X131611713Y-118160447D01*
X131698656Y-118178928D01*
X131698661Y-118178928D01*
X131705113Y-118180300D01*
X131896087Y-118180300D01*
X131902539Y-118178928D01*
X131902544Y-118178928D01*
X131989487Y-118160447D01*
X132082888Y-118140594D01*
X132088919Y-118137909D01*
X132251322Y-118065603D01*
X132251324Y-118065602D01*
X132257352Y-118062918D01*
X132411853Y-117950666D01*
X132539640Y-117808744D01*
X132635127Y-117643356D01*
X132694142Y-117461728D01*
X132714104Y-117271800D01*
X132713414Y-117265235D01*
X132694832Y-117088435D01*
X132694832Y-117088433D01*
X132694142Y-117081872D01*
X132635127Y-116900244D01*
X132539640Y-116734856D01*
X132411853Y-116592934D01*
X132257352Y-116480682D01*
X132251324Y-116477998D01*
X132251322Y-116477997D01*
X132088919Y-116405691D01*
X132088918Y-116405691D01*
X132082888Y-116403006D01*
X131989488Y-116383153D01*
X131902544Y-116364672D01*
X131902539Y-116364672D01*
X131896087Y-116363300D01*
X131705113Y-116363300D01*
X131698661Y-116364672D01*
X131698656Y-116364672D01*
X131611712Y-116383153D01*
X131518312Y-116403006D01*
X131512282Y-116405691D01*
X131512281Y-116405691D01*
X131349878Y-116477997D01*
X131349876Y-116477998D01*
X131343848Y-116480682D01*
X131189347Y-116592934D01*
X131061560Y-116734856D01*
X130966073Y-116900244D01*
X130907058Y-117081872D01*
X130906368Y-117088433D01*
X130906368Y-117088435D01*
X130887786Y-117265235D01*
X130887096Y-117271800D01*
X100838500Y-117271800D01*
X100838500Y-116255800D01*
X127559696Y-116255800D01*
X127560386Y-116262365D01*
X127575024Y-116401634D01*
X127579658Y-116445728D01*
X127638673Y-116627356D01*
X127734160Y-116792744D01*
X127861947Y-116934666D01*
X128016448Y-117046918D01*
X128022476Y-117049602D01*
X128022478Y-117049603D01*
X128094956Y-117081872D01*
X128190912Y-117124594D01*
X128284313Y-117144447D01*
X128371256Y-117162928D01*
X128371261Y-117162928D01*
X128377713Y-117164300D01*
X128568687Y-117164300D01*
X128575139Y-117162928D01*
X128575144Y-117162928D01*
X128662087Y-117144447D01*
X128755488Y-117124594D01*
X128851444Y-117081872D01*
X128923922Y-117049603D01*
X128923924Y-117049602D01*
X128929952Y-117046918D01*
X129084453Y-116934666D01*
X129212240Y-116792744D01*
X129307727Y-116627356D01*
X129366742Y-116445728D01*
X129371377Y-116401634D01*
X129386014Y-116262365D01*
X129386704Y-116255800D01*
X129366742Y-116065872D01*
X129307727Y-115884244D01*
X129212240Y-115718856D01*
X129084453Y-115576934D01*
X128929952Y-115464682D01*
X128923924Y-115461998D01*
X128923922Y-115461997D01*
X128761519Y-115389691D01*
X128761518Y-115389691D01*
X128755488Y-115387006D01*
X128662088Y-115367153D01*
X128575144Y-115348672D01*
X128575139Y-115348672D01*
X128568687Y-115347300D01*
X128377713Y-115347300D01*
X128371261Y-115348672D01*
X128371256Y-115348672D01*
X128284312Y-115367153D01*
X128190912Y-115387006D01*
X128184882Y-115389691D01*
X128184881Y-115389691D01*
X128022478Y-115461997D01*
X128022476Y-115461998D01*
X128016448Y-115464682D01*
X127861947Y-115576934D01*
X127734160Y-115718856D01*
X127638673Y-115884244D01*
X127579658Y-116065872D01*
X127559696Y-116255800D01*
X100838500Y-116255800D01*
X100838500Y-114972549D01*
X109333640Y-114972549D01*
X109334330Y-114979114D01*
X109346600Y-115095852D01*
X109353602Y-115162477D01*
X109412617Y-115344105D01*
X109508104Y-115509493D01*
X109635891Y-115651415D01*
X109790392Y-115763667D01*
X109796420Y-115766351D01*
X109796422Y-115766352D01*
X109958825Y-115838658D01*
X109964856Y-115841343D01*
X110058256Y-115861196D01*
X110145200Y-115879677D01*
X110145205Y-115879677D01*
X110151657Y-115881049D01*
X110342631Y-115881049D01*
X110349083Y-115879677D01*
X110349088Y-115879677D01*
X110436032Y-115861196D01*
X110529432Y-115841343D01*
X110535463Y-115838658D01*
X110697866Y-115766352D01*
X110697868Y-115766351D01*
X110703896Y-115763667D01*
X110858397Y-115651415D01*
X110986184Y-115509493D01*
X111081671Y-115344105D01*
X111140686Y-115162477D01*
X111147689Y-115095852D01*
X111159958Y-114979114D01*
X111160648Y-114972549D01*
X111142625Y-114801066D01*
X111141376Y-114789184D01*
X111141376Y-114789182D01*
X111140686Y-114782621D01*
X111081671Y-114600993D01*
X111054540Y-114554000D01*
X130252096Y-114554000D01*
X130272058Y-114743928D01*
X130331073Y-114925556D01*
X130426560Y-115090944D01*
X130430978Y-115095851D01*
X130430979Y-115095852D01*
X130496621Y-115168755D01*
X130554347Y-115232866D01*
X130708848Y-115345118D01*
X130714876Y-115347802D01*
X130714878Y-115347803D01*
X130802930Y-115387006D01*
X130883312Y-115422794D01*
X130976712Y-115442647D01*
X131063656Y-115461128D01*
X131063661Y-115461128D01*
X131070113Y-115462500D01*
X131261087Y-115462500D01*
X131267539Y-115461128D01*
X131267544Y-115461128D01*
X131354488Y-115442647D01*
X131447888Y-115422794D01*
X131528270Y-115387006D01*
X131616322Y-115347803D01*
X131616324Y-115347802D01*
X131622352Y-115345118D01*
X131776853Y-115232866D01*
X131834579Y-115168755D01*
X131900221Y-115095852D01*
X131900222Y-115095851D01*
X131904640Y-115090944D01*
X132000127Y-114925556D01*
X132059142Y-114743928D01*
X132079104Y-114554000D01*
X132066358Y-114432725D01*
X132059832Y-114370635D01*
X132059832Y-114370633D01*
X132059142Y-114364072D01*
X132000127Y-114182444D01*
X131904640Y-114017056D01*
X131876819Y-113986157D01*
X131781275Y-113880045D01*
X131781274Y-113880044D01*
X131776853Y-113875134D01*
X131622352Y-113762882D01*
X131616324Y-113760198D01*
X131616322Y-113760197D01*
X131453919Y-113687891D01*
X131453918Y-113687891D01*
X131447888Y-113685206D01*
X131350479Y-113664501D01*
X131267544Y-113646872D01*
X131267539Y-113646872D01*
X131261087Y-113645500D01*
X131070113Y-113645500D01*
X131063661Y-113646872D01*
X131063656Y-113646872D01*
X130980721Y-113664501D01*
X130883312Y-113685206D01*
X130877282Y-113687891D01*
X130877281Y-113687891D01*
X130714878Y-113760197D01*
X130714876Y-113760198D01*
X130708848Y-113762882D01*
X130554347Y-113875134D01*
X130549926Y-113880044D01*
X130549925Y-113880045D01*
X130454382Y-113986157D01*
X130426560Y-114017056D01*
X130331073Y-114182444D01*
X130272058Y-114364072D01*
X130271368Y-114370633D01*
X130271368Y-114370635D01*
X130264842Y-114432725D01*
X130252096Y-114554000D01*
X111054540Y-114554000D01*
X110986184Y-114435605D01*
X110966744Y-114414014D01*
X110862819Y-114298594D01*
X110862818Y-114298593D01*
X110858397Y-114293683D01*
X110703896Y-114181431D01*
X110697868Y-114178747D01*
X110697866Y-114178746D01*
X110535463Y-114106440D01*
X110535462Y-114106440D01*
X110529432Y-114103755D01*
X110436031Y-114083902D01*
X110349088Y-114065421D01*
X110349083Y-114065421D01*
X110342631Y-114064049D01*
X110151657Y-114064049D01*
X110145205Y-114065421D01*
X110145200Y-114065421D01*
X110058257Y-114083902D01*
X109964856Y-114103755D01*
X109958826Y-114106440D01*
X109958825Y-114106440D01*
X109796422Y-114178746D01*
X109796420Y-114178747D01*
X109790392Y-114181431D01*
X109635891Y-114293683D01*
X109631470Y-114298593D01*
X109631469Y-114298594D01*
X109527545Y-114414014D01*
X109508104Y-114435605D01*
X109412617Y-114600993D01*
X109353602Y-114782621D01*
X109352912Y-114789182D01*
X109352912Y-114789184D01*
X109351663Y-114801066D01*
X109333640Y-114972549D01*
X100838500Y-114972549D01*
X100838500Y-113789951D01*
X105270089Y-113789951D01*
X105270779Y-113796516D01*
X105284388Y-113925994D01*
X105290051Y-113979879D01*
X105349066Y-114161507D01*
X105444553Y-114326895D01*
X105448971Y-114331802D01*
X105448972Y-114331803D01*
X105485717Y-114372612D01*
X105572340Y-114468817D01*
X105726841Y-114581069D01*
X105732869Y-114583753D01*
X105732871Y-114583754D01*
X105889358Y-114653426D01*
X105901305Y-114658745D01*
X105994705Y-114678598D01*
X106081649Y-114697079D01*
X106081654Y-114697079D01*
X106088106Y-114698451D01*
X106279080Y-114698451D01*
X106285532Y-114697079D01*
X106285537Y-114697079D01*
X106372481Y-114678598D01*
X106465881Y-114658745D01*
X106477828Y-114653426D01*
X106634315Y-114583754D01*
X106634317Y-114583753D01*
X106640345Y-114581069D01*
X106794846Y-114468817D01*
X106881469Y-114372612D01*
X106918214Y-114331803D01*
X106918215Y-114331802D01*
X106922633Y-114326895D01*
X107018120Y-114161507D01*
X107077135Y-113979879D01*
X107082799Y-113925994D01*
X107096407Y-113796516D01*
X107097097Y-113789951D01*
X107081915Y-113645500D01*
X107077825Y-113606586D01*
X107077825Y-113606584D01*
X107077135Y-113600023D01*
X107058882Y-113543848D01*
X123115784Y-113543848D01*
X123135746Y-113733776D01*
X123194761Y-113915404D01*
X123290248Y-114080792D01*
X123294666Y-114085699D01*
X123294667Y-114085700D01*
X123321621Y-114115635D01*
X123418035Y-114222714D01*
X123572536Y-114334966D01*
X123578564Y-114337650D01*
X123578566Y-114337651D01*
X123740969Y-114409957D01*
X123747000Y-114412642D01*
X123831942Y-114430697D01*
X123927344Y-114450976D01*
X123927349Y-114450976D01*
X123933801Y-114452348D01*
X124124775Y-114452348D01*
X124131227Y-114450976D01*
X124131232Y-114450976D01*
X124226634Y-114430697D01*
X124311576Y-114412642D01*
X124317607Y-114409957D01*
X124480010Y-114337651D01*
X124480012Y-114337650D01*
X124486040Y-114334966D01*
X124640541Y-114222714D01*
X124736955Y-114115635D01*
X124763909Y-114085700D01*
X124763910Y-114085699D01*
X124768328Y-114080792D01*
X124863815Y-113915404D01*
X124922830Y-113733776D01*
X124942792Y-113543848D01*
X124929005Y-113412672D01*
X124923520Y-113360483D01*
X124923520Y-113360481D01*
X124922830Y-113353920D01*
X124863815Y-113172292D01*
X124768328Y-113006904D01*
X124663853Y-112890872D01*
X124644963Y-112869893D01*
X124644962Y-112869892D01*
X124640541Y-112864982D01*
X124541445Y-112792984D01*
X124491382Y-112756611D01*
X124491381Y-112756610D01*
X124486040Y-112752730D01*
X124480012Y-112750046D01*
X124480010Y-112750045D01*
X124317607Y-112677739D01*
X124317606Y-112677739D01*
X124311576Y-112675054D01*
X124218176Y-112655201D01*
X124131232Y-112636720D01*
X124131227Y-112636720D01*
X124124775Y-112635348D01*
X123933801Y-112635348D01*
X123927349Y-112636720D01*
X123927344Y-112636720D01*
X123840400Y-112655201D01*
X123747000Y-112675054D01*
X123740970Y-112677739D01*
X123740969Y-112677739D01*
X123578566Y-112750045D01*
X123578564Y-112750046D01*
X123572536Y-112752730D01*
X123567195Y-112756610D01*
X123567194Y-112756611D01*
X123517131Y-112792984D01*
X123418035Y-112864982D01*
X123413614Y-112869892D01*
X123413613Y-112869893D01*
X123394724Y-112890872D01*
X123290248Y-113006904D01*
X123194761Y-113172292D01*
X123135746Y-113353920D01*
X123135056Y-113360481D01*
X123135056Y-113360483D01*
X123129571Y-113412672D01*
X123115784Y-113543848D01*
X107058882Y-113543848D01*
X107018120Y-113418395D01*
X106922633Y-113253007D01*
X106794846Y-113111085D01*
X106640345Y-112998833D01*
X106634317Y-112996149D01*
X106634315Y-112996148D01*
X106471912Y-112923842D01*
X106471911Y-112923842D01*
X106465881Y-112921157D01*
X106372481Y-112901304D01*
X106285537Y-112882823D01*
X106285532Y-112882823D01*
X106279080Y-112881451D01*
X106088106Y-112881451D01*
X106081654Y-112882823D01*
X106081649Y-112882823D01*
X105994705Y-112901304D01*
X105901305Y-112921157D01*
X105895275Y-112923842D01*
X105895274Y-112923842D01*
X105732871Y-112996148D01*
X105732869Y-112996149D01*
X105726841Y-112998833D01*
X105572340Y-113111085D01*
X105444553Y-113253007D01*
X105349066Y-113418395D01*
X105290051Y-113600023D01*
X105289361Y-113606584D01*
X105289361Y-113606586D01*
X105285271Y-113645500D01*
X105270089Y-113789951D01*
X100838500Y-113789951D01*
X100838500Y-110241703D01*
X101776743Y-110241703D01*
X101777302Y-110245947D01*
X101777302Y-110245951D01*
X101793810Y-110371340D01*
X101814268Y-110526734D01*
X101890129Y-110804036D01*
X102002923Y-111068476D01*
X102150561Y-111315161D01*
X102330313Y-111539528D01*
X102538851Y-111737423D01*
X102772317Y-111905186D01*
X102776112Y-111907195D01*
X102776113Y-111907196D01*
X102797869Y-111918715D01*
X103026392Y-112039712D01*
X103296373Y-112138511D01*
X103577264Y-112199755D01*
X103605841Y-112202004D01*
X103800282Y-112217307D01*
X103800291Y-112217307D01*
X103802739Y-112217500D01*
X103958271Y-112217500D01*
X103960407Y-112217354D01*
X103960418Y-112217354D01*
X104168548Y-112203165D01*
X104168554Y-112203164D01*
X104172825Y-112202873D01*
X104177020Y-112202004D01*
X104177022Y-112202004D01*
X104320457Y-112172300D01*
X104454342Y-112144574D01*
X104725343Y-112048607D01*
X104980812Y-111916750D01*
X104984313Y-111914289D01*
X104984317Y-111914287D01*
X105098417Y-111834096D01*
X105216023Y-111751441D01*
X105426622Y-111555740D01*
X105608713Y-111333268D01*
X105758927Y-111088142D01*
X105798497Y-110998000D01*
X107011096Y-110998000D01*
X107011786Y-111004565D01*
X107020955Y-111091799D01*
X107031058Y-111187928D01*
X107090073Y-111369556D01*
X107185560Y-111534944D01*
X107313347Y-111676866D01*
X107467848Y-111789118D01*
X107473876Y-111791802D01*
X107473878Y-111791803D01*
X107636281Y-111864109D01*
X107642312Y-111866794D01*
X107735712Y-111886647D01*
X107822656Y-111905128D01*
X107822661Y-111905128D01*
X107829113Y-111906500D01*
X108020087Y-111906500D01*
X108026539Y-111905128D01*
X108026544Y-111905128D01*
X108113487Y-111886647D01*
X108206888Y-111866794D01*
X108212919Y-111864109D01*
X108375322Y-111791803D01*
X108375324Y-111791802D01*
X108381352Y-111789118D01*
X108535853Y-111676866D01*
X108663640Y-111534944D01*
X108759127Y-111369556D01*
X108818142Y-111187928D01*
X108828246Y-111091799D01*
X108837414Y-111004565D01*
X108838104Y-110998000D01*
X108820324Y-110828830D01*
X108818832Y-110814635D01*
X108818832Y-110814633D01*
X108818142Y-110808072D01*
X108759127Y-110626444D01*
X108663640Y-110461056D01*
X108535853Y-110319134D01*
X108429279Y-110241703D01*
X130224743Y-110241703D01*
X130225302Y-110245947D01*
X130225302Y-110245951D01*
X130241810Y-110371340D01*
X130262268Y-110526734D01*
X130338129Y-110804036D01*
X130450923Y-111068476D01*
X130598561Y-111315161D01*
X130778313Y-111539528D01*
X130986851Y-111737423D01*
X131220317Y-111905186D01*
X131224112Y-111907195D01*
X131224113Y-111907196D01*
X131245869Y-111918715D01*
X131474392Y-112039712D01*
X131744373Y-112138511D01*
X132025264Y-112199755D01*
X132053841Y-112202004D01*
X132248282Y-112217307D01*
X132248291Y-112217307D01*
X132250739Y-112217500D01*
X132406271Y-112217500D01*
X132408407Y-112217354D01*
X132408418Y-112217354D01*
X132616548Y-112203165D01*
X132616554Y-112203164D01*
X132620825Y-112202873D01*
X132625020Y-112202004D01*
X132625022Y-112202004D01*
X132768457Y-112172300D01*
X132902342Y-112144574D01*
X133173343Y-112048607D01*
X133428812Y-111916750D01*
X133432313Y-111914289D01*
X133432317Y-111914287D01*
X133546418Y-111834095D01*
X133664023Y-111751441D01*
X133874622Y-111555740D01*
X134056713Y-111333268D01*
X134206927Y-111088142D01*
X134322483Y-110824898D01*
X134325407Y-110814635D01*
X134400068Y-110552534D01*
X134401244Y-110548406D01*
X134441751Y-110263784D01*
X134441845Y-110245951D01*
X134443235Y-109980583D01*
X134443235Y-109980576D01*
X134443257Y-109976297D01*
X134441154Y-109960318D01*
X134415025Y-109761852D01*
X134405732Y-109691266D01*
X134400271Y-109671302D01*
X134380020Y-109597279D01*
X134329871Y-109413964D01*
X134281512Y-109300588D01*
X134218763Y-109153476D01*
X134218761Y-109153472D01*
X134217077Y-109149524D01*
X134069439Y-108902839D01*
X133889687Y-108678472D01*
X133704678Y-108502905D01*
X133684258Y-108483527D01*
X133684255Y-108483525D01*
X133681149Y-108480577D01*
X133447683Y-108312814D01*
X133429320Y-108303091D01*
X133349257Y-108260700D01*
X133193608Y-108178288D01*
X132923627Y-108079489D01*
X132642736Y-108018245D01*
X132611685Y-108015801D01*
X132419718Y-108000693D01*
X132419709Y-108000693D01*
X132417261Y-108000500D01*
X132261729Y-108000500D01*
X132259593Y-108000646D01*
X132259582Y-108000646D01*
X132051452Y-108014835D01*
X132051446Y-108014836D01*
X132047175Y-108015127D01*
X132042980Y-108015996D01*
X132042978Y-108015996D01*
X131906416Y-108044277D01*
X131765658Y-108073426D01*
X131494657Y-108169393D01*
X131239188Y-108301250D01*
X131235687Y-108303711D01*
X131235683Y-108303713D01*
X131219167Y-108315321D01*
X131003977Y-108466559D01*
X130988892Y-108480577D01*
X130830948Y-108627348D01*
X130793378Y-108662260D01*
X130611287Y-108884732D01*
X130461073Y-109129858D01*
X130345517Y-109393102D01*
X130344342Y-109397229D01*
X130344341Y-109397230D01*
X130340724Y-109409928D01*
X130266756Y-109669594D01*
X130226249Y-109954216D01*
X130226227Y-109958505D01*
X130226226Y-109958512D01*
X130225336Y-110128500D01*
X130224743Y-110241703D01*
X108429279Y-110241703D01*
X108381352Y-110206882D01*
X108375324Y-110204198D01*
X108375322Y-110204197D01*
X108212919Y-110131891D01*
X108212918Y-110131891D01*
X108206888Y-110129206D01*
X108113488Y-110109353D01*
X108026544Y-110090872D01*
X108026539Y-110090872D01*
X108020087Y-110089500D01*
X107829113Y-110089500D01*
X107822661Y-110090872D01*
X107822656Y-110090872D01*
X107735712Y-110109353D01*
X107642312Y-110129206D01*
X107636282Y-110131891D01*
X107636281Y-110131891D01*
X107473878Y-110204197D01*
X107473876Y-110204198D01*
X107467848Y-110206882D01*
X107313347Y-110319134D01*
X107185560Y-110461056D01*
X107090073Y-110626444D01*
X107031058Y-110808072D01*
X107030368Y-110814633D01*
X107030368Y-110814635D01*
X107028876Y-110828830D01*
X107011096Y-110998000D01*
X105798497Y-110998000D01*
X105874483Y-110824898D01*
X105877407Y-110814635D01*
X105952068Y-110552534D01*
X105953244Y-110548406D01*
X105993751Y-110263784D01*
X105993845Y-110245951D01*
X105995235Y-109980583D01*
X105995235Y-109980576D01*
X105995257Y-109976297D01*
X105993154Y-109960318D01*
X105967025Y-109761852D01*
X105957732Y-109691266D01*
X105952271Y-109671302D01*
X105932020Y-109597279D01*
X105881871Y-109413964D01*
X105833512Y-109300588D01*
X105777470Y-109169200D01*
X111887896Y-109169200D01*
X111907858Y-109359128D01*
X111966873Y-109540756D01*
X112062360Y-109706144D01*
X112066778Y-109711051D01*
X112066779Y-109711052D01*
X112174751Y-109830967D01*
X112190147Y-109848066D01*
X112277559Y-109911575D01*
X112317900Y-109940884D01*
X112344648Y-109960318D01*
X112350676Y-109963002D01*
X112350678Y-109963003D01*
X112513081Y-110035309D01*
X112519112Y-110037994D01*
X112612512Y-110057847D01*
X112699456Y-110076328D01*
X112699461Y-110076328D01*
X112705913Y-110077700D01*
X112896887Y-110077700D01*
X112903339Y-110076328D01*
X112903344Y-110076328D01*
X112990287Y-110057847D01*
X113083688Y-110037994D01*
X113258152Y-109960318D01*
X113262076Y-109957467D01*
X113330441Y-109940884D01*
X113398504Y-109964805D01*
X113420221Y-109980583D01*
X113462248Y-110011118D01*
X113468276Y-110013802D01*
X113468278Y-110013803D01*
X113611794Y-110077700D01*
X113636712Y-110088794D01*
X113730113Y-110108647D01*
X113817056Y-110127128D01*
X113817061Y-110127128D01*
X113823513Y-110128500D01*
X114014487Y-110128500D01*
X114020939Y-110127128D01*
X114020944Y-110127128D01*
X114107887Y-110108647D01*
X114201288Y-110088794D01*
X114226206Y-110077700D01*
X114369722Y-110013803D01*
X114369724Y-110013802D01*
X114375752Y-110011118D01*
X114428370Y-109972889D01*
X114451014Y-109956437D01*
X114530253Y-109898866D01*
X114572497Y-109851949D01*
X114653621Y-109761852D01*
X114653622Y-109761851D01*
X114658040Y-109756944D01*
X114753527Y-109591556D01*
X114812542Y-109409928D01*
X114814311Y-109393102D01*
X114824724Y-109294023D01*
X123154253Y-109294023D01*
X123154943Y-109300588D01*
X123161756Y-109365406D01*
X123174215Y-109483951D01*
X123233230Y-109665579D01*
X123328717Y-109830967D01*
X123333135Y-109835874D01*
X123333136Y-109835875D01*
X123449225Y-109964805D01*
X123456504Y-109972889D01*
X123611005Y-110085141D01*
X123617033Y-110087825D01*
X123617035Y-110087826D01*
X123779438Y-110160132D01*
X123785469Y-110162817D01*
X123878870Y-110182670D01*
X123965813Y-110201151D01*
X123965818Y-110201151D01*
X123972270Y-110202523D01*
X124163244Y-110202523D01*
X124169696Y-110201151D01*
X124169701Y-110201151D01*
X124256645Y-110182670D01*
X124350045Y-110162817D01*
X124356076Y-110160132D01*
X124518479Y-110087826D01*
X124518481Y-110087825D01*
X124524509Y-110085141D01*
X124679010Y-109972889D01*
X124686289Y-109964805D01*
X124802378Y-109835875D01*
X124802379Y-109835874D01*
X124806797Y-109830967D01*
X124902284Y-109665579D01*
X124961299Y-109483951D01*
X124973759Y-109365406D01*
X124980571Y-109300588D01*
X124981261Y-109294023D01*
X124964007Y-109129858D01*
X124961989Y-109110658D01*
X124961989Y-109110656D01*
X124961299Y-109104095D01*
X124902284Y-108922467D01*
X124806797Y-108757079D01*
X124740147Y-108683056D01*
X124683432Y-108620068D01*
X124683431Y-108620067D01*
X124679010Y-108615157D01*
X124579914Y-108543159D01*
X124529851Y-108506786D01*
X124529850Y-108506785D01*
X124524509Y-108502905D01*
X124518481Y-108500221D01*
X124518479Y-108500220D01*
X124356076Y-108427914D01*
X124356075Y-108427914D01*
X124350045Y-108425229D01*
X124256645Y-108405376D01*
X124169701Y-108386895D01*
X124169696Y-108386895D01*
X124163244Y-108385523D01*
X123972270Y-108385523D01*
X123965818Y-108386895D01*
X123965813Y-108386895D01*
X123878870Y-108405376D01*
X123785469Y-108425229D01*
X123779439Y-108427914D01*
X123779438Y-108427914D01*
X123617035Y-108500220D01*
X123617033Y-108500221D01*
X123611005Y-108502905D01*
X123605664Y-108506785D01*
X123605663Y-108506786D01*
X123555600Y-108543159D01*
X123456504Y-108615157D01*
X123452083Y-108620067D01*
X123452082Y-108620068D01*
X123395368Y-108683056D01*
X123328717Y-108757079D01*
X123233230Y-108922467D01*
X123174215Y-109104095D01*
X123173525Y-109110656D01*
X123173525Y-109110658D01*
X123171507Y-109129858D01*
X123154253Y-109294023D01*
X114824724Y-109294023D01*
X114831814Y-109226565D01*
X114832504Y-109220000D01*
X114823030Y-109129858D01*
X114813232Y-109036635D01*
X114813232Y-109036633D01*
X114812542Y-109030072D01*
X114753527Y-108848444D01*
X114658040Y-108683056D01*
X114607881Y-108627348D01*
X114534675Y-108546045D01*
X114534674Y-108546044D01*
X114530253Y-108541134D01*
X114424220Y-108464096D01*
X114381094Y-108432763D01*
X114381093Y-108432762D01*
X114375752Y-108428882D01*
X114369724Y-108426198D01*
X114369722Y-108426197D01*
X114207319Y-108353891D01*
X114207318Y-108353891D01*
X114201288Y-108351206D01*
X114107888Y-108331353D01*
X114020944Y-108312872D01*
X114020939Y-108312872D01*
X114014487Y-108311500D01*
X113823513Y-108311500D01*
X113817061Y-108312872D01*
X113817056Y-108312872D01*
X113730112Y-108331353D01*
X113636712Y-108351206D01*
X113462248Y-108428882D01*
X113458324Y-108431733D01*
X113389959Y-108448316D01*
X113321896Y-108424395D01*
X113263494Y-108381963D01*
X113263492Y-108381962D01*
X113258152Y-108378082D01*
X113252124Y-108375398D01*
X113252122Y-108375397D01*
X113089719Y-108303091D01*
X113089718Y-108303091D01*
X113083688Y-108300406D01*
X112990287Y-108280553D01*
X112903344Y-108262072D01*
X112903339Y-108262072D01*
X112896887Y-108260700D01*
X112705913Y-108260700D01*
X112699461Y-108262072D01*
X112699456Y-108262072D01*
X112612513Y-108280553D01*
X112519112Y-108300406D01*
X112513082Y-108303091D01*
X112513081Y-108303091D01*
X112350678Y-108375397D01*
X112350676Y-108375398D01*
X112344648Y-108378082D01*
X112190147Y-108490334D01*
X112185726Y-108495244D01*
X112185725Y-108495245D01*
X112144407Y-108541134D01*
X112062360Y-108632256D01*
X111966873Y-108797644D01*
X111907858Y-108979272D01*
X111907168Y-108985833D01*
X111907168Y-108985835D01*
X111894739Y-109104095D01*
X111887896Y-109169200D01*
X105777470Y-109169200D01*
X105770763Y-109153476D01*
X105770761Y-109153472D01*
X105769077Y-109149524D01*
X105621439Y-108902839D01*
X105441687Y-108678472D01*
X105256678Y-108502905D01*
X105236258Y-108483527D01*
X105236255Y-108483525D01*
X105233149Y-108480577D01*
X104999683Y-108312814D01*
X104981320Y-108303091D01*
X104901257Y-108260700D01*
X104745608Y-108178288D01*
X104475627Y-108079489D01*
X104194736Y-108018245D01*
X104163685Y-108015801D01*
X103971718Y-108000693D01*
X103971709Y-108000693D01*
X103969261Y-108000500D01*
X103813729Y-108000500D01*
X103811593Y-108000646D01*
X103811582Y-108000646D01*
X103603452Y-108014835D01*
X103603446Y-108014836D01*
X103599175Y-108015127D01*
X103594980Y-108015996D01*
X103594978Y-108015996D01*
X103458416Y-108044277D01*
X103317658Y-108073426D01*
X103046657Y-108169393D01*
X102791188Y-108301250D01*
X102787687Y-108303711D01*
X102787683Y-108303713D01*
X102771167Y-108315321D01*
X102555977Y-108466559D01*
X102540892Y-108480577D01*
X102382948Y-108627348D01*
X102345378Y-108662260D01*
X102163287Y-108884732D01*
X102013073Y-109129858D01*
X101897517Y-109393102D01*
X101896342Y-109397229D01*
X101896341Y-109397230D01*
X101892724Y-109409928D01*
X101818756Y-109669594D01*
X101778249Y-109954216D01*
X101778227Y-109958505D01*
X101778226Y-109958512D01*
X101777336Y-110128500D01*
X101776743Y-110241703D01*
X100838500Y-110241703D01*
X100838500Y-107264200D01*
X109830496Y-107264200D01*
X109831186Y-107270765D01*
X109832546Y-107283700D01*
X109850458Y-107454128D01*
X109909473Y-107635756D01*
X110004960Y-107801144D01*
X110132747Y-107943066D01*
X110287248Y-108055318D01*
X110293276Y-108058002D01*
X110293278Y-108058003D01*
X110327919Y-108073426D01*
X110461712Y-108132994D01*
X110555112Y-108152847D01*
X110642056Y-108171328D01*
X110642061Y-108171328D01*
X110648513Y-108172700D01*
X110839487Y-108172700D01*
X110845939Y-108171328D01*
X110845944Y-108171328D01*
X110932887Y-108152847D01*
X111026288Y-108132994D01*
X111160081Y-108073426D01*
X111194722Y-108058003D01*
X111194724Y-108058002D01*
X111200752Y-108055318D01*
X111355253Y-107943066D01*
X111483040Y-107801144D01*
X111578527Y-107635756D01*
X111637542Y-107454128D01*
X111655455Y-107283700D01*
X111656814Y-107270765D01*
X111657504Y-107264200D01*
X111656814Y-107257635D01*
X111638232Y-107080835D01*
X111638232Y-107080833D01*
X111637542Y-107074272D01*
X111578527Y-106892644D01*
X111572981Y-106883037D01*
X111512654Y-106778549D01*
X111483040Y-106727256D01*
X111466709Y-106709118D01*
X111359675Y-106590245D01*
X111359674Y-106590244D01*
X111355253Y-106585334D01*
X111200752Y-106473082D01*
X111194724Y-106470398D01*
X111194722Y-106470397D01*
X111032319Y-106398091D01*
X111032318Y-106398091D01*
X111026288Y-106395406D01*
X110931227Y-106375200D01*
X110845944Y-106357072D01*
X110845939Y-106357072D01*
X110839487Y-106355700D01*
X110648513Y-106355700D01*
X110642061Y-106357072D01*
X110642056Y-106357072D01*
X110556773Y-106375200D01*
X110461712Y-106395406D01*
X110455682Y-106398091D01*
X110455681Y-106398091D01*
X110293278Y-106470397D01*
X110293276Y-106470398D01*
X110287248Y-106473082D01*
X110132747Y-106585334D01*
X110128326Y-106590244D01*
X110128325Y-106590245D01*
X110021292Y-106709118D01*
X110004960Y-106727256D01*
X109975346Y-106778549D01*
X109915020Y-106883037D01*
X109909473Y-106892644D01*
X109850458Y-107074272D01*
X109849768Y-107080833D01*
X109849768Y-107080835D01*
X109831186Y-107257635D01*
X109830496Y-107264200D01*
X100838500Y-107264200D01*
X100838500Y-104139500D01*
X100858502Y-104071379D01*
X100912158Y-104024886D01*
X100964500Y-104013500D01*
X102895471Y-104013500D01*
X102963592Y-104033502D01*
G37*
%TD.AperFunction*%
%TD*%
M02*
