%TF.GenerationSoftware,KiCad,Pcbnew,(6.0.4-0)*%
%TF.CreationDate,2022-08-06T12:57:23-04:00*%
%TF.ProjectId,QuarkCncStepperDrivers,51756172-6b43-46e6-9353-746570706572,rev?*%
%TF.SameCoordinates,Original*%
%TF.FileFunction,Copper,L4,Bot*%
%TF.FilePolarity,Positive*%
%FSLAX46Y46*%
G04 Gerber Fmt 4.6, Leading zero omitted, Abs format (unit mm)*
G04 Created by KiCad (PCBNEW (6.0.4-0)) date 2022-08-06 12:57:23*
%MOMM*%
%LPD*%
G01*
G04 APERTURE LIST*
%TA.AperFunction,ComponentPad*%
%ADD10R,1.524000X1.524000*%
%TD*%
%TA.AperFunction,ComponentPad*%
%ADD11C,1.524000*%
%TD*%
%TA.AperFunction,ComponentPad*%
%ADD12C,1.498600*%
%TD*%
%TA.AperFunction,ComponentPad*%
%ADD13C,0.500000*%
%TD*%
%TA.AperFunction,SMDPad,CuDef*%
%ADD14R,5.000000X5.000000*%
%TD*%
%TA.AperFunction,ViaPad*%
%ADD15C,0.800000*%
%TD*%
%TA.AperFunction,Conductor*%
%ADD16C,0.127000*%
%TD*%
%TA.AperFunction,Conductor*%
%ADD17C,0.250000*%
%TD*%
%TA.AperFunction,Conductor*%
%ADD18C,0.512000*%
%TD*%
G04 APERTURE END LIST*
D10*
%TO.P,J1,1,Pin_1*%
%TO.N,/STEPPER_SCK*%
X134620000Y-104775000D03*
D11*
%TO.P,J1,2,Pin_2*%
%TO.N,/STEPPER_MOSI*%
X132080000Y-104775000D03*
%TO.P,J1,3,Pin_3*%
%TO.N,/STEPPER_MISO*%
X129540000Y-104775000D03*
%TO.P,J1,4,Pin_4*%
%TO.N,/STEPPER_X_CSn*%
X127000000Y-104775000D03*
%TO.P,J1,5,Pin_5*%
%TO.N,/STEPPER_X_STEP*%
X124460000Y-104775000D03*
%TO.P,J1,6,Pin_6*%
%TO.N,/STEPPER_X_DIR*%
X121920000Y-104775000D03*
%TO.P,J1,7,Pin_7*%
%TO.N,/STEPPER_X_ENn*%
X119380000Y-104775000D03*
%TO.P,J1,8,Pin_8*%
%TO.N,+3V3*%
X116840000Y-104775000D03*
%TO.P,J1,9,Pin_9*%
%TO.N,+12V*%
X114300000Y-104775000D03*
%TO.P,J1,10,Pin_10*%
%TO.N,GND*%
X111760000Y-104775000D03*
%TO.P,J1,11,Pin_11*%
%TO.N,VCC*%
X109220000Y-104775000D03*
%TO.P,J1,12,Pin_12*%
%TO.N,GND*%
X106680000Y-104775000D03*
%TO.P,J1,13,Pin_13*%
%TO.N,VCC*%
X104140000Y-104775000D03*
%TO.P,J1,14,Pin_14*%
%TO.N,GND*%
X101600000Y-104775000D03*
%TD*%
%TO.P,J2,1,Pin_1*%
%TO.N,/STEPPER_COIL_A2*%
X101610000Y-144145000D03*
%TO.P,J2,2,Pin_2*%
X104150000Y-144145000D03*
%TO.P,J2,3,Pin_3*%
X106690000Y-144145000D03*
%TO.P,J2,4,Pin_4*%
%TO.N,/STEPPER_COIL_A1*%
X109230000Y-144145000D03*
%TO.P,J2,5,Pin_5*%
X111770000Y-144145000D03*
%TO.P,J2,6,Pin_6*%
X114310000Y-144145000D03*
%TO.P,J2,7,Pin_7*%
%TO.N,/STEPPER_COIL_B2*%
X116850000Y-144145000D03*
%TO.P,J2,8,Pin_8*%
X119390000Y-144145000D03*
%TO.P,J2,9,Pin_9*%
X121930000Y-144145000D03*
%TO.P,J2,10,Pin_10*%
%TO.N,/STEPPER_COIL_B1*%
X124470000Y-144145000D03*
%TO.P,J2,11,Pin_11*%
X127010000Y-144145000D03*
%TO.P,J2,12,Pin_12*%
X129550000Y-144145000D03*
%TO.P,J2,13,Pin_13*%
%TO.N,/STEPPER_DIAG1*%
X132090000Y-144145000D03*
D12*
%TO.P,J2,14,Pin_14*%
%TO.N,/STEPPER_DIAG2*%
X134630000Y-144145000D03*
%TD*%
D13*
%TO.P,U1,49,EP*%
%TO.N,GND*%
X117597246Y-112125000D03*
X116472246Y-115500000D03*
X118722246Y-114375000D03*
X116472246Y-112125000D03*
X116472246Y-116625000D03*
X119847246Y-112125000D03*
X115347246Y-115500000D03*
D14*
X117597246Y-114375000D03*
D13*
X115347246Y-113250000D03*
X115347246Y-116625000D03*
X115347246Y-112125000D03*
X118722246Y-115500000D03*
X115347246Y-114375000D03*
X116472246Y-113250000D03*
X117597246Y-113250000D03*
X118722246Y-112125000D03*
X117597246Y-114375000D03*
X119847246Y-115500000D03*
X119847246Y-113250000D03*
X117597246Y-115500000D03*
X118722246Y-116625000D03*
X119847246Y-116625000D03*
X116472246Y-114375000D03*
X118722246Y-113250000D03*
X117597246Y-116625000D03*
X119847246Y-114375000D03*
%TD*%
D15*
%TO.N,+3V3*%
X124104400Y-106095800D03*
%TO.N,GND*%
X107950000Y-119761000D03*
X127464500Y-117932200D03*
X121666000Y-121576500D03*
X117652800Y-107749400D03*
X129463800Y-114604800D03*
X121756070Y-111617226D03*
X134011489Y-132460000D03*
X118745000Y-139065000D03*
X109905800Y-115911958D03*
X125730000Y-123571000D03*
X110490000Y-119507000D03*
X105156000Y-119761000D03*
X120020000Y-137360000D03*
X129286000Y-121539000D03*
X126746000Y-121539000D03*
X103886000Y-121793000D03*
X124206000Y-121539000D03*
X122377200Y-123723400D03*
X132649500Y-126381426D03*
X108712000Y-121793000D03*
X108204000Y-112471200D03*
X106172000Y-121793000D03*
X101473000Y-140843000D03*
X122428000Y-125603000D03*
X115951000Y-140081000D03*
X113284000Y-119253000D03*
X124739400Y-115973500D03*
X102870000Y-135890000D03*
X108915200Y-108635800D03*
X102870000Y-119761000D03*
X104430000Y-124405000D03*
X102144500Y-131047701D03*
%TO.N,VCC*%
X133604000Y-141351000D03*
X106183593Y-113789951D03*
X107315000Y-141605000D03*
X124206000Y-142240000D03*
X109601000Y-141478000D03*
X108077000Y-139954000D03*
X103505000Y-141732000D03*
X113792000Y-140716000D03*
X131800600Y-117271800D03*
X132461000Y-142240000D03*
X110247144Y-114972549D03*
X119126000Y-141859000D03*
X117094000Y-141732000D03*
X127127000Y-142240000D03*
%TO.N,/STEPPER_COIL_B2*%
X126620000Y-138660000D03*
X126520000Y-131660000D03*
X125620000Y-131660000D03*
X123520000Y-138660000D03*
X122320000Y-137760000D03*
X124620000Y-138660000D03*
X125620000Y-138660000D03*
X126620000Y-137760000D03*
X122720000Y-130760000D03*
X125620000Y-137760000D03*
X123520000Y-137760000D03*
X124620000Y-137760000D03*
X124020000Y-130760000D03*
X122320000Y-138660000D03*
X121220000Y-137760000D03*
X124620000Y-131660000D03*
X126120000Y-130760000D03*
X125120000Y-130760000D03*
X123320000Y-131560000D03*
%TO.N,/STEPPER_COIL_B1*%
X129597246Y-130700000D03*
X130597246Y-130800000D03*
X133697246Y-130600000D03*
X132497246Y-131700000D03*
X129597246Y-131700000D03*
X131597246Y-138000000D03*
X131697246Y-130800000D03*
X129397246Y-137200000D03*
X130397246Y-138000000D03*
X131597246Y-131700000D03*
X132297246Y-137200000D03*
X132697246Y-130800000D03*
X130597246Y-131700000D03*
X130997246Y-137200000D03*
%TO.N,/STEPPER_COIL_A2*%
X108520000Y-134760000D03*
X105320000Y-127860000D03*
X107620000Y-128760000D03*
X106020000Y-135660000D03*
X108520000Y-128760000D03*
X107020000Y-135660000D03*
X106220000Y-127860000D03*
X106520000Y-134760000D03*
X109520000Y-134660000D03*
X108020000Y-135660000D03*
X106720000Y-128760000D03*
X109120000Y-127860000D03*
X109020000Y-135660000D03*
X108020000Y-127860000D03*
X107520000Y-134760000D03*
X105820000Y-128760000D03*
X107120000Y-127860000D03*
%TO.N,/STEPPER_COIL_A1*%
X116020000Y-131860000D03*
X112620000Y-134360000D03*
X111920000Y-127860000D03*
X112320000Y-128760000D03*
X116220000Y-133460000D03*
X114320000Y-128760000D03*
X113120000Y-135160000D03*
X114620000Y-134360000D03*
X113820000Y-127960000D03*
X114720000Y-127860000D03*
X115220000Y-128760000D03*
X115620000Y-134360000D03*
X114120000Y-135160000D03*
X113620000Y-134360000D03*
X112920000Y-127960000D03*
X113320000Y-128760000D03*
X115120000Y-135260000D03*
%TO.N,/STEPPER DRIVER X/hbridge_A2/hbridge_low_side*%
X134289800Y-114122200D03*
X131089400Y-124206000D03*
%TO.N,/STEPPER DRIVER X/hbridge_A3/hbridge_low_side*%
X134289800Y-113080800D03*
X113930000Y-121505000D03*
%TO.N,/STEPPER_X_CSn*%
X124067757Y-109294023D03*
X127254000Y-106959400D03*
%TO.N,/STEPPER_DIAG2*%
X110744000Y-107264200D03*
X120167400Y-106375200D03*
%TO.N,/STEPPER_DIAG1*%
X112801400Y-109169200D03*
%TO.N,/STEPPER_X_ENn*%
X117952348Y-105941980D03*
X115697000Y-105918000D03*
%TO.N,/STEPPER DRIVER X/5VOUT*%
X124029288Y-113543848D03*
X107924600Y-110998000D03*
X113919000Y-109220000D03*
%TO.N,+12V*%
X128473200Y-116255800D03*
X131165600Y-114554000D03*
%TD*%
D16*
%TO.N,+3V3*%
X121462800Y-106095800D02*
X124104400Y-106095800D01*
X116840000Y-104775000D02*
X117917630Y-104775000D01*
X119769206Y-105835768D02*
X119892775Y-105712199D01*
X121079199Y-105712199D02*
X121462800Y-106095800D01*
X118978398Y-105835768D02*
X119769206Y-105835768D01*
X119892775Y-105712199D02*
X121079199Y-105712199D01*
X117917630Y-104775000D02*
X118978398Y-105835768D01*
D17*
%TO.N,/STEPPER DRIVER X/hbridge_A2/hbridge_low_side*%
X132893504Y-124206000D02*
X131089400Y-124206000D01*
X134289800Y-122809704D02*
X132893504Y-124206000D01*
X134289800Y-114122200D02*
X134289800Y-122809704D01*
%TO.N,/STEPPER DRIVER X/hbridge_A3/hbridge_low_side*%
X133553200Y-113817400D02*
X133553200Y-122555000D01*
X133553200Y-122555000D02*
X114980000Y-122555000D01*
X134289800Y-113080800D02*
X133553200Y-113817400D01*
X114980000Y-122555000D02*
X113930000Y-121505000D01*
D16*
%TO.N,/STEPPER_X_CSn*%
X124067757Y-109266022D02*
X126374379Y-106959400D01*
X124067757Y-109294023D02*
X124067757Y-109266022D01*
X126374379Y-106959400D02*
X127254000Y-106959400D01*
%TO.N,/STEPPER_DIAG2*%
X134630000Y-144145000D02*
X135279312Y-143495688D01*
X121033601Y-106758801D02*
X111249399Y-106758801D01*
X135279312Y-107512556D02*
X133736644Y-105969888D01*
X111249399Y-106758801D02*
X110744000Y-107264200D01*
X120167400Y-106375200D02*
X120551001Y-106758801D01*
X120551001Y-106758801D02*
X121033601Y-106758801D01*
X125167938Y-105969888D02*
X124379025Y-106758801D01*
X135279312Y-143495688D02*
X135279312Y-107512556D01*
X124379025Y-106758801D02*
X121033601Y-106758801D01*
X133736644Y-105969888D02*
X125167938Y-105969888D01*
%TO.N,/STEPPER_DIAG1*%
X134952801Y-107647801D02*
X133601399Y-106296399D01*
X132080000Y-144780000D02*
X134952801Y-141907199D01*
X124513182Y-107086400D02*
X114884200Y-107086400D01*
X114884200Y-107086400D02*
X112801400Y-109169200D01*
X133601399Y-106296399D02*
X125303183Y-106296399D01*
X134952801Y-141907199D02*
X134952801Y-107647801D01*
X125303183Y-106296399D02*
X124513182Y-107086400D01*
%TO.N,/STEPPER_X_ENn*%
X115697000Y-105918000D02*
X117928368Y-105918000D01*
X117928368Y-105918000D02*
X117952348Y-105941980D01*
D18*
%TO.N,/STEPPER DRIVER X/5VOUT*%
X113919000Y-109261462D02*
X112182462Y-110998000D01*
X112182462Y-110998000D02*
X107924600Y-110998000D01*
X113919000Y-109220000D02*
X113919000Y-109261462D01*
%TD*%
%TA.AperFunction,Conductor*%
%TO.N,/STEPPER_COIL_A1*%
G36*
X117418243Y-127732839D02*
G01*
X117465177Y-127786109D01*
X117476983Y-127837397D01*
X117547116Y-132258716D01*
X117627192Y-137306773D01*
X117639388Y-138075654D01*
X117624809Y-138136514D01*
X117086680Y-139154966D01*
X116894738Y-139518230D01*
X116845228Y-139569116D01*
X116776068Y-139585156D01*
X116709213Y-139561260D01*
X116689706Y-139543685D01*
X116562253Y-139402134D01*
X116407752Y-139289882D01*
X116401724Y-139287198D01*
X116401722Y-139287197D01*
X116239319Y-139214891D01*
X116239318Y-139214891D01*
X116233288Y-139212206D01*
X116139887Y-139192353D01*
X116052944Y-139173872D01*
X116052939Y-139173872D01*
X116046487Y-139172500D01*
X115855513Y-139172500D01*
X115849061Y-139173872D01*
X115849056Y-139173872D01*
X115762113Y-139192353D01*
X115668712Y-139212206D01*
X115662682Y-139214891D01*
X115662681Y-139214891D01*
X115500278Y-139287197D01*
X115500276Y-139287198D01*
X115494248Y-139289882D01*
X115339747Y-139402134D01*
X115211960Y-139544056D01*
X115116473Y-139709444D01*
X115057458Y-139891072D01*
X115056768Y-139897633D01*
X115056768Y-139897635D01*
X115050844Y-139954000D01*
X115037496Y-140081000D01*
X115057458Y-140270928D01*
X115116473Y-140452556D01*
X115211960Y-140617944D01*
X115339747Y-140759866D01*
X115388450Y-140795251D01*
X115481982Y-140863206D01*
X115494248Y-140872118D01*
X115500276Y-140874802D01*
X115500278Y-140874803D01*
X115638062Y-140936148D01*
X115668712Y-140949794D01*
X115762112Y-140969647D01*
X115849056Y-140988128D01*
X115849061Y-140988128D01*
X115855513Y-140989500D01*
X115908265Y-140989500D01*
X115976386Y-141009502D01*
X116022879Y-141063158D01*
X116032983Y-141133432D01*
X116019670Y-141174364D01*
X115712382Y-141755929D01*
X115712381Y-141755932D01*
X115707280Y-141765586D01*
X115705753Y-141776402D01*
X115279098Y-144798116D01*
X115249769Y-144862771D01*
X115190140Y-144901306D01*
X115154336Y-144906500D01*
X108320938Y-144906500D01*
X108252817Y-144886498D01*
X108206324Y-144832842D01*
X108195008Y-144776307D01*
X108278403Y-142271803D01*
X108304835Y-141478000D01*
X108687496Y-141478000D01*
X108688186Y-141484565D01*
X108702894Y-141624500D01*
X108707458Y-141667928D01*
X108766473Y-141849556D01*
X108861960Y-142014944D01*
X108866378Y-142019851D01*
X108866379Y-142019852D01*
X108976311Y-142141944D01*
X108989747Y-142156866D01*
X109144248Y-142269118D01*
X109150276Y-142271802D01*
X109150278Y-142271803D01*
X109312681Y-142344109D01*
X109318712Y-142346794D01*
X109412112Y-142366647D01*
X109499056Y-142385128D01*
X109499061Y-142385128D01*
X109505513Y-142386500D01*
X109696487Y-142386500D01*
X109702939Y-142385128D01*
X109702944Y-142385128D01*
X109789888Y-142366647D01*
X109883288Y-142346794D01*
X109889319Y-142344109D01*
X110051722Y-142271803D01*
X110051724Y-142271802D01*
X110057752Y-142269118D01*
X110212253Y-142156866D01*
X110225689Y-142141944D01*
X110335621Y-142019852D01*
X110335622Y-142019851D01*
X110340040Y-142014944D01*
X110435527Y-141849556D01*
X110494542Y-141667928D01*
X110499107Y-141624500D01*
X110513814Y-141484565D01*
X110514504Y-141478000D01*
X110507890Y-141415072D01*
X110495232Y-141294635D01*
X110495232Y-141294633D01*
X110494542Y-141288072D01*
X110435527Y-141106444D01*
X110340040Y-140941056D01*
X110314064Y-140912206D01*
X110216675Y-140804045D01*
X110216674Y-140804044D01*
X110212253Y-140799134D01*
X110097829Y-140716000D01*
X112878496Y-140716000D01*
X112879186Y-140722565D01*
X112895187Y-140874803D01*
X112898458Y-140905928D01*
X112957473Y-141087556D01*
X113052960Y-141252944D01*
X113057378Y-141257851D01*
X113057379Y-141257852D01*
X113084589Y-141288072D01*
X113180747Y-141394866D01*
X113208558Y-141415072D01*
X113304207Y-141484565D01*
X113335248Y-141507118D01*
X113341276Y-141509802D01*
X113341278Y-141509803D01*
X113413756Y-141542072D01*
X113509712Y-141584794D01*
X113603113Y-141604647D01*
X113690056Y-141623128D01*
X113690061Y-141623128D01*
X113696513Y-141624500D01*
X113887487Y-141624500D01*
X113893939Y-141623128D01*
X113893944Y-141623128D01*
X113980887Y-141604647D01*
X114074288Y-141584794D01*
X114170244Y-141542072D01*
X114242722Y-141509803D01*
X114242724Y-141509802D01*
X114248752Y-141507118D01*
X114279794Y-141484565D01*
X114375442Y-141415072D01*
X114403253Y-141394866D01*
X114499411Y-141288072D01*
X114526621Y-141257852D01*
X114526622Y-141257851D01*
X114531040Y-141252944D01*
X114626527Y-141087556D01*
X114685542Y-140905928D01*
X114688814Y-140874803D01*
X114704814Y-140722565D01*
X114705504Y-140716000D01*
X114704814Y-140709435D01*
X114686232Y-140532635D01*
X114686232Y-140532633D01*
X114685542Y-140526072D01*
X114626527Y-140344444D01*
X114531040Y-140179056D01*
X114493500Y-140137363D01*
X114407675Y-140042045D01*
X114407674Y-140042044D01*
X114403253Y-140037134D01*
X114248752Y-139924882D01*
X114242724Y-139922198D01*
X114242722Y-139922197D01*
X114080319Y-139849891D01*
X114080318Y-139849891D01*
X114074288Y-139847206D01*
X113980887Y-139827353D01*
X113893944Y-139808872D01*
X113893939Y-139808872D01*
X113887487Y-139807500D01*
X113696513Y-139807500D01*
X113690061Y-139808872D01*
X113690056Y-139808872D01*
X113603113Y-139827353D01*
X113509712Y-139847206D01*
X113503682Y-139849891D01*
X113503681Y-139849891D01*
X113341278Y-139922197D01*
X113341276Y-139922198D01*
X113335248Y-139924882D01*
X113180747Y-140037134D01*
X113176326Y-140042044D01*
X113176325Y-140042045D01*
X113090501Y-140137363D01*
X113052960Y-140179056D01*
X112957473Y-140344444D01*
X112898458Y-140526072D01*
X112897768Y-140532633D01*
X112897768Y-140532635D01*
X112879186Y-140709435D01*
X112878496Y-140716000D01*
X110097829Y-140716000D01*
X110063094Y-140690763D01*
X110063093Y-140690762D01*
X110057752Y-140686882D01*
X110051724Y-140684198D01*
X110051722Y-140684197D01*
X109889319Y-140611891D01*
X109889318Y-140611891D01*
X109883288Y-140609206D01*
X109789887Y-140589353D01*
X109702944Y-140570872D01*
X109702939Y-140570872D01*
X109696487Y-140569500D01*
X109505513Y-140569500D01*
X109499061Y-140570872D01*
X109499056Y-140570872D01*
X109412113Y-140589353D01*
X109318712Y-140609206D01*
X109312682Y-140611891D01*
X109312681Y-140611891D01*
X109150278Y-140684197D01*
X109150276Y-140684198D01*
X109144248Y-140686882D01*
X109138907Y-140690762D01*
X109138906Y-140690763D01*
X109104171Y-140716000D01*
X108989747Y-140799134D01*
X108985326Y-140804044D01*
X108985325Y-140804045D01*
X108887937Y-140912206D01*
X108861960Y-140941056D01*
X108766473Y-141106444D01*
X108707458Y-141288072D01*
X108706768Y-141294633D01*
X108706768Y-141294635D01*
X108694110Y-141415072D01*
X108687496Y-141478000D01*
X108304835Y-141478000D01*
X108319693Y-141031773D01*
X108342662Y-140963338D01*
X108459578Y-140797596D01*
X108511290Y-140755119D01*
X108527719Y-140747805D01*
X108527726Y-140747801D01*
X108533752Y-140745118D01*
X108546019Y-140736206D01*
X108617602Y-140684197D01*
X108688253Y-140632866D01*
X108784411Y-140526072D01*
X108811621Y-140495852D01*
X108811622Y-140495851D01*
X108816040Y-140490944D01*
X108911527Y-140325556D01*
X108970542Y-140143928D01*
X108975841Y-140093511D01*
X108998190Y-140034051D01*
X110922037Y-137306773D01*
X110922037Y-137306772D01*
X110932478Y-137291971D01*
X110751234Y-127895224D01*
X110769919Y-127826730D01*
X110822668Y-127779211D01*
X110876171Y-127766798D01*
X117349961Y-127713399D01*
X117418243Y-127732839D01*
G37*
%TD.AperFunction*%
%TD*%
%TA.AperFunction,Conductor*%
%TO.N,/STEPPER_COIL_B1*%
G36*
X134322922Y-130490002D02*
G01*
X134369415Y-130543658D01*
X134380801Y-130596000D01*
X134380801Y-131454106D01*
X134360799Y-131522227D01*
X134307143Y-131568720D01*
X134236869Y-131578824D01*
X134228604Y-131577353D01*
X134113433Y-131552872D01*
X134113428Y-131552872D01*
X134106976Y-131551500D01*
X133916002Y-131551500D01*
X133909550Y-131552872D01*
X133909545Y-131552872D01*
X133822601Y-131571353D01*
X133729201Y-131591206D01*
X133723171Y-131593891D01*
X133723170Y-131593891D01*
X133560767Y-131666197D01*
X133560765Y-131666198D01*
X133554737Y-131668882D01*
X133400236Y-131781134D01*
X133272449Y-131923056D01*
X133176962Y-132088444D01*
X133117947Y-132270072D01*
X133117257Y-132276633D01*
X133117257Y-132276635D01*
X133109429Y-132351118D01*
X133097985Y-132460000D01*
X133117947Y-132649928D01*
X133176962Y-132831556D01*
X133272449Y-132996944D01*
X133400236Y-133138866D01*
X133554737Y-133251118D01*
X133560765Y-133253802D01*
X133560767Y-133253803D01*
X133723170Y-133326109D01*
X133729201Y-133328794D01*
X133819788Y-133348049D01*
X133909545Y-133367128D01*
X133909550Y-133367128D01*
X133916002Y-133368500D01*
X134106976Y-133368500D01*
X134113428Y-133367128D01*
X134113433Y-133367128D01*
X134228604Y-133342647D01*
X134299395Y-133348049D01*
X134356027Y-133390866D01*
X134380521Y-133457503D01*
X134380801Y-133465894D01*
X134380801Y-140466307D01*
X134360799Y-140534428D01*
X134342984Y-140556306D01*
X134296795Y-140601563D01*
X134234139Y-140634951D01*
X134163379Y-140629165D01*
X134134551Y-140613500D01*
X134066094Y-140563763D01*
X134066093Y-140563762D01*
X134060752Y-140559882D01*
X134054724Y-140557198D01*
X134054722Y-140557197D01*
X133892319Y-140484891D01*
X133892318Y-140484891D01*
X133886288Y-140482206D01*
X133792888Y-140462353D01*
X133705944Y-140443872D01*
X133705939Y-140443872D01*
X133699487Y-140442500D01*
X133508513Y-140442500D01*
X133502061Y-140443872D01*
X133502056Y-140443872D01*
X133415112Y-140462353D01*
X133321712Y-140482206D01*
X133315682Y-140484891D01*
X133315681Y-140484891D01*
X133153278Y-140557197D01*
X133153276Y-140557198D01*
X133147248Y-140559882D01*
X132992747Y-140672134D01*
X132864960Y-140814056D01*
X132769473Y-140979444D01*
X132710458Y-141161072D01*
X132709768Y-141167633D01*
X132709768Y-141167635D01*
X132704157Y-141221021D01*
X132677143Y-141286678D01*
X132618922Y-141327307D01*
X132565677Y-141333160D01*
X132562947Y-141332873D01*
X132556487Y-141331500D01*
X132365513Y-141331500D01*
X132359061Y-141332872D01*
X132359056Y-141332872D01*
X132273773Y-141351000D01*
X132178712Y-141371206D01*
X132172682Y-141373891D01*
X132172681Y-141373891D01*
X132010278Y-141446197D01*
X132010276Y-141446198D01*
X132004248Y-141448882D01*
X131849747Y-141561134D01*
X131721960Y-141703056D01*
X131626473Y-141868444D01*
X131567458Y-142050072D01*
X131547496Y-142240000D01*
X131548186Y-142246565D01*
X131549546Y-142259500D01*
X131567458Y-142429928D01*
X131626473Y-142611556D01*
X131629776Y-142617278D01*
X131629777Y-142617279D01*
X131716210Y-142766986D01*
X131732948Y-142835982D01*
X131709727Y-142903073D01*
X131653485Y-142945875D01*
X131653804Y-142946560D01*
X131648818Y-142948885D01*
X131457311Y-143038186D01*
X131457306Y-143038189D01*
X131452324Y-143040512D01*
X131447817Y-143043668D01*
X131447815Y-143043669D01*
X131274730Y-143164864D01*
X131274727Y-143164866D01*
X131270219Y-143168023D01*
X131113023Y-143325219D01*
X130985512Y-143507324D01*
X130983189Y-143512306D01*
X130983186Y-143512311D01*
X130893883Y-143703822D01*
X130891560Y-143708804D01*
X130834022Y-143923537D01*
X130833543Y-143929017D01*
X130829951Y-143970069D01*
X130817439Y-144010711D01*
X130810000Y-144018000D01*
X130809990Y-144028474D01*
X130809249Y-144780624D01*
X130789180Y-144848725D01*
X130735478Y-144895165D01*
X130683249Y-144906500D01*
X123315686Y-144906500D01*
X123247565Y-144886498D01*
X123201072Y-144832842D01*
X123189687Y-144780347D01*
X123189944Y-144571328D01*
X123210030Y-144503233D01*
X123218918Y-144491100D01*
X124029926Y-143512311D01*
X124309803Y-143174534D01*
X124368667Y-143134842D01*
X124380628Y-143131678D01*
X124387031Y-143130317D01*
X124488288Y-143108794D01*
X124641653Y-143040512D01*
X124656722Y-143033803D01*
X124656724Y-143033802D01*
X124662752Y-143031118D01*
X124817253Y-142918866D01*
X124945040Y-142776944D01*
X125040527Y-142611556D01*
X125099542Y-142429928D01*
X125117455Y-142259500D01*
X125118814Y-142246565D01*
X125119504Y-142240000D01*
X125119852Y-142240037D01*
X125119863Y-142240000D01*
X126213496Y-142240000D01*
X126214186Y-142246565D01*
X126215546Y-142259500D01*
X126233458Y-142429928D01*
X126292473Y-142611556D01*
X126387960Y-142776944D01*
X126515747Y-142918866D01*
X126670248Y-143031118D01*
X126676276Y-143033802D01*
X126676278Y-143033803D01*
X126691347Y-143040512D01*
X126844712Y-143108794D01*
X126938112Y-143128647D01*
X127025056Y-143147128D01*
X127025061Y-143147128D01*
X127031513Y-143148500D01*
X127222487Y-143148500D01*
X127228939Y-143147128D01*
X127228944Y-143147128D01*
X127315888Y-143128647D01*
X127409288Y-143108794D01*
X127562653Y-143040512D01*
X127577722Y-143033803D01*
X127577724Y-143033802D01*
X127583752Y-143031118D01*
X127738253Y-142918866D01*
X127866040Y-142776944D01*
X127961527Y-142611556D01*
X128020542Y-142429928D01*
X128038455Y-142259500D01*
X128039814Y-142246565D01*
X128040504Y-142240000D01*
X128020542Y-142050072D01*
X127961527Y-141868444D01*
X127866040Y-141703056D01*
X127738253Y-141561134D01*
X127583752Y-141448882D01*
X127577724Y-141446198D01*
X127577722Y-141446197D01*
X127415319Y-141373891D01*
X127415318Y-141373891D01*
X127409288Y-141371206D01*
X127314227Y-141351000D01*
X127228944Y-141332872D01*
X127228939Y-141332872D01*
X127222487Y-141331500D01*
X127031513Y-141331500D01*
X127025061Y-141332872D01*
X127025056Y-141332872D01*
X126939773Y-141351000D01*
X126844712Y-141371206D01*
X126838682Y-141373891D01*
X126838681Y-141373891D01*
X126676278Y-141446197D01*
X126676276Y-141446198D01*
X126670248Y-141448882D01*
X126515747Y-141561134D01*
X126387960Y-141703056D01*
X126292473Y-141868444D01*
X126233458Y-142050072D01*
X126213496Y-142240000D01*
X125119863Y-142240000D01*
X125138816Y-142175451D01*
X125147788Y-142163187D01*
X127104919Y-139801166D01*
X127135168Y-139462042D01*
X127161143Y-139395969D01*
X127186609Y-139371302D01*
X127194992Y-139365212D01*
X127231253Y-139338866D01*
X127359040Y-139196944D01*
X127454527Y-139031556D01*
X127513542Y-138849928D01*
X127533504Y-138660000D01*
X127513542Y-138470072D01*
X127454527Y-138288444D01*
X127445611Y-138273001D01*
X127428872Y-138204007D01*
X127445611Y-138146998D01*
X127451224Y-138137277D01*
X127454527Y-138131556D01*
X127513542Y-137949928D01*
X127533504Y-137760000D01*
X127513542Y-137570072D01*
X127454527Y-137388444D01*
X127359040Y-137223056D01*
X127361287Y-137221759D01*
X127341334Y-137165817D01*
X127341627Y-137147443D01*
X127927006Y-130584805D01*
X127952981Y-130518731D01*
X128010556Y-130477189D01*
X128052508Y-130470000D01*
X134254801Y-130470000D01*
X134322922Y-130490002D01*
G37*
%TD.AperFunction*%
%TD*%
%TA.AperFunction,Conductor*%
%TO.N,/STEPPER_COIL_A2*%
G36*
X110079367Y-127290002D02*
G01*
X110125860Y-127343658D01*
X110137246Y-127396000D01*
X110137246Y-137030157D01*
X110114338Y-137102600D01*
X108694110Y-139123694D01*
X108638580Y-139167929D01*
X108567948Y-139175120D01*
X108533904Y-139162542D01*
X108533752Y-139162882D01*
X108528522Y-139160553D01*
X108528516Y-139160551D01*
X108527723Y-139160198D01*
X108527720Y-139160196D01*
X108365319Y-139087891D01*
X108365318Y-139087891D01*
X108359288Y-139085206D01*
X108265888Y-139065353D01*
X108178944Y-139046872D01*
X108178939Y-139046872D01*
X108172487Y-139045500D01*
X107981513Y-139045500D01*
X107975061Y-139046872D01*
X107975056Y-139046872D01*
X107888112Y-139065353D01*
X107794712Y-139085206D01*
X107788682Y-139087891D01*
X107788681Y-139087891D01*
X107626278Y-139160197D01*
X107626276Y-139160198D01*
X107620248Y-139162882D01*
X107465747Y-139275134D01*
X107337960Y-139417056D01*
X107242473Y-139582444D01*
X107183458Y-139764072D01*
X107182768Y-139770633D01*
X107182768Y-139770635D01*
X107165401Y-139935872D01*
X107163496Y-139954000D01*
X107164186Y-139960565D01*
X107174192Y-140055763D01*
X107183458Y-140143928D01*
X107242473Y-140325556D01*
X107245776Y-140331278D01*
X107245777Y-140331279D01*
X107334658Y-140485226D01*
X107334661Y-140485231D01*
X107337960Y-140490944D01*
X107342379Y-140495852D01*
X107342805Y-140496438D01*
X107366664Y-140563305D01*
X107350585Y-140632457D01*
X107299672Y-140681938D01*
X107240870Y-140696500D01*
X107219513Y-140696500D01*
X107213061Y-140697872D01*
X107213056Y-140697872D01*
X107127778Y-140715999D01*
X107032712Y-140736206D01*
X107026682Y-140738891D01*
X107026681Y-140738891D01*
X106864278Y-140811197D01*
X106864276Y-140811198D01*
X106858248Y-140813882D01*
X106852907Y-140817762D01*
X106852906Y-140817763D01*
X106818171Y-140843000D01*
X106703747Y-140926134D01*
X106699326Y-140931044D01*
X106699325Y-140931045D01*
X106601937Y-141039206D01*
X106575960Y-141068056D01*
X106480473Y-141233444D01*
X106421458Y-141415072D01*
X106420768Y-141421633D01*
X106420768Y-141421635D01*
X106408770Y-141535794D01*
X106401496Y-141605000D01*
X106402186Y-141611565D01*
X106416894Y-141751500D01*
X106421458Y-141794928D01*
X106480473Y-141976556D01*
X106575960Y-142141944D01*
X106703747Y-142283866D01*
X106858248Y-142396118D01*
X106864276Y-142398802D01*
X106864278Y-142398803D01*
X106900094Y-142414749D01*
X107032712Y-142473794D01*
X107126113Y-142493647D01*
X107213056Y-142512128D01*
X107213061Y-142512128D01*
X107219513Y-142513500D01*
X107410487Y-142513500D01*
X107410487Y-142516387D01*
X107467881Y-142526865D01*
X107519742Y-142575352D01*
X107537246Y-142639420D01*
X107537246Y-144780500D01*
X107517244Y-144848621D01*
X107463588Y-144895114D01*
X107411246Y-144906500D01*
X100964500Y-144906500D01*
X100896379Y-144886498D01*
X100849886Y-144832842D01*
X100838500Y-144780500D01*
X100838500Y-141748937D01*
X100858502Y-141680816D01*
X100912158Y-141634323D01*
X100982432Y-141624219D01*
X101015552Y-141635680D01*
X101016248Y-141634118D01*
X101190712Y-141711794D01*
X101254888Y-141725435D01*
X101371056Y-141750128D01*
X101371061Y-141750128D01*
X101377513Y-141751500D01*
X101568487Y-141751500D01*
X101574939Y-141750128D01*
X101574944Y-141750128D01*
X101660227Y-141732000D01*
X102591496Y-141732000D01*
X102592186Y-141738565D01*
X102593546Y-141751500D01*
X102611458Y-141921928D01*
X102670473Y-142103556D01*
X102765960Y-142268944D01*
X102893747Y-142410866D01*
X102976664Y-142471109D01*
X103038984Y-142516387D01*
X103048248Y-142523118D01*
X103054276Y-142525802D01*
X103054278Y-142525803D01*
X103165568Y-142575352D01*
X103222712Y-142600794D01*
X103316113Y-142620647D01*
X103403056Y-142639128D01*
X103403061Y-142639128D01*
X103409513Y-142640500D01*
X103600487Y-142640500D01*
X103606939Y-142639128D01*
X103606944Y-142639128D01*
X103693887Y-142620647D01*
X103787288Y-142600794D01*
X103844432Y-142575352D01*
X103955722Y-142525803D01*
X103955724Y-142525802D01*
X103961752Y-142523118D01*
X103971017Y-142516387D01*
X104033336Y-142471109D01*
X104116253Y-142410866D01*
X104244040Y-142268944D01*
X104339527Y-142103556D01*
X104398542Y-141921928D01*
X104416455Y-141751500D01*
X104417814Y-141738565D01*
X104418504Y-141732000D01*
X104417814Y-141725435D01*
X104399232Y-141548635D01*
X104399232Y-141548633D01*
X104398542Y-141542072D01*
X104339527Y-141360444D01*
X104244040Y-141195056D01*
X104116253Y-141053134D01*
X103961752Y-140940882D01*
X103955724Y-140938198D01*
X103955722Y-140938197D01*
X103793319Y-140865891D01*
X103793318Y-140865891D01*
X103787288Y-140863206D01*
X103692227Y-140843000D01*
X103606944Y-140824872D01*
X103606939Y-140824872D01*
X103600487Y-140823500D01*
X103409513Y-140823500D01*
X103403061Y-140824872D01*
X103403056Y-140824872D01*
X103317773Y-140843000D01*
X103222712Y-140863206D01*
X103216682Y-140865891D01*
X103216681Y-140865891D01*
X103054278Y-140938197D01*
X103054276Y-140938198D01*
X103048248Y-140940882D01*
X102893747Y-141053134D01*
X102765960Y-141195056D01*
X102670473Y-141360444D01*
X102611458Y-141542072D01*
X102610768Y-141548633D01*
X102610768Y-141548635D01*
X102592186Y-141725435D01*
X102591496Y-141732000D01*
X101660227Y-141732000D01*
X101691112Y-141725435D01*
X101755288Y-141711794D01*
X101761319Y-141709109D01*
X101923722Y-141636803D01*
X101923724Y-141636802D01*
X101929752Y-141634118D01*
X101960794Y-141611565D01*
X101985157Y-141593864D01*
X102084253Y-141521866D01*
X102181144Y-141414258D01*
X102207621Y-141384852D01*
X102207622Y-141384851D01*
X102212040Y-141379944D01*
X102307527Y-141214556D01*
X102366542Y-141032928D01*
X102375809Y-140944763D01*
X102385814Y-140849565D01*
X102386504Y-140843000D01*
X102384599Y-140824872D01*
X102367232Y-140659635D01*
X102367232Y-140659633D01*
X102366542Y-140653072D01*
X102307527Y-140471444D01*
X102212040Y-140306056D01*
X102084253Y-140164134D01*
X101985157Y-140092136D01*
X101935094Y-140055763D01*
X101935093Y-140055762D01*
X101929752Y-140051882D01*
X101923724Y-140049198D01*
X101923722Y-140049197D01*
X101761319Y-139976891D01*
X101761318Y-139976891D01*
X101755288Y-139974206D01*
X101660227Y-139954000D01*
X101574944Y-139935872D01*
X101574939Y-139935872D01*
X101568487Y-139934500D01*
X101377513Y-139934500D01*
X101371061Y-139935872D01*
X101371056Y-139935872D01*
X101285773Y-139954000D01*
X101190712Y-139974206D01*
X101184682Y-139976891D01*
X101184681Y-139976891D01*
X101022279Y-140049197D01*
X101016248Y-140051882D01*
X101015056Y-140049204D01*
X100958486Y-140062919D01*
X100891398Y-140039689D01*
X100847519Y-139983875D01*
X100838500Y-139937063D01*
X100838500Y-135890000D01*
X101956496Y-135890000D01*
X101976458Y-136079928D01*
X102035473Y-136261556D01*
X102130960Y-136426944D01*
X102258747Y-136568866D01*
X102413248Y-136681118D01*
X102419276Y-136683802D01*
X102419278Y-136683803D01*
X102581681Y-136756109D01*
X102587712Y-136758794D01*
X102681113Y-136778647D01*
X102768056Y-136797128D01*
X102768061Y-136797128D01*
X102774513Y-136798500D01*
X102965487Y-136798500D01*
X102971939Y-136797128D01*
X102971944Y-136797128D01*
X103058887Y-136778647D01*
X103152288Y-136758794D01*
X103158319Y-136756109D01*
X103320722Y-136683803D01*
X103320724Y-136683802D01*
X103326752Y-136681118D01*
X103481253Y-136568866D01*
X103609040Y-136426944D01*
X103704527Y-136261556D01*
X103763542Y-136079928D01*
X103783504Y-135890000D01*
X103763542Y-135700072D01*
X103704527Y-135518444D01*
X103609040Y-135353056D01*
X103481253Y-135211134D01*
X103326752Y-135098882D01*
X103320724Y-135096198D01*
X103320722Y-135096197D01*
X103158319Y-135023891D01*
X103158318Y-135023891D01*
X103152288Y-135021206D01*
X103058887Y-135001353D01*
X102971944Y-134982872D01*
X102971939Y-134982872D01*
X102965487Y-134981500D01*
X102774513Y-134981500D01*
X102768061Y-134982872D01*
X102768056Y-134982872D01*
X102681113Y-135001353D01*
X102587712Y-135021206D01*
X102581682Y-135023891D01*
X102581681Y-135023891D01*
X102419278Y-135096197D01*
X102419276Y-135096198D01*
X102413248Y-135098882D01*
X102258747Y-135211134D01*
X102130960Y-135353056D01*
X102035473Y-135518444D01*
X101976458Y-135700072D01*
X101956496Y-135890000D01*
X100838500Y-135890000D01*
X100838500Y-131047701D01*
X101230996Y-131047701D01*
X101250958Y-131237629D01*
X101309973Y-131419257D01*
X101405460Y-131584645D01*
X101533247Y-131726567D01*
X101687748Y-131838819D01*
X101693776Y-131841503D01*
X101693778Y-131841504D01*
X101856181Y-131913810D01*
X101862212Y-131916495D01*
X101955612Y-131936348D01*
X102042556Y-131954829D01*
X102042561Y-131954829D01*
X102049013Y-131956201D01*
X102239987Y-131956201D01*
X102246439Y-131954829D01*
X102246444Y-131954829D01*
X102333388Y-131936348D01*
X102426788Y-131916495D01*
X102432819Y-131913810D01*
X102595222Y-131841504D01*
X102595224Y-131841503D01*
X102601252Y-131838819D01*
X102755753Y-131726567D01*
X102883540Y-131584645D01*
X102979027Y-131419257D01*
X103038042Y-131237629D01*
X103058004Y-131047701D01*
X103038042Y-130857773D01*
X102979027Y-130676145D01*
X102883540Y-130510757D01*
X102755753Y-130368835D01*
X102601252Y-130256583D01*
X102595224Y-130253899D01*
X102595222Y-130253898D01*
X102432819Y-130181592D01*
X102432818Y-130181592D01*
X102426788Y-130178907D01*
X102333388Y-130159054D01*
X102246444Y-130140573D01*
X102246439Y-130140573D01*
X102239987Y-130139201D01*
X102049013Y-130139201D01*
X102042561Y-130140573D01*
X102042556Y-130140573D01*
X101955612Y-130159054D01*
X101862212Y-130178907D01*
X101856182Y-130181592D01*
X101856181Y-130181592D01*
X101693778Y-130253898D01*
X101693776Y-130253899D01*
X101687748Y-130256583D01*
X101533247Y-130368835D01*
X101405460Y-130510757D01*
X101309973Y-130676145D01*
X101250958Y-130857773D01*
X101230996Y-131047701D01*
X100838500Y-131047701D01*
X100838500Y-127396000D01*
X100858502Y-127327879D01*
X100912158Y-127281386D01*
X100964500Y-127270000D01*
X110011246Y-127270000D01*
X110079367Y-127290002D01*
G37*
%TD.AperFunction*%
%TD*%
%TA.AperFunction,Conductor*%
%TO.N,/STEPPER_COIL_B2*%
G36*
X127239367Y-130120002D02*
G01*
X127285860Y-130173658D01*
X127297246Y-130226000D01*
X127297246Y-131859722D01*
X127296748Y-131870917D01*
X126830158Y-137101821D01*
X126828192Y-137139256D01*
X126827899Y-137157630D01*
X126827923Y-137158797D01*
X126827923Y-137158817D01*
X126828289Y-137176635D01*
X126828668Y-137195075D01*
X126829788Y-137200607D01*
X126829789Y-137200613D01*
X126843876Y-137270172D01*
X126857678Y-137338324D01*
X126859186Y-137342553D01*
X126859188Y-137342559D01*
X126865409Y-137360000D01*
X126877631Y-137394266D01*
X126879339Y-137393657D01*
X126881188Y-137397005D01*
X126914336Y-137479806D01*
X126916586Y-137483703D01*
X126976216Y-137586986D01*
X126986930Y-137611049D01*
X127004403Y-137664824D01*
X127009880Y-137690590D01*
X127015791Y-137746829D01*
X127015791Y-137773171D01*
X127009880Y-137829410D01*
X127004403Y-137855174D01*
X126969919Y-137961307D01*
X126965915Y-137971965D01*
X126952911Y-138002331D01*
X126936172Y-138059340D01*
X126935551Y-138063033D01*
X126919604Y-138157872D01*
X126915953Y-138179582D01*
X126916738Y-138187802D01*
X126916738Y-138187805D01*
X126917797Y-138198891D01*
X126929849Y-138325078D01*
X126946588Y-138394072D01*
X126948257Y-138398241D01*
X126948260Y-138398250D01*
X126962843Y-138434674D01*
X126965915Y-138447205D01*
X126966160Y-138447125D01*
X127004403Y-138564825D01*
X127009880Y-138590590D01*
X127015791Y-138646829D01*
X127015791Y-138673171D01*
X127009880Y-138729410D01*
X127004403Y-138755176D01*
X126986930Y-138808951D01*
X126976217Y-138833013D01*
X126951935Y-138875072D01*
X126947944Y-138881984D01*
X126932460Y-138903296D01*
X126892030Y-138948198D01*
X126879458Y-138960347D01*
X126829342Y-139002463D01*
X126803876Y-139027130D01*
X126802391Y-139028786D01*
X126802386Y-139028792D01*
X126760026Y-139076054D01*
X126755534Y-139081066D01*
X126683246Y-139208095D01*
X126681598Y-139212288D01*
X126658916Y-139269982D01*
X126658914Y-139269990D01*
X126657271Y-139274168D01*
X126623699Y-139416420D01*
X126623300Y-139420899D01*
X126623299Y-139420902D01*
X126611118Y-139557470D01*
X126582638Y-139626667D01*
X126246995Y-140031747D01*
X124993654Y-141544378D01*
X124934790Y-141584070D01*
X124863810Y-141585637D01*
X124817685Y-141560540D01*
X124817253Y-141561134D01*
X124812708Y-141557832D01*
X124812709Y-141557832D01*
X124782376Y-141535794D01*
X124668094Y-141452763D01*
X124668093Y-141452762D01*
X124662752Y-141448882D01*
X124656724Y-141446198D01*
X124656722Y-141446197D01*
X124494319Y-141373891D01*
X124494318Y-141373891D01*
X124488288Y-141371206D01*
X124394887Y-141351353D01*
X124307944Y-141332872D01*
X124307939Y-141332872D01*
X124301487Y-141331500D01*
X124110513Y-141331500D01*
X124104061Y-141332872D01*
X124104056Y-141332872D01*
X124017113Y-141351353D01*
X123923712Y-141371206D01*
X123917682Y-141373891D01*
X123917681Y-141373891D01*
X123755278Y-141446197D01*
X123755276Y-141446198D01*
X123749248Y-141448882D01*
X123743907Y-141452762D01*
X123743906Y-141452763D01*
X123704049Y-141481721D01*
X123594747Y-141561134D01*
X123466960Y-141703056D01*
X123408686Y-141803990D01*
X123375042Y-141862263D01*
X123371473Y-141868444D01*
X123312458Y-142050072D01*
X123292496Y-142240000D01*
X123293186Y-142246565D01*
X123310863Y-142414749D01*
X123312458Y-142429928D01*
X123371473Y-142611556D01*
X123466960Y-142776944D01*
X123594747Y-142918866D01*
X123643909Y-142954584D01*
X123648427Y-142957867D01*
X123691781Y-143014090D01*
X123697856Y-143084826D01*
X123671388Y-143140194D01*
X123642950Y-143174515D01*
X123635023Y-143183219D01*
X123493023Y-143325219D01*
X123489866Y-143329727D01*
X123489864Y-143329730D01*
X123365513Y-143507322D01*
X123365512Y-143507324D01*
X123365509Y-143507322D01*
X123356699Y-143519985D01*
X123153636Y-143765058D01*
X122823514Y-144163475D01*
X122822971Y-144164172D01*
X122822949Y-144164199D01*
X122805248Y-144186909D01*
X122804674Y-144187646D01*
X122795786Y-144199779D01*
X122778390Y-144225080D01*
X122717510Y-144357954D01*
X122697424Y-144426049D01*
X122676444Y-144570697D01*
X122676187Y-144779716D01*
X122674690Y-144779714D01*
X122659640Y-144843004D01*
X122608480Y-144892230D01*
X122550236Y-144906500D01*
X115927428Y-144906500D01*
X115859307Y-144886498D01*
X115812814Y-144832842D01*
X115802666Y-144762884D01*
X115849598Y-144430500D01*
X116001887Y-143351938D01*
X116144189Y-142344108D01*
X116173518Y-142279453D01*
X116233147Y-142240918D01*
X116304143Y-142240738D01*
X116362586Y-142277413D01*
X116482747Y-142410866D01*
X116637248Y-142523118D01*
X116643276Y-142525802D01*
X116643278Y-142525803D01*
X116679094Y-142541749D01*
X116811712Y-142600794D01*
X116905113Y-142620647D01*
X116992056Y-142639128D01*
X116992061Y-142639128D01*
X116998513Y-142640500D01*
X117189487Y-142640500D01*
X117195939Y-142639128D01*
X117195944Y-142639128D01*
X117282887Y-142620647D01*
X117376288Y-142600794D01*
X117508906Y-142541749D01*
X117544722Y-142525803D01*
X117544724Y-142525802D01*
X117550752Y-142523118D01*
X117705253Y-142410866D01*
X117833040Y-142268944D01*
X117928527Y-142103556D01*
X117979331Y-141947197D01*
X118019405Y-141888593D01*
X118084801Y-141860956D01*
X118154758Y-141873063D01*
X118207064Y-141921069D01*
X118224474Y-141972964D01*
X118232458Y-142048928D01*
X118291473Y-142230556D01*
X118294776Y-142236278D01*
X118294777Y-142236279D01*
X118319704Y-142279453D01*
X118386960Y-142395944D01*
X118514747Y-142537866D01*
X118597664Y-142598109D01*
X118654122Y-142639128D01*
X118669248Y-142650118D01*
X118675276Y-142652802D01*
X118675278Y-142652803D01*
X118837681Y-142725109D01*
X118843712Y-142727794D01*
X118937113Y-142747647D01*
X119024056Y-142766128D01*
X119024061Y-142766128D01*
X119030513Y-142767500D01*
X119221487Y-142767500D01*
X119227939Y-142766128D01*
X119227944Y-142766128D01*
X119314887Y-142747647D01*
X119408288Y-142727794D01*
X119414319Y-142725109D01*
X119576722Y-142652803D01*
X119576724Y-142652802D01*
X119582752Y-142650118D01*
X119597879Y-142639128D01*
X119654336Y-142598109D01*
X119737253Y-142537866D01*
X119865040Y-142395944D01*
X119932296Y-142279453D01*
X119957223Y-142236279D01*
X119957224Y-142236278D01*
X119960527Y-142230556D01*
X120019542Y-142048928D01*
X120039504Y-141859000D01*
X120019542Y-141669072D01*
X119960527Y-141487444D01*
X119865040Y-141322056D01*
X119737253Y-141180134D01*
X119582752Y-141067882D01*
X119576724Y-141065198D01*
X119576722Y-141065197D01*
X119414319Y-140992891D01*
X119414318Y-140992891D01*
X119408288Y-140990206D01*
X119305436Y-140968344D01*
X119227944Y-140951872D01*
X119227939Y-140951872D01*
X119221487Y-140950500D01*
X119030513Y-140950500D01*
X119024061Y-140951872D01*
X119024056Y-140951872D01*
X118946564Y-140968344D01*
X118843712Y-140990206D01*
X118837682Y-140992891D01*
X118837681Y-140992891D01*
X118675278Y-141065197D01*
X118675276Y-141065198D01*
X118669248Y-141067882D01*
X118514747Y-141180134D01*
X118386960Y-141322056D01*
X118291473Y-141487444D01*
X118267530Y-141561134D01*
X118240669Y-141643802D01*
X118200595Y-141702407D01*
X118135199Y-141730044D01*
X118065242Y-141717937D01*
X118012936Y-141669931D01*
X117995526Y-141618036D01*
X117988232Y-141548634D01*
X117988231Y-141548631D01*
X117987542Y-141542072D01*
X117928527Y-141360444D01*
X117833040Y-141195056D01*
X117705253Y-141053134D01*
X117595322Y-140973264D01*
X117556094Y-140944763D01*
X117556093Y-140944762D01*
X117550752Y-140940882D01*
X117544724Y-140938198D01*
X117544722Y-140938197D01*
X117382319Y-140865891D01*
X117382318Y-140865891D01*
X117376288Y-140863206D01*
X117282887Y-140843353D01*
X117195944Y-140824872D01*
X117195939Y-140824872D01*
X117189487Y-140823500D01*
X116998513Y-140823500D01*
X116992061Y-140824872D01*
X116992056Y-140824872D01*
X116905113Y-140843353D01*
X116811712Y-140863206D01*
X116802907Y-140867126D01*
X116801158Y-140867361D01*
X116799400Y-140867932D01*
X116799296Y-140867610D01*
X116732542Y-140876563D01*
X116668244Y-140846459D01*
X116630428Y-140786372D01*
X116631101Y-140715378D01*
X116638710Y-140696169D01*
X116654290Y-140664663D01*
X116673598Y-140636205D01*
X116685620Y-140622853D01*
X116690040Y-140617944D01*
X116726696Y-140554455D01*
X116782223Y-140458279D01*
X116782224Y-140458278D01*
X116785527Y-140452556D01*
X116833181Y-140305892D01*
X116840064Y-140288987D01*
X116924005Y-140119243D01*
X116972131Y-140067047D01*
X116991304Y-140057655D01*
X117089074Y-140019655D01*
X117089076Y-140019654D01*
X117097476Y-140016389D01*
X117213269Y-139927205D01*
X117262779Y-139876319D01*
X117279463Y-139853384D01*
X117346110Y-139761763D01*
X117346111Y-139761762D01*
X117348757Y-139758124D01*
X117622103Y-139240795D01*
X117671613Y-139189909D01*
X117740773Y-139173869D01*
X117807627Y-139197765D01*
X117853341Y-139260723D01*
X117910473Y-139436556D01*
X118005960Y-139601944D01*
X118010378Y-139606851D01*
X118010379Y-139606852D01*
X118129325Y-139738955D01*
X118133747Y-139743866D01*
X118288248Y-139856118D01*
X118294276Y-139858802D01*
X118294278Y-139858803D01*
X118454089Y-139929955D01*
X118462712Y-139933794D01*
X118556112Y-139953647D01*
X118643056Y-139972128D01*
X118643061Y-139972128D01*
X118649513Y-139973500D01*
X118840487Y-139973500D01*
X118846939Y-139972128D01*
X118846944Y-139972128D01*
X118933888Y-139953647D01*
X119027288Y-139933794D01*
X119035911Y-139929955D01*
X119195722Y-139858803D01*
X119195724Y-139858802D01*
X119201752Y-139856118D01*
X119356253Y-139743866D01*
X119360675Y-139738955D01*
X119479621Y-139606852D01*
X119479622Y-139606851D01*
X119484040Y-139601944D01*
X119579527Y-139436556D01*
X119638542Y-139254928D01*
X119640028Y-139240795D01*
X119657814Y-139071565D01*
X119658504Y-139065000D01*
X119646228Y-138948198D01*
X119639232Y-138881635D01*
X119639232Y-138881633D01*
X119638542Y-138875072D01*
X119579527Y-138693444D01*
X119569630Y-138676301D01*
X119520144Y-138590590D01*
X119484040Y-138528056D01*
X119411170Y-138447125D01*
X119360675Y-138391045D01*
X119360674Y-138391044D01*
X119356253Y-138386134D01*
X119201752Y-138273882D01*
X119195724Y-138271198D01*
X119195722Y-138271197D01*
X119033319Y-138198891D01*
X119033318Y-138198891D01*
X119027288Y-138196206D01*
X118933887Y-138176353D01*
X118846944Y-138157872D01*
X118846939Y-138157872D01*
X118840487Y-138156500D01*
X118649513Y-138156500D01*
X118643061Y-138157872D01*
X118643056Y-138157872D01*
X118556113Y-138176353D01*
X118462712Y-138196206D01*
X118322464Y-138258648D01*
X118252098Y-138268082D01*
X118187801Y-138237976D01*
X118149987Y-138177887D01*
X118145972Y-138129756D01*
X118152390Y-138071441D01*
X118152823Y-138067510D01*
X118146649Y-137678289D01*
X118159688Y-137620439D01*
X118212805Y-137513025D01*
X118219246Y-137500000D01*
X118219246Y-137360000D01*
X119106496Y-137360000D01*
X119107186Y-137366565D01*
X119119498Y-137483703D01*
X119126458Y-137549928D01*
X119185473Y-137731556D01*
X119280960Y-137896944D01*
X119285378Y-137901851D01*
X119285379Y-137901852D01*
X119348518Y-137971975D01*
X119408747Y-138038866D01*
X119563248Y-138151118D01*
X119569276Y-138153802D01*
X119569278Y-138153803D01*
X119670548Y-138198891D01*
X119737712Y-138228794D01*
X119831112Y-138248647D01*
X119918056Y-138267128D01*
X119918061Y-138267128D01*
X119924513Y-138268500D01*
X120115487Y-138268500D01*
X120121939Y-138267128D01*
X120121944Y-138267128D01*
X120208888Y-138248647D01*
X120302288Y-138228794D01*
X120369452Y-138198891D01*
X120470722Y-138153803D01*
X120470724Y-138153802D01*
X120476752Y-138151118D01*
X120631253Y-138038866D01*
X120691482Y-137971975D01*
X120754621Y-137901852D01*
X120754622Y-137901851D01*
X120759040Y-137896944D01*
X120854527Y-137731556D01*
X120913542Y-137549928D01*
X120920503Y-137483703D01*
X120932814Y-137366565D01*
X120933504Y-137360000D01*
X120913542Y-137170072D01*
X120854527Y-136988444D01*
X120759040Y-136823056D01*
X120631253Y-136681134D01*
X120476752Y-136568882D01*
X120470724Y-136566198D01*
X120470722Y-136566197D01*
X120308319Y-136493891D01*
X120308318Y-136493891D01*
X120302288Y-136491206D01*
X120208887Y-136471353D01*
X120121944Y-136452872D01*
X120121939Y-136452872D01*
X120115487Y-136451500D01*
X119924513Y-136451500D01*
X119918061Y-136452872D01*
X119918056Y-136452872D01*
X119831113Y-136471353D01*
X119737712Y-136491206D01*
X119731682Y-136493891D01*
X119731681Y-136493891D01*
X119569278Y-136566197D01*
X119569276Y-136566198D01*
X119563248Y-136568882D01*
X119408747Y-136681134D01*
X119280960Y-136823056D01*
X119185473Y-136988444D01*
X119126458Y-137170072D01*
X119106496Y-137360000D01*
X118219246Y-137360000D01*
X118219246Y-130226000D01*
X118239248Y-130157879D01*
X118292904Y-130111386D01*
X118345246Y-130100000D01*
X127171246Y-130100000D01*
X127239367Y-130120002D01*
G37*
%TD.AperFunction*%
%TD*%
%TA.AperFunction,Conductor*%
%TO.N,GND*%
G36*
X101527466Y-140450753D02*
G01*
X101582784Y-140462511D01*
X101607835Y-140470651D01*
X101659488Y-140493649D01*
X101682298Y-140506819D01*
X101728048Y-140540058D01*
X101747624Y-140557683D01*
X101785460Y-140599704D01*
X101800944Y-140621016D01*
X101829217Y-140669987D01*
X101839930Y-140694049D01*
X101857403Y-140747824D01*
X101862880Y-140773587D01*
X101868792Y-140829832D01*
X101868791Y-140856173D01*
X101862879Y-140912411D01*
X101857403Y-140938174D01*
X101839930Y-140991950D01*
X101829217Y-141016013D01*
X101800944Y-141064984D01*
X101785460Y-141086296D01*
X101747621Y-141128320D01*
X101728047Y-141145945D01*
X101701802Y-141165012D01*
X101683330Y-141178433D01*
X101682309Y-141179175D01*
X101659494Y-141192349D01*
X101609045Y-141214810D01*
X101607829Y-141215351D01*
X101582782Y-141223489D01*
X101578115Y-141224481D01*
X101553464Y-141229721D01*
X101553461Y-141229722D01*
X101527465Y-141235248D01*
X101501276Y-141238000D01*
X101444730Y-141238000D01*
X101418534Y-141235247D01*
X101417044Y-141234930D01*
X101363216Y-141223489D01*
X101338169Y-141215351D01*
X101256917Y-141179175D01*
X101227160Y-141165926D01*
X101227148Y-141165921D01*
X101225106Y-141165012D01*
X101156367Y-141140105D01*
X101151987Y-141139516D01*
X101150356Y-141138952D01*
X101055510Y-141115946D01*
X100964500Y-141115946D01*
X100896379Y-141095944D01*
X100849886Y-141042288D01*
X100838500Y-140989946D01*
X100838500Y-140699495D01*
X100858502Y-140631374D01*
X100912158Y-140584881D01*
X100952540Y-140574064D01*
X100988651Y-140570621D01*
X101074990Y-140562390D01*
X101074995Y-140562389D01*
X101079475Y-140561962D01*
X101084165Y-140560825D01*
X101084170Y-140560847D01*
X101084294Y-140560826D01*
X101084484Y-140560828D01*
X101084775Y-140560746D01*
X101086496Y-140560457D01*
X101086451Y-140560271D01*
X101126267Y-140550618D01*
X101126269Y-140550617D01*
X101136045Y-140548247D01*
X101135658Y-140546650D01*
X101137959Y-140545677D01*
X101225107Y-140520988D01*
X101338179Y-140470646D01*
X101363213Y-140462511D01*
X101418534Y-140450752D01*
X101444723Y-140448000D01*
X101501270Y-140448000D01*
X101527466Y-140450753D01*
G37*
%TD.AperFunction*%
%TA.AperFunction,Conductor*%
G36*
X116005466Y-139688753D02*
G01*
X116060784Y-139700511D01*
X116085835Y-139708651D01*
X116137488Y-139731649D01*
X116160297Y-139744817D01*
X116206054Y-139778062D01*
X116225624Y-139795683D01*
X116308101Y-139887283D01*
X116309252Y-139888435D01*
X116309264Y-139888447D01*
X116326995Y-139906183D01*
X116345991Y-139925185D01*
X116347207Y-139926280D01*
X116347773Y-139926818D01*
X116383407Y-139988224D01*
X116380184Y-140059148D01*
X116375921Y-140069916D01*
X116364474Y-140095347D01*
X116357591Y-140112252D01*
X116344813Y-140147212D01*
X116344455Y-140148314D01*
X116317929Y-140229953D01*
X116307214Y-140254019D01*
X116269613Y-140319144D01*
X116259681Y-140333848D01*
X116248670Y-140347903D01*
X116229362Y-140376361D01*
X116193995Y-140437043D01*
X116193391Y-140436691D01*
X116145415Y-140485244D01*
X116076132Y-140500750D01*
X116057589Y-140498141D01*
X116057250Y-140498067D01*
X116052934Y-140496800D01*
X116048482Y-140496160D01*
X116048478Y-140496159D01*
X115916203Y-140477141D01*
X115907939Y-140475671D01*
X115841215Y-140461489D01*
X115816165Y-140453349D01*
X115764512Y-140430351D01*
X115741702Y-140417181D01*
X115695952Y-140383942D01*
X115676376Y-140366317D01*
X115638540Y-140324296D01*
X115623056Y-140302984D01*
X115594783Y-140254013D01*
X115584070Y-140229950D01*
X115566597Y-140176174D01*
X115561120Y-140150411D01*
X115557000Y-140111214D01*
X115555208Y-140094166D01*
X115555208Y-140067831D01*
X115561119Y-140011593D01*
X115566596Y-139985829D01*
X115584070Y-139932049D01*
X115594784Y-139907985D01*
X115623057Y-139859015D01*
X115638540Y-139837704D01*
X115676376Y-139795683D01*
X115695946Y-139778062D01*
X115741705Y-139744815D01*
X115764511Y-139731649D01*
X115816176Y-139708647D01*
X115841213Y-139700511D01*
X115896534Y-139688752D01*
X115922723Y-139686000D01*
X115979270Y-139686000D01*
X116005466Y-139688753D01*
G37*
%TD.AperFunction*%
%TA.AperFunction,Conductor*%
G36*
X118799466Y-138672753D02*
G01*
X118854784Y-138684511D01*
X118879835Y-138692651D01*
X118931488Y-138715649D01*
X118954298Y-138728819D01*
X119000048Y-138762058D01*
X119019624Y-138779683D01*
X119057461Y-138821705D01*
X119072944Y-138843016D01*
X119101216Y-138891985D01*
X119111930Y-138916049D01*
X119129403Y-138969825D01*
X119134880Y-138995587D01*
X119140792Y-139051833D01*
X119140792Y-139078168D01*
X119138746Y-139097634D01*
X119134881Y-139134408D01*
X119129404Y-139160173D01*
X119111930Y-139213951D01*
X119101217Y-139238013D01*
X119072944Y-139286984D01*
X119057461Y-139308294D01*
X119019626Y-139350315D01*
X119000051Y-139367941D01*
X118954300Y-139401181D01*
X118931491Y-139414350D01*
X118879821Y-139437354D01*
X118854787Y-139445489D01*
X118799466Y-139457248D01*
X118773277Y-139460000D01*
X118716730Y-139460000D01*
X118690534Y-139457247D01*
X118689044Y-139456930D01*
X118635216Y-139445489D01*
X118610165Y-139437349D01*
X118558512Y-139414351D01*
X118535701Y-139401181D01*
X118489950Y-139367941D01*
X118470374Y-139350314D01*
X118432541Y-139308295D01*
X118417060Y-139286988D01*
X118388784Y-139238015D01*
X118378069Y-139213949D01*
X118343238Y-139106750D01*
X118343237Y-139106747D01*
X118341708Y-139102042D01*
X118329551Y-139078173D01*
X118280780Y-138982422D01*
X118268858Y-138959015D01*
X118269433Y-138958722D01*
X118251867Y-138893712D01*
X118273342Y-138826041D01*
X118327994Y-138780723D01*
X118361095Y-138771563D01*
X118386240Y-138768192D01*
X118386242Y-138768191D01*
X118390699Y-138767594D01*
X118395025Y-138766368D01*
X118395027Y-138766368D01*
X118461010Y-138747674D01*
X118531322Y-138727754D01*
X118535429Y-138725925D01*
X118535433Y-138725924D01*
X118610172Y-138692648D01*
X118635214Y-138684511D01*
X118690534Y-138672752D01*
X118716722Y-138670000D01*
X118773270Y-138670000D01*
X118799466Y-138672753D01*
G37*
%TD.AperFunction*%
%TA.AperFunction,Conductor*%
G36*
X120074466Y-136967753D02*
G01*
X120129784Y-136979511D01*
X120154835Y-136987651D01*
X120206488Y-137010649D01*
X120229298Y-137023819D01*
X120275048Y-137057058D01*
X120294624Y-137074683D01*
X120332460Y-137116704D01*
X120347944Y-137138016D01*
X120376217Y-137186987D01*
X120386930Y-137211049D01*
X120404403Y-137264824D01*
X120409879Y-137290582D01*
X120410542Y-137296886D01*
X120397775Y-137366725D01*
X120394351Y-137373067D01*
X120388776Y-137382722D01*
X120388774Y-137382726D01*
X120385473Y-137388444D01*
X120383431Y-137394729D01*
X120342226Y-137521545D01*
X120326458Y-137570072D01*
X120325768Y-137576636D01*
X120324394Y-137583100D01*
X120322580Y-137582714D01*
X120298988Y-137640050D01*
X120274755Y-137663155D01*
X120229296Y-137696183D01*
X120206483Y-137709354D01*
X120154828Y-137732352D01*
X120129786Y-137740489D01*
X120074466Y-137752248D01*
X120048278Y-137755000D01*
X119991730Y-137755000D01*
X119965534Y-137752247D01*
X119964044Y-137751930D01*
X119910216Y-137740489D01*
X119885165Y-137732349D01*
X119833512Y-137709351D01*
X119810701Y-137696181D01*
X119764950Y-137662941D01*
X119745374Y-137645314D01*
X119707541Y-137603295D01*
X119692059Y-137581986D01*
X119663783Y-137533011D01*
X119653069Y-137508948D01*
X119635597Y-137455176D01*
X119630120Y-137429410D01*
X119624209Y-137373171D01*
X119624209Y-137346829D01*
X119630120Y-137290590D01*
X119635597Y-137264824D01*
X119653070Y-137211049D01*
X119663783Y-137186987D01*
X119692056Y-137138016D01*
X119707540Y-137116704D01*
X119745376Y-137074683D01*
X119764946Y-137057062D01*
X119810705Y-137023815D01*
X119833511Y-137010649D01*
X119885176Y-136987647D01*
X119910213Y-136979511D01*
X119965534Y-136967752D01*
X119991723Y-136965000D01*
X120048270Y-136965000D01*
X120074466Y-136967753D01*
G37*
%TD.AperFunction*%
%TA.AperFunction,Conductor*%
G36*
X102924466Y-135497753D02*
G01*
X102979784Y-135509511D01*
X103004835Y-135517651D01*
X103056488Y-135540649D01*
X103079298Y-135553819D01*
X103125048Y-135587058D01*
X103144624Y-135604683D01*
X103182460Y-135646704D01*
X103197944Y-135668016D01*
X103226217Y-135716987D01*
X103236930Y-135741049D01*
X103254403Y-135794824D01*
X103259880Y-135820590D01*
X103265791Y-135876829D01*
X103265791Y-135903171D01*
X103259880Y-135959410D01*
X103254403Y-135985176D01*
X103236930Y-136038951D01*
X103226217Y-136063013D01*
X103197944Y-136111984D01*
X103182460Y-136133296D01*
X103144624Y-136175317D01*
X103125054Y-136192938D01*
X103079295Y-136226185D01*
X103056489Y-136239351D01*
X103004824Y-136262353D01*
X102979787Y-136270489D01*
X102924466Y-136282248D01*
X102898277Y-136285000D01*
X102841730Y-136285000D01*
X102815534Y-136282247D01*
X102814044Y-136281930D01*
X102760216Y-136270489D01*
X102735165Y-136262349D01*
X102683512Y-136239351D01*
X102660702Y-136226181D01*
X102614952Y-136192942D01*
X102595376Y-136175317D01*
X102557540Y-136133296D01*
X102542056Y-136111984D01*
X102513783Y-136063013D01*
X102503070Y-136038951D01*
X102485597Y-135985176D01*
X102480120Y-135959410D01*
X102474209Y-135903171D01*
X102474209Y-135876829D01*
X102480120Y-135820590D01*
X102485597Y-135794824D01*
X102503070Y-135741049D01*
X102513783Y-135716987D01*
X102542056Y-135668016D01*
X102557540Y-135646704D01*
X102595376Y-135604683D01*
X102614946Y-135587062D01*
X102660705Y-135553815D01*
X102683511Y-135540649D01*
X102735176Y-135517647D01*
X102760213Y-135509511D01*
X102815534Y-135497752D01*
X102841723Y-135495000D01*
X102898270Y-135495000D01*
X102924466Y-135497753D01*
G37*
%TD.AperFunction*%
%TA.AperFunction,Conductor*%
G36*
X134065955Y-132067753D02*
G01*
X134121401Y-132079539D01*
X134121461Y-132079551D01*
X134121841Y-132079632D01*
X134122220Y-132079706D01*
X134122279Y-132079718D01*
X134135321Y-132082263D01*
X134138626Y-132082908D01*
X134146891Y-132084379D01*
X134147344Y-132084452D01*
X134147398Y-132084461D01*
X134153796Y-132085489D01*
X134163791Y-132087097D01*
X134254801Y-132087097D01*
X134322922Y-132107099D01*
X134369415Y-132160755D01*
X134380801Y-132213097D01*
X134380801Y-132705215D01*
X134360799Y-132773336D01*
X134307143Y-132819829D01*
X134263192Y-132830935D01*
X134126331Y-132840069D01*
X134126328Y-132840069D01*
X134121839Y-132840369D01*
X134065954Y-132852248D01*
X134039766Y-132855000D01*
X133983219Y-132855000D01*
X133957023Y-132852247D01*
X133955533Y-132851930D01*
X133901705Y-132840489D01*
X133876654Y-132832349D01*
X133825001Y-132809351D01*
X133802191Y-132796181D01*
X133756441Y-132762942D01*
X133736865Y-132745317D01*
X133699029Y-132703296D01*
X133683545Y-132681984D01*
X133655272Y-132633013D01*
X133644559Y-132608950D01*
X133627086Y-132555174D01*
X133621609Y-132529411D01*
X133621579Y-132529124D01*
X133615697Y-132473166D01*
X133615697Y-132446831D01*
X133621608Y-132390593D01*
X133627085Y-132364829D01*
X133644559Y-132311049D01*
X133655273Y-132286985D01*
X133683546Y-132238015D01*
X133699029Y-132216704D01*
X133736865Y-132174683D01*
X133756435Y-132157062D01*
X133802194Y-132123815D01*
X133825000Y-132110649D01*
X133876665Y-132087647D01*
X133901702Y-132079511D01*
X133957023Y-132067752D01*
X133983212Y-132065000D01*
X134039758Y-132065000D01*
X134065955Y-132067753D01*
G37*
%TD.AperFunction*%
%TA.AperFunction,Conductor*%
G36*
X102963592Y-104033502D02*
G01*
X103010085Y-104087158D01*
X103020189Y-104157432D01*
X103009666Y-104192750D01*
X102941560Y-104338804D01*
X102884022Y-104553537D01*
X102864647Y-104775000D01*
X102884022Y-104996463D01*
X102941560Y-105211196D01*
X102943882Y-105216177D01*
X102943883Y-105216178D01*
X103033186Y-105407689D01*
X103033189Y-105407694D01*
X103035512Y-105412676D01*
X103038668Y-105417183D01*
X103038669Y-105417185D01*
X103113322Y-105523800D01*
X103163023Y-105594781D01*
X103320219Y-105751977D01*
X103324727Y-105755134D01*
X103324730Y-105755136D01*
X103400495Y-105808187D01*
X103502323Y-105879488D01*
X103507305Y-105881811D01*
X103507310Y-105881814D01*
X103646258Y-105946606D01*
X103703804Y-105973440D01*
X103709112Y-105974862D01*
X103709114Y-105974863D01*
X103774949Y-105992503D01*
X103918537Y-106030978D01*
X104140000Y-106050353D01*
X104361463Y-106030978D01*
X104505051Y-105992503D01*
X104570886Y-105974863D01*
X104570888Y-105974862D01*
X104576196Y-105973440D01*
X104633742Y-105946606D01*
X104772690Y-105881814D01*
X104772695Y-105881811D01*
X104777677Y-105879488D01*
X104879505Y-105808187D01*
X104955270Y-105755136D01*
X104955273Y-105755134D01*
X104959781Y-105751977D01*
X105116977Y-105594781D01*
X105166679Y-105523800D01*
X105241331Y-105417185D01*
X105241332Y-105417183D01*
X105244488Y-105412676D01*
X105246811Y-105407694D01*
X105246814Y-105407689D01*
X105336117Y-105216178D01*
X105336118Y-105216177D01*
X105338440Y-105211196D01*
X105395978Y-104996463D01*
X105415353Y-104775000D01*
X105395978Y-104553537D01*
X105338440Y-104338804D01*
X105270334Y-104192750D01*
X105259673Y-104122558D01*
X105288653Y-104057746D01*
X105348073Y-104018889D01*
X105384529Y-104013500D01*
X107975471Y-104013500D01*
X108043592Y-104033502D01*
X108090085Y-104087158D01*
X108100189Y-104157432D01*
X108089666Y-104192750D01*
X108021560Y-104338804D01*
X107964022Y-104553537D01*
X107944647Y-104775000D01*
X107964022Y-104996463D01*
X108021560Y-105211196D01*
X108023882Y-105216177D01*
X108023883Y-105216178D01*
X108113186Y-105407689D01*
X108113189Y-105407694D01*
X108115512Y-105412676D01*
X108118668Y-105417183D01*
X108118669Y-105417185D01*
X108193322Y-105523800D01*
X108243023Y-105594781D01*
X108400219Y-105751977D01*
X108404727Y-105755134D01*
X108404730Y-105755136D01*
X108480495Y-105808187D01*
X108582323Y-105879488D01*
X108587305Y-105881811D01*
X108587310Y-105881814D01*
X108726258Y-105946606D01*
X108783804Y-105973440D01*
X108789112Y-105974862D01*
X108789114Y-105974863D01*
X108854949Y-105992503D01*
X108998537Y-106030978D01*
X109220000Y-106050353D01*
X109441463Y-106030978D01*
X109585051Y-105992503D01*
X109650886Y-105974863D01*
X109650888Y-105974862D01*
X109656196Y-105973440D01*
X109713742Y-105946606D01*
X109852690Y-105881814D01*
X109852695Y-105881811D01*
X109857677Y-105879488D01*
X109959505Y-105808187D01*
X110035270Y-105755136D01*
X110035273Y-105755134D01*
X110039781Y-105751977D01*
X110196977Y-105594781D01*
X110246679Y-105523800D01*
X110321331Y-105417185D01*
X110321332Y-105417183D01*
X110324488Y-105412676D01*
X110326811Y-105407694D01*
X110326814Y-105407689D01*
X110416117Y-105216178D01*
X110416118Y-105216177D01*
X110418440Y-105211196D01*
X110475978Y-104996463D01*
X110495353Y-104775000D01*
X110475978Y-104553537D01*
X110418440Y-104338804D01*
X110350334Y-104192750D01*
X110339673Y-104122558D01*
X110368653Y-104057746D01*
X110428073Y-104018889D01*
X110464529Y-104013500D01*
X113055471Y-104013500D01*
X113123592Y-104033502D01*
X113170085Y-104087158D01*
X113180189Y-104157432D01*
X113169666Y-104192750D01*
X113101560Y-104338804D01*
X113044022Y-104553537D01*
X113024647Y-104775000D01*
X113044022Y-104996463D01*
X113101560Y-105211196D01*
X113103882Y-105216177D01*
X113103883Y-105216178D01*
X113193186Y-105407689D01*
X113193189Y-105407694D01*
X113195512Y-105412676D01*
X113198668Y-105417183D01*
X113198669Y-105417185D01*
X113273322Y-105523800D01*
X113323023Y-105594781D01*
X113480219Y-105751977D01*
X113484727Y-105755134D01*
X113484730Y-105755136D01*
X113560495Y-105808187D01*
X113662323Y-105879488D01*
X113667305Y-105881811D01*
X113667310Y-105881814D01*
X113806258Y-105946606D01*
X113859543Y-105993523D01*
X113879004Y-106061801D01*
X113858462Y-106129761D01*
X113804439Y-106175826D01*
X113753008Y-106186801D01*
X111295143Y-106186801D01*
X111278697Y-106185723D01*
X111257588Y-106182944D01*
X111257587Y-106182944D01*
X111249399Y-106181866D01*
X111241211Y-106182944D01*
X111241210Y-106182944D01*
X111211920Y-106186800D01*
X111211908Y-106186801D01*
X111211905Y-106186801D01*
X111211896Y-106186802D01*
X111130774Y-106197483D01*
X111100077Y-106201524D01*
X111092445Y-106204685D01*
X111092446Y-106204685D01*
X110968559Y-106256000D01*
X110968557Y-106256001D01*
X110960931Y-106259160D01*
X110954381Y-106264186D01*
X110912840Y-106296062D01*
X110869052Y-106329662D01*
X110802831Y-106355263D01*
X110792347Y-106355700D01*
X110648513Y-106355700D01*
X110642061Y-106357072D01*
X110642056Y-106357072D01*
X110555112Y-106375553D01*
X110461712Y-106395406D01*
X110455682Y-106398091D01*
X110455681Y-106398091D01*
X110293278Y-106470397D01*
X110293276Y-106470398D01*
X110287248Y-106473082D01*
X110132747Y-106585334D01*
X110004960Y-106727256D01*
X109909473Y-106892644D01*
X109850458Y-107074272D01*
X109849768Y-107080833D01*
X109849768Y-107080835D01*
X109831186Y-107257635D01*
X109830496Y-107264200D01*
X109831186Y-107270765D01*
X109845238Y-107404459D01*
X109850458Y-107454128D01*
X109909473Y-107635756D01*
X109912776Y-107641478D01*
X109912777Y-107641479D01*
X109943854Y-107695305D01*
X110004960Y-107801144D01*
X110009378Y-107806051D01*
X110009379Y-107806052D01*
X110127214Y-107936921D01*
X110132747Y-107943066D01*
X110287248Y-108055318D01*
X110293276Y-108058002D01*
X110293278Y-108058003D01*
X110327919Y-108073426D01*
X110461712Y-108132994D01*
X110555112Y-108152847D01*
X110642056Y-108171328D01*
X110642061Y-108171328D01*
X110648513Y-108172700D01*
X110839487Y-108172700D01*
X110845939Y-108171328D01*
X110845944Y-108171328D01*
X110932887Y-108152847D01*
X111026288Y-108132994D01*
X111160081Y-108073426D01*
X111194722Y-108058003D01*
X111194724Y-108058002D01*
X111200752Y-108055318D01*
X111355253Y-107943066D01*
X111360786Y-107936921D01*
X111478621Y-107806052D01*
X111478622Y-107806051D01*
X111483040Y-107801144D01*
X111544146Y-107695305D01*
X111575223Y-107641479D01*
X111575224Y-107641478D01*
X111578527Y-107635756D01*
X111637542Y-107454128D01*
X111638645Y-107443634D01*
X111639519Y-107441510D01*
X111639606Y-107441100D01*
X111639681Y-107441116D01*
X111665656Y-107377976D01*
X111723877Y-107337345D01*
X111763955Y-107330801D01*
X113526679Y-107330801D01*
X113594800Y-107350803D01*
X113641293Y-107404459D01*
X113651397Y-107474733D01*
X113621903Y-107539313D01*
X113615774Y-107545896D01*
X112937875Y-108223795D01*
X112875563Y-108257821D01*
X112848780Y-108260700D01*
X112705913Y-108260700D01*
X112699461Y-108262072D01*
X112699456Y-108262072D01*
X112612513Y-108280553D01*
X112519112Y-108300406D01*
X112513082Y-108303091D01*
X112513081Y-108303091D01*
X112350678Y-108375397D01*
X112350676Y-108375398D01*
X112344648Y-108378082D01*
X112190147Y-108490334D01*
X112185726Y-108495244D01*
X112185725Y-108495245D01*
X112144407Y-108541134D01*
X112062360Y-108632256D01*
X111966873Y-108797644D01*
X111907858Y-108979272D01*
X111907168Y-108985833D01*
X111907168Y-108985835D01*
X111894739Y-109104095D01*
X111887896Y-109169200D01*
X111907858Y-109359128D01*
X111966873Y-109540756D01*
X112062360Y-109706144D01*
X112112520Y-109761852D01*
X112139081Y-109791351D01*
X112169798Y-109855359D01*
X112161033Y-109925812D01*
X112134539Y-109964756D01*
X111902700Y-110196595D01*
X111840388Y-110230621D01*
X111813605Y-110233500D01*
X108458929Y-110233500D01*
X108392461Y-110213983D01*
X108392414Y-110214065D01*
X108392078Y-110213871D01*
X108390808Y-110213498D01*
X108387427Y-110211186D01*
X108386691Y-110210761D01*
X108381352Y-110206882D01*
X108375322Y-110204197D01*
X108212919Y-110131891D01*
X108212918Y-110131891D01*
X108206888Y-110129206D01*
X108113488Y-110109353D01*
X108026544Y-110090872D01*
X108026539Y-110090872D01*
X108020087Y-110089500D01*
X107829113Y-110089500D01*
X107822661Y-110090872D01*
X107822656Y-110090872D01*
X107735712Y-110109353D01*
X107642312Y-110129206D01*
X107636282Y-110131891D01*
X107636281Y-110131891D01*
X107473878Y-110204197D01*
X107473876Y-110204198D01*
X107467848Y-110206882D01*
X107462507Y-110210762D01*
X107462506Y-110210763D01*
X107458074Y-110213983D01*
X107313347Y-110319134D01*
X107185560Y-110461056D01*
X107090073Y-110626444D01*
X107031058Y-110808072D01*
X107030368Y-110814633D01*
X107030368Y-110814635D01*
X107028876Y-110828830D01*
X107011096Y-110998000D01*
X107011786Y-111004565D01*
X107020955Y-111091799D01*
X107031058Y-111187928D01*
X107090073Y-111369556D01*
X107185560Y-111534944D01*
X107189978Y-111539851D01*
X107189979Y-111539852D01*
X107285469Y-111645904D01*
X107313347Y-111676866D01*
X107392636Y-111734473D01*
X107436913Y-111766642D01*
X107467848Y-111789118D01*
X107473876Y-111791802D01*
X107473878Y-111791803D01*
X107636281Y-111864109D01*
X107642312Y-111866794D01*
X107735712Y-111886647D01*
X107822656Y-111905128D01*
X107822661Y-111905128D01*
X107829113Y-111906500D01*
X108020087Y-111906500D01*
X108026539Y-111905128D01*
X108026544Y-111905128D01*
X108113487Y-111886647D01*
X108206888Y-111866794D01*
X108212919Y-111864109D01*
X108375324Y-111791802D01*
X108375325Y-111791801D01*
X108381352Y-111789118D01*
X108386689Y-111785240D01*
X108392414Y-111781935D01*
X108393342Y-111783542D01*
X108451731Y-111762706D01*
X108458929Y-111762500D01*
X112114944Y-111762500D01*
X112133894Y-111763933D01*
X112148366Y-111766135D01*
X112148370Y-111766135D01*
X112155600Y-111767235D01*
X112162892Y-111766642D01*
X112162895Y-111766642D01*
X112208713Y-111762915D01*
X112218928Y-111762500D01*
X112227098Y-111762500D01*
X112255574Y-111759180D01*
X112259922Y-111758750D01*
X112333282Y-111752783D01*
X112340248Y-111750526D01*
X112346284Y-111749320D01*
X112352259Y-111747908D01*
X112359532Y-111747060D01*
X112428730Y-111721942D01*
X112432885Y-111720516D01*
X112495909Y-111700100D01*
X112495912Y-111700099D01*
X112502875Y-111697843D01*
X112509134Y-111694045D01*
X112514725Y-111691485D01*
X112520225Y-111688731D01*
X112527104Y-111686234D01*
X112588651Y-111645881D01*
X112592337Y-111643557D01*
X112650474Y-111608279D01*
X112650480Y-111608275D01*
X112655280Y-111605362D01*
X112663729Y-111597899D01*
X112663756Y-111597929D01*
X112666663Y-111595349D01*
X112670065Y-111592504D01*
X112676188Y-111588490D01*
X112729874Y-111531818D01*
X112732251Y-111529377D01*
X114138824Y-110122804D01*
X114188987Y-110092065D01*
X114194829Y-110090167D01*
X114201288Y-110088794D01*
X114269122Y-110058593D01*
X114369722Y-110013803D01*
X114369724Y-110013802D01*
X114375752Y-110011118D01*
X114428370Y-109972889D01*
X114448158Y-109958512D01*
X114530253Y-109898866D01*
X114569427Y-109855359D01*
X114653621Y-109761852D01*
X114653622Y-109761851D01*
X114658040Y-109756944D01*
X114753527Y-109591556D01*
X114812542Y-109409928D01*
X114814311Y-109393102D01*
X114831814Y-109226565D01*
X114832504Y-109220000D01*
X114823030Y-109129858D01*
X114813232Y-109036635D01*
X114813232Y-109036633D01*
X114812542Y-109030072D01*
X114753527Y-108848444D01*
X114658040Y-108683056D01*
X114607881Y-108627348D01*
X114534675Y-108546045D01*
X114534674Y-108546044D01*
X114530253Y-108541134D01*
X114480563Y-108505032D01*
X114437209Y-108448810D01*
X114431134Y-108378073D01*
X114465529Y-108314001D01*
X115084225Y-107695305D01*
X115146537Y-107661279D01*
X115173320Y-107658400D01*
X124467438Y-107658400D01*
X124483884Y-107659478D01*
X124504993Y-107662257D01*
X124504994Y-107662257D01*
X124513182Y-107663335D01*
X124521370Y-107662257D01*
X124521372Y-107662257D01*
X124546319Y-107658973D01*
X124616468Y-107669913D01*
X124669566Y-107717042D01*
X124688755Y-107785396D01*
X124667943Y-107853274D01*
X124651859Y-107872990D01*
X124176231Y-108348618D01*
X124113919Y-108382644D01*
X124087136Y-108385523D01*
X123972270Y-108385523D01*
X123965818Y-108386895D01*
X123965813Y-108386895D01*
X123878870Y-108405376D01*
X123785469Y-108425229D01*
X123779439Y-108427914D01*
X123779438Y-108427914D01*
X123617035Y-108500220D01*
X123617033Y-108500221D01*
X123611005Y-108502905D01*
X123605664Y-108506785D01*
X123605663Y-108506786D01*
X123555600Y-108543159D01*
X123456504Y-108615157D01*
X123452083Y-108620067D01*
X123452082Y-108620068D01*
X123395368Y-108683056D01*
X123328717Y-108757079D01*
X123233230Y-108922467D01*
X123174215Y-109104095D01*
X123173525Y-109110656D01*
X123173525Y-109110658D01*
X123171507Y-109129858D01*
X123154253Y-109294023D01*
X123154943Y-109300588D01*
X123161756Y-109365406D01*
X123174215Y-109483951D01*
X123233230Y-109665579D01*
X123328717Y-109830967D01*
X123333135Y-109835874D01*
X123333136Y-109835875D01*
X123389853Y-109898866D01*
X123456504Y-109972889D01*
X123611005Y-110085141D01*
X123617033Y-110087825D01*
X123617035Y-110087826D01*
X123779438Y-110160132D01*
X123785469Y-110162817D01*
X123878870Y-110182670D01*
X123965813Y-110201151D01*
X123965818Y-110201151D01*
X123972270Y-110202523D01*
X124163244Y-110202523D01*
X124169696Y-110201151D01*
X124169701Y-110201151D01*
X124256645Y-110182670D01*
X124350045Y-110162817D01*
X124356076Y-110160132D01*
X124518479Y-110087826D01*
X124518481Y-110087825D01*
X124524509Y-110085141D01*
X124679010Y-109972889D01*
X124745661Y-109898866D01*
X124802378Y-109835875D01*
X124802379Y-109835874D01*
X124806797Y-109830967D01*
X124902284Y-109665579D01*
X124961299Y-109483951D01*
X124973759Y-109365406D01*
X124980571Y-109300588D01*
X124981261Y-109294023D01*
X124974934Y-109233826D01*
X124987706Y-109163987D01*
X125011149Y-109131560D01*
X126486548Y-107656161D01*
X126548860Y-107622135D01*
X126619675Y-107627200D01*
X126649701Y-107643318D01*
X126797248Y-107750518D01*
X126803276Y-107753202D01*
X126803278Y-107753203D01*
X126910956Y-107801144D01*
X126971712Y-107828194D01*
X127064073Y-107847826D01*
X127152056Y-107866528D01*
X127152061Y-107866528D01*
X127158513Y-107867900D01*
X127349487Y-107867900D01*
X127355939Y-107866528D01*
X127355944Y-107866528D01*
X127443927Y-107847826D01*
X127536288Y-107828194D01*
X127597044Y-107801144D01*
X127704722Y-107753203D01*
X127704724Y-107753202D01*
X127710752Y-107750518D01*
X127865253Y-107638266D01*
X127875217Y-107627200D01*
X127988621Y-107501252D01*
X127988622Y-107501251D01*
X127993040Y-107496344D01*
X128088527Y-107330956D01*
X128147542Y-107149328D01*
X128156091Y-107067994D01*
X128165210Y-106981228D01*
X128192223Y-106915572D01*
X128250445Y-106874942D01*
X128290520Y-106868399D01*
X133312279Y-106868399D01*
X133380400Y-106888401D01*
X133401374Y-106905304D01*
X134343896Y-107847826D01*
X134377922Y-107910138D01*
X134380801Y-107936921D01*
X134380801Y-108967202D01*
X134360799Y-109035323D01*
X134307143Y-109081816D01*
X134236869Y-109091920D01*
X134172289Y-109062426D01*
X134146685Y-109031908D01*
X134071643Y-108906521D01*
X134071640Y-108906517D01*
X134069439Y-108902839D01*
X133889687Y-108678472D01*
X133704678Y-108502905D01*
X133684258Y-108483527D01*
X133684255Y-108483525D01*
X133681149Y-108480577D01*
X133447683Y-108312814D01*
X133429320Y-108303091D01*
X133343819Y-108257821D01*
X133193608Y-108178288D01*
X132923627Y-108079489D01*
X132642736Y-108018245D01*
X132611685Y-108015801D01*
X132419718Y-108000693D01*
X132419709Y-108000693D01*
X132417261Y-108000500D01*
X132261729Y-108000500D01*
X132259593Y-108000646D01*
X132259582Y-108000646D01*
X132051452Y-108014835D01*
X132051446Y-108014836D01*
X132047175Y-108015127D01*
X132042980Y-108015996D01*
X132042978Y-108015996D01*
X131906416Y-108044277D01*
X131765658Y-108073426D01*
X131494657Y-108169393D01*
X131239188Y-108301250D01*
X131235687Y-108303711D01*
X131235683Y-108303713D01*
X131225594Y-108310804D01*
X131003977Y-108466559D01*
X130988892Y-108480577D01*
X130830948Y-108627348D01*
X130793378Y-108662260D01*
X130611287Y-108884732D01*
X130461073Y-109129858D01*
X130345517Y-109393102D01*
X130344342Y-109397229D01*
X130344341Y-109397230D01*
X130340724Y-109409928D01*
X130266756Y-109669594D01*
X130226249Y-109954216D01*
X130226227Y-109958505D01*
X130226226Y-109958512D01*
X130224801Y-110230621D01*
X130224743Y-110241703D01*
X130225302Y-110245947D01*
X130225302Y-110245951D01*
X130241810Y-110371340D01*
X130262268Y-110526734D01*
X130338129Y-110804036D01*
X130450923Y-111068476D01*
X130598561Y-111315161D01*
X130778313Y-111539528D01*
X130839855Y-111597929D01*
X130970540Y-111721944D01*
X130986851Y-111737423D01*
X131220317Y-111905186D01*
X131224112Y-111907195D01*
X131224113Y-111907196D01*
X131245869Y-111918715D01*
X131474392Y-112039712D01*
X131744373Y-112138511D01*
X132025264Y-112199755D01*
X132053841Y-112202004D01*
X132248282Y-112217307D01*
X132248291Y-112217307D01*
X132250739Y-112217500D01*
X132406271Y-112217500D01*
X132408407Y-112217354D01*
X132408418Y-112217354D01*
X132616548Y-112203165D01*
X132616554Y-112203164D01*
X132620825Y-112202873D01*
X132625020Y-112202004D01*
X132625022Y-112202004D01*
X132768457Y-112172300D01*
X132902342Y-112144574D01*
X133173343Y-112048607D01*
X133428812Y-111916750D01*
X133432313Y-111914289D01*
X133432317Y-111914287D01*
X133546418Y-111834095D01*
X133664023Y-111751441D01*
X133780120Y-111643557D01*
X133871479Y-111558661D01*
X133871481Y-111558658D01*
X133874622Y-111555740D01*
X134056713Y-111333268D01*
X134147368Y-111185333D01*
X134200016Y-111137702D01*
X134270058Y-111126095D01*
X134335255Y-111154198D01*
X134374909Y-111213089D01*
X134380801Y-111251168D01*
X134380801Y-112046300D01*
X134360799Y-112114421D01*
X134307143Y-112160914D01*
X134254801Y-112172300D01*
X134194313Y-112172300D01*
X134187861Y-112173672D01*
X134187856Y-112173672D01*
X134100912Y-112192153D01*
X134007512Y-112212006D01*
X134001482Y-112214691D01*
X134001481Y-112214691D01*
X133839078Y-112286997D01*
X133839076Y-112286998D01*
X133833048Y-112289682D01*
X133678547Y-112401934D01*
X133550760Y-112543856D01*
X133455273Y-112709244D01*
X133396258Y-112890872D01*
X133395568Y-112897433D01*
X133395568Y-112897435D01*
X133378893Y-113056092D01*
X133351880Y-113121749D01*
X133342678Y-113132018D01*
X133160942Y-113313753D01*
X133152663Y-113321287D01*
X133146182Y-113325400D01*
X133125296Y-113347642D01*
X133099557Y-113375051D01*
X133096802Y-113377893D01*
X133077065Y-113397630D01*
X133074585Y-113400827D01*
X133066882Y-113409847D01*
X133036614Y-113442079D01*
X133032795Y-113449025D01*
X133032793Y-113449028D01*
X133026852Y-113459834D01*
X133016001Y-113476353D01*
X133003586Y-113492359D01*
X133000441Y-113499628D01*
X133000438Y-113499632D01*
X132986026Y-113532937D01*
X132980809Y-113543587D01*
X132959505Y-113582340D01*
X132957534Y-113590015D01*
X132957534Y-113590016D01*
X132954467Y-113601962D01*
X132948063Y-113620666D01*
X132940019Y-113639255D01*
X132938780Y-113647078D01*
X132938777Y-113647088D01*
X132933101Y-113682924D01*
X132930695Y-113694544D01*
X132919700Y-113737370D01*
X132919700Y-113757624D01*
X132918149Y-113777334D01*
X132914980Y-113797343D01*
X132915726Y-113805235D01*
X132919141Y-113841361D01*
X132919700Y-113853219D01*
X132919700Y-116980536D01*
X132899698Y-117048657D01*
X132846042Y-117095150D01*
X132775768Y-117105254D01*
X132711188Y-117075760D01*
X132673867Y-117019473D01*
X132637168Y-116906526D01*
X132635127Y-116900244D01*
X132539640Y-116734856D01*
X132411853Y-116592934D01*
X132257352Y-116480682D01*
X132251324Y-116477998D01*
X132251322Y-116477997D01*
X132088919Y-116405691D01*
X132088918Y-116405691D01*
X132082888Y-116403006D01*
X131989488Y-116383153D01*
X131902544Y-116364672D01*
X131902539Y-116364672D01*
X131896087Y-116363300D01*
X131705113Y-116363300D01*
X131698661Y-116364672D01*
X131698656Y-116364672D01*
X131611712Y-116383153D01*
X131518312Y-116403006D01*
X131512282Y-116405691D01*
X131512281Y-116405691D01*
X131349878Y-116477997D01*
X131349876Y-116477998D01*
X131343848Y-116480682D01*
X131189347Y-116592934D01*
X131061560Y-116734856D01*
X130966073Y-116900244D01*
X130907058Y-117081872D01*
X130906368Y-117088433D01*
X130906368Y-117088435D01*
X130887786Y-117265235D01*
X130887096Y-117271800D01*
X130887786Y-117278365D01*
X130905825Y-117449992D01*
X130907058Y-117461728D01*
X130966073Y-117643356D01*
X131061560Y-117808744D01*
X131189347Y-117950666D01*
X131343848Y-118062918D01*
X131349876Y-118065602D01*
X131349878Y-118065603D01*
X131512281Y-118137909D01*
X131518312Y-118140594D01*
X131611713Y-118160447D01*
X131698656Y-118178928D01*
X131698661Y-118178928D01*
X131705113Y-118180300D01*
X131896087Y-118180300D01*
X131902539Y-118178928D01*
X131902544Y-118178928D01*
X131989487Y-118160447D01*
X132082888Y-118140594D01*
X132088919Y-118137909D01*
X132251322Y-118065603D01*
X132251324Y-118065602D01*
X132257352Y-118062918D01*
X132411853Y-117950666D01*
X132539640Y-117808744D01*
X132635127Y-117643356D01*
X132673867Y-117524127D01*
X132713941Y-117465522D01*
X132779338Y-117437885D01*
X132849294Y-117449992D01*
X132901600Y-117497998D01*
X132919700Y-117563064D01*
X132919700Y-121795500D01*
X132899698Y-121863621D01*
X132846042Y-121910114D01*
X132793700Y-121921500D01*
X115294595Y-121921500D01*
X115226474Y-121901498D01*
X115205500Y-121884595D01*
X114877122Y-121556217D01*
X114843096Y-121493905D01*
X114840907Y-121480292D01*
X114824232Y-121321635D01*
X114824232Y-121321633D01*
X114823542Y-121315072D01*
X114764527Y-121133444D01*
X114669040Y-120968056D01*
X114541253Y-120826134D01*
X114386752Y-120713882D01*
X114380724Y-120711198D01*
X114380722Y-120711197D01*
X114218319Y-120638891D01*
X114218318Y-120638891D01*
X114212288Y-120636206D01*
X114118887Y-120616353D01*
X114031944Y-120597872D01*
X114031939Y-120597872D01*
X114025487Y-120596500D01*
X113834513Y-120596500D01*
X113828061Y-120597872D01*
X113828056Y-120597872D01*
X113741113Y-120616353D01*
X113647712Y-120636206D01*
X113641682Y-120638891D01*
X113641681Y-120638891D01*
X113479278Y-120711197D01*
X113479276Y-120711198D01*
X113473248Y-120713882D01*
X113318747Y-120826134D01*
X113190960Y-120968056D01*
X113095473Y-121133444D01*
X113036458Y-121315072D01*
X113016496Y-121505000D01*
X113036458Y-121694928D01*
X113095473Y-121876556D01*
X113190960Y-122041944D01*
X113318747Y-122183866D01*
X113473248Y-122296118D01*
X113479276Y-122298802D01*
X113479278Y-122298803D01*
X113641681Y-122371109D01*
X113647712Y-122373794D01*
X113741113Y-122393647D01*
X113828056Y-122412128D01*
X113828061Y-122412128D01*
X113834513Y-122413500D01*
X113890406Y-122413500D01*
X113958527Y-122433502D01*
X113979501Y-122450405D01*
X114476343Y-122947247D01*
X114483887Y-122955537D01*
X114488000Y-122962018D01*
X114493777Y-122967443D01*
X114537667Y-123008658D01*
X114540509Y-123011413D01*
X114560230Y-123031134D01*
X114563425Y-123033612D01*
X114572447Y-123041318D01*
X114604679Y-123071586D01*
X114611628Y-123075406D01*
X114622432Y-123081346D01*
X114638956Y-123092199D01*
X114654959Y-123104613D01*
X114695543Y-123122176D01*
X114706173Y-123127383D01*
X114744940Y-123148695D01*
X114752617Y-123150666D01*
X114752622Y-123150668D01*
X114764558Y-123153732D01*
X114783266Y-123160137D01*
X114801855Y-123168181D01*
X114809683Y-123169421D01*
X114809690Y-123169423D01*
X114845524Y-123175099D01*
X114857144Y-123177505D01*
X114892289Y-123186528D01*
X114899970Y-123188500D01*
X114920224Y-123188500D01*
X114939934Y-123190051D01*
X114959943Y-123193220D01*
X114967835Y-123192474D01*
X115003961Y-123189059D01*
X115015819Y-123188500D01*
X130556448Y-123188500D01*
X130624569Y-123208502D01*
X130671062Y-123262158D01*
X130681166Y-123332432D01*
X130651672Y-123397012D01*
X130630509Y-123416436D01*
X130478147Y-123527134D01*
X130473726Y-123532044D01*
X130473725Y-123532045D01*
X130439892Y-123569621D01*
X130350360Y-123669056D01*
X130254873Y-123834444D01*
X130195858Y-124016072D01*
X130175896Y-124206000D01*
X130195858Y-124395928D01*
X130254873Y-124577556D01*
X130350360Y-124742944D01*
X130354778Y-124747851D01*
X130354779Y-124747852D01*
X130436852Y-124839003D01*
X130478147Y-124884866D01*
X130632648Y-124997118D01*
X130638676Y-124999802D01*
X130638678Y-124999803D01*
X130801081Y-125072109D01*
X130807112Y-125074794D01*
X130900512Y-125094647D01*
X130987456Y-125113128D01*
X130987461Y-125113128D01*
X130993913Y-125114500D01*
X131184887Y-125114500D01*
X131191339Y-125113128D01*
X131191344Y-125113128D01*
X131278288Y-125094647D01*
X131371688Y-125074794D01*
X131377719Y-125072109D01*
X131540122Y-124999803D01*
X131540124Y-124999802D01*
X131546152Y-124997118D01*
X131700653Y-124884866D01*
X131705068Y-124879963D01*
X131709980Y-124875540D01*
X131711105Y-124876789D01*
X131764414Y-124843949D01*
X131797600Y-124839500D01*
X132814737Y-124839500D01*
X132825920Y-124840027D01*
X132833413Y-124841702D01*
X132841339Y-124841453D01*
X132841340Y-124841453D01*
X132901490Y-124839562D01*
X132905449Y-124839500D01*
X132933360Y-124839500D01*
X132937295Y-124839003D01*
X132937360Y-124838995D01*
X132949197Y-124838062D01*
X132981455Y-124837048D01*
X132985474Y-124836922D01*
X132993393Y-124836673D01*
X133012847Y-124831021D01*
X133032204Y-124827013D01*
X133044434Y-124825468D01*
X133044435Y-124825468D01*
X133052301Y-124824474D01*
X133059672Y-124821555D01*
X133059674Y-124821555D01*
X133093416Y-124808196D01*
X133104646Y-124804351D01*
X133139487Y-124794229D01*
X133139488Y-124794229D01*
X133147097Y-124792018D01*
X133153916Y-124787985D01*
X133153921Y-124787983D01*
X133164532Y-124781707D01*
X133182280Y-124773012D01*
X133201121Y-124765552D01*
X133236891Y-124739564D01*
X133246811Y-124733048D01*
X133278039Y-124714580D01*
X133278042Y-124714578D01*
X133284866Y-124710542D01*
X133299187Y-124696221D01*
X133314221Y-124683380D01*
X133324198Y-124676131D01*
X133330611Y-124671472D01*
X133358802Y-124637395D01*
X133366782Y-124628626D01*
X134165708Y-123829701D01*
X134228018Y-123795677D01*
X134298834Y-123800742D01*
X134355669Y-123843289D01*
X134380480Y-123909809D01*
X134380801Y-123918798D01*
X134380801Y-129726375D01*
X134360799Y-129794496D01*
X134307143Y-129840989D01*
X134236869Y-129851093D01*
X134180741Y-129828312D01*
X134180299Y-129827991D01*
X134153998Y-129808882D01*
X134147970Y-129806198D01*
X134147968Y-129806197D01*
X133985565Y-129733891D01*
X133985564Y-129733891D01*
X133979534Y-129731206D01*
X133886133Y-129711353D01*
X133799190Y-129692872D01*
X133799185Y-129692872D01*
X133792733Y-129691500D01*
X133601759Y-129691500D01*
X133595307Y-129692872D01*
X133595302Y-129692872D01*
X133508359Y-129711353D01*
X133414958Y-129731206D01*
X133408928Y-129733891D01*
X133408927Y-129733891D01*
X133246524Y-129806197D01*
X133246522Y-129806198D01*
X133240494Y-129808882D01*
X133235153Y-129812762D01*
X133235152Y-129812763D01*
X133094765Y-129914760D01*
X133027897Y-129938619D01*
X132983212Y-129932844D01*
X132979534Y-129931206D01*
X132973081Y-129929834D01*
X132973080Y-129929834D01*
X132799190Y-129892872D01*
X132799185Y-129892872D01*
X132792733Y-129891500D01*
X132601759Y-129891500D01*
X132595307Y-129892872D01*
X132595302Y-129892872D01*
X132462343Y-129921134D01*
X132414958Y-129931206D01*
X132408925Y-129933892D01*
X132408922Y-129933893D01*
X132382612Y-129945607D01*
X132331364Y-129956500D01*
X132063128Y-129956500D01*
X132011880Y-129945607D01*
X131985570Y-129933893D01*
X131985567Y-129933892D01*
X131979534Y-129931206D01*
X131932149Y-129921134D01*
X131799190Y-129892872D01*
X131799185Y-129892872D01*
X131792733Y-129891500D01*
X131601759Y-129891500D01*
X131595307Y-129892872D01*
X131595302Y-129892872D01*
X131462343Y-129921134D01*
X131414958Y-129931206D01*
X131408925Y-129933892D01*
X131408922Y-129933893D01*
X131382612Y-129945607D01*
X131331364Y-129956500D01*
X130963128Y-129956500D01*
X130911880Y-129945607D01*
X130885570Y-129933893D01*
X130885567Y-129933892D01*
X130879534Y-129931206D01*
X130832149Y-129921134D01*
X130699190Y-129892872D01*
X130699185Y-129892872D01*
X130692733Y-129891500D01*
X130501759Y-129891500D01*
X130495307Y-129892872D01*
X130495302Y-129892872D01*
X130362343Y-129921134D01*
X130314958Y-129931206D01*
X130308925Y-129933892D01*
X130308922Y-129933893D01*
X130282612Y-129945607D01*
X130231364Y-129956500D01*
X130160478Y-129956500D01*
X130092357Y-129936498D01*
X130086417Y-129932436D01*
X130059340Y-129912763D01*
X130059339Y-129912762D01*
X130053998Y-129908882D01*
X130047970Y-129906198D01*
X130047968Y-129906197D01*
X129885565Y-129833891D01*
X129885564Y-129833891D01*
X129879534Y-129831206D01*
X129786134Y-129811353D01*
X129699190Y-129792872D01*
X129699185Y-129792872D01*
X129692733Y-129791500D01*
X129501759Y-129791500D01*
X129495307Y-129792872D01*
X129495302Y-129792872D01*
X129408358Y-129811353D01*
X129314958Y-129831206D01*
X129308928Y-129833891D01*
X129308927Y-129833891D01*
X129146524Y-129906197D01*
X129146522Y-129906198D01*
X129140494Y-129908882D01*
X129135153Y-129912762D01*
X129135152Y-129912763D01*
X129108075Y-129932436D01*
X129041208Y-129956294D01*
X129034014Y-129956500D01*
X128052508Y-129956500D01*
X128049856Y-129956726D01*
X128049846Y-129956726D01*
X127989364Y-129961871D01*
X127965778Y-129963877D01*
X127963160Y-129964326D01*
X127963157Y-129964326D01*
X127926467Y-129970613D01*
X127926457Y-129970615D01*
X127923826Y-129971066D01*
X127871706Y-129984629D01*
X127800744Y-129982427D01*
X127742237Y-129942209D01*
X127733977Y-129930810D01*
X127676373Y-129841176D01*
X127676369Y-129841170D01*
X127673938Y-129837388D01*
X127668582Y-129831206D01*
X127630385Y-129787125D01*
X127627445Y-129783732D01*
X127618179Y-129775703D01*
X127523796Y-129693919D01*
X127523793Y-129693917D01*
X127516985Y-129688018D01*
X127384036Y-129627302D01*
X127360282Y-129620327D01*
X127320238Y-129608569D01*
X127320234Y-129608568D01*
X127315915Y-129607300D01*
X127311466Y-129606660D01*
X127311460Y-129606659D01*
X127175693Y-129587139D01*
X127175688Y-129587139D01*
X127171246Y-129586500D01*
X118345246Y-129586500D01*
X118341900Y-129586860D01*
X118341895Y-129586860D01*
X118239461Y-129597872D01*
X118239454Y-129597873D01*
X118236097Y-129598234D01*
X118232797Y-129598952D01*
X118232796Y-129598952D01*
X118187036Y-129608906D01*
X118187031Y-129608907D01*
X118183755Y-129609620D01*
X118180567Y-129610681D01*
X118177302Y-129611577D01*
X118176927Y-129610209D01*
X118111647Y-129612553D01*
X118050582Y-129576338D01*
X118018790Y-129512857D01*
X118016800Y-129492459D01*
X117990471Y-127832568D01*
X117990470Y-127832560D01*
X117990418Y-127829253D01*
X117977396Y-127722207D01*
X117965590Y-127670919D01*
X117930497Y-127568946D01*
X117850466Y-127446647D01*
X117803532Y-127393377D01*
X117692295Y-127298583D01*
X117558850Y-127238965D01*
X117554523Y-127237733D01*
X117554520Y-127237732D01*
X117494899Y-127220758D01*
X117494898Y-127220758D01*
X117490568Y-127219525D01*
X117486116Y-127218922D01*
X117486110Y-127218921D01*
X117350188Y-127200520D01*
X117350187Y-127200520D01*
X117345726Y-127199916D01*
X117341227Y-127199953D01*
X117341225Y-127199953D01*
X115418149Y-127215815D01*
X115349866Y-127196375D01*
X115334508Y-127184749D01*
X115331253Y-127181134D01*
X115310253Y-127165876D01*
X115182094Y-127072763D01*
X115182093Y-127072762D01*
X115176752Y-127068882D01*
X115170724Y-127066198D01*
X115170722Y-127066197D01*
X115008319Y-126993891D01*
X115008318Y-126993891D01*
X115002288Y-126991206D01*
X114908887Y-126971353D01*
X114821944Y-126952872D01*
X114821939Y-126952872D01*
X114815487Y-126951500D01*
X114624513Y-126951500D01*
X114618061Y-126952872D01*
X114618056Y-126952872D01*
X114531113Y-126971353D01*
X114437712Y-126991206D01*
X114431682Y-126993891D01*
X114431681Y-126993891D01*
X114269278Y-127066197D01*
X114269276Y-127066198D01*
X114263248Y-127068882D01*
X114241889Y-127084400D01*
X114175024Y-127108257D01*
X114116580Y-127097569D01*
X114102288Y-127091206D01*
X114008887Y-127071353D01*
X113921944Y-127052872D01*
X113921939Y-127052872D01*
X113915487Y-127051500D01*
X113724513Y-127051500D01*
X113718061Y-127052872D01*
X113718056Y-127052872D01*
X113631113Y-127071353D01*
X113537712Y-127091206D01*
X113421248Y-127143059D01*
X113350882Y-127152493D01*
X113318754Y-127143060D01*
X113202288Y-127091206D01*
X113108887Y-127071353D01*
X113021944Y-127052872D01*
X113021939Y-127052872D01*
X113015487Y-127051500D01*
X112824513Y-127051500D01*
X112818061Y-127052872D01*
X112818056Y-127052872D01*
X112731113Y-127071353D01*
X112637712Y-127091206D01*
X112561413Y-127125176D01*
X112491048Y-127134610D01*
X112436107Y-127112006D01*
X112376752Y-127068882D01*
X112370724Y-127066198D01*
X112370722Y-127066197D01*
X112208319Y-126993891D01*
X112208318Y-126993891D01*
X112202288Y-126991206D01*
X112108887Y-126971353D01*
X112021944Y-126952872D01*
X112021939Y-126952872D01*
X112015487Y-126951500D01*
X111824513Y-126951500D01*
X111818061Y-126952872D01*
X111818056Y-126952872D01*
X111731113Y-126971353D01*
X111637712Y-126991206D01*
X111631682Y-126993891D01*
X111631681Y-126993891D01*
X111469278Y-127066197D01*
X111469276Y-127066198D01*
X111463248Y-127068882D01*
X111457907Y-127072762D01*
X111457906Y-127072763D01*
X111348168Y-127152493D01*
X111308747Y-127181134D01*
X111304334Y-127186036D01*
X111304332Y-127186037D01*
X111283658Y-127208998D01*
X111223212Y-127246237D01*
X111191064Y-127250683D01*
X110871936Y-127253315D01*
X110868508Y-127253722D01*
X110868505Y-127253722D01*
X110831130Y-127258157D01*
X110760119Y-127266584D01*
X110756751Y-127267365D01*
X110753337Y-127267962D01*
X110753091Y-127266552D01*
X110687951Y-127262799D01*
X110630532Y-127221043D01*
X110610794Y-127183937D01*
X110595443Y-127137816D01*
X110592956Y-127130343D01*
X110513938Y-127007388D01*
X110499917Y-126991206D01*
X110470385Y-126957125D01*
X110467445Y-126953732D01*
X110458179Y-126945703D01*
X110363796Y-126863919D01*
X110363793Y-126863917D01*
X110356985Y-126858018D01*
X110224036Y-126797302D01*
X110200282Y-126790327D01*
X110160238Y-126778569D01*
X110160234Y-126778568D01*
X110155915Y-126777300D01*
X110151466Y-126776660D01*
X110151460Y-126776659D01*
X110015693Y-126757139D01*
X110015688Y-126757139D01*
X110011246Y-126756500D01*
X100964500Y-126756500D01*
X100896379Y-126736498D01*
X100849886Y-126682842D01*
X100838500Y-126630500D01*
X100838500Y-116255800D01*
X127559696Y-116255800D01*
X127560386Y-116262365D01*
X127575024Y-116401634D01*
X127579658Y-116445728D01*
X127638673Y-116627356D01*
X127734160Y-116792744D01*
X127861947Y-116934666D01*
X128016448Y-117046918D01*
X128022476Y-117049602D01*
X128022478Y-117049603D01*
X128094956Y-117081872D01*
X128190912Y-117124594D01*
X128284313Y-117144447D01*
X128371256Y-117162928D01*
X128371261Y-117162928D01*
X128377713Y-117164300D01*
X128568687Y-117164300D01*
X128575139Y-117162928D01*
X128575144Y-117162928D01*
X128662087Y-117144447D01*
X128755488Y-117124594D01*
X128851444Y-117081872D01*
X128923922Y-117049603D01*
X128923924Y-117049602D01*
X128929952Y-117046918D01*
X129084453Y-116934666D01*
X129212240Y-116792744D01*
X129307727Y-116627356D01*
X129366742Y-116445728D01*
X129371377Y-116401634D01*
X129386014Y-116262365D01*
X129386704Y-116255800D01*
X129366742Y-116065872D01*
X129307727Y-115884244D01*
X129212240Y-115718856D01*
X129084453Y-115576934D01*
X128929952Y-115464682D01*
X128923924Y-115461998D01*
X128923922Y-115461997D01*
X128761519Y-115389691D01*
X128761518Y-115389691D01*
X128755488Y-115387006D01*
X128662088Y-115367153D01*
X128575144Y-115348672D01*
X128575139Y-115348672D01*
X128568687Y-115347300D01*
X128377713Y-115347300D01*
X128371261Y-115348672D01*
X128371256Y-115348672D01*
X128284312Y-115367153D01*
X128190912Y-115387006D01*
X128184882Y-115389691D01*
X128184881Y-115389691D01*
X128022478Y-115461997D01*
X128022476Y-115461998D01*
X128016448Y-115464682D01*
X127861947Y-115576934D01*
X127734160Y-115718856D01*
X127638673Y-115884244D01*
X127579658Y-116065872D01*
X127559696Y-116255800D01*
X100838500Y-116255800D01*
X100838500Y-114972549D01*
X109333640Y-114972549D01*
X109334330Y-114979114D01*
X109346600Y-115095852D01*
X109353602Y-115162477D01*
X109412617Y-115344105D01*
X109508104Y-115509493D01*
X109635891Y-115651415D01*
X109790392Y-115763667D01*
X109796420Y-115766351D01*
X109796422Y-115766352D01*
X109958825Y-115838658D01*
X109964856Y-115841343D01*
X110058256Y-115861196D01*
X110145200Y-115879677D01*
X110145205Y-115879677D01*
X110151657Y-115881049D01*
X110342631Y-115881049D01*
X110349083Y-115879677D01*
X110349088Y-115879677D01*
X110436032Y-115861196D01*
X110529432Y-115841343D01*
X110535463Y-115838658D01*
X110697866Y-115766352D01*
X110697868Y-115766351D01*
X110703896Y-115763667D01*
X110858397Y-115651415D01*
X110986184Y-115509493D01*
X111081671Y-115344105D01*
X111140686Y-115162477D01*
X111147689Y-115095852D01*
X111159958Y-114979114D01*
X111160648Y-114972549D01*
X111140686Y-114782621D01*
X111081671Y-114600993D01*
X111054540Y-114554000D01*
X130252096Y-114554000D01*
X130272058Y-114743928D01*
X130331073Y-114925556D01*
X130426560Y-115090944D01*
X130430978Y-115095851D01*
X130430979Y-115095852D01*
X130496621Y-115168755D01*
X130554347Y-115232866D01*
X130708848Y-115345118D01*
X130714876Y-115347802D01*
X130714878Y-115347803D01*
X130802930Y-115387006D01*
X130883312Y-115422794D01*
X130976712Y-115442647D01*
X131063656Y-115461128D01*
X131063661Y-115461128D01*
X131070113Y-115462500D01*
X131261087Y-115462500D01*
X131267539Y-115461128D01*
X131267544Y-115461128D01*
X131354488Y-115442647D01*
X131447888Y-115422794D01*
X131528270Y-115387006D01*
X131616322Y-115347803D01*
X131616324Y-115347802D01*
X131622352Y-115345118D01*
X131776853Y-115232866D01*
X131834579Y-115168755D01*
X131900221Y-115095852D01*
X131900222Y-115095851D01*
X131904640Y-115090944D01*
X132000127Y-114925556D01*
X132059142Y-114743928D01*
X132079104Y-114554000D01*
X132066660Y-114435605D01*
X132059832Y-114370635D01*
X132059832Y-114370633D01*
X132059142Y-114364072D01*
X132000127Y-114182444D01*
X131904640Y-114017056D01*
X131876819Y-113986157D01*
X131781275Y-113880045D01*
X131781274Y-113880044D01*
X131776853Y-113875134D01*
X131622352Y-113762882D01*
X131616324Y-113760198D01*
X131616322Y-113760197D01*
X131453919Y-113687891D01*
X131453918Y-113687891D01*
X131447888Y-113685206D01*
X131354488Y-113665353D01*
X131267544Y-113646872D01*
X131267539Y-113646872D01*
X131261087Y-113645500D01*
X131070113Y-113645500D01*
X131063661Y-113646872D01*
X131063656Y-113646872D01*
X130976712Y-113665353D01*
X130883312Y-113685206D01*
X130877282Y-113687891D01*
X130877281Y-113687891D01*
X130714878Y-113760197D01*
X130714876Y-113760198D01*
X130708848Y-113762882D01*
X130554347Y-113875134D01*
X130549926Y-113880044D01*
X130549925Y-113880045D01*
X130454382Y-113986157D01*
X130426560Y-114017056D01*
X130331073Y-114182444D01*
X130272058Y-114364072D01*
X130271368Y-114370633D01*
X130271368Y-114370635D01*
X130264540Y-114435605D01*
X130252096Y-114554000D01*
X111054540Y-114554000D01*
X110986184Y-114435605D01*
X110966744Y-114414014D01*
X110862819Y-114298594D01*
X110862818Y-114298593D01*
X110858397Y-114293683D01*
X110703896Y-114181431D01*
X110697868Y-114178747D01*
X110697866Y-114178746D01*
X110535463Y-114106440D01*
X110535462Y-114106440D01*
X110529432Y-114103755D01*
X110436031Y-114083902D01*
X110349088Y-114065421D01*
X110349083Y-114065421D01*
X110342631Y-114064049D01*
X110151657Y-114064049D01*
X110145205Y-114065421D01*
X110145200Y-114065421D01*
X110058257Y-114083902D01*
X109964856Y-114103755D01*
X109958826Y-114106440D01*
X109958825Y-114106440D01*
X109796422Y-114178746D01*
X109796420Y-114178747D01*
X109790392Y-114181431D01*
X109635891Y-114293683D01*
X109631470Y-114298593D01*
X109631469Y-114298594D01*
X109527545Y-114414014D01*
X109508104Y-114435605D01*
X109412617Y-114600993D01*
X109353602Y-114782621D01*
X109333640Y-114972549D01*
X100838500Y-114972549D01*
X100838500Y-113789951D01*
X105270089Y-113789951D01*
X105290051Y-113979879D01*
X105349066Y-114161507D01*
X105444553Y-114326895D01*
X105448971Y-114331802D01*
X105448972Y-114331803D01*
X105519342Y-114409957D01*
X105572340Y-114468817D01*
X105726841Y-114581069D01*
X105732869Y-114583753D01*
X105732871Y-114583754D01*
X105895274Y-114656060D01*
X105901305Y-114658745D01*
X105994705Y-114678598D01*
X106081649Y-114697079D01*
X106081654Y-114697079D01*
X106088106Y-114698451D01*
X106279080Y-114698451D01*
X106285532Y-114697079D01*
X106285537Y-114697079D01*
X106372481Y-114678598D01*
X106465881Y-114658745D01*
X106471912Y-114656060D01*
X106634315Y-114583754D01*
X106634317Y-114583753D01*
X106640345Y-114581069D01*
X106794846Y-114468817D01*
X106847844Y-114409957D01*
X106918214Y-114331803D01*
X106918215Y-114331802D01*
X106922633Y-114326895D01*
X107018120Y-114161507D01*
X107077135Y-113979879D01*
X107097097Y-113789951D01*
X107090503Y-113727213D01*
X107077825Y-113606586D01*
X107077825Y-113606584D01*
X107077135Y-113600023D01*
X107058882Y-113543848D01*
X123115784Y-113543848D01*
X123116474Y-113550413D01*
X123131623Y-113694544D01*
X123135746Y-113733776D01*
X123194761Y-113915404D01*
X123290248Y-114080792D01*
X123294666Y-114085699D01*
X123294667Y-114085700D01*
X123357265Y-114155222D01*
X123418035Y-114222714D01*
X123572536Y-114334966D01*
X123578564Y-114337650D01*
X123578566Y-114337651D01*
X123637909Y-114364072D01*
X123747000Y-114412642D01*
X123831942Y-114430697D01*
X123927344Y-114450976D01*
X123927349Y-114450976D01*
X123933801Y-114452348D01*
X124124775Y-114452348D01*
X124131227Y-114450976D01*
X124131232Y-114450976D01*
X124226634Y-114430697D01*
X124311576Y-114412642D01*
X124420667Y-114364072D01*
X124480010Y-114337651D01*
X124480012Y-114337650D01*
X124486040Y-114334966D01*
X124640541Y-114222714D01*
X124701311Y-114155222D01*
X124763909Y-114085700D01*
X124763910Y-114085699D01*
X124768328Y-114080792D01*
X124863815Y-113915404D01*
X124922830Y-113733776D01*
X124926954Y-113694544D01*
X124942102Y-113550413D01*
X124942792Y-113543848D01*
X124935698Y-113476353D01*
X124923520Y-113360483D01*
X124923520Y-113360481D01*
X124922830Y-113353920D01*
X124863815Y-113172292D01*
X124768328Y-113006904D01*
X124663853Y-112890872D01*
X124644963Y-112869893D01*
X124644962Y-112869892D01*
X124640541Y-112864982D01*
X124486040Y-112752730D01*
X124480012Y-112750046D01*
X124480010Y-112750045D01*
X124317607Y-112677739D01*
X124317606Y-112677739D01*
X124311576Y-112675054D01*
X124218176Y-112655201D01*
X124131232Y-112636720D01*
X124131227Y-112636720D01*
X124124775Y-112635348D01*
X123933801Y-112635348D01*
X123927349Y-112636720D01*
X123927344Y-112636720D01*
X123840400Y-112655201D01*
X123747000Y-112675054D01*
X123740970Y-112677739D01*
X123740969Y-112677739D01*
X123578566Y-112750045D01*
X123578564Y-112750046D01*
X123572536Y-112752730D01*
X123418035Y-112864982D01*
X123413614Y-112869892D01*
X123413613Y-112869893D01*
X123394724Y-112890872D01*
X123290248Y-113006904D01*
X123194761Y-113172292D01*
X123135746Y-113353920D01*
X123135056Y-113360481D01*
X123135056Y-113360483D01*
X123122878Y-113476353D01*
X123115784Y-113543848D01*
X107058882Y-113543848D01*
X107018120Y-113418395D01*
X107007973Y-113400819D01*
X106925934Y-113258725D01*
X106922633Y-113253007D01*
X106794846Y-113111085D01*
X106640345Y-112998833D01*
X106634317Y-112996149D01*
X106634315Y-112996148D01*
X106471912Y-112923842D01*
X106471911Y-112923842D01*
X106465881Y-112921157D01*
X106372481Y-112901304D01*
X106285537Y-112882823D01*
X106285532Y-112882823D01*
X106279080Y-112881451D01*
X106088106Y-112881451D01*
X106081654Y-112882823D01*
X106081649Y-112882823D01*
X105994705Y-112901304D01*
X105901305Y-112921157D01*
X105895275Y-112923842D01*
X105895274Y-112923842D01*
X105732871Y-112996148D01*
X105732869Y-112996149D01*
X105726841Y-112998833D01*
X105572340Y-113111085D01*
X105444553Y-113253007D01*
X105441252Y-113258725D01*
X105359214Y-113400819D01*
X105349066Y-113418395D01*
X105290051Y-113600023D01*
X105289361Y-113606584D01*
X105289361Y-113606586D01*
X105276683Y-113727213D01*
X105270089Y-113789951D01*
X100838500Y-113789951D01*
X100838500Y-110241703D01*
X101776743Y-110241703D01*
X101777302Y-110245947D01*
X101777302Y-110245951D01*
X101793810Y-110371340D01*
X101814268Y-110526734D01*
X101890129Y-110804036D01*
X102002923Y-111068476D01*
X102150561Y-111315161D01*
X102330313Y-111539528D01*
X102391855Y-111597929D01*
X102522540Y-111721944D01*
X102538851Y-111737423D01*
X102772317Y-111905186D01*
X102776112Y-111907195D01*
X102776113Y-111907196D01*
X102797869Y-111918715D01*
X103026392Y-112039712D01*
X103296373Y-112138511D01*
X103577264Y-112199755D01*
X103605841Y-112202004D01*
X103800282Y-112217307D01*
X103800291Y-112217307D01*
X103802739Y-112217500D01*
X103958271Y-112217500D01*
X103960407Y-112217354D01*
X103960418Y-112217354D01*
X104168548Y-112203165D01*
X104168554Y-112203164D01*
X104172825Y-112202873D01*
X104177020Y-112202004D01*
X104177022Y-112202004D01*
X104320457Y-112172300D01*
X104454342Y-112144574D01*
X104725343Y-112048607D01*
X104980812Y-111916750D01*
X104984313Y-111914289D01*
X104984317Y-111914287D01*
X105098417Y-111834096D01*
X105216023Y-111751441D01*
X105332120Y-111643557D01*
X105423479Y-111558661D01*
X105423481Y-111558658D01*
X105426622Y-111555740D01*
X105608713Y-111333268D01*
X105758927Y-111088142D01*
X105874483Y-110824898D01*
X105877407Y-110814635D01*
X105952068Y-110552534D01*
X105953244Y-110548406D01*
X105993751Y-110263784D01*
X105993845Y-110245951D01*
X105995235Y-109980583D01*
X105995235Y-109980576D01*
X105995257Y-109976297D01*
X105984417Y-109893955D01*
X105967025Y-109761852D01*
X105957732Y-109691266D01*
X105952271Y-109671302D01*
X105932020Y-109597279D01*
X105881871Y-109413964D01*
X105833512Y-109300588D01*
X105770763Y-109153476D01*
X105770761Y-109153472D01*
X105769077Y-109149524D01*
X105663426Y-108972994D01*
X105623643Y-108906521D01*
X105623640Y-108906517D01*
X105621439Y-108902839D01*
X105441687Y-108678472D01*
X105256678Y-108502905D01*
X105236258Y-108483527D01*
X105236255Y-108483525D01*
X105233149Y-108480577D01*
X104999683Y-108312814D01*
X104981320Y-108303091D01*
X104895819Y-108257821D01*
X104745608Y-108178288D01*
X104475627Y-108079489D01*
X104194736Y-108018245D01*
X104163685Y-108015801D01*
X103971718Y-108000693D01*
X103971709Y-108000693D01*
X103969261Y-108000500D01*
X103813729Y-108000500D01*
X103811593Y-108000646D01*
X103811582Y-108000646D01*
X103603452Y-108014835D01*
X103603446Y-108014836D01*
X103599175Y-108015127D01*
X103594980Y-108015996D01*
X103594978Y-108015996D01*
X103458416Y-108044277D01*
X103317658Y-108073426D01*
X103046657Y-108169393D01*
X102791188Y-108301250D01*
X102787687Y-108303711D01*
X102787683Y-108303713D01*
X102777594Y-108310804D01*
X102555977Y-108466559D01*
X102540892Y-108480577D01*
X102382948Y-108627348D01*
X102345378Y-108662260D01*
X102163287Y-108884732D01*
X102013073Y-109129858D01*
X101897517Y-109393102D01*
X101896342Y-109397229D01*
X101896341Y-109397230D01*
X101892724Y-109409928D01*
X101818756Y-109669594D01*
X101778249Y-109954216D01*
X101778227Y-109958505D01*
X101778226Y-109958512D01*
X101776801Y-110230621D01*
X101776743Y-110241703D01*
X100838500Y-110241703D01*
X100838500Y-104139500D01*
X100858502Y-104071379D01*
X100912158Y-104024886D01*
X100964500Y-104013500D01*
X102895471Y-104013500D01*
X102963592Y-104033502D01*
G37*
%TD.AperFunction*%
%TD*%
M02*
