M48
; DRILL file {KiCad (6.0.4-0)} date Saturday, 06 August 2022 at 12:57:23
; FORMAT={-:-/ absolute / inch / decimal}
; #@! TF.CreationDate,2022-08-06T12:57:23-04:00
; #@! TF.GenerationSoftware,Kicad,Pcbnew,(6.0.4-0)
; #@! TF.FileFunction,Plated,1,4,PTH
FMAT,2
INCH
; #@! TA.AperFunction,Plated,PTH,ComponentDrill
T1C0.0079
; #@! TA.AperFunction,Plated,PTH,ViaDrill
T2C0.0157
; #@! TA.AperFunction,Plated,PTH,ComponentDrill
T3C0.0394
%
G90
G05
T1
X4.5412Y-4.4144
X4.5412Y-4.4587
X4.5412Y-4.503
X4.5412Y-4.5472
X4.5412Y-4.5915
X4.5855Y-4.4144
X4.5855Y-4.4587
X4.5855Y-4.503
X4.5855Y-4.5472
X4.5855Y-4.5915
X4.6298Y-4.4144
X4.6298Y-4.4587
X4.6298Y-4.503
X4.6298Y-4.5472
X4.6298Y-4.5915
X4.6741Y-4.4144
X4.6741Y-4.4587
X4.6741Y-4.503
X4.6741Y-4.5472
X4.6741Y-4.5915
X4.7184Y-4.4144
X4.7184Y-4.4587
X4.7184Y-4.503
X4.7184Y-4.5472
X4.7184Y-4.5915
T2
X3.995Y-5.545
X4.0214Y-5.1594
X4.05Y-4.715
X4.05Y-5.35
X4.075Y-5.58
X4.09Y-4.795
X4.1114Y-4.8978
X4.14Y-4.715
X4.1465Y-5.0339
X4.1661Y-5.0693
X4.174Y-5.3409
X4.18Y-4.795
X4.1805Y-4.4799
X4.1819Y-5.0339
X4.1937Y-5.3055
X4.2016Y-5.0693
X4.2134Y-5.3409
X4.2173Y-5.0339
X4.225Y-5.575
X4.2331Y-5.3055
X4.237Y-5.0693
X4.249Y-4.37
X4.25Y-4.715
X4.2528Y-5.0339
X4.2528Y-5.3409
X4.255Y-5.51
X4.26Y-4.428
X4.2724Y-5.0693
X4.2724Y-5.3055
X4.28Y-4.795
X4.288Y-4.277
X4.2921Y-5.3409
X4.2961Y-5.0339
X4.3118Y-5.3016
X4.315Y-5.57
X4.327Y-4.5635
X4.3404Y-4.5265
X4.35Y-4.705
X4.36Y-4.223
X4.4063Y-5.0339
X4.422Y-5.0693
X4.4339Y-5.2898
X4.441Y-4.298
X4.4457Y-5.0378
X4.4535Y-5.3213
X4.46Y-4.695
X4.4614Y-5.0693
X4.4732Y-5.2898
X4.48Y-5.54
X4.4811Y-5.0378
X4.485Y-4.3
X4.4854Y-4.7837
X4.4929Y-5.3213
X4.5008Y-5.0693
X4.5126Y-5.2898
X4.5165Y-5.0339
X4.5323Y-5.3252
X4.5362Y-5.0693
X4.552Y-5.2898
X4.555Y-4.17
X4.565Y-5.515
X4.5677Y-5.1913
X4.5756Y-5.2543
X4.61Y-5.58
X4.632Y-4.2421
X4.6438Y-4.1709
X4.675Y-5.475
X4.69Y-5.585
X4.7252Y-5.4079
X4.731Y-4.188
X4.7724Y-5.4236
X4.79Y-4.7865
X4.7935Y-4.3944
X4.8157Y-5.4236
X4.8157Y-5.4591
X4.818Y-4.871
X4.82Y-4.945
X4.8315Y-5.148
X4.8551Y-5.1795
X4.863Y-5.4236
X4.863Y-5.4591
X4.8827Y-5.148
X4.883Y-4.4702
X4.8846Y-4.3029
X4.886Y-4.177
X4.89Y-4.785
X4.89Y-5.6
X4.9063Y-5.1835
X4.9063Y-5.4236
X4.9063Y-5.4591
X4.911Y-4.5659
X4.926Y-5.148
X4.9457Y-5.1835
X4.9457Y-5.4236
X4.9457Y-5.4591
X4.95Y-4.865
X4.9654Y-5.148
X4.9811Y-5.1835
X4.985Y-5.4236
X4.985Y-5.4591
X4.99Y-4.785
X5.005Y-5.6
X5.01Y-4.211
X5.0183Y-4.643
X5.058Y-4.577
X5.09Y-4.785
X5.0944Y-5.4016
X5.097Y-4.512
X5.1023Y-5.1457
X5.1023Y-5.185
X5.1337Y-5.4331
X5.1416Y-5.1496
X5.1416Y-5.185
X5.1574Y-5.4016
X5.161Y-4.89
X5.164Y-4.51
X5.181Y-5.185
X5.181Y-5.4331
X5.1849Y-5.1496
X5.189Y-4.617
X5.2086Y-5.4016
X5.215Y-5.6
X5.2164Y-5.185
X5.2224Y-4.9756
X5.2243Y-5.1496
X5.26Y-5.565
X5.2637Y-5.1417
X5.276Y-5.215
X5.287Y-4.452
X5.287Y-4.493
T3
X4.0Y-4.125
X4.0004Y-5.675
X4.1Y-4.125
X4.1004Y-5.675
X4.2Y-4.125
X4.2004Y-5.675
X4.3Y-4.125
X4.3004Y-5.675
X4.4Y-4.125
X4.4004Y-5.675
X4.5Y-4.125
X4.5004Y-5.675
X4.6Y-4.125
X4.6004Y-5.675
X4.7Y-4.125
X4.7004Y-5.675
X4.8Y-4.125
X4.8004Y-5.675
X4.9Y-4.125
X4.9004Y-5.675
X5.0Y-4.125
X5.0004Y-5.675
X5.1Y-4.125
X5.1004Y-5.675
X5.2Y-4.125
X5.2004Y-5.675
X5.3Y-4.125
X5.3004Y-5.675
T0
M30
